<svg width="400" height="200" viewBox="0 0 400 200" fill="none" xmlns="http://www.w3.org/2000/svg">
    <rect width="400" height="200" fill="white" />
    <path
        d="M10 167V116.5L39.5 109L69.5 113L98 109L127 116.5L156.5 112.5H186L215 79L274 68L303 77.5L332 60.5L362 55L390.5 62.5V167H10Z"
        fill="#39A5B3" />
    <path d="M196 76L196 166.5" stroke="#F9D35D" stroke-linecap="round" />
    <circle cx="196" cy="73" r="4" fill="#F9D35D" />
    <path d="M115 112L115 166.5" stroke="#C8543C" stroke-linecap="round" />
    <path d="M260 112L260 166.5" stroke="#C8543C" stroke-linecap="round" />
    <path
        d="M91.3121 178L93.0161 172.768H94.1041L95.8081 178H94.8321L94.0321 175.216C93.9468 174.939 93.8641 174.653 93.7841 174.36C93.7095 174.067 93.6348 173.776 93.5601 173.488H93.5281C93.4588 173.781 93.3841 174.075 93.3041 174.368C93.2295 174.656 93.1495 174.939 93.0641 175.216L92.2561 178H91.3121ZM92.3201 176.584V175.856H94.7841V176.584H92.3201ZM97.1593 178L95.7913 174.072H96.7273L97.3513 176.112C97.4046 176.299 97.458 176.493 97.5113 176.696C97.57 176.893 97.626 177.093 97.6793 177.296H97.7113C97.77 177.093 97.826 176.893 97.8793 176.696C97.938 176.493 97.994 176.299 98.0473 176.112L98.6713 174.072H99.5593L98.2233 178H97.1593ZM101.036 178.096C100.807 178.096 100.604 178.048 100.428 177.952C100.252 177.856 100.113 177.723 100.012 177.552C99.916 177.376 99.868 177.173 99.868 176.944C99.868 176.501 100.052 176.168 100.42 175.944C100.793 175.715 101.383 175.557 102.188 175.472C102.183 175.339 102.156 175.216 102.108 175.104C102.065 174.992 101.991 174.904 101.884 174.84C101.783 174.771 101.644 174.736 101.468 174.736C101.276 174.736 101.087 174.771 100.9 174.84C100.719 174.909 100.54 174.997 100.364 175.104L100.028 174.48C100.172 174.389 100.329 174.307 100.5 174.232C100.671 174.152 100.852 174.091 101.044 174.048C101.236 174 101.436 173.976 101.644 173.976C101.969 173.976 102.239 174.043 102.452 174.176C102.671 174.304 102.833 174.496 102.94 174.752C103.052 175.003 103.108 175.312 103.108 175.68V178H102.348L102.284 177.568H102.252C102.071 177.717 101.881 177.843 101.684 177.944C101.487 178.045 101.271 178.096 101.036 178.096ZM101.324 177.344C101.484 177.344 101.631 177.312 101.764 177.248C101.903 177.179 102.044 177.077 102.188 176.944V176.112C101.831 176.155 101.548 176.211 101.34 176.28C101.132 176.349 100.983 176.435 100.892 176.536C100.807 176.632 100.764 176.747 100.764 176.88C100.764 177.045 100.817 177.165 100.924 177.24C101.031 177.309 101.164 177.344 101.324 177.344ZM104.209 178V174.072H104.969L105.033 174.6H105.065C105.241 174.429 105.433 174.283 105.641 174.16C105.849 174.037 106.086 173.976 106.353 173.976C106.774 173.976 107.081 174.112 107.273 174.384C107.465 174.656 107.561 175.04 107.561 175.536V178H106.641V175.656C106.641 175.331 106.593 175.101 106.497 174.968C106.401 174.835 106.244 174.768 106.025 174.768C105.854 174.768 105.702 174.811 105.569 174.896C105.441 174.976 105.294 175.096 105.129 175.256V178H104.209ZM110.07 178.08C109.616 178.08 109.294 177.949 109.102 177.688C108.915 177.421 108.822 177.077 108.822 176.656V174.8H108.262V174.112L108.87 174.072L108.982 172.84H109.75V174.072H110.75V174.8H109.75V176.656C109.75 176.885 109.795 177.059 109.886 177.176C109.976 177.288 110.115 177.344 110.302 177.344C110.371 177.344 110.44 177.339 110.51 177.328C110.579 177.317 110.646 177.296 110.71 177.264L110.878 177.912C110.776 177.96 110.656 178 110.518 178.032C110.379 178.064 110.23 178.08 110.07 178.08ZM113.178 178V174.072H113.938L114.002 174.768H114.034C114.172 174.512 114.338 174.317 114.53 174.184C114.727 174.045 114.932 173.976 115.146 173.976C115.247 173.976 115.332 173.981 115.402 173.992C115.471 174.003 115.535 174.024 115.594 174.056L115.41 174.84C115.346 174.824 115.287 174.813 115.234 174.808C115.18 174.797 115.111 174.792 115.026 174.792C114.871 174.792 114.708 174.853 114.538 174.976C114.367 175.093 114.22 175.301 114.098 175.6V178H113.178ZM117.772 178.096C117.404 178.096 117.071 178.016 116.772 177.856C116.479 177.691 116.247 177.456 116.076 177.152C115.905 176.843 115.82 176.469 115.82 176.032C115.82 175.605 115.908 175.24 116.084 174.936C116.26 174.627 116.487 174.389 116.764 174.224C117.041 174.059 117.335 173.976 117.644 173.976C118.001 173.976 118.3 174.056 118.54 174.216C118.78 174.376 118.959 174.597 119.076 174.88C119.199 175.157 119.26 175.477 119.26 175.84C119.26 175.925 119.255 176.008 119.244 176.088C119.239 176.168 119.228 176.245 119.212 176.32H116.508V175.616H118.444C118.444 175.333 118.38 175.112 118.252 174.952C118.124 174.787 117.927 174.704 117.66 174.704C117.511 174.704 117.364 174.744 117.22 174.824C117.081 174.904 116.964 175.04 116.868 175.232C116.777 175.424 116.732 175.691 116.732 176.032C116.732 176.341 116.785 176.595 116.892 176.792C116.999 176.984 117.14 177.128 117.316 177.224C117.492 177.315 117.681 177.36 117.884 177.36C118.055 177.36 118.215 177.336 118.364 177.288C118.519 177.24 118.663 177.173 118.796 177.088L119.116 177.68C118.935 177.808 118.727 177.909 118.492 177.984C118.263 178.059 118.023 178.096 117.772 178.096ZM120.267 178V173.664C120.267 173.392 120.31 173.149 120.395 172.936C120.486 172.723 120.627 172.557 120.819 172.44C121.011 172.317 121.262 172.256 121.571 172.256C121.715 172.256 121.849 172.269 121.971 172.296C122.099 172.323 122.206 172.355 122.291 172.392L122.099 173.056C121.961 173.008 121.822 172.984 121.683 172.984C121.523 172.984 121.401 173.037 121.315 173.144C121.23 173.251 121.187 173.419 121.187 173.648V178H120.267ZM119.683 174.8V174.112L120.323 174.072H121.955V174.8H119.683ZM124.176 178.096C123.851 178.096 123.547 178.016 123.264 177.856C122.982 177.691 122.752 177.456 122.576 177.152C122.4 176.843 122.312 176.472 122.312 176.04C122.312 175.603 122.4 175.232 122.576 174.928C122.752 174.619 122.982 174.384 123.264 174.224C123.547 174.059 123.851 173.976 124.176 173.976C124.507 173.976 124.814 174.059 125.096 174.224C125.379 174.384 125.608 174.619 125.784 174.928C125.96 175.232 126.048 175.603 126.048 176.04C126.048 176.472 125.96 176.843 125.784 177.152C125.608 177.456 125.379 177.691 125.096 177.856C124.814 178.016 124.507 178.096 124.176 178.096ZM124.176 177.344C124.368 177.344 124.534 177.291 124.672 177.184C124.811 177.077 124.918 176.925 124.992 176.728C125.067 176.531 125.104 176.301 125.104 176.04C125.104 175.779 125.067 175.549 124.992 175.352C124.918 175.155 124.811 175.003 124.672 174.896C124.534 174.784 124.368 174.728 124.176 174.728C123.984 174.728 123.819 174.784 123.68 174.896C123.547 175.003 123.443 175.155 123.368 175.352C123.294 175.549 123.256 175.779 123.256 176.04C123.256 176.301 123.294 176.531 123.368 176.728C123.443 176.925 123.547 177.077 123.68 177.184C123.819 177.291 123.984 177.344 124.176 177.344ZM126.959 178V174.072H127.719L127.783 174.6H127.815C127.991 174.429 128.183 174.283 128.391 174.16C128.599 174.037 128.836 173.976 129.103 173.976C129.524 173.976 129.831 174.112 130.023 174.384C130.215 174.656 130.311 175.04 130.311 175.536V178H129.391V175.656C129.391 175.331 129.343 175.101 129.247 174.968C129.151 174.835 128.994 174.768 128.775 174.768C128.604 174.768 128.452 174.811 128.319 174.896C128.191 174.976 128.044 175.096 127.879 175.256V178H126.959ZM132.82 178.08C132.366 178.08 132.044 177.949 131.852 177.688C131.665 177.421 131.572 177.077 131.572 176.656V174.8H131.012V174.112L131.62 174.072L131.732 172.84H132.5V174.072H133.5V174.8H132.5V176.656C132.5 176.885 132.545 177.059 132.636 177.176C132.726 177.288 132.865 177.344 133.052 177.344C133.121 177.344 133.19 177.339 133.26 177.328C133.329 177.317 133.396 177.296 133.46 177.264L133.628 177.912C133.526 177.96 133.406 178 133.268 178.032C133.129 178.064 132.98 178.08 132.82 178.08ZM135.889 178.096C135.521 178.096 135.188 178.016 134.889 177.856C134.596 177.691 134.364 177.456 134.193 177.152C134.023 176.843 133.937 176.469 133.937 176.032C133.937 175.605 134.025 175.24 134.201 174.936C134.377 174.627 134.604 174.389 134.881 174.224C135.159 174.059 135.452 173.976 135.761 173.976C136.119 173.976 136.417 174.056 136.657 174.216C136.897 174.376 137.076 174.597 137.193 174.88C137.316 175.157 137.377 175.477 137.377 175.84C137.377 175.925 137.372 176.008 137.361 176.088C137.356 176.168 137.345 176.245 137.329 176.32H134.625V175.616H136.561C136.561 175.333 136.497 175.112 136.369 174.952C136.241 174.787 136.044 174.704 135.777 174.704C135.628 174.704 135.481 174.744 135.337 174.824C135.199 174.904 135.081 175.04 134.985 175.232C134.895 175.424 134.849 175.691 134.849 176.032C134.849 176.341 134.903 176.595 135.009 176.792C135.116 176.984 135.257 177.128 135.433 177.224C135.609 177.315 135.799 177.36 136.001 177.36C136.172 177.36 136.332 177.336 136.481 177.288C136.636 177.24 136.78 177.173 136.913 177.088L137.233 177.68C137.052 177.808 136.844 177.909 136.609 177.984C136.38 178.059 136.14 178.096 135.889 178.096Z"
        fill="#1A1A1A" fill-opacity="0.8" />
    <path
        d="M236.453 178L238.157 172.768H239.245L240.949 178H239.973L239.173 175.216C239.087 174.939 239.005 174.653 238.925 174.36C238.85 174.067 238.775 173.776 238.701 173.488H238.669C238.599 173.781 238.525 174.075 238.445 174.368C238.37 174.656 238.29 174.939 238.205 175.216L237.397 178H236.453ZM237.461 176.584V175.856H239.925V176.584H237.461ZM241.514 179.552V174.072H242.274L242.338 174.488H242.37C242.535 174.344 242.719 174.224 242.922 174.128C243.124 174.027 243.335 173.976 243.554 173.976C243.879 173.976 244.156 174.059 244.386 174.224C244.615 174.389 244.791 174.621 244.914 174.92C245.036 175.219 245.098 175.571 245.098 175.976C245.098 176.424 245.018 176.805 244.858 177.12C244.698 177.435 244.49 177.677 244.234 177.848C243.983 178.013 243.711 178.096 243.418 178.096C243.247 178.096 243.076 178.059 242.906 177.984C242.735 177.909 242.57 177.803 242.41 177.664L242.434 178.32V179.552H241.514ZM243.226 177.336C243.402 177.336 243.559 177.285 243.698 177.184C243.836 177.083 243.946 176.933 244.026 176.736C244.106 176.533 244.146 176.283 244.146 175.984C244.146 175.723 244.116 175.499 244.058 175.312C243.999 175.125 243.906 174.984 243.778 174.888C243.655 174.787 243.495 174.736 243.298 174.736C243.154 174.736 243.012 174.773 242.874 174.848C242.735 174.917 242.588 175.027 242.434 175.176V177.008C242.578 177.125 242.716 177.211 242.85 177.264C242.988 177.312 243.114 177.336 243.226 177.336ZM246.029 178V174.072H246.789L246.853 174.768H246.885C247.024 174.512 247.189 174.317 247.381 174.184C247.579 174.045 247.784 173.976 247.997 173.976C248.099 173.976 248.184 173.981 248.253 173.992C248.323 174.003 248.387 174.024 248.445 174.056L248.261 174.84C248.197 174.824 248.139 174.813 248.085 174.808C248.032 174.797 247.963 174.792 247.877 174.792C247.723 174.792 247.56 174.853 247.389 174.976C247.219 175.093 247.072 175.301 246.949 175.6V178H246.029ZM250.624 178.096C250.256 178.096 249.922 178.016 249.624 177.856C249.33 177.691 249.098 177.456 248.928 177.152C248.757 176.843 248.672 176.469 248.672 176.032C248.672 175.605 248.76 175.24 248.936 174.936C249.112 174.627 249.338 174.389 249.616 174.224C249.893 174.059 250.186 173.976 250.496 173.976C250.853 173.976 251.152 174.056 251.392 174.216C251.632 174.376 251.81 174.597 251.928 174.88C252.05 175.157 252.112 175.477 252.112 175.84C252.112 175.925 252.106 176.008 252.096 176.088C252.09 176.168 252.08 176.245 252.064 176.32H249.36V175.616H251.296C251.296 175.333 251.232 175.112 251.104 174.952C250.976 174.787 250.778 174.704 250.512 174.704C250.362 174.704 250.216 174.744 250.072 174.824C249.933 174.904 249.816 175.04 249.72 175.232C249.629 175.424 249.584 175.691 249.584 176.032C249.584 176.341 249.637 176.595 249.744 176.792C249.85 176.984 249.992 177.128 250.168 177.224C250.344 177.315 250.533 177.36 250.736 177.36C250.906 177.36 251.066 177.336 251.216 177.288C251.37 177.24 251.514 177.173 251.648 177.088L251.968 177.68C251.786 177.808 251.578 177.909 251.344 177.984C251.114 178.059 250.874 178.096 250.624 178.096ZM250.416 173.44L249.12 172.144L249.176 172.048H250.16L251.136 173.44H250.416ZM254.086 178.096C253.814 178.096 253.545 178.045 253.278 177.944C253.017 177.843 252.79 177.701 252.598 177.52L253.006 176.992C253.182 177.136 253.361 177.24 253.542 177.304C253.724 177.368 253.916 177.4 254.118 177.4C254.332 177.4 254.489 177.355 254.59 177.264C254.692 177.173 254.742 177.061 254.742 176.928C254.742 176.821 254.702 176.731 254.622 176.656C254.548 176.581 254.449 176.517 254.326 176.464C254.204 176.411 254.068 176.357 253.918 176.304C253.726 176.235 253.548 176.152 253.382 176.056C253.217 175.955 253.081 175.832 252.974 175.688C252.873 175.539 252.822 175.36 252.822 175.152C252.822 174.805 252.95 174.523 253.206 174.304C253.462 174.085 253.809 173.976 254.246 173.976C254.513 173.976 254.758 174.021 254.982 174.112C255.206 174.197 255.398 174.309 255.558 174.448L255.15 174.968C255.012 174.867 254.87 174.792 254.726 174.744C254.582 174.696 254.43 174.672 254.27 174.672C254.073 174.672 253.926 174.715 253.83 174.8C253.734 174.885 253.686 174.987 253.686 175.104C253.686 175.2 253.716 175.283 253.774 175.352C253.838 175.416 253.929 175.475 254.046 175.528C254.164 175.576 254.305 175.627 254.47 175.68C254.673 175.749 254.862 175.835 255.038 175.936C255.214 176.032 255.353 176.157 255.454 176.312C255.561 176.461 255.614 176.651 255.614 176.88C255.614 177.104 255.556 177.309 255.438 177.496C255.321 177.677 255.148 177.824 254.918 177.936C254.694 178.043 254.417 178.096 254.086 178.096ZM258.037 178V174.072H258.797L258.861 174.768H258.893C259.032 174.512 259.197 174.317 259.389 174.184C259.586 174.045 259.792 173.976 260.005 173.976C260.106 173.976 260.192 173.981 260.261 173.992C260.33 174.003 260.394 174.024 260.453 174.056L260.269 174.84C260.205 174.824 260.146 174.813 260.093 174.808C260.04 174.797 259.97 174.792 259.885 174.792C259.73 174.792 259.568 174.853 259.397 174.976C259.226 175.093 259.08 175.301 258.957 175.6V178H258.037ZM262.631 178.096C262.263 178.096 261.93 178.016 261.631 177.856C261.338 177.691 261.106 177.456 260.935 177.152C260.765 176.843 260.679 176.469 260.679 176.032C260.679 175.605 260.767 175.24 260.943 174.936C261.119 174.627 261.346 174.389 261.623 174.224C261.901 174.059 262.194 173.976 262.503 173.976C262.861 173.976 263.159 174.056 263.399 174.216C263.639 174.376 263.818 174.597 263.935 174.88C264.058 175.157 264.119 175.477 264.119 175.84C264.119 175.925 264.114 176.008 264.103 176.088C264.098 176.168 264.087 176.245 264.071 176.32H261.367V175.616H263.303C263.303 175.333 263.239 175.112 263.111 174.952C262.983 174.787 262.786 174.704 262.519 174.704C262.37 174.704 262.223 174.744 262.079 174.824C261.941 174.904 261.823 175.04 261.727 175.232C261.637 175.424 261.591 175.691 261.591 176.032C261.591 176.341 261.645 176.595 261.751 176.792C261.858 176.984 261.999 177.128 262.175 177.224C262.351 177.315 262.541 177.36 262.743 177.36C262.914 177.36 263.074 177.336 263.223 177.288C263.378 177.24 263.522 177.173 263.655 177.088L263.975 177.68C263.794 177.808 263.586 177.909 263.351 177.984C263.122 178.059 262.882 178.096 262.631 178.096ZM265.127 178V173.664C265.127 173.392 265.169 173.149 265.255 172.936C265.345 172.723 265.487 172.557 265.679 172.44C265.871 172.317 266.121 172.256 266.431 172.256C266.575 172.256 266.708 172.269 266.831 172.296C266.959 172.323 267.065 172.355 267.151 172.392L266.959 173.056C266.82 173.008 266.681 172.984 266.543 172.984C266.383 172.984 266.26 173.037 266.175 173.144C266.089 173.251 266.047 173.419 266.047 173.648V178H265.127ZM264.543 174.8V174.112L265.183 174.072H266.815V174.8H264.543ZM269.036 178.096C268.71 178.096 268.406 178.016 268.124 177.856C267.841 177.691 267.612 177.456 267.436 177.152C267.26 176.843 267.172 176.472 267.172 176.04C267.172 175.603 267.26 175.232 267.436 174.928C267.612 174.619 267.841 174.384 268.124 174.224C268.406 174.059 268.71 173.976 269.036 173.976C269.366 173.976 269.673 174.059 269.956 174.224C270.238 174.384 270.468 174.619 270.644 174.928C270.82 175.232 270.908 175.603 270.908 176.04C270.908 176.472 270.82 176.843 270.644 177.152C270.468 177.456 270.238 177.691 269.956 177.856C269.673 178.016 269.366 178.096 269.036 178.096ZM269.036 177.344C269.228 177.344 269.393 177.291 269.532 177.184C269.67 177.077 269.777 176.925 269.852 176.728C269.926 176.531 269.964 176.301 269.964 176.04C269.964 175.779 269.926 175.549 269.852 175.352C269.777 175.155 269.67 175.003 269.532 174.896C269.393 174.784 269.228 174.728 269.036 174.728C268.844 174.728 268.678 174.784 268.54 174.896C268.406 175.003 268.302 175.155 268.228 175.352C268.153 175.549 268.116 175.779 268.116 176.04C268.116 176.301 268.153 176.531 268.228 176.728C268.302 176.925 268.406 177.077 268.54 177.184C268.678 177.291 268.844 177.344 269.036 177.344ZM271.818 178V174.072H272.578L272.642 174.6H272.674C272.85 174.429 273.042 174.283 273.25 174.16C273.458 174.037 273.696 173.976 273.962 173.976C274.384 173.976 274.69 174.112 274.882 174.384C275.074 174.656 275.17 175.04 275.17 175.536V178H274.25V175.656C274.25 175.331 274.202 175.101 274.106 174.968C274.01 174.835 273.853 174.768 273.634 174.768C273.464 174.768 273.312 174.811 273.178 174.896C273.05 174.976 272.904 175.096 272.738 175.256V178H271.818ZM277.679 178.08C277.226 178.08 276.903 177.949 276.711 177.688C276.524 177.421 276.431 177.077 276.431 176.656V174.8H275.871V174.112L276.479 174.072L276.591 172.84H277.359V174.072H278.359V174.8H277.359V176.656C277.359 176.885 277.404 177.059 277.495 177.176C277.586 177.288 277.724 177.344 277.911 177.344C277.98 177.344 278.05 177.339 278.119 177.328C278.188 177.317 278.255 177.296 278.319 177.264L278.487 177.912C278.386 177.96 278.266 178 278.127 178.032C277.988 178.064 277.839 178.08 277.679 178.08ZM280.749 178.096C280.381 178.096 280.047 178.016 279.749 177.856C279.455 177.691 279.223 177.456 279.053 177.152C278.882 176.843 278.797 176.469 278.797 176.032C278.797 175.605 278.885 175.24 279.061 174.936C279.237 174.627 279.463 174.389 279.741 174.224C280.018 174.059 280.311 173.976 280.621 173.976C280.978 173.976 281.277 174.056 281.517 174.216C281.757 174.376 281.935 174.597 282.053 174.88C282.175 175.157 282.237 175.477 282.237 175.84C282.237 175.925 282.231 176.008 282.221 176.088C282.215 176.168 282.205 176.245 282.189 176.32H279.485V175.616H281.421C281.421 175.333 281.357 175.112 281.229 174.952C281.101 174.787 280.903 174.704 280.637 174.704C280.487 174.704 280.341 174.744 280.197 174.824C280.058 174.904 279.941 175.04 279.845 175.232C279.754 175.424 279.709 175.691 279.709 176.032C279.709 176.341 279.762 176.595 279.869 176.792C279.975 176.984 280.117 177.128 280.293 177.224C280.469 177.315 280.658 177.36 280.861 177.36C281.031 177.36 281.191 177.336 281.341 177.288C281.495 177.24 281.639 177.173 281.773 177.088L282.093 177.68C281.911 177.808 281.703 177.909 281.469 177.984C281.239 178.059 280.999 178.096 280.749 178.096Z"
        fill="#1A1A1A" fill-opacity="0.8" />
    <path
        d="M155.464 40L157.168 34.768H158.256L159.96 40H158.984L158.184 37.216C158.099 36.9387 158.016 36.6533 157.936 36.36C157.862 36.0667 157.787 35.776 157.712 35.488H157.68C157.611 35.7813 157.536 36.0747 157.456 36.368C157.382 36.656 157.302 36.9387 157.216 37.216L156.408 40H155.464ZM156.472 38.584V37.856H158.936V38.584H156.472ZM161.312 40L159.944 36.072H160.88L161.504 38.112C161.557 38.2987 161.61 38.4933 161.664 38.696C161.722 38.8933 161.778 39.0933 161.832 39.296H161.864C161.922 39.0933 161.978 38.8933 162.032 38.696C162.09 38.4933 162.146 38.2987 162.2 38.112L162.824 36.072H163.712L162.376 40H161.312ZM165.188 40.096C164.959 40.096 164.756 40.048 164.58 39.952C164.404 39.856 164.266 39.7227 164.164 39.552C164.068 39.376 164.02 39.1733 164.02 38.944C164.02 38.5013 164.204 38.168 164.572 37.944C164.946 37.7147 165.535 37.5573 166.34 37.472C166.335 37.3387 166.308 37.216 166.26 37.104C166.218 36.992 166.143 36.904 166.036 36.84C165.935 36.7707 165.796 36.736 165.62 36.736C165.428 36.736 165.239 36.7707 165.052 36.84C164.871 36.9093 164.692 36.9973 164.516 37.104L164.18 36.48C164.324 36.3893 164.482 36.3067 164.652 36.232C164.823 36.152 165.004 36.0907 165.196 36.048C165.388 36 165.588 35.976 165.796 35.976C166.122 35.976 166.391 36.0427 166.604 36.176C166.823 36.304 166.986 36.496 167.092 36.752C167.204 37.0027 167.26 37.312 167.26 37.68V40H166.5L166.436 39.568H166.404C166.223 39.7173 166.034 39.8427 165.836 39.944C165.639 40.0453 165.423 40.096 165.188 40.096ZM165.476 39.344C165.636 39.344 165.783 39.312 165.916 39.248C166.055 39.1787 166.196 39.0773 166.34 38.944V38.112C165.983 38.1547 165.7 38.2107 165.492 38.28C165.284 38.3493 165.135 38.4347 165.044 38.536C164.959 38.632 164.916 38.7467 164.916 38.88C164.916 39.0453 164.97 39.1653 165.076 39.24C165.183 39.3093 165.316 39.344 165.476 39.344ZM168.361 40V36.072H169.121L169.185 36.6H169.217C169.393 36.4293 169.585 36.2827 169.793 36.16C170.001 36.0373 170.239 35.976 170.505 35.976C170.927 35.976 171.233 36.112 171.425 36.384C171.617 36.656 171.713 37.04 171.713 37.536V40H170.793V37.656C170.793 37.3307 170.745 37.1013 170.649 36.968C170.553 36.8347 170.396 36.768 170.177 36.768C170.007 36.768 169.855 36.8107 169.721 36.896C169.593 36.976 169.447 37.096 169.281 37.256V40H168.361ZM174.222 40.08C173.769 40.08 173.446 39.9493 173.254 39.688C173.067 39.4213 172.974 39.0773 172.974 38.656V36.8H172.414V36.112L173.022 36.072L173.134 34.84H173.902V36.072H174.902V36.8H173.902V38.656C173.902 38.8853 173.947 39.0587 174.038 39.176C174.129 39.288 174.267 39.344 174.454 39.344C174.523 39.344 174.593 39.3387 174.662 39.328C174.731 39.3173 174.798 39.296 174.862 39.264L175.03 39.912C174.929 39.96 174.809 40 174.67 40.032C174.531 40.064 174.382 40.08 174.222 40.08ZM179.018 40.096C178.65 40.096 178.317 40.016 178.018 39.856C177.725 39.6907 177.493 39.456 177.322 39.152C177.151 38.8427 177.066 38.4693 177.066 38.032C177.066 37.6053 177.154 37.24 177.33 36.936C177.506 36.6267 177.733 36.3893 178.01 36.224C178.287 36.0587 178.581 35.976 178.89 35.976C179.247 35.976 179.546 36.056 179.786 36.216C180.026 36.376 180.205 36.5973 180.322 36.88C180.445 37.1573 180.506 37.4773 180.506 37.84C180.506 37.9253 180.501 38.008 180.49 38.088C180.485 38.168 180.474 38.2453 180.458 38.32H177.754V37.616H179.69C179.69 37.3333 179.626 37.112 179.498 36.952C179.37 36.7867 179.173 36.704 178.906 36.704C178.757 36.704 178.61 36.744 178.466 36.824C178.327 36.904 178.21 37.04 178.114 37.232C178.023 37.424 177.978 37.6907 177.978 38.032C177.978 38.3413 178.031 38.5947 178.138 38.792C178.245 38.984 178.386 39.128 178.562 39.224C178.738 39.3147 178.927 39.36 179.13 39.36C179.301 39.36 179.461 39.336 179.61 39.288C179.765 39.24 179.909 39.1733 180.042 39.088L180.362 39.68C180.181 39.808 179.973 39.9093 179.738 39.984C179.509 40.0587 179.269 40.096 179.018 40.096ZM182.691 40.08C182.237 40.08 181.915 39.9493 181.723 39.688C181.536 39.4213 181.443 39.0773 181.443 38.656V36.8H180.883V36.112L181.491 36.072L181.603 34.84H182.371V36.072H183.371V36.8H182.371V38.656C182.371 38.8853 182.416 39.0587 182.507 39.176C182.597 39.288 182.736 39.344 182.923 39.344C182.992 39.344 183.061 39.3387 183.131 39.328C183.2 39.3173 183.267 39.296 183.331 39.264L183.499 39.912C183.397 39.96 183.277 40 183.139 40.032C183 40.064 182.851 40.08 182.691 40.08ZM186.751 40.096C186.522 40.096 186.319 40.048 186.143 39.952C185.967 39.856 185.828 39.7227 185.727 39.552C185.631 39.376 185.583 39.1733 185.583 38.944C185.583 38.5013 185.767 38.168 186.135 37.944C186.508 37.7147 187.098 37.5573 187.903 37.472C187.898 37.3387 187.871 37.216 187.823 37.104C187.78 36.992 187.706 36.904 187.599 36.84C187.498 36.7707 187.359 36.736 187.183 36.736C186.991 36.736 186.802 36.7707 186.615 36.84C186.434 36.9093 186.255 36.9973 186.079 37.104L185.743 36.48C185.887 36.3893 186.044 36.3067 186.215 36.232C186.386 36.152 186.567 36.0907 186.759 36.048C186.951 36 187.151 35.976 187.359 35.976C187.684 35.976 187.954 36.0427 188.167 36.176C188.386 36.304 188.548 36.496 188.655 36.752C188.767 37.0027 188.823 37.312 188.823 37.68V40H188.063L187.999 39.568H187.967C187.786 39.7173 187.596 39.8427 187.399 39.944C187.202 40.0453 186.986 40.096 186.751 40.096ZM187.039 39.344C187.199 39.344 187.346 39.312 187.479 39.248C187.618 39.1787 187.759 39.0773 187.903 38.944V38.112C187.546 38.1547 187.263 38.2107 187.055 38.28C186.847 38.3493 186.698 38.4347 186.607 38.536C186.522 38.632 186.479 38.7467 186.479 38.88C186.479 39.0453 186.532 39.1653 186.639 39.24C186.746 39.3093 186.879 39.344 187.039 39.344ZM189.924 41.552V36.072H190.684L190.748 36.488H190.78C190.945 36.344 191.129 36.224 191.332 36.128C191.535 36.0267 191.745 35.976 191.964 35.976C192.289 35.976 192.567 36.0587 192.796 36.224C193.025 36.3893 193.201 36.6213 193.324 36.92C193.447 37.2187 193.508 37.5707 193.508 37.976C193.508 38.424 193.428 38.8053 193.268 39.12C193.108 39.4347 192.9 39.6773 192.644 39.848C192.393 40.0133 192.121 40.096 191.828 40.096C191.657 40.096 191.487 40.0587 191.316 39.984C191.145 39.9093 190.98 39.8027 190.82 39.664L190.844 40.32V41.552H189.924ZM191.636 39.336C191.812 39.336 191.969 39.2853 192.108 39.184C192.247 39.0827 192.356 38.9333 192.436 38.736C192.516 38.5333 192.556 38.2827 192.556 37.984C192.556 37.7227 192.527 37.4987 192.468 37.312C192.409 37.1253 192.316 36.984 192.188 36.888C192.065 36.7867 191.905 36.736 191.708 36.736C191.564 36.736 191.423 36.7733 191.284 36.848C191.145 36.9173 190.999 37.0267 190.844 37.176V39.008C190.988 39.1253 191.127 39.2107 191.26 39.264C191.399 39.312 191.524 39.336 191.636 39.336ZM194.439 40V36.072H195.199L195.263 36.768H195.295C195.434 36.512 195.599 36.3173 195.791 36.184C195.989 36.0453 196.194 35.976 196.407 35.976C196.509 35.976 196.594 35.9813 196.663 35.992C196.733 36.0027 196.797 36.024 196.855 36.056L196.671 36.84C196.607 36.824 196.549 36.8133 196.495 36.808C196.442 36.7973 196.373 36.792 196.287 36.792C196.133 36.792 195.97 36.8533 195.799 36.976C195.629 37.0933 195.482 37.3013 195.359 37.6V40H194.439ZM199.034 40.096C198.666 40.096 198.332 40.016 198.034 39.856C197.74 39.6907 197.508 39.456 197.338 39.152C197.167 38.8427 197.082 38.4693 197.082 38.032C197.082 37.6053 197.17 37.24 197.346 36.936C197.522 36.6267 197.748 36.3893 198.026 36.224C198.303 36.0587 198.596 35.976 198.906 35.976C199.263 35.976 199.562 36.056 199.802 36.216C200.042 36.376 200.22 36.5973 200.338 36.88C200.46 37.1573 200.522 37.4773 200.522 37.84C200.522 37.9253 200.516 38.008 200.506 38.088C200.5 38.168 200.49 38.2453 200.474 38.32H197.77V37.616H199.706C199.706 37.3333 199.642 37.112 199.514 36.952C199.386 36.7867 199.188 36.704 198.922 36.704C198.772 36.704 198.626 36.744 198.482 36.824C198.343 36.904 198.226 37.04 198.13 37.232C198.039 37.424 197.994 37.6907 197.994 38.032C197.994 38.3413 198.047 38.5947 198.154 38.792C198.26 38.984 198.402 39.128 198.578 39.224C198.754 39.3147 198.943 39.36 199.146 39.36C199.316 39.36 199.476 39.336 199.626 39.288C199.78 39.24 199.924 39.1733 200.058 39.088L200.378 39.68C200.196 39.808 199.988 39.9093 199.754 39.984C199.524 40.0587 199.284 40.096 199.034 40.096ZM198.826 35.44L197.53 34.144L197.586 34.048H198.57L199.546 35.44H198.826ZM202.496 40.096C202.224 40.096 201.955 40.0453 201.688 39.944C201.427 39.8427 201.2 39.7013 201.008 39.52L201.416 38.992C201.592 39.136 201.771 39.24 201.952 39.304C202.134 39.368 202.326 39.4 202.528 39.4C202.742 39.4 202.899 39.3547 203 39.264C203.102 39.1733 203.152 39.0613 203.152 38.928C203.152 38.8213 203.112 38.7307 203.032 38.656C202.958 38.5813 202.859 38.5173 202.736 38.464C202.614 38.4107 202.478 38.3573 202.328 38.304C202.136 38.2347 201.958 38.152 201.792 38.056C201.627 37.9547 201.491 37.832 201.384 37.688C201.283 37.5387 201.232 37.36 201.232 37.152C201.232 36.8053 201.36 36.5227 201.616 36.304C201.872 36.0853 202.219 35.976 202.656 35.976C202.923 35.976 203.168 36.0213 203.392 36.112C203.616 36.1973 203.808 36.3093 203.968 36.448L203.56 36.968C203.422 36.8667 203.28 36.792 203.136 36.744C202.992 36.696 202.84 36.672 202.68 36.672C202.483 36.672 202.336 36.7147 202.24 36.8C202.144 36.8853 202.096 36.9867 202.096 37.104C202.096 37.2 202.126 37.2827 202.184 37.352C202.248 37.416 202.339 37.4747 202.456 37.528C202.574 37.576 202.715 37.6267 202.88 37.68C203.083 37.7493 203.272 37.8347 203.448 37.936C203.624 38.032 203.763 38.1573 203.864 38.312C203.971 38.4613 204.024 38.6507 204.024 38.88C204.024 39.104 203.966 39.3093 203.848 39.496C203.731 39.6773 203.558 39.824 203.328 39.936C203.104 40.0427 202.827 40.096 202.496 40.096ZM207.615 40.096C207.194 40.096 206.887 39.96 206.695 39.688C206.503 39.416 206.407 39.032 206.407 38.536V36.072H207.327V38.416C207.327 38.7413 207.375 38.9707 207.471 39.104C207.567 39.2373 207.722 39.304 207.935 39.304C208.106 39.304 208.255 39.2613 208.383 39.176C208.517 39.0907 208.658 38.952 208.807 38.76V36.072H209.727V40H208.975L208.903 39.424H208.879C208.709 39.6267 208.522 39.7893 208.319 39.912C208.117 40.0347 207.882 40.096 207.615 40.096ZM210.893 40V36.072H211.653L211.717 36.6H211.749C211.925 36.4293 212.117 36.2827 212.325 36.16C212.533 36.0373 212.77 35.976 213.037 35.976C213.458 35.976 213.765 36.112 213.957 36.384C214.149 36.656 214.245 37.04 214.245 37.536V40H213.325V37.656C213.325 37.3307 213.277 37.1013 213.181 36.968C213.085 36.8347 212.927 36.768 212.709 36.768C212.538 36.768 212.386 36.8107 212.253 36.896C212.125 36.976 211.978 37.096 211.813 37.256V40H210.893ZM217.057 40.096C216.689 40.096 216.356 40.016 216.057 39.856C215.764 39.6907 215.532 39.456 215.361 39.152C215.19 38.8427 215.105 38.4693 215.105 38.032C215.105 37.6053 215.193 37.24 215.369 36.936C215.545 36.6267 215.772 36.3893 216.049 36.224C216.326 36.0587 216.62 35.976 216.929 35.976C217.286 35.976 217.585 36.056 217.825 36.216C218.065 36.376 218.244 36.5973 218.361 36.88C218.484 37.1573 218.545 37.4773 218.545 37.84C218.545 37.9253 218.54 38.008 218.529 38.088C218.524 38.168 218.513 38.2453 218.497 38.32H215.793V37.616H217.729C217.729 37.3333 217.665 37.112 217.537 36.952C217.409 36.7867 217.212 36.704 216.945 36.704C216.796 36.704 216.649 36.744 216.505 36.824C216.366 36.904 216.249 37.04 216.153 37.232C216.062 37.424 216.017 37.6907 216.017 38.032C216.017 38.3413 216.07 38.5947 216.177 38.792C216.284 38.984 216.425 39.128 216.601 39.224C216.777 39.3147 216.966 39.36 217.169 39.36C217.34 39.36 217.5 39.336 217.649 39.288C217.804 39.24 217.948 39.1733 218.081 39.088L218.401 39.68C218.22 39.808 218.012 39.9093 217.777 39.984C217.548 40.0587 217.308 40.096 217.057 40.096ZM221.025 40V36.072H221.785L221.849 36.768H221.881C222.02 36.512 222.185 36.3173 222.377 36.184C222.575 36.0453 222.78 35.976 222.993 35.976C223.095 35.976 223.18 35.9813 223.249 35.992C223.319 36.0027 223.383 36.024 223.441 36.056L223.257 36.84C223.193 36.824 223.135 36.8133 223.081 36.808C223.028 36.7973 222.959 36.792 222.873 36.792C222.719 36.792 222.556 36.8533 222.385 36.976C222.215 37.0933 222.068 37.3013 221.945 37.6V40H221.025ZM225.62 40.096C225.252 40.096 224.918 40.016 224.62 39.856C224.326 39.6907 224.094 39.456 223.924 39.152C223.753 38.8427 223.668 38.4693 223.668 38.032C223.668 37.6053 223.756 37.24 223.932 36.936C224.108 36.6267 224.334 36.3893 224.612 36.224C224.889 36.0587 225.182 35.976 225.492 35.976C225.849 35.976 226.148 36.056 226.388 36.216C226.628 36.376 226.806 36.5973 226.924 36.88C227.046 37.1573 227.108 37.4773 227.108 37.84C227.108 37.9253 227.102 38.008 227.092 38.088C227.086 38.168 227.076 38.2453 227.06 38.32H224.356V37.616H226.292C226.292 37.3333 226.228 37.112 226.1 36.952C225.972 36.7867 225.774 36.704 225.508 36.704C225.358 36.704 225.212 36.744 225.068 36.824C224.929 36.904 224.812 37.04 224.716 37.232C224.625 37.424 224.58 37.6907 224.58 38.032C224.58 38.3413 224.633 38.5947 224.74 38.792C224.846 38.984 224.988 39.128 225.164 39.224C225.34 39.3147 225.529 39.36 225.732 39.36C225.902 39.36 226.062 39.336 226.212 39.288C226.366 39.24 226.51 39.1733 226.644 39.088L226.964 39.68C226.782 39.808 226.574 39.9093 226.34 39.984C226.11 40.0587 225.87 40.096 225.62 40.096ZM228.115 40V35.664C228.115 35.392 228.158 35.1493 228.243 34.936C228.334 34.7227 228.475 34.5573 228.667 34.44C228.859 34.3173 229.11 34.256 229.419 34.256C229.563 34.256 229.696 34.2693 229.819 34.296C229.947 34.3227 230.054 34.3547 230.139 34.392L229.947 35.056C229.808 35.008 229.67 34.984 229.531 34.984C229.371 34.984 229.248 35.0373 229.163 35.144C229.078 35.2507 229.035 35.4187 229.035 35.648V40H228.115ZM227.531 36.8V36.112L228.171 36.072H229.803V36.8H227.531ZM232.024 40.096C231.699 40.096 231.395 40.016 231.112 39.856C230.829 39.6907 230.6 39.456 230.424 39.152C230.248 38.8427 230.16 38.472 230.16 38.04C230.16 37.6027 230.248 37.232 230.424 36.928C230.6 36.6187 230.829 36.384 231.112 36.224C231.395 36.0587 231.699 35.976 232.024 35.976C232.355 35.976 232.661 36.0587 232.944 36.224C233.227 36.384 233.456 36.6187 233.632 36.928C233.808 37.232 233.896 37.6027 233.896 38.04C233.896 38.472 233.808 38.8427 233.632 39.152C233.456 39.456 233.227 39.6907 232.944 39.856C232.661 40.016 232.355 40.096 232.024 40.096ZM232.024 39.344C232.216 39.344 232.381 39.2907 232.52 39.184C232.659 39.0773 232.765 38.9253 232.84 38.728C232.915 38.5307 232.952 38.3013 232.952 38.04C232.952 37.7787 232.915 37.5493 232.84 37.352C232.765 37.1547 232.659 37.0027 232.52 36.896C232.381 36.784 232.216 36.728 232.024 36.728C231.832 36.728 231.667 36.784 231.528 36.896C231.395 37.0027 231.291 37.1547 231.216 37.352C231.141 37.5493 231.104 37.7787 231.104 38.04C231.104 38.3013 231.141 38.5307 231.216 38.728C231.291 38.9253 231.395 39.0773 231.528 39.184C231.667 39.2907 231.832 39.344 232.024 39.344ZM234.807 40V36.072H235.567L235.631 36.6H235.663C235.839 36.4293 236.031 36.2827 236.239 36.16C236.447 36.0373 236.684 35.976 236.951 35.976C237.372 35.976 237.679 36.112 237.871 36.384C238.063 36.656 238.159 37.04 238.159 37.536V40H237.239V37.656C237.239 37.3307 237.191 37.1013 237.095 36.968C236.999 36.8347 236.841 36.768 236.623 36.768C236.452 36.768 236.3 36.8107 236.167 36.896C236.039 36.976 235.892 37.096 235.727 37.256V40H234.807ZM240.667 40.08C240.214 40.08 239.891 39.9493 239.699 39.688C239.513 39.4213 239.419 39.0773 239.419 38.656V36.8H238.859V36.112L239.467 36.072L239.579 34.84H240.347V36.072H241.347V36.8H240.347V38.656C240.347 38.8853 240.393 39.0587 240.483 39.176C240.574 39.288 240.713 39.344 240.899 39.344C240.969 39.344 241.038 39.3387 241.107 39.328C241.177 39.3173 241.243 39.296 241.307 39.264L241.475 39.912C241.374 39.96 241.254 40 241.115 40.032C240.977 40.064 240.827 40.08 240.667 40.08ZM243.737 40.096C243.369 40.096 243.036 40.016 242.737 39.856C242.444 39.6907 242.212 39.456 242.041 39.152C241.87 38.8427 241.785 38.4693 241.785 38.032C241.785 37.6053 241.873 37.24 242.049 36.936C242.225 36.6267 242.452 36.3893 242.729 36.224C243.006 36.0587 243.3 35.976 243.609 35.976C243.966 35.976 244.265 36.056 244.505 36.216C244.745 36.376 244.924 36.5973 245.041 36.88C245.164 37.1573 245.225 37.4773 245.225 37.84C245.225 37.9253 245.22 38.008 245.209 38.088C245.204 38.168 245.193 38.2453 245.177 38.32H242.473V37.616H244.409C244.409 37.3333 244.345 37.112 244.217 36.952C244.089 36.7867 243.892 36.704 243.625 36.704C243.476 36.704 243.329 36.744 243.185 36.824C243.046 36.904 242.929 37.04 242.833 37.232C242.742 37.424 242.697 37.6907 242.697 38.032C242.697 38.3413 242.75 38.5947 242.857 38.792C242.964 38.984 243.105 39.128 243.281 39.224C243.457 39.3147 243.646 39.36 243.849 39.36C244.02 39.36 244.18 39.336 244.329 39.288C244.484 39.24 244.628 39.1733 244.761 39.088L245.081 39.68C244.9 39.808 244.692 39.9093 244.457 39.984C244.228 40.0587 243.988 40.096 243.737 40.096Z"
        fill="#1A1A1A" fill-opacity="0.8" />
    <path d="M5 82H394M5 143H394" stroke="black" stroke-opacity="0.1" />
    <path
        d="M136.194 27V19.048H133.058V17.2H141.598V19.048H138.462V27H136.194ZM142.5 27V19.468H144.586V21.596L144.292 20.98C144.516 20.448 144.876 20.0467 145.37 19.776C145.865 19.496 146.467 19.356 147.176 19.356V21.372C147.083 21.3627 146.999 21.358 146.924 21.358C146.85 21.3487 146.77 21.344 146.686 21.344C146.089 21.344 145.604 21.5167 145.23 21.862C144.866 22.198 144.684 22.7253 144.684 23.444V27H142.5ZM152.603 27V25.53L152.463 25.208V22.576C152.463 22.1093 152.318 21.7453 152.029 21.484C151.749 21.2227 151.315 21.092 150.727 21.092C150.325 21.092 149.929 21.1573 149.537 21.288C149.154 21.4093 148.827 21.5773 148.557 21.792L147.773 20.266C148.183 19.9767 148.678 19.7527 149.257 19.594C149.835 19.4353 150.423 19.356 151.021 19.356C152.169 19.356 153.06 19.6267 153.695 20.168C154.329 20.7093 154.647 21.554 154.647 22.702V27H152.603ZM150.307 27.112C149.719 27.112 149.215 27.014 148.795 26.818C148.375 26.6127 148.053 26.3373 147.829 25.992C147.605 25.6467 147.493 25.2593 147.493 24.83C147.493 24.382 147.6 23.99 147.815 23.654C148.039 23.318 148.389 23.0567 148.865 22.87C149.341 22.674 149.961 22.576 150.727 22.576H152.729V23.85H150.965C150.451 23.85 150.097 23.934 149.901 24.102C149.714 24.27 149.621 24.48 149.621 24.732C149.621 25.012 149.728 25.236 149.943 25.404C150.167 25.5627 150.47 25.642 150.853 25.642C151.217 25.642 151.543 25.558 151.833 25.39C152.122 25.2127 152.332 24.956 152.463 24.62L152.799 25.628C152.64 26.1133 152.351 26.482 151.931 26.734C151.511 26.986 150.969 27.112 150.307 27.112ZM156.889 27V19.3C156.889 18.4507 157.141 17.774 157.645 17.27C158.149 16.7567 158.868 16.5 159.801 16.5C160.119 16.5 160.422 16.5327 160.711 16.598C161.01 16.6633 161.262 16.766 161.467 16.906L160.893 18.488C160.772 18.404 160.637 18.3387 160.487 18.292C160.338 18.2453 160.179 18.222 160.011 18.222C159.694 18.222 159.447 18.3153 159.269 18.502C159.101 18.6793 159.017 18.95 159.017 19.314V20.014L159.073 20.952V27H156.889ZM155.727 21.316V19.636H160.949V21.316H155.727ZM162.303 27V19.3C162.303 18.4507 162.555 17.774 163.059 17.27C163.563 16.7567 164.282 16.5 165.215 16.5C165.533 16.5 165.836 16.5327 166.125 16.598C166.424 16.6633 166.676 16.766 166.881 16.906L166.307 18.488C166.186 18.404 166.051 18.3387 165.901 18.292C165.752 18.2453 165.593 18.222 165.425 18.222C165.108 18.222 164.861 18.3153 164.683 18.502C164.515 18.6793 164.431 18.95 164.431 19.314V20.014L164.487 20.952V27H162.303ZM161.141 21.316V19.636H166.363V21.316H161.141ZM167.595 27V19.468H169.779V27H167.595ZM168.687 18.418C168.286 18.418 167.959 18.3013 167.707 18.068C167.455 17.8347 167.329 17.5453 167.329 17.2C167.329 16.8547 167.455 16.5653 167.707 16.332C167.959 16.0987 168.286 15.982 168.687 15.982C169.089 15.982 169.415 16.094 169.667 16.318C169.919 16.5327 170.045 16.8127 170.045 17.158C170.045 17.522 169.919 17.8253 169.667 18.068C169.425 18.3013 169.098 18.418 168.687 18.418ZM175.439 27.112C174.627 27.112 173.904 26.9487 173.269 26.622C172.634 26.286 172.135 25.824 171.771 25.236C171.416 24.648 171.239 23.9807 171.239 23.234C171.239 22.478 171.416 21.8107 171.771 21.232C172.135 20.644 172.634 20.1867 173.269 19.86C173.904 19.524 174.627 19.356 175.439 19.356C176.232 19.356 176.923 19.524 177.511 19.86C178.099 20.1867 178.533 20.658 178.813 21.274L177.119 22.184C176.923 21.8293 176.676 21.568 176.377 21.4C176.088 21.232 175.77 21.148 175.425 21.148C175.052 21.148 174.716 21.232 174.417 21.4C174.118 21.568 173.88 21.806 173.703 22.114C173.535 22.422 173.451 22.7953 173.451 23.234C173.451 23.6727 173.535 24.046 173.703 24.354C173.88 24.662 174.118 24.9 174.417 25.068C174.716 25.236 175.052 25.32 175.425 25.32C175.77 25.32 176.088 25.2407 176.377 25.082C176.676 24.914 176.923 24.648 177.119 24.284L178.813 25.208C178.533 25.8147 178.099 26.286 177.511 26.622C176.923 26.9487 176.232 27.112 175.439 27.112ZM187.269 27.112C186.56 27.112 185.921 26.9533 185.351 26.636C184.782 26.3093 184.329 25.8567 183.993 25.278C183.667 24.6993 183.503 24.018 183.503 23.234C183.503 22.4407 183.667 21.7547 183.993 21.176C184.329 20.5973 184.782 20.1493 185.351 19.832C185.921 19.5147 186.56 19.356 187.269 19.356C187.904 19.356 188.459 19.496 188.935 19.776C189.411 20.056 189.78 20.4807 190.041 21.05C190.303 21.6193 190.433 22.3473 190.433 23.234C190.433 24.1113 190.307 24.8393 190.055 25.418C189.803 25.9873 189.439 26.412 188.963 26.692C188.497 26.972 187.932 27.112 187.269 27.112ZM187.647 25.32C188.002 25.32 188.324 25.236 188.613 25.068C188.903 24.9 189.131 24.662 189.299 24.354C189.477 24.0367 189.565 23.6633 189.565 23.234C189.565 22.7953 189.477 22.422 189.299 22.114C189.131 21.806 188.903 21.568 188.613 21.4C188.324 21.232 188.002 21.148 187.647 21.148C187.283 21.148 186.957 21.232 186.667 21.4C186.378 21.568 186.145 21.806 185.967 22.114C185.799 22.422 185.715 22.7953 185.715 23.234C185.715 23.6633 185.799 24.0367 185.967 24.354C186.145 24.662 186.378 24.9 186.667 25.068C186.957 25.236 187.283 25.32 187.647 25.32ZM189.621 27V25.46L189.663 23.22L189.523 20.994V16.612H191.707V27H189.621ZM196.907 27.112C196.281 27.112 195.721 26.9907 195.227 26.748C194.741 26.5053 194.363 26.1367 194.093 25.642C193.822 25.138 193.687 24.4987 193.687 23.724V19.468H195.871V23.402C195.871 24.0273 196.001 24.4893 196.263 24.788C196.533 25.0773 196.911 25.222 197.397 25.222C197.733 25.222 198.031 25.152 198.293 25.012C198.554 24.8627 198.759 24.6387 198.909 24.34C199.058 24.032 199.133 23.6493 199.133 23.192V19.468H201.317V27H199.245V24.928L199.623 25.53C199.371 26.0527 198.997 26.4493 198.503 26.72C198.017 26.9813 197.485 27.112 196.907 27.112ZM209.839 27.112C209.195 27.112 208.574 27.0373 207.977 26.888C207.389 26.7293 206.922 26.5333 206.577 26.3L207.305 24.732C207.65 24.9467 208.056 25.124 208.523 25.264C208.999 25.3947 209.466 25.46 209.923 25.46C210.427 25.46 210.782 25.3993 210.987 25.278C211.202 25.1567 211.309 24.9887 211.309 24.774C211.309 24.5967 211.225 24.466 211.057 24.382C210.898 24.2887 210.684 24.2187 210.413 24.172C210.142 24.1253 209.844 24.0787 209.517 24.032C209.2 23.9853 208.878 23.9247 208.551 23.85C208.224 23.766 207.926 23.6447 207.655 23.486C207.384 23.3273 207.165 23.1127 206.997 22.842C206.838 22.5713 206.759 22.2213 206.759 21.792C206.759 21.316 206.894 20.896 207.165 20.532C207.445 20.168 207.846 19.8833 208.369 19.678C208.892 19.4633 209.517 19.356 210.245 19.356C210.758 19.356 211.281 19.412 211.813 19.524C212.345 19.636 212.788 19.7993 213.143 20.014L212.415 21.568C212.051 21.3533 211.682 21.2087 211.309 21.134C210.945 21.05 210.59 21.008 210.245 21.008C209.76 21.008 209.405 21.0733 209.181 21.204C208.957 21.3347 208.845 21.5027 208.845 21.708C208.845 21.8947 208.924 22.0347 209.083 22.128C209.251 22.2213 209.47 22.296 209.741 22.352C210.012 22.408 210.306 22.4593 210.623 22.506C210.95 22.5433 211.276 22.604 211.603 22.688C211.93 22.772 212.224 22.8933 212.485 23.052C212.756 23.2013 212.975 23.4113 213.143 23.682C213.311 23.9433 213.395 24.2887 213.395 24.718C213.395 25.1847 213.255 25.6 212.975 25.964C212.695 26.3187 212.289 26.5987 211.757 26.804C211.234 27.0093 210.595 27.112 209.839 27.112ZM214.742 27V19.468H216.926V27H214.742ZM215.834 18.418C215.433 18.418 215.106 18.3013 214.854 18.068C214.602 17.8347 214.476 17.5453 214.476 17.2C214.476 16.8547 214.602 16.5653 214.854 16.332C215.106 16.0987 215.433 15.982 215.834 15.982C216.236 15.982 216.562 16.094 216.814 16.318C217.066 16.5327 217.192 16.8127 217.192 17.158C217.192 17.522 217.066 17.8253 216.814 18.068C216.572 18.3013 216.245 18.418 215.834 18.418ZM222.033 27.112C221.147 27.112 220.456 26.888 219.961 26.44C219.467 25.9827 219.219 25.306 219.219 24.41V17.802H221.403V24.382C221.403 24.6993 221.487 24.9467 221.655 25.124C221.823 25.292 222.052 25.376 222.341 25.376C222.687 25.376 222.981 25.2827 223.223 25.096L223.811 26.636C223.587 26.7947 223.317 26.916 222.999 27C222.691 27.0747 222.369 27.112 222.033 27.112ZM218.057 21.316V19.636H223.279V21.316H218.057ZM228.543 27.112C227.684 27.112 226.928 26.944 226.275 26.608C225.631 26.272 225.132 25.8147 224.777 25.236C224.422 24.648 224.245 23.9807 224.245 23.234C224.245 22.478 224.418 21.8107 224.763 21.232C225.118 20.644 225.598 20.1867 226.205 19.86C226.812 19.524 227.498 19.356 228.263 19.356C229 19.356 229.663 19.5147 230.251 19.832C230.848 20.14 231.32 20.588 231.665 21.176C232.01 21.7547 232.183 22.45 232.183 23.262C232.183 23.346 232.178 23.444 232.169 23.556C232.16 23.6587 232.15 23.7567 232.141 23.85H226.023V22.576H230.993L230.153 22.954C230.153 22.562 230.074 22.2213 229.915 21.932C229.756 21.6427 229.537 21.4187 229.257 21.26C228.977 21.092 228.65 21.008 228.277 21.008C227.904 21.008 227.572 21.092 227.283 21.26C227.003 21.4187 226.784 21.6473 226.625 21.946C226.466 22.2353 226.387 22.5807 226.387 22.982V23.318C226.387 23.7287 226.476 24.0927 226.653 24.41C226.84 24.718 227.096 24.956 227.423 25.124C227.759 25.2827 228.151 25.362 228.599 25.362C229 25.362 229.35 25.3013 229.649 25.18C229.957 25.0587 230.237 24.8767 230.489 24.634L231.651 25.894C231.306 26.286 230.872 26.5893 230.349 26.804C229.826 27.0093 229.224 27.112 228.543 27.112ZM239.324 27L236.608 19.468H238.666L240.92 25.95H239.94L242.292 19.468H244.14L246.422 25.95H245.442L247.766 19.468H249.698L246.968 27H244.854L242.852 21.442H243.496L241.424 27H239.324ZM254.246 27.112C253.387 27.112 252.631 26.944 251.978 26.608C251.334 26.272 250.835 25.8147 250.48 25.236C250.125 24.648 249.948 23.9807 249.948 23.234C249.948 22.478 250.121 21.8107 250.466 21.232C250.821 20.644 251.301 20.1867 251.908 19.86C252.515 19.524 253.201 19.356 253.966 19.356C254.703 19.356 255.366 19.5147 255.954 19.832C256.551 20.14 257.023 20.588 257.368 21.176C257.713 21.7547 257.886 22.45 257.886 23.262C257.886 23.346 257.881 23.444 257.872 23.556C257.863 23.6587 257.853 23.7567 257.844 23.85H251.726V22.576H256.696L255.856 22.954C255.856 22.562 255.777 22.2213 255.618 21.932C255.459 21.6427 255.24 21.4187 254.96 21.26C254.68 21.092 254.353 21.008 253.98 21.008C253.607 21.008 253.275 21.092 252.986 21.26C252.706 21.4187 252.487 21.6473 252.328 21.946C252.169 22.2353 252.09 22.5807 252.09 22.982V23.318C252.09 23.7287 252.179 24.0927 252.356 24.41C252.543 24.718 252.799 24.956 253.126 25.124C253.462 25.2827 253.854 25.362 254.302 25.362C254.703 25.362 255.053 25.3013 255.352 25.18C255.66 25.0587 255.94 24.8767 256.192 24.634L257.354 25.894C257.009 26.286 256.575 26.5893 256.052 26.804C255.529 27.0093 254.927 27.112 254.246 27.112ZM263.792 27.112C263.129 27.112 262.56 26.972 262.084 26.692C261.608 26.412 261.244 25.9873 260.992 25.418C260.74 24.8393 260.614 24.1113 260.614 23.234C260.614 22.3473 260.745 21.6193 261.006 21.05C261.277 20.4807 261.65 20.056 262.126 19.776C262.602 19.496 263.157 19.356 263.792 19.356C264.501 19.356 265.136 19.5147 265.696 19.832C266.265 20.1493 266.713 20.5973 267.04 21.176C267.376 21.7547 267.544 22.4407 267.544 23.234C267.544 24.018 267.376 24.6993 267.04 25.278C266.713 25.8567 266.265 26.3093 265.696 26.636C265.136 26.9533 264.501 27.112 263.792 27.112ZM259.34 27V16.612H261.524V20.994L261.384 23.22L261.426 25.46V27H259.34ZM263.414 25.32C263.778 25.32 264.1 25.236 264.38 25.068C264.669 24.9 264.898 24.662 265.066 24.354C265.243 24.0367 265.332 23.6633 265.332 23.234C265.332 22.7953 265.243 22.422 265.066 22.114C264.898 21.806 264.669 21.568 264.38 21.4C264.1 21.232 263.778 21.148 263.414 21.148C263.05 21.148 262.723 21.232 262.434 21.4C262.145 21.568 261.916 21.806 261.748 22.114C261.58 22.422 261.496 22.7953 261.496 23.234C261.496 23.6633 261.58 24.0367 261.748 24.354C261.916 24.662 262.145 24.9 262.434 25.068C262.723 25.236 263.05 25.32 263.414 25.32Z"
        fill="black" />
</svg>