<svg width="400" height="200" viewBox="0 0 400 200" fill="none" xmlns="http://www.w3.org/2000/svg">
<rect width="400" height="200" fill="white"/>
<path d="M43.6544 27V25.264L47.3224 21.834C47.5837 21.5913 47.775 21.3767 47.8964 21.19C48.027 21.0033 48.111 20.8353 48.1484 20.686C48.195 20.5273 48.2184 20.3827 48.2184 20.252C48.2184 19.9347 48.111 19.6873 47.8964 19.51C47.691 19.3327 47.3784 19.244 46.9584 19.244C46.6037 19.244 46.2724 19.3233 45.9644 19.482C45.6564 19.6407 45.4044 19.8787 45.2084 20.196L43.1504 19.048C43.5144 18.432 44.0417 17.9373 44.7324 17.564C45.423 17.1907 46.249 17.004 47.2104 17.004C47.9664 17.004 48.629 17.1253 49.1984 17.368C49.7677 17.6107 50.211 17.956 50.5284 18.404C50.855 18.852 51.0184 19.3793 51.0184 19.986C51.0184 20.3033 50.9764 20.6207 50.8924 20.938C50.8084 21.246 50.645 21.5773 50.4024 21.932C50.169 22.2773 49.819 22.6647 49.3524 23.094L46.4404 25.782L45.9784 24.802H51.2844V27H43.6544ZM61.1775 27V25.586L60.9955 25.236V22.632C60.9955 22.212 60.8648 21.89 60.6035 21.666C60.3515 21.4327 59.9455 21.316 59.3855 21.316C59.0215 21.316 58.6528 21.3767 58.2795 21.498C57.9061 21.61 57.5888 21.7687 57.3275 21.974L56.4315 20.168C56.8608 19.888 57.3741 19.6733 57.9715 19.524C58.5781 19.3653 59.1801 19.286 59.7775 19.286C61.0095 19.286 61.9615 19.5707 62.6335 20.14C63.3148 20.7 63.6555 21.582 63.6555 22.786V27H61.1775ZM58.9375 27.126C58.3308 27.126 57.8175 27.0233 57.3975 26.818C56.9775 26.6127 56.6555 26.3327 56.4315 25.978C56.2168 25.6233 56.1095 25.2267 56.1095 24.788C56.1095 24.3213 56.2261 23.92 56.4595 23.584C56.7021 23.2387 57.0708 22.9773 57.5655 22.8C58.0601 22.6133 58.6995 22.52 59.4835 22.52H61.2755V23.906H59.8475C59.4181 23.906 59.1148 23.976 58.9375 24.116C58.7695 24.256 58.6855 24.4427 58.6855 24.676C58.6855 24.9093 58.7741 25.096 58.9515 25.236C59.1288 25.376 59.3715 25.446 59.6795 25.446C59.9688 25.446 60.2301 25.376 60.4635 25.236C60.7061 25.0867 60.8835 24.8627 60.9955 24.564L61.3595 25.544C61.2195 26.0667 60.9441 26.4633 60.5335 26.734C60.1321 26.9953 59.6001 27.126 58.9375 27.126ZM70.2765 19.286C70.8645 19.286 71.3965 19.4073 71.8725 19.65C72.3485 19.8833 72.7218 20.2473 72.9925 20.742C73.2725 21.2367 73.4125 21.876 73.4125 22.66V27H70.7525V23.094C70.7525 22.5527 70.6405 22.1607 70.4165 21.918C70.2018 21.666 69.8985 21.54 69.5065 21.54C69.2265 21.54 68.9698 21.6053 68.7365 21.736C68.5031 21.8573 68.3211 22.0487 68.1905 22.31C68.0598 22.5713 67.9945 22.912 67.9945 23.332V27H65.3345V19.412H67.8685V21.568L67.3785 20.938C67.6678 20.3873 68.0645 19.9767 68.5685 19.706C69.0725 19.426 69.6418 19.286 70.2765 19.286ZM77.8405 27.126C77.1965 27.126 76.5665 27.0513 75.9505 26.902C75.3438 26.7527 74.8538 26.566 74.4805 26.342L75.2785 24.522C75.6332 24.7367 76.0485 24.9093 76.5245 25.04C77.0005 25.1613 77.4672 25.222 77.9245 25.222C78.3725 25.222 78.6805 25.1753 78.8485 25.082C79.0258 24.9887 79.1145 24.8627 79.1145 24.704C79.1145 24.5547 79.0305 24.4473 78.8625 24.382C78.7038 24.3073 78.4892 24.2513 78.2185 24.214C77.9572 24.1767 77.6678 24.1347 77.3505 24.088C77.0332 24.0413 76.7112 23.9807 76.3845 23.906C76.0672 23.822 75.7732 23.7007 75.5025 23.542C75.2412 23.374 75.0312 23.15 74.8725 22.87C74.7138 22.59 74.6345 22.2353 74.6345 21.806C74.6345 21.3207 74.7745 20.8913 75.0545 20.518C75.3438 20.1353 75.7638 19.8367 76.3145 19.622C76.8652 19.398 77.5372 19.286 78.3305 19.286C78.8625 19.286 79.3992 19.342 79.9405 19.454C80.4912 19.5567 80.9532 19.7153 81.3265 19.93L80.5285 21.736C80.1552 21.5213 79.7818 21.3767 79.4085 21.302C79.0352 21.218 78.6805 21.176 78.3445 21.176C77.8965 21.176 77.5792 21.2273 77.3925 21.33C77.2152 21.4327 77.1265 21.5587 77.1265 21.708C77.1265 21.8573 77.2058 21.974 77.3645 22.058C77.5232 22.1327 77.7332 22.1933 77.9945 22.24C78.2652 22.2773 78.5592 22.3193 78.8765 22.366C79.1938 22.4033 79.5112 22.464 79.8285 22.548C80.1552 22.632 80.4492 22.758 80.7105 22.926C80.9812 23.0847 81.1958 23.304 81.3545 23.584C81.5132 23.8547 81.5925 24.2047 81.5925 24.634C81.5925 25.1007 81.4478 25.5207 81.1585 25.894C80.8785 26.2673 80.4585 26.566 79.8985 26.79C79.3478 27.014 78.6618 27.126 77.8405 27.126ZM82.4448 29.198L83.4948 25.558L83.8728 27.07C83.4061 27.07 83.0234 26.9347 82.7248 26.664C82.4261 26.384 82.2768 26.0107 82.2768 25.544C82.2768 25.0587 82.4261 24.676 82.7248 24.396C83.0328 24.116 83.4154 23.976 83.8728 23.976C84.3301 23.976 84.7081 24.1207 85.0068 24.41C85.3054 24.69 85.4548 25.068 85.4548 25.544C85.4548 25.6747 85.4454 25.8053 85.4268 25.936C85.4081 26.0667 85.3661 26.2253 85.3008 26.412C85.2354 26.5987 85.1328 26.846 84.9928 27.154L84.1108 29.198H82.4448ZM91.8278 27V18.194L93.0178 19.342H90.0078V17.2H94.5998V27H91.8278ZM110.41 19.286C110.998 19.286 111.521 19.4073 111.978 19.65C112.445 19.8833 112.809 20.2473 113.07 20.742C113.341 21.2367 113.476 21.876 113.476 22.66V27H110.816V23.094C110.816 22.5527 110.713 22.1607 110.508 21.918C110.303 21.666 110.023 21.54 109.668 21.54C109.416 21.54 109.187 21.6007 108.982 21.722C108.777 21.8433 108.618 22.03 108.506 22.282C108.394 22.5247 108.338 22.842 108.338 23.234V27H105.678V23.094C105.678 22.5527 105.575 22.1607 105.37 21.918C105.174 21.666 104.894 21.54 104.53 21.54C104.269 21.54 104.035 21.6007 103.83 21.722C103.634 21.8433 103.475 22.03 103.354 22.282C103.242 22.5247 103.186 22.842 103.186 23.234V27H100.526V19.412H103.06V21.526L102.556 20.924C102.836 20.3827 103.219 19.9767 103.704 19.706C104.189 19.426 104.731 19.286 105.328 19.286C106.009 19.286 106.607 19.4633 107.12 19.818C107.643 20.1633 107.993 20.7047 108.17 21.442L107.302 21.26C107.573 20.644 107.979 20.1633 108.52 19.818C109.071 19.4633 109.701 19.286 110.41 19.286ZM119.058 27.126C118.228 27.126 117.49 26.958 116.846 26.622C116.202 26.286 115.694 25.824 115.32 25.236C114.956 24.6387 114.774 23.9573 114.774 23.192C114.774 22.4267 114.956 21.75 115.32 21.162C115.694 20.574 116.202 20.1167 116.846 19.79C117.49 19.454 118.228 19.286 119.058 19.286C119.889 19.286 120.626 19.454 121.27 19.79C121.924 20.1167 122.432 20.574 122.796 21.162C123.16 21.75 123.342 22.4267 123.342 23.192C123.342 23.9573 123.16 24.6387 122.796 25.236C122.432 25.824 121.924 26.286 121.27 26.622C120.626 26.958 119.889 27.126 119.058 27.126ZM119.058 25.012C119.366 25.012 119.637 24.942 119.87 24.802C120.113 24.662 120.304 24.4567 120.444 24.186C120.584 23.906 120.654 23.5747 120.654 23.192C120.654 22.8093 120.584 22.4873 120.444 22.226C120.304 21.9553 120.113 21.75 119.87 21.61C119.637 21.47 119.366 21.4 119.058 21.4C118.76 21.4 118.489 21.47 118.246 21.61C118.013 21.75 117.822 21.9553 117.672 22.226C117.532 22.4873 117.462 22.8093 117.462 23.192C117.462 23.5747 117.532 23.906 117.672 24.186C117.822 24.4567 118.013 24.662 118.246 24.802C118.489 24.942 118.76 25.012 119.058 25.012ZM124.575 27V19.412H127.235V27H124.575ZM125.905 18.572C125.419 18.572 125.027 18.4367 124.729 18.166C124.43 17.8953 124.281 17.5593 124.281 17.158C124.281 16.7567 124.43 16.4207 124.729 16.15C125.027 15.8793 125.419 15.744 125.905 15.744C126.39 15.744 126.782 15.8747 127.081 16.136C127.379 16.388 127.529 16.7147 127.529 17.116C127.529 17.536 127.379 17.886 127.081 18.166C126.791 18.4367 126.399 18.572 125.905 18.572ZM131.721 27.126C131.077 27.126 130.447 27.0513 129.831 26.902C129.225 26.7527 128.735 26.566 128.361 26.342L129.159 24.522C129.514 24.7367 129.929 24.9093 130.405 25.04C130.881 25.1613 131.348 25.222 131.805 25.222C132.253 25.222 132.561 25.1753 132.729 25.082C132.907 24.9887 132.995 24.8627 132.995 24.704C132.995 24.5547 132.911 24.4473 132.743 24.382C132.585 24.3073 132.37 24.2513 132.099 24.214C131.838 24.1767 131.549 24.1347 131.231 24.088C130.914 24.0413 130.592 23.9807 130.265 23.906C129.948 23.822 129.654 23.7007 129.383 23.542C129.122 23.374 128.912 23.15 128.753 22.87C128.595 22.59 128.515 22.2353 128.515 21.806C128.515 21.3207 128.655 20.8913 128.935 20.518C129.225 20.1353 129.645 19.8367 130.195 19.622C130.746 19.398 131.418 19.286 132.211 19.286C132.743 19.286 133.28 19.342 133.821 19.454C134.372 19.5567 134.834 19.7153 135.207 19.93L134.409 21.736C134.036 21.5213 133.663 21.3767 133.289 21.302C132.916 21.218 132.561 21.176 132.225 21.176C131.777 21.176 131.46 21.2273 131.273 21.33C131.096 21.4327 131.007 21.5587 131.007 21.708C131.007 21.8573 131.087 21.974 131.245 22.058C131.404 22.1327 131.614 22.1933 131.875 22.24C132.146 22.2773 132.44 22.3193 132.757 22.366C133.075 22.4033 133.392 22.464 133.709 22.548C134.036 22.632 134.33 22.758 134.591 22.926C134.862 23.0847 135.077 23.304 135.235 23.584C135.394 23.8547 135.473 24.2047 135.473 24.634C135.473 25.1007 135.329 25.5207 135.039 25.894C134.759 26.2673 134.339 26.566 133.779 26.79C133.229 27.014 132.543 27.126 131.721 27.126Z" fill="#1A1A1A"/>
<path d="M275.326 27.196C274.412 27.196 273.614 27.014 272.932 26.65C272.26 26.286 271.733 25.7447 271.35 25.026C270.977 24.3073 270.79 23.4207 270.79 22.366C270.79 21.2273 271.01 20.2613 271.448 19.468C271.896 18.6653 272.508 18.054 273.282 17.634C274.066 17.214 274.972 17.004 275.998 17.004C276.549 17.004 277.076 17.0693 277.58 17.2C278.094 17.3213 278.528 17.494 278.882 17.718L277.874 19.706C277.594 19.51 277.3 19.3793 276.992 19.314C276.694 19.2393 276.386 19.202 276.068 19.202C275.312 19.202 274.706 19.4307 274.248 19.888C273.8 20.3453 273.576 21.0127 273.576 21.89C273.576 22.0487 273.576 22.2167 273.576 22.394C273.586 22.562 273.604 22.7347 273.632 22.912L272.932 22.338C273.119 21.9927 273.343 21.7033 273.604 21.47C273.875 21.2367 274.192 21.0593 274.556 20.938C274.93 20.8167 275.345 20.756 275.802 20.756C276.418 20.756 276.978 20.8867 277.482 21.148C277.996 21.4 278.406 21.7593 278.714 22.226C279.022 22.6833 279.176 23.2247 279.176 23.85C279.176 24.5313 279.004 25.124 278.658 25.628C278.313 26.1227 277.851 26.51 277.272 26.79C276.694 27.0607 276.045 27.196 275.326 27.196ZM275.158 25.222C275.42 25.222 275.648 25.1707 275.844 25.068C276.05 24.9653 276.208 24.8207 276.32 24.634C276.432 24.4473 276.488 24.228 276.488 23.976C276.488 23.6027 276.362 23.304 276.11 23.08C275.868 22.856 275.546 22.744 275.144 22.744C274.874 22.744 274.636 22.7953 274.43 22.898C274.234 23.0007 274.076 23.1453 273.954 23.332C273.842 23.5187 273.786 23.738 273.786 23.99C273.786 24.2327 273.842 24.4473 273.954 24.634C274.066 24.8113 274.225 24.956 274.43 25.068C274.636 25.1707 274.878 25.222 275.158 25.222ZM288.968 27V25.586L288.786 25.236V22.632C288.786 22.212 288.656 21.89 288.394 21.666C288.142 21.4327 287.736 21.316 287.176 21.316C286.812 21.316 286.444 21.3767 286.07 21.498C285.697 21.61 285.38 21.7687 285.118 21.974L284.222 20.168C284.652 19.888 285.165 19.6733 285.762 19.524C286.369 19.3653 286.971 19.286 287.568 19.286C288.8 19.286 289.752 19.5707 290.424 20.14C291.106 20.7 291.446 21.582 291.446 22.786V27H288.968ZM286.728 27.126C286.122 27.126 285.608 27.0233 285.188 26.818C284.768 26.6127 284.446 26.3327 284.222 25.978C284.008 25.6233 283.9 25.2267 283.9 24.788C283.9 24.3213 284.017 23.92 284.25 23.584C284.493 23.2387 284.862 22.9773 285.356 22.8C285.851 22.6133 286.49 22.52 287.274 22.52H289.066V23.906H287.638C287.209 23.906 286.906 23.976 286.728 24.116C286.56 24.256 286.476 24.4427 286.476 24.676C286.476 24.9093 286.565 25.096 286.742 25.236C286.92 25.376 287.162 25.446 287.47 25.446C287.76 25.446 288.021 25.376 288.254 25.236C288.497 25.0867 288.674 24.8627 288.786 24.564L289.15 25.544C289.01 26.0667 288.735 26.4633 288.324 26.734C287.923 26.9953 287.391 27.126 286.728 27.126ZM298.067 19.286C298.655 19.286 299.187 19.4073 299.663 19.65C300.139 19.8833 300.513 20.2473 300.783 20.742C301.063 21.2367 301.203 21.876 301.203 22.66V27H298.543V23.094C298.543 22.5527 298.431 22.1607 298.207 21.918C297.993 21.666 297.689 21.54 297.297 21.54C297.017 21.54 296.761 21.6053 296.527 21.736C296.294 21.8573 296.112 22.0487 295.981 22.31C295.851 22.5713 295.785 22.912 295.785 23.332V27H293.125V19.412H295.659V21.568L295.169 20.938C295.459 20.3873 295.855 19.9767 296.359 19.706C296.863 19.426 297.433 19.286 298.067 19.286ZM305.632 27.126C304.988 27.126 304.358 27.0513 303.742 26.902C303.135 26.7527 302.645 26.566 302.272 26.342L303.07 24.522C303.424 24.7367 303.84 24.9093 304.316 25.04C304.792 25.1613 305.258 25.222 305.716 25.222C306.164 25.222 306.472 25.1753 306.64 25.082C306.817 24.9887 306.906 24.8627 306.906 24.704C306.906 24.5547 306.822 24.4473 306.654 24.382C306.495 24.3073 306.28 24.2513 306.01 24.214C305.748 24.1767 305.459 24.1347 305.142 24.088C304.824 24.0413 304.502 23.9807 304.176 23.906C303.858 23.822 303.564 23.7007 303.294 23.542C303.032 23.374 302.822 23.15 302.664 22.87C302.505 22.59 302.426 22.2353 302.426 21.806C302.426 21.3207 302.566 20.8913 302.846 20.518C303.135 20.1353 303.555 19.8367 304.106 19.622C304.656 19.398 305.328 19.286 306.122 19.286C306.654 19.286 307.19 19.342 307.732 19.454C308.282 19.5567 308.744 19.7153 309.118 19.93L308.32 21.736C307.946 21.5213 307.573 21.3767 307.2 21.302C306.826 21.218 306.472 21.176 306.136 21.176C305.688 21.176 305.37 21.2273 305.184 21.33C305.006 21.4327 304.918 21.5587 304.918 21.708C304.918 21.8573 304.997 21.974 305.156 22.058C305.314 22.1327 305.524 22.1933 305.786 22.24C306.056 22.2773 306.35 22.3193 306.668 22.366C306.985 22.4033 307.302 22.464 307.62 22.548C307.946 22.632 308.24 22.758 308.502 22.926C308.772 23.0847 308.987 23.304 309.146 23.584C309.304 23.8547 309.384 24.2047 309.384 24.634C309.384 25.1007 309.239 25.5207 308.95 25.894C308.67 26.2673 308.25 26.566 307.69 26.79C307.139 27.014 306.453 27.126 305.632 27.126ZM310.236 29.198L311.286 25.558L311.664 27.07C311.197 27.07 310.814 26.9347 310.516 26.664C310.217 26.384 310.068 26.0107 310.068 25.544C310.068 25.0587 310.217 24.676 310.516 24.396C310.824 24.116 311.206 23.976 311.664 23.976C312.121 23.976 312.499 24.1207 312.798 24.41C313.096 24.69 313.246 25.068 313.246 25.544C313.246 25.6747 313.236 25.8053 313.218 25.936C313.199 26.0667 313.157 26.2253 313.092 26.412C313.026 26.5987 312.924 26.846 312.784 27.154L311.902 29.198H310.236ZM318.093 25.124V23.318L322.489 17.2H325.359L321.089 23.318L319.773 22.926H327.431V25.124H318.093ZM323.273 27V25.124L323.357 22.926V21.26H325.975V27H323.273ZM342.33 19.286C342.918 19.286 343.44 19.4073 343.898 19.65C344.364 19.8833 344.728 20.2473 344.99 20.742C345.26 21.2367 345.396 21.876 345.396 22.66V27H342.736V23.094C342.736 22.5527 342.633 22.1607 342.428 21.918C342.222 21.666 341.942 21.54 341.588 21.54C341.336 21.54 341.107 21.6007 340.902 21.722C340.696 21.8433 340.538 22.03 340.426 22.282C340.314 22.5247 340.258 22.842 340.258 23.234V27H337.598V23.094C337.598 22.5527 337.495 22.1607 337.29 21.918C337.094 21.666 336.814 21.54 336.45 21.54C336.188 21.54 335.955 21.6007 335.75 21.722C335.554 21.8433 335.395 22.03 335.274 22.282C335.162 22.5247 335.106 22.842 335.106 23.234V27H332.446V19.412H334.98V21.526L334.476 20.924C334.756 20.3827 335.138 19.9767 335.624 19.706C336.109 19.426 336.65 19.286 337.248 19.286C337.929 19.286 338.526 19.4633 339.04 19.818C339.562 20.1633 339.912 20.7047 340.09 21.442L339.222 21.26C339.492 20.644 339.898 20.1633 340.44 19.818C340.99 19.4633 341.62 19.286 342.33 19.286ZM350.978 27.126C350.148 27.126 349.41 26.958 348.766 26.622C348.122 26.286 347.614 25.824 347.24 25.236C346.876 24.6387 346.694 23.9573 346.694 23.192C346.694 22.4267 346.876 21.75 347.24 21.162C347.614 20.574 348.122 20.1167 348.766 19.79C349.41 19.454 350.148 19.286 350.978 19.286C351.809 19.286 352.546 19.454 353.19 19.79C353.844 20.1167 354.352 20.574 354.716 21.162C355.08 21.75 355.262 22.4267 355.262 23.192C355.262 23.9573 355.08 24.6387 354.716 25.236C354.352 25.824 353.844 26.286 353.19 26.622C352.546 26.958 351.809 27.126 350.978 27.126ZM350.978 25.012C351.286 25.012 351.557 24.942 351.79 24.802C352.033 24.662 352.224 24.4567 352.364 24.186C352.504 23.906 352.574 23.5747 352.574 23.192C352.574 22.8093 352.504 22.4873 352.364 22.226C352.224 21.9553 352.033 21.75 351.79 21.61C351.557 21.47 351.286 21.4 350.978 21.4C350.68 21.4 350.409 21.47 350.166 21.61C349.933 21.75 349.742 21.9553 349.592 22.226C349.452 22.4873 349.382 22.8093 349.382 23.192C349.382 23.5747 349.452 23.906 349.592 24.186C349.742 24.4567 349.933 24.662 350.166 24.802C350.409 24.942 350.68 25.012 350.978 25.012ZM356.495 27V19.412H359.155V27H356.495ZM357.825 18.572C357.339 18.572 356.947 18.4367 356.649 18.166C356.35 17.8953 356.201 17.5593 356.201 17.158C356.201 16.7567 356.35 16.4207 356.649 16.15C356.947 15.8793 357.339 15.744 357.825 15.744C358.31 15.744 358.702 15.8747 359.001 16.136C359.299 16.388 359.449 16.7147 359.449 17.116C359.449 17.536 359.299 17.886 359.001 18.166C358.711 18.4367 358.319 18.572 357.825 18.572ZM363.641 27.126C362.997 27.126 362.367 27.0513 361.751 26.902C361.145 26.7527 360.655 26.566 360.281 26.342L361.079 24.522C361.434 24.7367 361.849 24.9093 362.325 25.04C362.801 25.1613 363.268 25.222 363.725 25.222C364.173 25.222 364.481 25.1753 364.649 25.082C364.827 24.9887 364.915 24.8627 364.915 24.704C364.915 24.5547 364.831 24.4473 364.663 24.382C364.505 24.3073 364.29 24.2513 364.019 24.214C363.758 24.1767 363.469 24.1347 363.151 24.088C362.834 24.0413 362.512 23.9807 362.185 23.906C361.868 23.822 361.574 23.7007 361.303 23.542C361.042 23.374 360.832 23.15 360.673 22.87C360.515 22.59 360.435 22.2353 360.435 21.806C360.435 21.3207 360.575 20.8913 360.855 20.518C361.145 20.1353 361.565 19.8367 362.115 19.622C362.666 19.398 363.338 19.286 364.131 19.286C364.663 19.286 365.2 19.342 365.741 19.454C366.292 19.5567 366.754 19.7153 367.127 19.93L366.329 21.736C365.956 21.5213 365.583 21.3767 365.209 21.302C364.836 21.218 364.481 21.176 364.145 21.176C363.697 21.176 363.38 21.2273 363.193 21.33C363.016 21.4327 362.927 21.5587 362.927 21.708C362.927 21.8573 363.007 21.974 363.165 22.058C363.324 22.1327 363.534 22.1933 363.795 22.24C364.066 22.2773 364.36 22.3193 364.677 22.366C364.995 22.4033 365.312 22.464 365.629 22.548C365.956 22.632 366.25 22.758 366.511 22.926C366.782 23.0847 366.997 23.304 367.155 23.584C367.314 23.8547 367.393 24.2047 367.393 24.634C367.393 25.1007 367.249 25.5207 366.959 25.894C366.679 26.2673 366.259 26.566 365.699 26.79C365.149 27.014 364.463 27.126 363.641 27.126Z" fill="#1A1A1A"/>
<path d="M28.8638 41V35.76H30.2238C30.7571 35.76 31.2104 35.8587 31.5838 36.056C31.9571 36.2533 32.2424 36.5467 32.4398 36.936C32.6371 37.32 32.7358 37.7947 32.7358 38.36C32.7358 38.9253 32.6371 39.4053 32.4398 39.8C32.2478 40.1893 31.9678 40.488 31.5998 40.696C31.2318 40.8987 30.7864 41 30.2638 41H28.8638ZM29.6638 40.352H30.1678C30.5464 40.352 30.8664 40.2773 31.1278 40.128C31.3891 39.9733 31.5838 39.7493 31.7118 39.456C31.8451 39.1627 31.9118 38.7973 31.9118 38.36C31.9118 37.9227 31.8451 37.56 31.7118 37.272C31.5838 36.984 31.3891 36.768 31.1278 36.624C30.8664 36.48 30.5464 36.408 30.1678 36.408H29.6638V40.352ZM34.9047 41.096C34.4941 41.096 34.1927 40.9627 34.0007 40.696C33.8087 40.4293 33.7127 40.048 33.7127 39.552V37.088H34.5047V39.456C34.5047 39.7973 34.5554 40.0427 34.6567 40.192C34.7634 40.336 34.9341 40.408 35.1687 40.408C35.3554 40.408 35.5181 40.3627 35.6567 40.272C35.8007 40.176 35.9581 40.024 36.1287 39.816V37.088H36.9207V41H36.2647L36.2007 40.408H36.1847C36.0087 40.616 35.8167 40.784 35.6087 40.912C35.4061 41.0347 35.1714 41.096 34.9047 41.096ZM38.1592 41V37.088H38.8072L38.8712 37.792H38.8952C39.0285 37.5413 39.1912 37.3467 39.3832 37.208C39.5805 37.064 39.7885 36.992 40.0072 36.992C40.0978 36.992 40.1752 37 40.2392 37.016C40.3085 37.0267 40.3725 37.0453 40.4312 37.072L40.2712 37.752C40.2125 37.736 40.1565 37.7253 40.1032 37.72C40.0498 37.7093 39.9832 37.704 39.9032 37.704C39.7432 37.704 39.5752 37.768 39.3992 37.896C39.2232 38.0187 39.0738 38.2373 38.9512 38.552V41H38.1592ZM42.5958 41.096C42.2332 41.096 41.9078 41.016 41.6198 40.856C41.3318 40.6907 41.1025 40.456 40.9318 40.152C40.7665 39.848 40.6838 39.48 40.6838 39.048C40.6838 38.6213 40.7692 38.256 40.9398 37.952C41.1105 37.6427 41.3318 37.4053 41.6038 37.24C41.8758 37.0747 42.1638 36.992 42.4678 36.992C42.8145 36.992 43.1052 37.072 43.3398 37.232C43.5745 37.3867 43.7505 37.6027 43.8678 37.88C43.9905 38.152 44.0518 38.472 44.0518 38.84C44.0518 38.9147 44.0492 38.9893 44.0438 39.064C44.0385 39.1387 44.0278 39.2107 44.0118 39.28H41.2598V38.664H43.3478C43.3478 38.3333 43.2758 38.08 43.1318 37.904C42.9878 37.7227 42.7718 37.632 42.4838 37.632C42.3185 37.632 42.1585 37.6773 42.0038 37.768C41.8492 37.8533 41.7212 38 41.6198 38.208C41.5185 38.4107 41.4678 38.688 41.4678 39.04C41.4678 39.36 41.5238 39.624 41.6358 39.832C41.7478 40.04 41.8972 40.1973 42.0838 40.304C42.2705 40.4053 42.4705 40.456 42.6838 40.456C42.8652 40.456 43.0332 40.432 43.1878 40.384C43.3478 40.3307 43.4945 40.2613 43.6278 40.176L43.9078 40.688C43.7318 40.8107 43.5318 40.9093 43.3078 40.984C43.0892 41.0587 42.8518 41.096 42.5958 41.096ZM41.8198 36.44L42.8278 35.088H43.6838L43.7318 35.168L42.4518 36.44H41.8198ZM46.6037 41.096C46.241 41.096 45.9157 41.016 45.6277 40.856C45.3397 40.6907 45.1103 40.456 44.9397 40.152C44.7743 39.848 44.6917 39.48 44.6917 39.048C44.6917 38.6213 44.777 38.256 44.9477 37.952C45.1183 37.6427 45.3397 37.4053 45.6117 37.24C45.8837 37.0747 46.1717 36.992 46.4757 36.992C46.8223 36.992 47.113 37.072 47.3477 37.232C47.5823 37.3867 47.7583 37.6027 47.8757 37.88C47.9983 38.152 48.0597 38.472 48.0597 38.84C48.0597 38.9147 48.057 38.9893 48.0517 39.064C48.0463 39.1387 48.0357 39.2107 48.0197 39.28H45.2677V38.664H47.3557C47.3557 38.3333 47.2837 38.08 47.1397 37.904C46.9957 37.7227 46.7797 37.632 46.4917 37.632C46.3263 37.632 46.1663 37.6773 46.0117 37.768C45.857 37.8533 45.729 38 45.6277 38.208C45.5263 38.4107 45.4757 38.688 45.4757 39.04C45.4757 39.36 45.5317 39.624 45.6437 39.832C45.7557 40.04 45.905 40.1973 46.0917 40.304C46.2783 40.4053 46.4783 40.456 46.6917 40.456C46.873 40.456 47.041 40.432 47.1957 40.384C47.3557 40.3307 47.5023 40.2613 47.6357 40.176L47.9157 40.688C47.7397 40.8107 47.5397 40.9093 47.3157 40.984C47.097 41.0587 46.8597 41.096 46.6037 41.096ZM51.925 41.096C51.4397 41.096 51.0504 40.9173 50.757 40.56C50.4637 40.1973 50.317 39.6933 50.317 39.048C50.317 38.6267 50.3944 38.264 50.549 37.96C50.709 37.6507 50.917 37.4133 51.173 37.248C51.429 37.0773 51.701 36.992 51.989 36.992C52.2184 36.992 52.413 37.032 52.573 37.112C52.733 37.1867 52.893 37.2933 53.053 37.432L53.021 36.784V35.328H53.813V41H53.165L53.101 40.56H53.077C52.9277 40.704 52.7544 40.8293 52.557 40.936C52.3597 41.0427 52.149 41.096 51.925 41.096ZM52.117 40.44C52.2824 40.44 52.437 40.4 52.581 40.32C52.7304 40.24 52.877 40.1173 53.021 39.952V38.016C52.8717 37.8827 52.725 37.7893 52.581 37.736C52.4424 37.6827 52.2984 37.656 52.149 37.656C51.9624 37.656 51.7917 37.712 51.637 37.824C51.4877 37.936 51.365 38.096 51.269 38.304C51.1784 38.512 51.133 38.7573 51.133 39.04C51.133 39.488 51.2184 39.8347 51.389 40.08C51.5597 40.32 51.8024 40.44 52.117 40.44ZM56.6818 41.096C56.3191 41.096 55.9938 41.016 55.7058 40.856C55.4178 40.6907 55.1884 40.456 55.0178 40.152C54.8524 39.848 54.7698 39.48 54.7698 39.048C54.7698 38.6213 54.8551 38.256 55.0258 37.952C55.1964 37.6427 55.4178 37.4053 55.6898 37.24C55.9618 37.0747 56.2498 36.992 56.5538 36.992C56.9004 36.992 57.1911 37.072 57.4258 37.232C57.6604 37.3867 57.8364 37.6027 57.9538 37.88C58.0764 38.152 58.1378 38.472 58.1378 38.84C58.1378 38.9147 58.1351 38.9893 58.1298 39.064C58.1244 39.1387 58.1138 39.2107 58.0978 39.28H55.3458V38.664H57.4338C57.4338 38.3333 57.3618 38.08 57.2178 37.904C57.0738 37.7227 56.8578 37.632 56.5698 37.632C56.4044 37.632 56.2444 37.6773 56.0898 37.768C55.9351 37.8533 55.8071 38 55.7058 38.208C55.6044 38.4107 55.5538 38.688 55.5538 39.04C55.5538 39.36 55.6098 39.624 55.7218 39.832C55.8338 40.04 55.9831 40.1973 56.1698 40.304C56.3564 40.4053 56.5564 40.456 56.7698 40.456C56.9511 40.456 57.1191 40.432 57.2738 40.384C57.4338 40.3307 57.5804 40.2613 57.7138 40.176L57.9938 40.688C57.8178 40.8107 57.6178 40.9093 57.3938 40.984C57.1751 41.0587 56.9378 41.096 56.6818 41.096ZM61.5152 41L60.1312 37.088H60.9392L61.6192 39.216C61.6725 39.4027 61.7285 39.5947 61.7872 39.792C61.8512 39.9893 61.9098 40.184 61.9632 40.376H61.9952C62.0538 40.184 62.1125 39.9893 62.1712 39.792C62.2298 39.5947 62.2858 39.4027 62.3392 39.216L63.0192 37.088H63.7872L62.4352 41H61.5152ZM64.5027 41V37.088H65.2947V41H64.5027ZM64.9027 36.344C64.7587 36.344 64.6387 36.3013 64.5427 36.216C64.4521 36.1253 64.4067 36.008 64.4067 35.864C64.4067 35.7253 64.4521 35.6133 64.5427 35.528C64.6387 35.4373 64.7587 35.392 64.9027 35.392C65.0521 35.392 65.1721 35.4373 65.2627 35.528C65.3534 35.6133 65.3987 35.7253 65.3987 35.864C65.3987 36.008 65.3534 36.1253 65.2627 36.216C65.1721 36.3013 65.0521 36.344 64.9027 36.344ZM68.174 41.096C67.8113 41.096 67.486 41.016 67.198 40.856C66.91 40.6907 66.6806 40.456 66.51 40.152C66.3446 39.848 66.262 39.48 66.262 39.048C66.262 38.6213 66.3473 38.256 66.518 37.952C66.6886 37.6427 66.91 37.4053 67.182 37.24C67.454 37.0747 67.742 36.992 68.046 36.992C68.3926 36.992 68.6833 37.072 68.918 37.232C69.1526 37.3867 69.3286 37.6027 69.446 37.88C69.5686 38.152 69.63 38.472 69.63 38.84C69.63 38.9147 69.6273 38.9893 69.622 39.064C69.6166 39.1387 69.606 39.2107 69.59 39.28H66.838V38.664H68.926C68.926 38.3333 68.854 38.08 68.71 37.904C68.566 37.7227 68.35 37.632 68.062 37.632C67.8966 37.632 67.7366 37.6773 67.582 37.768C67.4273 37.8533 67.2993 38 67.198 38.208C67.0966 38.4107 67.046 38.688 67.046 39.04C67.046 39.36 67.102 39.624 67.214 39.832C67.326 40.04 67.4753 40.1973 67.662 40.304C67.8486 40.4053 68.0486 40.456 68.262 40.456C68.4433 40.456 68.6113 40.432 68.766 40.384C68.926 40.3307 69.0726 40.2613 69.206 40.176L69.486 40.688C69.31 40.8107 69.11 40.9093 68.886 40.984C68.6673 41.0587 68.43 41.096 68.174 41.096ZM72.1513 41V37.088H72.7993L72.8633 37.64H72.8873C73.0527 37.4587 73.234 37.3067 73.4313 37.184C73.634 37.056 73.8553 36.992 74.0953 36.992C74.3887 36.992 74.6207 37.0587 74.7913 37.192C74.962 37.32 75.09 37.496 75.1753 37.72C75.3673 37.5067 75.5673 37.3333 75.7753 37.2C75.9833 37.0613 76.2073 36.992 76.4473 36.992C76.858 36.992 77.1593 37.1253 77.3513 37.392C77.5487 37.6587 77.6473 38.04 77.6473 38.536V41H76.8553V38.64C76.8553 38.2933 76.802 38.048 76.6953 37.904C76.5887 37.7547 76.4207 37.68 76.1913 37.68C76.0527 37.68 75.9087 37.7253 75.7593 37.816C75.6153 37.9013 75.4607 38.0347 75.2953 38.216V41H74.5033V38.64C74.5033 38.2933 74.45 38.048 74.3433 37.904C74.2367 37.7547 74.0687 37.68 73.8393 37.68C73.5673 37.68 73.2687 37.8587 72.9433 38.216V41H72.1513ZM80.3988 41.096C80.0735 41.096 79.7722 41.016 79.4948 40.856C79.2175 40.696 78.9908 40.464 78.8148 40.16C78.6442 39.8507 78.5588 39.48 78.5588 39.048C78.5588 38.616 78.6442 38.248 78.8148 37.944C78.9908 37.6347 79.2175 37.4 79.4948 37.24C79.7722 37.0747 80.0735 36.992 80.3988 36.992C80.7188 36.992 81.0175 37.0747 81.2948 37.24C81.5722 37.4 81.7962 37.6347 81.9668 37.944C82.1428 38.248 82.2308 38.616 82.2308 39.048C82.2308 39.48 82.1428 39.8507 81.9668 40.16C81.7962 40.464 81.5722 40.696 81.2948 40.856C81.0175 41.016 80.7188 41.096 80.3988 41.096ZM80.3988 40.448C80.6068 40.448 80.7855 40.3893 80.9348 40.272C81.0895 40.1547 81.2068 39.992 81.2868 39.784C81.3722 39.576 81.4148 39.3307 81.4148 39.048C81.4148 38.7707 81.3722 38.528 81.2868 38.32C81.2068 38.1067 81.0895 37.9413 80.9348 37.824C80.7855 37.7067 80.6068 37.648 80.3988 37.648C80.1908 37.648 80.0095 37.7067 79.8548 37.824C79.7055 37.9413 79.5882 38.1067 79.5028 38.32C79.4175 38.528 79.3748 38.7707 79.3748 39.048C79.3748 39.3307 79.4175 39.576 79.5028 39.784C79.5882 39.992 79.7055 40.1547 79.8548 40.272C80.0095 40.3893 80.1908 40.448 80.3988 40.448ZM83.327 42.64C83.231 42.64 83.143 42.632 83.063 42.616C82.983 42.6 82.9083 42.5813 82.839 42.56L82.999 41.952C83.0523 41.968 83.1003 41.9787 83.143 41.984C83.191 41.9947 83.2363 42 83.279 42C83.4923 42 83.6656 41.928 83.799 41.784C83.9376 41.64 84.0416 41.4613 84.111 41.248L84.191 40.976L82.639 37.088H83.447L84.183 39.128C84.2416 39.2987 84.3003 39.48 84.359 39.672C84.423 39.8587 84.4843 40.0453 84.543 40.232H84.575C84.6283 40.0507 84.6816 39.8667 84.735 39.68C84.7883 39.488 84.839 39.304 84.887 39.128L85.527 37.088H86.295L84.855 41.248C84.7536 41.5253 84.6363 41.768 84.503 41.976C84.3696 42.184 84.207 42.3467 84.015 42.464C83.8283 42.5813 83.599 42.64 83.327 42.64ZM88.6115 41.096C88.2488 41.096 87.9235 41.016 87.6355 40.856C87.3475 40.6907 87.1181 40.456 86.9475 40.152C86.7821 39.848 86.6995 39.48 86.6995 39.048C86.6995 38.6213 86.7848 38.256 86.9555 37.952C87.1261 37.6427 87.3475 37.4053 87.6195 37.24C87.8915 37.0747 88.1795 36.992 88.4835 36.992C88.8301 36.992 89.1208 37.072 89.3555 37.232C89.5901 37.3867 89.7661 37.6027 89.8835 37.88C90.0061 38.152 90.0675 38.472 90.0675 38.84C90.0675 38.9147 90.0648 38.9893 90.0595 39.064C90.0541 39.1387 90.0435 39.2107 90.0275 39.28H87.2755V38.664H89.3635C89.3635 38.3333 89.2915 38.08 89.1475 37.904C89.0035 37.7227 88.7875 37.632 88.4995 37.632C88.3341 37.632 88.1741 37.6773 88.0195 37.768C87.8648 37.8533 87.7368 38 87.6355 38.208C87.5341 38.4107 87.4835 38.688 87.4835 39.04C87.4835 39.36 87.5395 39.624 87.6515 39.832C87.7635 40.04 87.9128 40.1973 88.0995 40.304C88.2861 40.4053 88.4861 40.456 88.6995 40.456C88.8808 40.456 89.0488 40.432 89.2035 40.384C89.3635 40.3307 89.5101 40.2613 89.6435 40.176L89.9235 40.688C89.7475 40.8107 89.5475 40.9093 89.3235 40.984C89.1048 41.0587 88.8675 41.096 88.6115 41.096ZM90.9873 41V37.088H91.6353L91.6993 37.64H91.7233C91.9046 37.4587 92.0993 37.3067 92.3073 37.184C92.5153 37.056 92.7526 36.992 93.0193 36.992C93.4353 36.992 93.7393 37.1253 93.9313 37.392C94.1233 37.6587 94.2193 38.04 94.2193 38.536V41H93.4273V38.64C93.4273 38.2933 93.3739 38.048 93.2673 37.904C93.1606 37.7547 92.9899 37.68 92.7553 37.68C92.5686 37.68 92.4033 37.7253 92.2593 37.816C92.1153 37.9067 91.9553 38.04 91.7793 38.216V41H90.9873ZM95.4092 41V37.088H96.0572L96.1212 37.64H96.1452C96.3265 37.4587 96.5212 37.3067 96.7292 37.184C96.9372 37.056 97.1745 36.992 97.4412 36.992C97.8572 36.992 98.1612 37.1253 98.3532 37.392C98.5452 37.6587 98.6412 38.04 98.6412 38.536V41H97.8492V38.64C97.8492 38.2933 97.7958 38.048 97.6892 37.904C97.5825 37.7547 97.4118 37.68 97.1772 37.68C96.9905 37.68 96.8252 37.7253 96.6812 37.816C96.5372 37.9067 96.3772 38.04 96.2012 38.216V41H95.4092ZM101.463 41.096C101.1 41.096 100.775 41.016 100.487 40.856C100.199 40.6907 99.9697 40.456 99.799 40.152C99.6337 39.848 99.551 39.48 99.551 39.048C99.551 38.6213 99.6364 38.256 99.807 37.952C99.9777 37.6427 100.199 37.4053 100.471 37.24C100.743 37.0747 101.031 36.992 101.335 36.992C101.682 36.992 101.972 37.072 102.207 37.232C102.442 37.3867 102.618 37.6027 102.735 37.88C102.858 38.152 102.919 38.472 102.919 38.84C102.919 38.9147 102.916 38.9893 102.911 39.064C102.906 39.1387 102.895 39.2107 102.879 39.28H100.127V38.664H102.215C102.215 38.3333 102.143 38.08 101.999 37.904C101.855 37.7227 101.639 37.632 101.351 37.632C101.186 37.632 101.026 37.6773 100.871 37.768C100.716 37.8533 100.588 38 100.487 38.208C100.386 38.4107 100.335 38.688 100.335 39.04C100.335 39.36 100.391 39.624 100.503 39.832C100.615 40.04 100.764 40.1973 100.951 40.304C101.138 40.4053 101.338 40.456 101.551 40.456C101.732 40.456 101.9 40.432 102.055 40.384C102.215 40.3307 102.362 40.2613 102.495 40.176L102.775 40.688C102.599 40.8107 102.399 40.9093 102.175 40.984C101.956 41.0587 101.719 41.096 101.463 41.096ZM106.784 41.096C106.299 41.096 105.91 40.9173 105.616 40.56C105.323 40.1973 105.176 39.6933 105.176 39.048C105.176 38.6267 105.254 38.264 105.408 37.96C105.568 37.6507 105.776 37.4133 106.032 37.248C106.288 37.0773 106.56 36.992 106.848 36.992C107.078 36.992 107.272 37.032 107.432 37.112C107.592 37.1867 107.752 37.2933 107.912 37.432L107.88 36.784V35.328H108.672V41H108.024L107.96 40.56H107.936C107.787 40.704 107.614 40.8293 107.416 40.936C107.219 41.0427 107.008 41.096 106.784 41.096ZM106.976 40.44C107.142 40.44 107.296 40.4 107.44 40.32C107.59 40.24 107.736 40.1173 107.88 39.952V38.016C107.731 37.8827 107.584 37.7893 107.44 37.736C107.302 37.6827 107.158 37.656 107.008 37.656C106.822 37.656 106.651 37.712 106.496 37.824C106.347 37.936 106.224 38.096 106.128 38.304C106.038 38.512 105.992 38.7573 105.992 39.04C105.992 39.488 106.078 39.8347 106.248 40.08C106.419 40.32 106.662 40.44 106.976 40.44ZM110.005 37.72L109.805 37.352C110.018 37.224 110.176 37.0827 110.277 36.928C110.384 36.7733 110.437 36.5787 110.437 36.344L110.365 35.776L110.709 36.216C110.656 36.264 110.602 36.3013 110.549 36.328C110.496 36.3493 110.434 36.36 110.365 36.36C110.242 36.36 110.133 36.32 110.037 36.24C109.941 36.16 109.893 36.0507 109.893 35.912C109.893 35.7573 109.938 35.6373 110.029 35.552C110.12 35.4613 110.232 35.416 110.365 35.416C110.552 35.416 110.693 35.4853 110.789 35.624C110.885 35.7627 110.933 35.9627 110.933 36.224C110.933 36.5547 110.856 36.8453 110.701 37.096C110.546 37.3413 110.314 37.5493 110.005 37.72ZM113.147 41.096C112.736 41.096 112.435 40.9627 112.243 40.696C112.051 40.4293 111.955 40.048 111.955 39.552V37.088H112.747V39.456C112.747 39.7973 112.798 40.0427 112.899 40.192C113.006 40.336 113.176 40.408 113.411 40.408C113.598 40.408 113.76 40.3627 113.899 40.272C114.043 40.176 114.2 40.024 114.371 39.816V37.088H115.163V41H114.507L114.443 40.408H114.427C114.251 40.616 114.059 40.784 113.851 40.912C113.648 41.0347 113.414 41.096 113.147 41.096ZM116.401 41V37.088H117.049L117.113 37.64H117.137C117.319 37.4587 117.513 37.3067 117.721 37.184C117.929 37.056 118.167 36.992 118.433 36.992C118.849 36.992 119.153 37.1253 119.345 37.392C119.537 37.6587 119.633 38.04 119.633 38.536V41H118.841V38.64C118.841 38.2933 118.788 38.048 118.681 37.904C118.575 37.7547 118.404 37.68 118.169 37.68C117.983 37.68 117.817 37.7253 117.673 37.816C117.529 37.9067 117.369 38.04 117.193 38.216V41H116.401ZM123.481 41.096C123.198 41.096 122.929 41.048 122.673 40.952C122.417 40.8507 122.195 40.7093 122.009 40.528L122.361 40.072C122.537 40.2107 122.715 40.3147 122.897 40.384C123.078 40.4533 123.281 40.488 123.505 40.488C123.739 40.488 123.913 40.4373 124.025 40.336C124.142 40.2293 124.201 40.1013 124.201 39.952C124.201 39.8347 124.158 39.736 124.073 39.656C123.993 39.5707 123.889 39.5013 123.761 39.448C123.633 39.3893 123.497 39.3333 123.353 39.28C123.161 39.2107 122.977 39.128 122.801 39.032C122.63 38.9307 122.491 38.808 122.385 38.664C122.278 38.52 122.225 38.344 122.225 38.136C122.225 37.8053 122.347 37.5333 122.593 37.32C122.843 37.1013 123.185 36.992 123.617 36.992C123.867 36.992 124.099 37.0347 124.313 37.12C124.531 37.2053 124.718 37.3147 124.873 37.448L124.521 37.904C124.382 37.808 124.241 37.7333 124.097 37.68C123.953 37.6267 123.795 37.6 123.625 37.6C123.406 37.6 123.243 37.6507 123.137 37.752C123.03 37.848 122.977 37.9627 122.977 38.096C122.977 38.2027 123.009 38.2933 123.073 38.368C123.142 38.4373 123.235 38.4987 123.353 38.552C123.475 38.6053 123.619 38.6613 123.785 38.72C123.987 38.7893 124.177 38.872 124.353 38.968C124.534 39.064 124.678 39.1867 124.785 39.336C124.897 39.4853 124.953 39.6747 124.953 39.904C124.953 40.1227 124.897 40.3227 124.785 40.504C124.673 40.6853 124.507 40.8293 124.289 40.936C124.07 41.0427 123.801 41.096 123.481 41.096ZM125.815 41V37.088H126.607V41H125.815ZM126.215 36.344C126.071 36.344 125.951 36.3013 125.855 36.216C125.765 36.1253 125.719 36.008 125.719 35.864C125.719 35.7253 125.765 35.6133 125.855 35.528C125.951 35.4373 126.071 35.392 126.215 35.392C126.365 35.392 126.485 35.4373 126.575 35.528C126.666 35.6133 126.711 35.7253 126.711 35.864C126.711 36.008 126.666 36.1253 126.575 36.216C126.485 36.3013 126.365 36.344 126.215 36.344ZM129.158 41.08C128.721 41.08 128.414 40.9547 128.238 40.704C128.062 40.448 127.974 40.1173 127.974 39.712V37.728H127.406V37.128L128.014 37.088L128.11 35.848H128.774V37.088H129.798V37.728H128.774V39.72C128.774 39.9547 128.817 40.1333 128.902 40.256C128.993 40.3787 129.142 40.44 129.35 40.44C129.42 40.44 129.489 40.4347 129.558 40.424C129.633 40.408 129.705 40.384 129.774 40.352L129.926 40.904C129.825 40.9573 129.708 41 129.574 41.032C129.441 41.064 129.302 41.08 129.158 41.08ZM132.166 41.096C131.803 41.096 131.478 41.016 131.19 40.856C130.902 40.6907 130.673 40.456 130.502 40.152C130.337 39.848 130.254 39.48 130.254 39.048C130.254 38.6213 130.339 38.256 130.51 37.952C130.681 37.6427 130.902 37.4053 131.174 37.24C131.446 37.0747 131.734 36.992 132.038 36.992C132.385 36.992 132.675 37.072 132.91 37.232C133.145 37.3867 133.321 37.6027 133.438 37.88C133.561 38.152 133.622 38.472 133.622 38.84C133.622 38.9147 133.619 38.9893 133.614 39.064C133.609 39.1387 133.598 39.2107 133.582 39.28H130.83V38.664H132.918C132.918 38.3333 132.846 38.08 132.702 37.904C132.558 37.7227 132.342 37.632 132.054 37.632C131.889 37.632 131.729 37.6773 131.574 37.768C131.419 37.8533 131.291 38 131.19 38.208C131.089 38.4107 131.038 38.688 131.038 39.04C131.038 39.36 131.094 39.624 131.206 39.832C131.318 40.04 131.467 40.1973 131.654 40.304C131.841 40.4053 132.041 40.456 132.254 40.456C132.435 40.456 132.603 40.432 132.758 40.384C132.918 40.3307 133.065 40.2613 133.198 40.176L133.478 40.688C133.302 40.8107 133.102 40.9093 132.878 40.984C132.659 41.0587 132.422 41.096 132.166 41.096ZM136.776 41L135.712 37.088H136.528L137.048 39.232C137.09 39.408 137.128 39.5867 137.16 39.768C137.197 39.9493 137.229 40.1493 137.256 40.368H137.288C137.33 40.1493 137.37 39.9493 137.408 39.768C137.445 39.5867 137.482 39.408 137.52 39.232L138.048 37.088H138.888L139.432 39.232C139.474 39.408 139.514 39.5867 139.552 39.768C139.594 39.9493 139.634 40.1493 139.672 40.368H139.704C139.746 40.1493 139.784 39.9493 139.816 39.768C139.848 39.5867 139.882 39.408 139.92 39.232L140.432 37.088H141.2L140.176 41H139.16L138.696 39.048C138.653 38.872 138.613 38.696 138.576 38.52C138.544 38.3387 138.509 38.1253 138.472 37.88H138.44C138.402 38.1253 138.365 38.3387 138.328 38.52C138.296 38.696 138.256 38.872 138.208 39.048L137.752 41H136.776ZM143.611 41.096C143.249 41.096 142.923 41.016 142.635 40.856C142.347 40.6907 142.118 40.456 141.947 40.152C141.782 39.848 141.699 39.48 141.699 39.048C141.699 38.6213 141.785 38.256 141.955 37.952C142.126 37.6427 142.347 37.4053 142.619 37.24C142.891 37.0747 143.179 36.992 143.483 36.992C143.83 36.992 144.121 37.072 144.355 37.232C144.59 37.3867 144.766 37.6027 144.883 37.88C145.006 38.152 145.067 38.472 145.067 38.84C145.067 38.9147 145.065 38.9893 145.059 39.064C145.054 39.1387 145.043 39.2107 145.027 39.28H142.275V38.664H144.363C144.363 38.3333 144.291 38.08 144.147 37.904C144.003 37.7227 143.787 37.632 143.499 37.632C143.334 37.632 143.174 37.6773 143.019 37.768C142.865 37.8533 142.737 38 142.635 38.208C142.534 38.4107 142.483 38.688 142.483 39.04C142.483 39.36 142.539 39.624 142.651 39.832C142.763 40.04 142.913 40.1973 143.099 40.304C143.286 40.4053 143.486 40.456 143.699 40.456C143.881 40.456 144.049 40.432 144.203 40.384C144.363 40.3307 144.51 40.2613 144.643 40.176L144.923 40.688C144.747 40.8107 144.547 40.9093 144.323 40.984C144.105 41.0587 143.867 41.096 143.611 41.096ZM147.795 41.096C147.619 41.096 147.435 41.0533 147.243 40.968C147.057 40.8773 146.878 40.752 146.707 40.592H146.683L146.611 41H145.987V35.328H146.779V36.832L146.755 37.512C146.926 37.3627 147.113 37.24 147.315 37.144C147.518 37.0427 147.723 36.992 147.931 36.992C148.262 36.992 148.542 37.0747 148.771 37.24C149.001 37.4053 149.174 37.6373 149.291 37.936C149.414 38.2293 149.475 38.5787 149.475 38.984C149.475 39.4267 149.395 39.808 149.235 40.128C149.081 40.4427 148.875 40.6827 148.619 40.848C148.363 41.0133 148.089 41.096 147.795 41.096ZM147.643 40.44C147.835 40.44 148.009 40.384 148.163 40.272C148.318 40.16 148.438 39.9973 148.523 39.784C148.614 39.5653 148.659 39.3013 148.659 38.992C148.659 38.72 148.627 38.4853 148.563 38.288C148.499 38.0853 148.398 37.9307 148.259 37.824C148.121 37.712 147.942 37.656 147.723 37.656C147.574 37.656 147.419 37.696 147.259 37.776C147.105 37.856 146.945 37.976 146.779 38.136V40.072C146.929 40.2053 147.081 40.3013 147.235 40.36C147.39 40.4133 147.526 40.44 147.643 40.44Z" fill="#1A1A1A" fill-opacity="0.8"/>
<path d="M273.176 41V35.76H274.536C275.07 35.76 275.523 35.8587 275.896 36.056C276.27 36.2533 276.555 36.5467 276.752 36.936C276.95 37.32 277.048 37.7947 277.048 38.36C277.048 38.9253 276.95 39.4053 276.752 39.8C276.56 40.1893 276.28 40.488 275.912 40.696C275.544 40.8987 275.099 41 274.576 41H273.176ZM273.976 40.352H274.48C274.859 40.352 275.179 40.2773 275.44 40.128C275.702 39.9733 275.896 39.7493 276.024 39.456C276.158 39.1627 276.224 38.7973 276.224 38.36C276.224 37.9227 276.158 37.56 276.024 37.272C275.896 36.984 275.702 36.768 275.44 36.624C275.179 36.48 274.859 36.408 274.48 36.408H273.976V40.352ZM279.217 41.096C278.807 41.096 278.505 40.9627 278.313 40.696C278.121 40.4293 278.025 40.048 278.025 39.552V37.088H278.817V39.456C278.817 39.7973 278.868 40.0427 278.969 40.192C279.076 40.336 279.247 40.408 279.481 40.408C279.668 40.408 279.831 40.3627 279.969 40.272C280.113 40.176 280.271 40.024 280.441 39.816V37.088H281.233V41H280.577L280.513 40.408H280.497C280.321 40.616 280.129 40.784 279.921 40.912C279.719 41.0347 279.484 41.096 279.217 41.096ZM282.472 41V37.088H283.12L283.184 37.792H283.208C283.341 37.5413 283.504 37.3467 283.696 37.208C283.893 37.064 284.101 36.992 284.32 36.992C284.41 36.992 284.488 37 284.552 37.016C284.621 37.0267 284.685 37.0453 284.744 37.072L284.584 37.752C284.525 37.736 284.469 37.7253 284.416 37.72C284.362 37.7093 284.296 37.704 284.216 37.704C284.056 37.704 283.888 37.768 283.712 37.896C283.536 38.0187 283.386 38.2373 283.264 38.552V41H282.472ZM286.908 41.096C286.546 41.096 286.22 41.016 285.932 40.856C285.644 40.6907 285.415 40.456 285.244 40.152C285.079 39.848 284.996 39.48 284.996 39.048C284.996 38.6213 285.082 38.256 285.252 37.952C285.423 37.6427 285.644 37.4053 285.916 37.24C286.188 37.0747 286.476 36.992 286.78 36.992C287.127 36.992 287.418 37.072 287.652 37.232C287.887 37.3867 288.063 37.6027 288.18 37.88C288.303 38.152 288.364 38.472 288.364 38.84C288.364 38.9147 288.362 38.9893 288.356 39.064C288.351 39.1387 288.34 39.2107 288.324 39.28H285.572V38.664H287.66C287.66 38.3333 287.588 38.08 287.444 37.904C287.3 37.7227 287.084 37.632 286.796 37.632C286.631 37.632 286.471 37.6773 286.316 37.768C286.162 37.8533 286.034 38 285.932 38.208C285.831 38.4107 285.78 38.688 285.78 39.04C285.78 39.36 285.836 39.624 285.948 39.832C286.06 40.04 286.21 40.1973 286.396 40.304C286.583 40.4053 286.783 40.456 286.996 40.456C287.178 40.456 287.346 40.432 287.5 40.384C287.66 40.3307 287.807 40.2613 287.94 40.176L288.22 40.688C288.044 40.8107 287.844 40.9093 287.62 40.984C287.402 41.0587 287.164 41.096 286.908 41.096ZM286.132 36.44L287.14 35.088H287.996L288.044 35.168L286.764 36.44H286.132ZM290.916 41.096C290.553 41.096 290.228 41.016 289.94 40.856C289.652 40.6907 289.423 40.456 289.252 40.152C289.087 39.848 289.004 39.48 289.004 39.048C289.004 38.6213 289.089 38.256 289.26 37.952C289.431 37.6427 289.652 37.4053 289.924 37.24C290.196 37.0747 290.484 36.992 290.788 36.992C291.135 36.992 291.425 37.072 291.66 37.232C291.895 37.3867 292.071 37.6027 292.188 37.88C292.311 38.152 292.372 38.472 292.372 38.84C292.372 38.9147 292.369 38.9893 292.364 39.064C292.359 39.1387 292.348 39.2107 292.332 39.28H289.58V38.664H291.668C291.668 38.3333 291.596 38.08 291.452 37.904C291.308 37.7227 291.092 37.632 290.804 37.632C290.639 37.632 290.479 37.6773 290.324 37.768C290.169 37.8533 290.041 38 289.94 38.208C289.839 38.4107 289.788 38.688 289.788 39.04C289.788 39.36 289.844 39.624 289.956 39.832C290.068 40.04 290.217 40.1973 290.404 40.304C290.591 40.4053 290.791 40.456 291.004 40.456C291.185 40.456 291.353 40.432 291.508 40.384C291.668 40.3307 291.815 40.2613 291.948 40.176L292.228 40.688C292.052 40.8107 291.852 40.9093 291.628 40.984C291.409 41.0587 291.172 41.096 290.916 41.096ZM296.238 41.096C295.752 41.096 295.363 40.9173 295.07 40.56C294.776 40.1973 294.63 39.6933 294.63 39.048C294.63 38.6267 294.707 38.264 294.862 37.96C295.022 37.6507 295.23 37.4133 295.486 37.248C295.742 37.0773 296.014 36.992 296.302 36.992C296.531 36.992 296.726 37.032 296.886 37.112C297.046 37.1867 297.206 37.2933 297.366 37.432L297.334 36.784V35.328H298.126V41H297.478L297.414 40.56H297.39C297.24 40.704 297.067 40.8293 296.87 40.936C296.672 41.0427 296.462 41.096 296.238 41.096ZM296.43 40.44C296.595 40.44 296.75 40.4 296.894 40.32C297.043 40.24 297.19 40.1173 297.334 39.952V38.016C297.184 37.8827 297.038 37.7893 296.894 37.736C296.755 37.6827 296.611 37.656 296.462 37.656C296.275 37.656 296.104 37.712 295.95 37.824C295.8 37.936 295.678 38.096 295.582 38.304C295.491 38.512 295.446 38.7573 295.446 39.04C295.446 39.488 295.531 39.8347 295.702 40.08C295.872 40.32 296.115 40.44 296.43 40.44ZM300.994 41.096C300.632 41.096 300.306 41.016 300.018 40.856C299.73 40.6907 299.501 40.456 299.33 40.152C299.165 39.848 299.082 39.48 299.082 39.048C299.082 38.6213 299.168 38.256 299.338 37.952C299.509 37.6427 299.73 37.4053 300.002 37.24C300.274 37.0747 300.562 36.992 300.866 36.992C301.213 36.992 301.504 37.072 301.738 37.232C301.973 37.3867 302.149 37.6027 302.266 37.88C302.389 38.152 302.45 38.472 302.45 38.84C302.45 38.9147 302.448 38.9893 302.442 39.064C302.437 39.1387 302.426 39.2107 302.41 39.28H299.658V38.664H301.746C301.746 38.3333 301.674 38.08 301.53 37.904C301.386 37.7227 301.17 37.632 300.882 37.632C300.717 37.632 300.557 37.6773 300.402 37.768C300.248 37.8533 300.12 38 300.018 38.208C299.917 38.4107 299.866 38.688 299.866 39.04C299.866 39.36 299.922 39.624 300.034 39.832C300.146 40.04 300.296 40.1973 300.482 40.304C300.669 40.4053 300.869 40.456 301.082 40.456C301.264 40.456 301.432 40.432 301.586 40.384C301.746 40.3307 301.893 40.2613 302.026 40.176L302.306 40.688C302.13 40.8107 301.93 40.9093 301.706 40.984C301.488 41.0587 301.25 41.096 300.994 41.096ZM305.828 41L304.444 37.088H305.252L305.932 39.216C305.985 39.4027 306.041 39.5947 306.1 39.792C306.164 39.9893 306.222 40.184 306.276 40.376H306.308C306.366 40.184 306.425 39.9893 306.484 39.792C306.542 39.5947 306.598 39.4027 306.652 39.216L307.332 37.088H308.1L306.748 41H305.828ZM308.815 41V37.088H309.607V41H308.815ZM309.215 36.344C309.071 36.344 308.951 36.3013 308.855 36.216C308.765 36.1253 308.719 36.008 308.719 35.864C308.719 35.7253 308.765 35.6133 308.855 35.528C308.951 35.4373 309.071 35.392 309.215 35.392C309.365 35.392 309.485 35.4373 309.575 35.528C309.666 35.6133 309.711 35.7253 309.711 35.864C309.711 36.008 309.666 36.1253 309.575 36.216C309.485 36.3013 309.365 36.344 309.215 36.344ZM312.486 41.096C312.124 41.096 311.798 41.016 311.51 40.856C311.222 40.6907 310.993 40.456 310.822 40.152C310.657 39.848 310.574 39.48 310.574 39.048C310.574 38.6213 310.66 38.256 310.83 37.952C311.001 37.6427 311.222 37.4053 311.494 37.24C311.766 37.0747 312.054 36.992 312.358 36.992C312.705 36.992 312.996 37.072 313.23 37.232C313.465 37.3867 313.641 37.6027 313.758 37.88C313.881 38.152 313.942 38.472 313.942 38.84C313.942 38.9147 313.94 38.9893 313.934 39.064C313.929 39.1387 313.918 39.2107 313.902 39.28H311.15V38.664H313.238C313.238 38.3333 313.166 38.08 313.022 37.904C312.878 37.7227 312.662 37.632 312.374 37.632C312.209 37.632 312.049 37.6773 311.894 37.768C311.74 37.8533 311.612 38 311.51 38.208C311.409 38.4107 311.358 38.688 311.358 39.04C311.358 39.36 311.414 39.624 311.526 39.832C311.638 40.04 311.788 40.1973 311.974 40.304C312.161 40.4053 312.361 40.456 312.574 40.456C312.756 40.456 312.924 40.432 313.078 40.384C313.238 40.3307 313.385 40.2613 313.518 40.176L313.798 40.688C313.622 40.8107 313.422 40.9093 313.198 40.984C312.98 41.0587 312.742 41.096 312.486 41.096ZM316.464 41V37.088H317.112L317.176 37.64H317.2C317.365 37.4587 317.547 37.3067 317.744 37.184C317.947 37.056 318.168 36.992 318.408 36.992C318.701 36.992 318.933 37.0587 319.104 37.192C319.275 37.32 319.403 37.496 319.488 37.72C319.68 37.5067 319.88 37.3333 320.088 37.2C320.296 37.0613 320.52 36.992 320.76 36.992C321.171 36.992 321.472 37.1253 321.664 37.392C321.861 37.6587 321.96 38.04 321.96 38.536V41H321.168V38.64C321.168 38.2933 321.115 38.048 321.008 37.904C320.901 37.7547 320.733 37.68 320.504 37.68C320.365 37.68 320.221 37.7253 320.072 37.816C319.928 37.9013 319.773 38.0347 319.608 38.216V41H318.816V38.64C318.816 38.2933 318.763 38.048 318.656 37.904C318.549 37.7547 318.381 37.68 318.152 37.68C317.88 37.68 317.581 37.8587 317.256 38.216V41H316.464ZM324.711 41.096C324.386 41.096 324.085 41.016 323.807 40.856C323.53 40.696 323.303 40.464 323.127 40.16C322.957 39.8507 322.871 39.48 322.871 39.048C322.871 38.616 322.957 38.248 323.127 37.944C323.303 37.6347 323.53 37.4 323.807 37.24C324.085 37.0747 324.386 36.992 324.711 36.992C325.031 36.992 325.33 37.0747 325.607 37.24C325.885 37.4 326.109 37.6347 326.279 37.944C326.455 38.248 326.543 38.616 326.543 39.048C326.543 39.48 326.455 39.8507 326.279 40.16C326.109 40.464 325.885 40.696 325.607 40.856C325.33 41.016 325.031 41.096 324.711 41.096ZM324.711 40.448C324.919 40.448 325.098 40.3893 325.247 40.272C325.402 40.1547 325.519 39.992 325.599 39.784C325.685 39.576 325.727 39.3307 325.727 39.048C325.727 38.7707 325.685 38.528 325.599 38.32C325.519 38.1067 325.402 37.9413 325.247 37.824C325.098 37.7067 324.919 37.648 324.711 37.648C324.503 37.648 324.322 37.7067 324.167 37.824C324.018 37.9413 323.901 38.1067 323.815 38.32C323.73 38.528 323.687 38.7707 323.687 39.048C323.687 39.3307 323.73 39.576 323.815 39.784C323.901 39.992 324.018 40.1547 324.167 40.272C324.322 40.3893 324.503 40.448 324.711 40.448ZM327.639 42.64C327.543 42.64 327.455 42.632 327.375 42.616C327.295 42.6 327.221 42.5813 327.151 42.56L327.311 41.952C327.365 41.968 327.413 41.9787 327.455 41.984C327.503 41.9947 327.549 42 327.591 42C327.805 42 327.978 41.928 328.111 41.784C328.25 41.64 328.354 41.4613 328.423 41.248L328.503 40.976L326.951 37.088H327.759L328.495 39.128C328.554 39.2987 328.613 39.48 328.671 39.672C328.735 39.8587 328.797 40.0453 328.855 40.232H328.887C328.941 40.0507 328.994 39.8667 329.047 39.68C329.101 39.488 329.151 39.304 329.199 39.128L329.839 37.088H330.607L329.167 41.248C329.066 41.5253 328.949 41.768 328.815 41.976C328.682 42.184 328.519 42.3467 328.327 42.464C328.141 42.5813 327.911 42.64 327.639 42.64ZM332.924 41.096C332.561 41.096 332.236 41.016 331.948 40.856C331.66 40.6907 331.431 40.456 331.26 40.152C331.095 39.848 331.012 39.48 331.012 39.048C331.012 38.6213 331.097 38.256 331.268 37.952C331.439 37.6427 331.66 37.4053 331.932 37.24C332.204 37.0747 332.492 36.992 332.796 36.992C333.143 36.992 333.433 37.072 333.668 37.232C333.903 37.3867 334.079 37.6027 334.196 37.88C334.319 38.152 334.38 38.472 334.38 38.84C334.38 38.9147 334.377 38.9893 334.372 39.064C334.367 39.1387 334.356 39.2107 334.34 39.28H331.588V38.664H333.676C333.676 38.3333 333.604 38.08 333.46 37.904C333.316 37.7227 333.1 37.632 332.812 37.632C332.647 37.632 332.487 37.6773 332.332 37.768C332.177 37.8533 332.049 38 331.948 38.208C331.847 38.4107 331.796 38.688 331.796 39.04C331.796 39.36 331.852 39.624 331.964 39.832C332.076 40.04 332.225 40.1973 332.412 40.304C332.599 40.4053 332.799 40.456 333.012 40.456C333.193 40.456 333.361 40.432 333.516 40.384C333.676 40.3307 333.823 40.2613 333.956 40.176L334.236 40.688C334.06 40.8107 333.86 40.9093 333.636 40.984C333.417 41.0587 333.18 41.096 332.924 41.096ZM335.3 41V37.088H335.948L336.012 37.64H336.036C336.217 37.4587 336.412 37.3067 336.62 37.184C336.828 37.056 337.065 36.992 337.332 36.992C337.748 36.992 338.052 37.1253 338.244 37.392C338.436 37.6587 338.532 38.04 338.532 38.536V41H337.74V38.64C337.74 38.2933 337.686 38.048 337.58 37.904C337.473 37.7547 337.302 37.68 337.068 37.68C336.881 37.68 336.716 37.7253 336.572 37.816C336.428 37.9067 336.268 38.04 336.092 38.216V41H335.3ZM339.722 41V37.088H340.37L340.434 37.64H340.458C340.639 37.4587 340.834 37.3067 341.042 37.184C341.25 37.056 341.487 36.992 341.754 36.992C342.17 36.992 342.474 37.1253 342.666 37.392C342.858 37.6587 342.954 38.04 342.954 38.536V41H342.162V38.64C342.162 38.2933 342.108 38.048 342.002 37.904C341.895 37.7547 341.724 37.68 341.49 37.68C341.303 37.68 341.138 37.7253 340.994 37.816C340.85 37.9067 340.69 38.04 340.514 38.216V41H339.722ZM345.776 41.096C345.413 41.096 345.088 41.016 344.8 40.856C344.512 40.6907 344.282 40.456 344.112 40.152C343.946 39.848 343.864 39.48 343.864 39.048C343.864 38.6213 343.949 38.256 344.12 37.952C344.29 37.6427 344.512 37.4053 344.784 37.24C345.056 37.0747 345.344 36.992 345.648 36.992C345.994 36.992 346.285 37.072 346.52 37.232C346.754 37.3867 346.93 37.6027 347.048 37.88C347.17 38.152 347.232 38.472 347.232 38.84C347.232 38.9147 347.229 38.9893 347.224 39.064C347.218 39.1387 347.208 39.2107 347.192 39.28H344.44V38.664H346.528C346.528 38.3333 346.456 38.08 346.312 37.904C346.168 37.7227 345.952 37.632 345.664 37.632C345.498 37.632 345.338 37.6773 345.184 37.768C345.029 37.8533 344.901 38 344.8 38.208C344.698 38.4107 344.648 38.688 344.648 39.04C344.648 39.36 344.704 39.624 344.816 39.832C344.928 40.04 345.077 40.1973 345.264 40.304C345.45 40.4053 345.65 40.456 345.864 40.456C346.045 40.456 346.213 40.432 346.368 40.384C346.528 40.3307 346.674 40.2613 346.808 40.176L347.088 40.688C346.912 40.8107 346.712 40.9093 346.488 40.984C346.269 41.0587 346.032 41.096 345.776 41.096ZM351.097 41.096C350.612 41.096 350.222 40.9173 349.929 40.56C349.636 40.1973 349.489 39.6933 349.489 39.048C349.489 38.6267 349.566 38.264 349.721 37.96C349.881 37.6507 350.089 37.4133 350.345 37.248C350.601 37.0773 350.873 36.992 351.161 36.992C351.39 36.992 351.585 37.032 351.745 37.112C351.905 37.1867 352.065 37.2933 352.225 37.432L352.193 36.784V35.328H352.985V41H352.337L352.273 40.56H352.249C352.1 40.704 351.926 40.8293 351.729 40.936C351.532 41.0427 351.321 41.096 351.097 41.096ZM351.289 40.44C351.454 40.44 351.609 40.4 351.753 40.32C351.902 40.24 352.049 40.1173 352.193 39.952V38.016C352.044 37.8827 351.897 37.7893 351.753 37.736C351.614 37.6827 351.47 37.656 351.321 37.656C351.134 37.656 350.964 37.712 350.809 37.824C350.66 37.936 350.537 38.096 350.441 38.304C350.35 38.512 350.305 38.7573 350.305 39.04C350.305 39.488 350.39 39.8347 350.561 40.08C350.732 40.32 350.974 40.44 351.289 40.44ZM354.318 37.72L354.118 37.352C354.331 37.224 354.488 37.0827 354.59 36.928C354.696 36.7733 354.75 36.5787 354.75 36.344L354.678 35.776L355.022 36.216C354.968 36.264 354.915 36.3013 354.862 36.328C354.808 36.3493 354.747 36.36 354.678 36.36C354.555 36.36 354.446 36.32 354.35 36.24C354.254 36.16 354.206 36.0507 354.206 35.912C354.206 35.7573 354.251 35.6373 354.342 35.552C354.432 35.4613 354.544 35.416 354.678 35.416C354.864 35.416 355.006 35.4853 355.102 35.624C355.198 35.7627 355.246 35.9627 355.246 36.224C355.246 36.5547 355.168 36.8453 355.014 37.096C354.859 37.3413 354.627 37.5493 354.318 37.72ZM357.459 41.096C357.049 41.096 356.747 40.9627 356.555 40.696C356.363 40.4293 356.267 40.048 356.267 39.552V37.088H357.059V39.456C357.059 39.7973 357.11 40.0427 357.211 40.192C357.318 40.336 357.489 40.408 357.723 40.408C357.91 40.408 358.073 40.3627 358.211 40.272C358.355 40.176 358.513 40.024 358.683 39.816V37.088H359.475V41H358.819L358.755 40.408H358.739C358.563 40.616 358.371 40.784 358.163 40.912C357.961 41.0347 357.726 41.096 357.459 41.096ZM360.714 41V37.088H361.362L361.426 37.64H361.45C361.631 37.4587 361.826 37.3067 362.034 37.184C362.242 37.056 362.479 36.992 362.746 36.992C363.162 36.992 363.466 37.1253 363.658 37.392C363.85 37.6587 363.946 38.04 363.946 38.536V41H363.154V38.64C363.154 38.2933 363.101 38.048 362.994 37.904C362.887 37.7547 362.717 37.68 362.482 37.68C362.295 37.68 362.13 37.7253 361.986 37.816C361.842 37.9067 361.682 38.04 361.506 38.216V41H360.714ZM285.805 51.096C285.522 51.096 285.253 51.048 284.997 50.952C284.741 50.8507 284.52 50.7093 284.333 50.528L284.685 50.072C284.861 50.2107 285.04 50.3147 285.221 50.384C285.402 50.4533 285.605 50.488 285.829 50.488C286.064 50.488 286.237 50.4373 286.349 50.336C286.466 50.2293 286.525 50.1013 286.525 49.952C286.525 49.8347 286.482 49.736 286.397 49.656C286.317 49.5707 286.213 49.5013 286.085 49.448C285.957 49.3893 285.821 49.3333 285.677 49.28C285.485 49.2107 285.301 49.128 285.125 49.032C284.954 48.9307 284.816 48.808 284.709 48.664C284.602 48.52 284.549 48.344 284.549 48.136C284.549 47.8053 284.672 47.5333 284.917 47.32C285.168 47.1013 285.509 46.992 285.941 46.992C286.192 46.992 286.424 47.0347 286.637 47.12C286.856 47.2053 287.042 47.3147 287.197 47.448L286.845 47.904C286.706 47.808 286.565 47.7333 286.421 47.68C286.277 47.6267 286.12 47.6 285.949 47.6C285.73 47.6 285.568 47.6507 285.461 47.752C285.354 47.848 285.301 47.9627 285.301 48.096C285.301 48.2027 285.333 48.2933 285.397 48.368C285.466 48.4373 285.56 48.4987 285.677 48.552C285.8 48.6053 285.944 48.6613 286.109 48.72C286.312 48.7893 286.501 48.872 286.677 48.968C286.858 49.064 287.002 49.1867 287.109 49.336C287.221 49.4853 287.277 49.6747 287.277 49.904C287.277 50.1227 287.221 50.3227 287.109 50.504C286.997 50.6853 286.832 50.8293 286.613 50.936C286.394 51.0427 286.125 51.096 285.805 51.096ZM288.139 51V47.088H288.931V51H288.139ZM288.539 46.344C288.395 46.344 288.275 46.3013 288.179 46.216C288.089 46.1253 288.043 46.008 288.043 45.864C288.043 45.7253 288.089 45.6133 288.179 45.528C288.275 45.4373 288.395 45.392 288.539 45.392C288.689 45.392 288.809 45.4373 288.899 45.528C288.99 45.6133 289.035 45.7253 289.035 45.864C289.035 46.008 288.99 46.1253 288.899 46.216C288.809 46.3013 288.689 46.344 288.539 46.344ZM291.483 51.08C291.045 51.08 290.739 50.9547 290.563 50.704C290.387 50.448 290.299 50.1173 290.299 49.712V47.728H289.731V47.128L290.339 47.088L290.435 45.848H291.099V47.088H292.123V47.728H291.099V49.72C291.099 49.9547 291.141 50.1333 291.227 50.256C291.317 50.3787 291.467 50.44 291.675 50.44C291.744 50.44 291.813 50.4347 291.883 50.424C291.957 50.408 292.029 50.384 292.099 50.352L292.251 50.904C292.149 50.9573 292.032 51 291.899 51.032C291.765 51.064 291.627 51.08 291.483 51.08ZM294.49 51.096C294.128 51.096 293.802 51.016 293.514 50.856C293.226 50.6907 292.997 50.456 292.826 50.152C292.661 49.848 292.578 49.48 292.578 49.048C292.578 48.6213 292.664 48.256 292.834 47.952C293.005 47.6427 293.226 47.4053 293.498 47.24C293.77 47.0747 294.058 46.992 294.362 46.992C294.709 46.992 295 47.072 295.234 47.232C295.469 47.3867 295.645 47.6027 295.762 47.88C295.885 48.152 295.946 48.472 295.946 48.84C295.946 48.9147 295.944 48.9893 295.938 49.064C295.933 49.1387 295.922 49.2107 295.906 49.28H293.154V48.664H295.242C295.242 48.3333 295.17 48.08 295.026 47.904C294.882 47.7227 294.666 47.632 294.378 47.632C294.213 47.632 294.053 47.6773 293.898 47.768C293.744 47.8533 293.616 48 293.514 48.208C293.413 48.4107 293.362 48.688 293.362 49.04C293.362 49.36 293.418 49.624 293.53 49.832C293.642 50.04 293.792 50.1973 293.978 50.304C294.165 50.4053 294.365 50.456 294.578 50.456C294.76 50.456 294.928 50.432 295.082 50.384C295.242 50.3307 295.389 50.2613 295.522 50.176L295.802 50.688C295.626 50.8107 295.426 50.9093 295.202 50.984C294.984 51.0587 294.746 51.096 294.49 51.096ZM299.1 51L298.036 47.088H298.852L299.372 49.232C299.414 49.408 299.452 49.5867 299.484 49.768C299.521 49.9493 299.553 50.1493 299.58 50.368H299.612C299.654 50.1493 299.694 49.9493 299.732 49.768C299.769 49.5867 299.806 49.408 299.844 49.232L300.372 47.088H301.212L301.756 49.232C301.798 49.408 301.838 49.5867 301.876 49.768C301.918 49.9493 301.958 50.1493 301.996 50.368H302.028C302.07 50.1493 302.108 49.9493 302.14 49.768C302.172 49.5867 302.206 49.408 302.244 49.232L302.756 47.088H303.524L302.5 51H301.484L301.02 49.048C300.977 48.872 300.937 48.696 300.9 48.52C300.868 48.3387 300.833 48.1253 300.796 47.88H300.764C300.726 48.1253 300.689 48.3387 300.652 48.52C300.62 48.696 300.58 48.872 300.532 49.048L300.076 51H299.1ZM305.936 51.096C305.573 51.096 305.248 51.016 304.96 50.856C304.672 50.6907 304.442 50.456 304.272 50.152C304.106 49.848 304.024 49.48 304.024 49.048C304.024 48.6213 304.109 48.256 304.28 47.952C304.45 47.6427 304.672 47.4053 304.944 47.24C305.216 47.0747 305.504 46.992 305.808 46.992C306.154 46.992 306.445 47.072 306.68 47.232C306.914 47.3867 307.09 47.6027 307.208 47.88C307.33 48.152 307.392 48.472 307.392 48.84C307.392 48.9147 307.389 48.9893 307.384 49.064C307.378 49.1387 307.368 49.2107 307.352 49.28H304.6V48.664H306.688C306.688 48.3333 306.616 48.08 306.472 47.904C306.328 47.7227 306.112 47.632 305.824 47.632C305.658 47.632 305.498 47.6773 305.344 47.768C305.189 47.8533 305.061 48 304.96 48.208C304.858 48.4107 304.808 48.688 304.808 49.04C304.808 49.36 304.864 49.624 304.976 49.832C305.088 50.04 305.237 50.1973 305.424 50.304C305.61 50.4053 305.81 50.456 306.024 50.456C306.205 50.456 306.373 50.432 306.528 50.384C306.688 50.3307 306.834 50.2613 306.968 50.176L307.248 50.688C307.072 50.8107 306.872 50.9093 306.648 50.984C306.429 51.0587 306.192 51.096 305.936 51.096ZM310.12 51.096C309.944 51.096 309.76 51.0533 309.568 50.968C309.381 50.8773 309.202 50.752 309.032 50.592H309.008L308.936 51H308.312V45.328H309.104V46.832L309.08 47.512C309.25 47.3627 309.437 47.24 309.64 47.144C309.842 47.0427 310.048 46.992 310.256 46.992C310.586 46.992 310.866 47.0747 311.096 47.24C311.325 47.4053 311.498 47.6373 311.616 47.936C311.738 48.2293 311.799 48.5787 311.799 48.984C311.799 49.4267 311.72 49.808 311.56 50.128C311.405 50.4427 311.2 50.6827 310.944 50.848C310.688 51.0133 310.413 51.096 310.12 51.096ZM309.968 50.44C310.16 50.44 310.333 50.384 310.488 50.272C310.642 50.16 310.762 49.9973 310.848 49.784C310.938 49.5653 310.984 49.3013 310.984 48.992C310.984 48.72 310.952 48.4853 310.888 48.288C310.824 48.0853 310.722 47.9307 310.584 47.824C310.445 47.712 310.266 47.656 310.048 47.656C309.898 47.656 309.744 47.696 309.584 47.776C309.429 47.856 309.269 47.976 309.104 48.136V50.072C309.253 50.2053 309.405 50.3013 309.56 50.36C309.714 50.4133 309.85 50.44 309.968 50.44ZM315.974 51.096C315.617 51.096 315.297 51.016 315.014 50.856C314.731 50.6907 314.507 50.456 314.342 50.152C314.177 49.848 314.094 49.48 314.094 49.048C314.094 48.616 314.182 48.248 314.358 47.944C314.539 47.6347 314.777 47.4 315.07 47.24C315.363 47.0747 315.678 46.992 316.014 46.992C316.27 46.992 316.491 47.0347 316.678 47.12C316.865 47.2053 317.027 47.312 317.166 47.44L316.782 47.936C316.691 47.8507 316.585 47.7813 316.462 47.728C316.345 47.6747 316.209 47.648 316.054 47.648C315.835 47.648 315.641 47.7067 315.47 47.824C315.299 47.9413 315.163 48.104 315.062 48.312C314.961 48.52 314.91 48.7653 314.91 49.048C314.91 49.3307 314.958 49.576 315.054 49.784C315.15 49.992 315.283 50.1547 315.454 50.272C315.625 50.3893 315.822 50.448 316.046 50.448C316.211 50.448 316.366 50.416 316.51 50.352C316.654 50.288 316.782 50.2053 316.894 50.104L317.23 50.592C317.065 50.7467 316.875 50.8693 316.662 50.96C316.449 51.0507 316.219 51.096 315.974 51.096ZM318.046 51V45.328H318.838V46.832L318.806 47.616C318.977 47.4453 319.163 47.2987 319.366 47.176C319.574 47.0533 319.811 46.992 320.078 46.992C320.494 46.992 320.798 47.1253 320.99 47.392C321.182 47.6587 321.278 48.04 321.278 48.536V51H320.486V48.64C320.486 48.2933 320.433 48.048 320.326 47.904C320.219 47.7547 320.049 47.68 319.814 47.68C319.627 47.68 319.462 47.7253 319.318 47.816C319.174 47.9067 319.014 48.04 318.838 48.216V51H318.046ZM324.084 51.096C323.721 51.096 323.396 51.016 323.108 50.856C322.82 50.6907 322.591 50.456 322.42 50.152C322.255 49.848 322.172 49.48 322.172 49.048C322.172 48.6213 322.257 48.256 322.428 47.952C322.599 47.6427 322.82 47.4053 323.092 47.24C323.364 47.0747 323.652 46.992 323.956 46.992C324.303 46.992 324.593 47.072 324.828 47.232C325.063 47.3867 325.239 47.6027 325.356 47.88C325.479 48.152 325.54 48.472 325.54 48.84C325.54 48.9147 325.537 48.9893 325.532 49.064C325.527 49.1387 325.516 49.2107 325.5 49.28H322.748V48.664H324.836C324.836 48.3333 324.764 48.08 324.62 47.904C324.476 47.7227 324.26 47.632 323.972 47.632C323.807 47.632 323.647 47.6773 323.492 47.768C323.337 47.8533 323.209 48 323.108 48.208C323.007 48.4107 322.956 48.688 322.956 49.04C322.956 49.36 323.012 49.624 323.124 49.832C323.236 50.04 323.385 50.1973 323.572 50.304C323.759 50.4053 323.959 50.456 324.172 50.456C324.353 50.456 324.521 50.432 324.676 50.384C324.836 50.3307 324.983 50.2613 325.116 50.176L325.396 50.688C325.22 50.8107 325.02 50.9093 324.796 50.984C324.577 51.0587 324.34 51.096 324.084 51.096ZM326.084 51V50.576L328.028 47.728H326.3V47.088H329.028V47.512L327.076 50.36H329.092V51H326.084ZM332.099 51L331.051 45.76H331.907L332.403 48.504C332.451 48.7867 332.496 49.0693 332.539 49.352C332.581 49.6293 332.621 49.92 332.659 50.224H332.691C332.739 49.92 332.792 49.6293 332.851 49.352C332.909 49.0693 332.968 48.7867 333.027 48.504L333.683 45.76H334.483L335.123 48.504C335.181 48.7813 335.24 49.0613 335.299 49.344C335.363 49.6267 335.421 49.92 335.475 50.224H335.507C335.544 49.92 335.584 49.6293 335.627 49.352C335.669 49.0693 335.712 48.7867 335.755 48.504L336.259 45.76H337.075L336.019 51H334.971L334.299 48.048C334.261 47.856 334.224 47.6587 334.187 47.456C334.149 47.2533 334.115 47.0347 334.083 46.8H334.051C334.024 47.0347 333.992 47.2533 333.955 47.456C333.917 47.6587 333.877 47.856 333.835 48.048L333.147 51H332.099ZM339.49 51.096C339.128 51.096 338.802 51.016 338.514 50.856C338.226 50.6907 337.997 50.456 337.826 50.152C337.661 49.848 337.578 49.48 337.578 49.048C337.578 48.6213 337.664 48.256 337.834 47.952C338.005 47.6427 338.226 47.4053 338.498 47.24C338.77 47.0747 339.058 46.992 339.362 46.992C339.709 46.992 340 47.072 340.234 47.232C340.469 47.3867 340.645 47.6027 340.762 47.88C340.885 48.152 340.946 48.472 340.946 48.84C340.946 48.9147 340.944 48.9893 340.938 49.064C340.933 49.1387 340.922 49.2107 340.906 49.28H338.154V48.664H340.242C340.242 48.3333 340.17 48.08 340.026 47.904C339.882 47.7227 339.666 47.632 339.378 47.632C339.213 47.632 339.053 47.6773 338.898 47.768C338.744 47.8533 338.616 48 338.514 48.208C338.413 48.4107 338.362 48.688 338.362 49.04C338.362 49.36 338.418 49.624 338.53 49.832C338.642 50.04 338.792 50.1973 338.978 50.304C339.165 50.4053 339.365 50.456 339.578 50.456C339.76 50.456 339.928 50.432 340.082 50.384C340.242 50.3307 340.389 50.2613 340.522 50.176L340.802 50.688C340.626 50.8107 340.426 50.9093 340.202 50.984C339.984 51.0587 339.746 51.096 339.49 51.096ZM343.674 51.096C343.498 51.096 343.314 51.0533 343.122 50.968C342.936 50.8773 342.757 50.752 342.586 50.592H342.562L342.49 51H341.866V45.328H342.658V46.832L342.634 47.512C342.805 47.3627 342.992 47.24 343.194 47.144C343.397 47.0427 343.602 46.992 343.81 46.992C344.141 46.992 344.421 47.0747 344.65 47.24C344.88 47.4053 345.053 47.6373 345.17 47.936C345.293 48.2293 345.354 48.5787 345.354 48.984C345.354 49.4267 345.274 49.808 345.114 50.128C344.96 50.4427 344.754 50.6827 344.498 50.848C344.242 51.0133 343.968 51.096 343.674 51.096ZM343.522 50.44C343.714 50.44 343.888 50.384 344.042 50.272C344.197 50.16 344.317 49.9973 344.402 49.784C344.493 49.5653 344.538 49.3013 344.538 48.992C344.538 48.72 344.506 48.4853 344.442 48.288C344.378 48.0853 344.277 47.9307 344.138 47.824C344 47.712 343.821 47.656 343.602 47.656C343.453 47.656 343.298 47.696 343.138 47.776C342.984 47.856 342.824 47.976 342.658 48.136V50.072C342.808 50.2053 342.96 50.3013 343.114 50.36C343.269 50.4133 343.405 50.44 343.522 50.44ZM346.327 51V47.088H346.975L347.039 47.792H347.063C347.196 47.5413 347.359 47.3467 347.551 47.208C347.748 47.064 347.956 46.992 348.175 46.992C348.266 46.992 348.343 47 348.407 47.016C348.476 47.0267 348.54 47.0453 348.599 47.072L348.439 47.752C348.38 47.736 348.324 47.7253 348.271 47.72C348.218 47.7093 348.151 47.704 348.071 47.704C347.911 47.704 347.743 47.768 347.567 47.896C347.391 48.0187 347.242 48.2373 347.119 48.552V51H346.327ZM350.692 51.096C350.366 51.096 350.065 51.016 349.788 50.856C349.51 50.696 349.284 50.464 349.108 50.16C348.937 49.8507 348.852 49.48 348.852 49.048C348.852 48.616 348.937 48.248 349.108 47.944C349.284 47.6347 349.51 47.4 349.788 47.24C350.065 47.0747 350.366 46.992 350.692 46.992C351.012 46.992 351.31 47.0747 351.588 47.24C351.865 47.4 352.089 47.6347 352.26 47.944C352.436 48.248 352.524 48.616 352.524 49.048C352.524 49.48 352.436 49.8507 352.26 50.16C352.089 50.464 351.865 50.696 351.588 50.856C351.31 51.016 351.012 51.096 350.692 51.096ZM350.692 50.448C350.9 50.448 351.078 50.3893 351.228 50.272C351.382 50.1547 351.5 49.992 351.58 49.784C351.665 49.576 351.708 49.3307 351.708 49.048C351.708 48.7707 351.665 48.528 351.58 48.32C351.5 48.1067 351.382 47.9413 351.228 47.824C351.078 47.7067 350.9 47.648 350.692 47.648C350.484 47.648 350.302 47.7067 350.148 47.824C349.998 47.9413 349.881 48.1067 349.796 48.32C349.71 48.528 349.668 48.7707 349.668 49.048C349.668 49.3307 349.71 49.576 349.796 49.784C349.881 49.992 349.998 50.1547 350.148 50.272C350.302 50.3893 350.484 50.448 350.692 50.448Z" fill="#1A1A1A" fill-opacity="0.8"/>
<path d="M353 160V62M18.5 160V61.5M75 62V160M135 61.5V159.5M191 61.5V159.5M243.5 61.5V159.5M293.5 62V160" stroke="black" stroke-opacity="0.1"/>
<path d="M192.5 105C188.5 103.879 178.3 102.023 171.5 102.023C163 102.023 147.5 102.023 124.5 88.5226C106.5 77.9574 99 74.4359 90.5 74C80 73.4616 70.8178 82.4516 49 111.023C28 138.523 15.1667 156.253 11 160.368C61.0771 152.935 113.067 134.022 163.198 115.786C172.877 112.265 182.987 108.383 192.5 105Z" fill="#D8D8D8"/>
<path fill-rule="evenodd" clip-rule="evenodd" d="M369.5 81.3679V160.368H259C241.8 121.462 207.667 107.117 192.5 105C259.658 81.1177 321.509 63.2379 369.5 81.3679Z" fill="#39A5B3"/>
<path d="M192.5 105C182.987 108.383 172.877 112.265 163.198 115.786C113.067 134.022 61.0771 152.935 11 160.368H259C241.8 121.462 207.667 107.117 192.5 105Z" fill="#39A5B3" fill-opacity="0.9"/>
<path d="M89 68L89 160" stroke="#1A1A1A" stroke-linecap="round"/>
<circle cx="89" cy="64" r="4" fill="#1A1A1A"/>
<path d="M319 68L319 160" stroke="#C8543C" stroke-linecap="round"/>
<circle cx="319" cy="64" r="4" fill="#C8543C"/>
<path d="M10.7996 175V174.06H12.2196V169.88H11.0496V169.16C11.3629 169.1 11.6362 169.03 11.8696 168.95C12.1029 168.863 12.3196 168.76 12.5196 168.64H13.3796V174.06H14.6296V175H10.7996ZM19.1085 175.12C18.8218 175.12 18.5685 175.06 18.3485 174.94C18.1285 174.82 17.9551 174.653 17.8285 174.44C17.7085 174.22 17.6485 173.967 17.6485 173.68C17.6485 173.127 17.8785 172.71 18.3385 172.43C18.8051 172.143 19.5418 171.947 20.5485 171.84C20.5418 171.673 20.5085 171.52 20.4485 171.38C20.3951 171.24 20.3018 171.13 20.1685 171.05C20.0418 170.963 19.8685 170.92 19.6485 170.92C19.4085 170.92 19.1718 170.963 18.9385 171.05C18.7118 171.137 18.4885 171.247 18.2685 171.38L17.8485 170.6C18.0285 170.487 18.2251 170.383 18.4385 170.29C18.6518 170.19 18.8785 170.113 19.1185 170.06C19.3585 170 19.6085 169.97 19.8685 169.97C20.2751 169.97 20.6118 170.053 20.8785 170.22C21.1518 170.38 21.3551 170.62 21.4885 170.94C21.6285 171.253 21.6985 171.64 21.6985 172.1V175H20.7485L20.6685 174.46H20.6285C20.4018 174.647 20.1651 174.803 19.9185 174.93C19.6718 175.057 19.4018 175.12 19.1085 175.12ZM19.4685 174.18C19.6685 174.18 19.8518 174.14 20.0185 174.06C20.1918 173.973 20.3685 173.847 20.5485 173.68V172.64C20.1018 172.693 19.7485 172.763 19.4885 172.85C19.2285 172.937 19.0418 173.043 18.9285 173.17C18.8218 173.29 18.7685 173.433 18.7685 173.6C18.7685 173.807 18.8351 173.957 18.9685 174.05C19.1018 174.137 19.2685 174.18 19.4685 174.18ZM23.0747 175V170.09H24.0247L24.1047 170.75H24.1447C24.3647 170.537 24.6047 170.353 24.8647 170.2C25.1247 170.047 25.4214 169.97 25.7547 169.97C26.2814 169.97 26.6647 170.14 26.9047 170.48C27.1447 170.82 27.2647 171.3 27.2647 171.92V175H26.1147V172.07C26.1147 171.663 26.0547 171.377 25.9347 171.21C25.8147 171.043 25.6181 170.96 25.3447 170.96C25.1314 170.96 24.9414 171.013 24.7747 171.12C24.6147 171.22 24.4314 171.37 24.2247 171.57V175H23.0747Z" fill="black" fill-opacity="0.8"/>
<path d="M61.7863 175V174.29C62.3729 173.743 62.8796 173.247 63.3063 172.8C63.7396 172.347 64.0729 171.937 64.3063 171.57C64.5463 171.197 64.6663 170.85 64.6663 170.53C64.6663 170.19 64.5763 169.923 64.3963 169.73C64.2229 169.53 63.9629 169.43 63.6163 169.43C63.3696 169.43 63.1429 169.5 62.9363 169.64C62.7363 169.78 62.5496 169.947 62.3763 170.14L61.7563 169.53C62.0429 169.21 62.3429 168.963 62.6562 168.79C62.9696 168.61 63.3396 168.52 63.7663 168.52C64.1729 168.52 64.5263 168.6 64.8263 168.76C65.1263 168.92 65.3596 169.147 65.5263 169.44C65.6929 169.727 65.7763 170.067 65.7763 170.46C65.7763 170.853 65.6663 171.243 65.4463 171.63C65.2329 172.017 64.9429 172.413 64.5763 172.82C64.2096 173.22 63.8029 173.643 63.3563 174.09C63.5229 174.07 63.7029 174.053 63.8963 174.04C64.0963 174.027 64.2729 174.02 64.4263 174.02H66.0863V175H61.7863ZM70.4552 175.12C70.1685 175.12 69.9152 175.06 69.6952 174.94C69.4752 174.82 69.3018 174.653 69.1752 174.44C69.0552 174.22 68.9952 173.967 68.9952 173.68C68.9952 173.127 69.2252 172.71 69.6852 172.43C70.1518 172.143 70.8885 171.947 71.8952 171.84C71.8885 171.673 71.8552 171.52 71.7952 171.38C71.7418 171.24 71.6485 171.13 71.5152 171.05C71.3885 170.963 71.2152 170.92 70.9952 170.92C70.7552 170.92 70.5185 170.963 70.2852 171.05C70.0585 171.137 69.8352 171.247 69.6152 171.38L69.1952 170.6C69.3752 170.487 69.5718 170.383 69.7852 170.29C69.9985 170.19 70.2252 170.113 70.4652 170.06C70.7052 170 70.9552 169.97 71.2152 169.97C71.6218 169.97 71.9585 170.053 72.2252 170.22C72.4985 170.38 72.7018 170.62 72.8352 170.94C72.9752 171.253 73.0452 171.64 73.0452 172.1V175H72.0952L72.0152 174.46H71.9752C71.7485 174.647 71.5118 174.803 71.2652 174.93C71.0185 175.057 70.7485 175.12 70.4552 175.12ZM70.8152 174.18C71.0152 174.18 71.1985 174.14 71.3652 174.06C71.5385 173.973 71.7152 173.847 71.8952 173.68V172.64C71.4485 172.693 71.0952 172.763 70.8352 172.85C70.5752 172.937 70.3885 173.043 70.2752 173.17C70.1685 173.29 70.1152 173.433 70.1152 173.6C70.1152 173.807 70.1818 173.957 70.3152 174.05C70.4485 174.137 70.6152 174.18 70.8152 174.18ZM74.4214 175V170.09H75.3714L75.4514 170.75H75.4914C75.7114 170.537 75.9514 170.353 76.2114 170.2C76.4714 170.047 76.7681 169.97 77.1014 169.97C77.6281 169.97 78.0114 170.14 78.2514 170.48C78.4914 170.82 78.6114 171.3 78.6114 171.92V175H77.4614V172.07C77.4614 171.663 77.4014 171.377 77.2814 171.21C77.1614 171.043 76.9647 170.96 76.6914 170.96C76.4781 170.96 76.2881 171.013 76.1214 171.12C75.9614 171.22 75.7781 171.37 75.5714 171.57V175H74.4214ZM81.3871 175.12C81.0471 175.12 80.7104 175.057 80.3771 174.93C80.0504 174.803 79.7671 174.627 79.5271 174.4L80.0371 173.74C80.2571 173.92 80.4804 174.05 80.7071 174.13C80.9338 174.21 81.1738 174.25 81.4271 174.25C81.6938 174.25 81.8904 174.193 82.0171 174.08C82.1438 173.967 82.2071 173.827 82.2071 173.66C82.2071 173.527 82.1571 173.413 82.0571 173.32C81.9638 173.227 81.8404 173.147 81.6871 173.08C81.5338 173.013 81.3638 172.947 81.1771 172.88C80.9371 172.793 80.7138 172.69 80.5071 172.57C80.3004 172.443 80.1304 172.29 79.9971 172.11C79.8704 171.923 79.8071 171.7 79.8071 171.44C79.8071 171.007 79.9671 170.653 80.2871 170.38C80.6071 170.107 81.0404 169.97 81.5871 169.97C81.9204 169.97 82.2271 170.027 82.5071 170.14C82.7871 170.247 83.0271 170.387 83.2271 170.56L82.7171 171.21C82.5438 171.083 82.3671 170.99 82.1871 170.93C82.0071 170.87 81.8171 170.84 81.6171 170.84C81.3704 170.84 81.1871 170.893 81.0671 171C80.9471 171.107 80.8871 171.233 80.8871 171.38C80.8871 171.5 80.9238 171.603 80.9971 171.69C81.0771 171.77 81.1904 171.843 81.3371 171.91C81.4838 171.97 81.6604 172.033 81.8671 172.1C82.1204 172.187 82.3571 172.293 82.5771 172.42C82.7971 172.54 82.9704 172.697 83.0971 172.89C83.2304 173.077 83.2971 173.313 83.2971 173.6C83.2971 173.88 83.2238 174.137 83.0771 174.37C82.9304 174.597 82.7138 174.78 82.4271 174.92C82.1471 175.053 81.8004 175.12 81.3871 175.12Z" fill="black" fill-opacity="0.8"/>
<path d="M119.806 175.12C119.466 175.12 119.16 175.08 118.886 175C118.62 174.92 118.383 174.813 118.176 174.68C117.97 174.54 117.793 174.387 117.646 174.22L118.196 173.48C118.39 173.673 118.61 173.84 118.856 173.98C119.103 174.113 119.386 174.18 119.706 174.18C120.053 174.18 120.333 174.097 120.546 173.93C120.766 173.757 120.876 173.52 120.876 173.22C120.876 173 120.82 172.81 120.706 172.65C120.6 172.49 120.41 172.367 120.136 172.28C119.87 172.187 119.493 172.14 119.006 172.14V171.3C119.426 171.3 119.756 171.257 119.996 171.17C120.236 171.077 120.406 170.957 120.506 170.81C120.613 170.657 120.666 170.48 120.666 170.28C120.666 170.013 120.583 169.807 120.416 169.66C120.25 169.507 120.02 169.43 119.726 169.43C119.48 169.43 119.253 169.487 119.046 169.6C118.84 169.707 118.64 169.85 118.446 170.03L117.856 169.32C118.13 169.08 118.423 168.887 118.736 168.74C119.05 168.593 119.393 168.52 119.766 168.52C120.173 168.52 120.53 168.587 120.836 168.72C121.143 168.847 121.383 169.037 121.556 169.29C121.736 169.537 121.826 169.84 121.826 170.2C121.826 170.553 121.726 170.85 121.526 171.09C121.333 171.33 121.063 171.52 120.716 171.66V171.7C120.963 171.767 121.186 171.87 121.386 172.01C121.586 172.15 121.743 172.327 121.856 172.54C121.976 172.753 122.036 173 122.036 173.28C122.036 173.667 121.933 174 121.726 174.28C121.526 174.553 121.256 174.763 120.916 174.91C120.583 175.05 120.213 175.12 119.806 175.12ZM126.455 175.12C126.168 175.12 125.915 175.06 125.695 174.94C125.475 174.82 125.302 174.653 125.175 174.44C125.055 174.22 124.995 173.967 124.995 173.68C124.995 173.127 125.225 172.71 125.685 172.43C126.152 172.143 126.888 171.947 127.895 171.84C127.888 171.673 127.855 171.52 127.795 171.38C127.742 171.24 127.648 171.13 127.515 171.05C127.388 170.963 127.215 170.92 126.995 170.92C126.755 170.92 126.518 170.963 126.285 171.05C126.058 171.137 125.835 171.247 125.615 171.38L125.195 170.6C125.375 170.487 125.572 170.383 125.785 170.29C125.998 170.19 126.225 170.113 126.465 170.06C126.705 170 126.955 169.97 127.215 169.97C127.622 169.97 127.958 170.053 128.225 170.22C128.498 170.38 128.702 170.62 128.835 170.94C128.975 171.253 129.045 171.64 129.045 172.1V175H128.095L128.015 174.46H127.975C127.748 174.647 127.512 174.803 127.265 174.93C127.018 175.057 126.748 175.12 126.455 175.12ZM126.815 174.18C127.015 174.18 127.198 174.14 127.365 174.06C127.538 173.973 127.715 173.847 127.895 173.68V172.64C127.448 172.693 127.095 172.763 126.835 172.85C126.575 172.937 126.388 173.043 126.275 173.17C126.168 173.29 126.115 173.433 126.115 173.6C126.115 173.807 126.182 173.957 126.315 174.05C126.448 174.137 126.615 174.18 126.815 174.18ZM130.421 175V170.09H131.371L131.451 170.75H131.491C131.711 170.537 131.951 170.353 132.211 170.2C132.471 170.047 132.768 169.97 133.101 169.97C133.628 169.97 134.011 170.14 134.251 170.48C134.491 170.82 134.611 171.3 134.611 171.92V175H133.461V172.07C133.461 171.663 133.401 171.377 133.281 171.21C133.161 171.043 132.965 170.96 132.691 170.96C132.478 170.96 132.288 171.013 132.121 171.12C131.961 171.22 131.778 171.37 131.571 171.57V175H130.421ZM137.387 175.12C137.047 175.12 136.71 175.057 136.377 174.93C136.05 174.803 135.767 174.627 135.527 174.4L136.037 173.74C136.257 173.92 136.48 174.05 136.707 174.13C136.934 174.21 137.174 174.25 137.427 174.25C137.694 174.25 137.89 174.193 138.017 174.08C138.144 173.967 138.207 173.827 138.207 173.66C138.207 173.527 138.157 173.413 138.057 173.32C137.964 173.227 137.84 173.147 137.687 173.08C137.534 173.013 137.364 172.947 137.177 172.88C136.937 172.793 136.714 172.69 136.507 172.57C136.3 172.443 136.13 172.29 135.997 172.11C135.87 171.923 135.807 171.7 135.807 171.44C135.807 171.007 135.967 170.653 136.287 170.38C136.607 170.107 137.04 169.97 137.587 169.97C137.92 169.97 138.227 170.027 138.507 170.14C138.787 170.247 139.027 170.387 139.227 170.56L138.717 171.21C138.544 171.083 138.367 170.99 138.187 170.93C138.007 170.87 137.817 170.84 137.617 170.84C137.37 170.84 137.187 170.893 137.067 171C136.947 171.107 136.887 171.233 136.887 171.38C136.887 171.5 136.924 171.603 136.997 171.69C137.077 171.77 137.19 171.843 137.337 171.91C137.484 171.97 137.66 172.033 137.867 172.1C138.12 172.187 138.357 172.293 138.577 172.42C138.797 172.54 138.97 172.697 139.097 172.89C139.23 173.077 139.297 173.313 139.297 173.6C139.297 173.88 139.224 174.137 139.077 174.37C138.93 174.597 138.714 174.78 138.427 174.92C138.147 175.053 137.8 175.12 137.387 175.12Z" fill="black" fill-opacity="0.8"/>
<path d="M176.396 175V171.03C176.396 170.85 176.403 170.63 176.416 170.37C176.43 170.11 176.44 169.89 176.446 169.71H176.406C176.326 169.87 176.243 170.033 176.156 170.2C176.07 170.36 175.98 170.527 175.886 170.7L174.726 172.47H178.276V173.36H173.586V172.58L176.106 168.64H177.476V175H176.396ZM182.455 175.12C182.168 175.12 181.915 175.06 181.695 174.94C181.475 174.82 181.302 174.653 181.175 174.44C181.055 174.22 180.995 173.967 180.995 173.68C180.995 173.127 181.225 172.71 181.685 172.43C182.152 172.143 182.888 171.947 183.895 171.84C183.888 171.673 183.855 171.52 183.795 171.38C183.742 171.24 183.648 171.13 183.515 171.05C183.388 170.963 183.215 170.92 182.995 170.92C182.755 170.92 182.518 170.963 182.285 171.05C182.058 171.137 181.835 171.247 181.615 171.38L181.195 170.6C181.375 170.487 181.572 170.383 181.785 170.29C181.998 170.19 182.225 170.113 182.465 170.06C182.705 170 182.955 169.97 183.215 169.97C183.622 169.97 183.958 170.053 184.225 170.22C184.498 170.38 184.702 170.62 184.835 170.94C184.975 171.253 185.045 171.64 185.045 172.1V175H184.095L184.015 174.46H183.975C183.748 174.647 183.512 174.803 183.265 174.93C183.018 175.057 182.748 175.12 182.455 175.12ZM182.815 174.18C183.015 174.18 183.198 174.14 183.365 174.06C183.538 173.973 183.715 173.847 183.895 173.68V172.64C183.448 172.693 183.095 172.763 182.835 172.85C182.575 172.937 182.388 173.043 182.275 173.17C182.168 173.29 182.115 173.433 182.115 173.6C182.115 173.807 182.182 173.957 182.315 174.05C182.448 174.137 182.615 174.18 182.815 174.18ZM186.421 175V170.09H187.371L187.451 170.75H187.491C187.711 170.537 187.951 170.353 188.211 170.2C188.471 170.047 188.768 169.97 189.101 169.97C189.628 169.97 190.011 170.14 190.251 170.48C190.491 170.82 190.611 171.3 190.611 171.92V175H189.461V172.07C189.461 171.663 189.401 171.377 189.281 171.21C189.161 171.043 188.965 170.96 188.691 170.96C188.478 170.96 188.288 171.013 188.121 171.12C187.961 171.22 187.778 171.37 187.571 171.57V175H186.421ZM193.387 175.12C193.047 175.12 192.71 175.057 192.377 174.93C192.05 174.803 191.767 174.627 191.527 174.4L192.037 173.74C192.257 173.92 192.48 174.05 192.707 174.13C192.934 174.21 193.174 174.25 193.427 174.25C193.694 174.25 193.89 174.193 194.017 174.08C194.144 173.967 194.207 173.827 194.207 173.66C194.207 173.527 194.157 173.413 194.057 173.32C193.964 173.227 193.84 173.147 193.687 173.08C193.534 173.013 193.364 172.947 193.177 172.88C192.937 172.793 192.714 172.69 192.507 172.57C192.3 172.443 192.13 172.29 191.997 172.11C191.87 171.923 191.807 171.7 191.807 171.44C191.807 171.007 191.967 170.653 192.287 170.38C192.607 170.107 193.04 169.97 193.587 169.97C193.92 169.97 194.227 170.027 194.507 170.14C194.787 170.247 195.027 170.387 195.227 170.56L194.717 171.21C194.544 171.083 194.367 170.99 194.187 170.93C194.007 170.87 193.817 170.84 193.617 170.84C193.37 170.84 193.187 170.893 193.067 171C192.947 171.107 192.887 171.233 192.887 171.38C192.887 171.5 192.924 171.603 192.997 171.69C193.077 171.77 193.19 171.843 193.337 171.91C193.484 171.97 193.66 172.033 193.867 172.1C194.12 172.187 194.357 172.293 194.577 172.42C194.797 172.54 194.97 172.697 195.097 172.89C195.23 173.077 195.297 173.313 195.297 173.6C195.297 173.88 195.224 174.137 195.077 174.37C194.93 174.597 194.714 174.78 194.427 174.92C194.147 175.053 193.8 175.12 193.387 175.12Z" fill="black" fill-opacity="0.8"/>
<path d="M231.816 175.12C231.47 175.12 231.163 175.08 230.896 175C230.63 174.92 230.393 174.813 230.186 174.68C229.98 174.54 229.8 174.393 229.646 174.24L230.176 173.5C230.37 173.68 230.586 173.84 230.826 173.98C231.066 174.113 231.346 174.18 231.666 174.18C231.906 174.18 232.116 174.133 232.296 174.04C232.483 173.94 232.63 173.8 232.736 173.62C232.843 173.433 232.896 173.213 232.896 172.96C232.896 172.58 232.786 172.287 232.566 172.08C232.353 171.873 232.073 171.77 231.726 171.77C231.526 171.77 231.353 171.8 231.206 171.86C231.066 171.913 230.9 172.003 230.706 172.13L230.156 171.78L230.346 168.64H233.746V169.61H231.346L231.216 171.15C231.35 171.083 231.48 171.033 231.606 171C231.74 170.96 231.89 170.94 232.056 170.94C232.416 170.94 232.746 171.013 233.046 171.16C233.353 171.3 233.596 171.517 233.776 171.81C233.963 172.103 234.056 172.477 234.056 172.93C234.056 173.397 233.95 173.793 233.736 174.12C233.53 174.447 233.256 174.697 232.916 174.87C232.576 175.037 232.21 175.12 231.816 175.12ZM238.455 175.12C238.168 175.12 237.915 175.06 237.695 174.94C237.475 174.82 237.302 174.653 237.175 174.44C237.055 174.22 236.995 173.967 236.995 173.68C236.995 173.127 237.225 172.71 237.685 172.43C238.152 172.143 238.888 171.947 239.895 171.84C239.888 171.673 239.855 171.52 239.795 171.38C239.742 171.24 239.648 171.13 239.515 171.05C239.388 170.963 239.215 170.92 238.995 170.92C238.755 170.92 238.518 170.963 238.285 171.05C238.058 171.137 237.835 171.247 237.615 171.38L237.195 170.6C237.375 170.487 237.572 170.383 237.785 170.29C237.998 170.19 238.225 170.113 238.465 170.06C238.705 170 238.955 169.97 239.215 169.97C239.622 169.97 239.958 170.053 240.225 170.22C240.498 170.38 240.702 170.62 240.835 170.94C240.975 171.253 241.045 171.64 241.045 172.1V175H240.095L240.015 174.46H239.975C239.748 174.647 239.512 174.803 239.265 174.93C239.018 175.057 238.748 175.12 238.455 175.12ZM238.815 174.18C239.015 174.18 239.198 174.14 239.365 174.06C239.538 173.973 239.715 173.847 239.895 173.68V172.64C239.448 172.693 239.095 172.763 238.835 172.85C238.575 172.937 238.388 173.043 238.275 173.17C238.168 173.29 238.115 173.433 238.115 173.6C238.115 173.807 238.182 173.957 238.315 174.05C238.448 174.137 238.615 174.18 238.815 174.18ZM242.421 175V170.09H243.371L243.451 170.75H243.491C243.711 170.537 243.951 170.353 244.211 170.2C244.471 170.047 244.768 169.97 245.101 169.97C245.628 169.97 246.011 170.14 246.251 170.48C246.491 170.82 246.611 171.3 246.611 171.92V175H245.461V172.07C245.461 171.663 245.401 171.377 245.281 171.21C245.161 171.043 244.965 170.96 244.691 170.96C244.478 170.96 244.288 171.013 244.121 171.12C243.961 171.22 243.778 171.37 243.571 171.57V175H242.421ZM249.387 175.12C249.047 175.12 248.71 175.057 248.377 174.93C248.05 174.803 247.767 174.627 247.527 174.4L248.037 173.74C248.257 173.92 248.48 174.05 248.707 174.13C248.934 174.21 249.174 174.25 249.427 174.25C249.694 174.25 249.89 174.193 250.017 174.08C250.144 173.967 250.207 173.827 250.207 173.66C250.207 173.527 250.157 173.413 250.057 173.32C249.964 173.227 249.84 173.147 249.687 173.08C249.534 173.013 249.364 172.947 249.177 172.88C248.937 172.793 248.714 172.69 248.507 172.57C248.3 172.443 248.13 172.29 247.997 172.11C247.87 171.923 247.807 171.7 247.807 171.44C247.807 171.007 247.967 170.653 248.287 170.38C248.607 170.107 249.04 169.97 249.587 169.97C249.92 169.97 250.227 170.027 250.507 170.14C250.787 170.247 251.027 170.387 251.227 170.56L250.717 171.21C250.544 171.083 250.367 170.99 250.187 170.93C250.007 170.87 249.817 170.84 249.617 170.84C249.37 170.84 249.187 170.893 249.067 171C248.947 171.107 248.887 171.233 248.887 171.38C248.887 171.5 248.924 171.603 248.997 171.69C249.077 171.77 249.19 171.843 249.337 171.91C249.484 171.97 249.66 172.033 249.867 172.1C250.12 172.187 250.357 172.293 250.577 172.42C250.797 172.54 250.97 172.697 251.097 172.89C251.23 173.077 251.297 173.313 251.297 173.6C251.297 173.88 251.224 174.137 251.077 174.37C250.93 174.597 250.714 174.78 250.427 174.92C250.147 175.053 249.8 175.12 249.387 175.12Z" fill="black" fill-opacity="0.8"/>
<path d="M288.156 175.12C287.843 175.12 287.546 175.06 287.266 174.94C286.993 174.813 286.75 174.623 286.536 174.37C286.323 174.117 286.153 173.793 286.026 173.4C285.906 173.007 285.846 172.543 285.846 172.01C285.846 171.397 285.913 170.87 286.046 170.43C286.186 169.983 286.373 169.62 286.606 169.34C286.846 169.06 287.113 168.853 287.406 168.72C287.706 168.587 288.02 168.52 288.346 168.52C288.733 168.52 289.066 168.59 289.346 168.73C289.626 168.87 289.86 169.04 290.046 169.24L289.426 169.94C289.313 169.8 289.163 169.687 288.976 169.6C288.796 169.507 288.61 169.46 288.416 169.46C288.143 169.46 287.89 169.54 287.656 169.7C287.43 169.86 287.25 170.127 287.116 170.5C286.983 170.873 286.916 171.377 286.916 172.01C286.916 172.537 286.966 172.963 287.066 173.29C287.173 173.617 287.316 173.857 287.496 174.01C287.683 174.163 287.896 174.24 288.136 174.24C288.316 174.24 288.476 174.193 288.616 174.1C288.763 174.007 288.876 173.87 288.956 173.69C289.043 173.51 289.086 173.29 289.086 173.03C289.086 172.777 289.046 172.567 288.966 172.4C288.886 172.233 288.773 172.11 288.626 172.03C288.48 171.943 288.3 171.9 288.086 171.9C287.9 171.9 287.7 171.96 287.486 172.08C287.28 172.193 287.086 172.397 286.906 172.69L286.866 171.88C287.046 171.62 287.27 171.42 287.536 171.28C287.803 171.133 288.056 171.06 288.296 171.06C288.663 171.06 288.986 171.133 289.266 171.28C289.546 171.42 289.763 171.637 289.916 171.93C290.076 172.223 290.156 172.59 290.156 173.03C290.156 173.457 290.063 173.827 289.876 174.14C289.696 174.453 289.453 174.697 289.146 174.87C288.846 175.037 288.516 175.12 288.156 175.12ZM294.455 175.12C294.168 175.12 293.915 175.06 293.695 174.94C293.475 174.82 293.302 174.653 293.175 174.44C293.055 174.22 292.995 173.967 292.995 173.68C292.995 173.127 293.225 172.71 293.685 172.43C294.152 172.143 294.888 171.947 295.895 171.84C295.888 171.673 295.855 171.52 295.795 171.38C295.742 171.24 295.648 171.13 295.515 171.05C295.388 170.963 295.215 170.92 294.995 170.92C294.755 170.92 294.518 170.963 294.285 171.05C294.058 171.137 293.835 171.247 293.615 171.38L293.195 170.6C293.375 170.487 293.572 170.383 293.785 170.29C293.998 170.19 294.225 170.113 294.465 170.06C294.705 170 294.955 169.97 295.215 169.97C295.622 169.97 295.958 170.053 296.225 170.22C296.498 170.38 296.702 170.62 296.835 170.94C296.975 171.253 297.045 171.64 297.045 172.1V175H296.095L296.015 174.46H295.975C295.748 174.647 295.512 174.803 295.265 174.93C295.018 175.057 294.748 175.12 294.455 175.12ZM294.815 174.18C295.015 174.18 295.198 174.14 295.365 174.06C295.538 173.973 295.715 173.847 295.895 173.68V172.64C295.448 172.693 295.095 172.763 294.835 172.85C294.575 172.937 294.388 173.043 294.275 173.17C294.168 173.29 294.115 173.433 294.115 173.6C294.115 173.807 294.182 173.957 294.315 174.05C294.448 174.137 294.615 174.18 294.815 174.18ZM298.421 175V170.09H299.371L299.451 170.75H299.491C299.711 170.537 299.951 170.353 300.211 170.2C300.471 170.047 300.768 169.97 301.101 169.97C301.628 169.97 302.011 170.14 302.251 170.48C302.491 170.82 302.611 171.3 302.611 171.92V175H301.461V172.07C301.461 171.663 301.401 171.377 301.281 171.21C301.161 171.043 300.965 170.96 300.691 170.96C300.478 170.96 300.288 171.013 300.121 171.12C299.961 171.22 299.778 171.37 299.571 171.57V175H298.421ZM305.387 175.12C305.047 175.12 304.71 175.057 304.377 174.93C304.05 174.803 303.767 174.627 303.527 174.4L304.037 173.74C304.257 173.92 304.48 174.05 304.707 174.13C304.934 174.21 305.174 174.25 305.427 174.25C305.694 174.25 305.89 174.193 306.017 174.08C306.144 173.967 306.207 173.827 306.207 173.66C306.207 173.527 306.157 173.413 306.057 173.32C305.964 173.227 305.84 173.147 305.687 173.08C305.534 173.013 305.364 172.947 305.177 172.88C304.937 172.793 304.714 172.69 304.507 172.57C304.3 172.443 304.13 172.29 303.997 172.11C303.87 171.923 303.807 171.7 303.807 171.44C303.807 171.007 303.967 170.653 304.287 170.38C304.607 170.107 305.04 169.97 305.587 169.97C305.92 169.97 306.227 170.027 306.507 170.14C306.787 170.247 307.027 170.387 307.227 170.56L306.717 171.21C306.544 171.083 306.367 170.99 306.187 170.93C306.007 170.87 305.817 170.84 305.617 170.84C305.37 170.84 305.187 170.893 305.067 171C304.947 171.107 304.887 171.233 304.887 171.38C304.887 171.5 304.924 171.603 304.997 171.69C305.077 171.77 305.19 171.843 305.337 171.91C305.484 171.97 305.66 172.033 305.867 172.1C306.12 172.187 306.357 172.293 306.577 172.42C306.797 172.54 306.97 172.697 307.097 172.89C307.23 173.077 307.297 173.313 307.297 173.6C307.297 173.88 307.224 174.137 307.077 174.37C306.93 174.597 306.714 174.78 306.427 174.92C306.147 175.053 305.8 175.12 305.387 175.12Z" fill="black" fill-opacity="0.8"/>
<path d="M343.006 175C343.04 174.433 343.093 173.917 343.166 173.45C343.246 172.977 343.36 172.53 343.506 172.11C343.653 171.683 343.836 171.27 344.056 170.87C344.276 170.463 344.546 170.043 344.866 169.61H341.846V168.64H346.116V169.34C345.736 169.807 345.423 170.25 345.176 170.67C344.936 171.09 344.75 171.517 344.616 171.95C344.483 172.377 344.383 172.837 344.316 173.33C344.256 173.823 344.21 174.38 344.176 175H343.006ZM350.455 175.12C350.168 175.12 349.915 175.06 349.695 174.94C349.475 174.82 349.302 174.653 349.175 174.44C349.055 174.22 348.995 173.967 348.995 173.68C348.995 173.127 349.225 172.71 349.685 172.43C350.152 172.143 350.888 171.947 351.895 171.84C351.888 171.673 351.855 171.52 351.795 171.38C351.742 171.24 351.648 171.13 351.515 171.05C351.388 170.963 351.215 170.92 350.995 170.92C350.755 170.92 350.518 170.963 350.285 171.05C350.058 171.137 349.835 171.247 349.615 171.38L349.195 170.6C349.375 170.487 349.572 170.383 349.785 170.29C349.998 170.19 350.225 170.113 350.465 170.06C350.705 170 350.955 169.97 351.215 169.97C351.622 169.97 351.958 170.053 352.225 170.22C352.498 170.38 352.702 170.62 352.835 170.94C352.975 171.253 353.045 171.64 353.045 172.1V175H352.095L352.015 174.46H351.975C351.748 174.647 351.512 174.803 351.265 174.93C351.018 175.057 350.748 175.12 350.455 175.12ZM350.815 174.18C351.015 174.18 351.198 174.14 351.365 174.06C351.538 173.973 351.715 173.847 351.895 173.68V172.64C351.448 172.693 351.095 172.763 350.835 172.85C350.575 172.937 350.388 173.043 350.275 173.17C350.168 173.29 350.115 173.433 350.115 173.6C350.115 173.807 350.182 173.957 350.315 174.05C350.448 174.137 350.615 174.18 350.815 174.18ZM354.421 175V170.09H355.371L355.451 170.75H355.491C355.711 170.537 355.951 170.353 356.211 170.2C356.471 170.047 356.768 169.97 357.101 169.97C357.628 169.97 358.011 170.14 358.251 170.48C358.491 170.82 358.611 171.3 358.611 171.92V175H357.461V172.07C357.461 171.663 357.401 171.377 357.281 171.21C357.161 171.043 356.965 170.96 356.691 170.96C356.478 170.96 356.288 171.013 356.121 171.12C355.961 171.22 355.778 171.37 355.571 171.57V175H354.421ZM361.387 175.12C361.047 175.12 360.71 175.057 360.377 174.93C360.05 174.803 359.767 174.627 359.527 174.4L360.037 173.74C360.257 173.92 360.48 174.05 360.707 174.13C360.934 174.21 361.174 174.25 361.427 174.25C361.694 174.25 361.89 174.193 362.017 174.08C362.144 173.967 362.207 173.827 362.207 173.66C362.207 173.527 362.157 173.413 362.057 173.32C361.964 173.227 361.84 173.147 361.687 173.08C361.534 173.013 361.364 172.947 361.177 172.88C360.937 172.793 360.714 172.69 360.507 172.57C360.3 172.443 360.13 172.29 359.997 172.11C359.87 171.923 359.807 171.7 359.807 171.44C359.807 171.007 359.967 170.653 360.287 170.38C360.607 170.107 361.04 169.97 361.587 169.97C361.92 169.97 362.227 170.027 362.507 170.14C362.787 170.247 363.027 170.387 363.227 170.56L362.717 171.21C362.544 171.083 362.367 170.99 362.187 170.93C362.007 170.87 361.817 170.84 361.617 170.84C361.37 170.84 361.187 170.893 361.067 171C360.947 171.107 360.887 171.233 360.887 171.38C360.887 171.5 360.924 171.603 360.997 171.69C361.077 171.77 361.19 171.843 361.337 171.91C361.484 171.97 361.66 172.033 361.867 172.1C362.12 172.187 362.357 172.293 362.577 172.42C362.797 172.54 362.97 172.697 363.097 172.89C363.23 173.077 363.297 173.313 363.297 173.6C363.297 173.88 363.224 174.137 363.077 174.37C362.93 174.597 362.714 174.78 362.427 174.92C362.147 175.053 361.8 175.12 361.387 175.12Z" fill="black" fill-opacity="0.8"/>
</svg>
