<svg width="400" height="200" viewBox="0 0 400 200" fill="none" xmlns="http://www.w3.org/2000/svg">
<rect width="400" height="700" transform="translate(0 -78)" fill="white"/>
<g filter="url(#filter0_d_1149_5)">
<path d="M89 23.5H314V16C314 14.8954 313.105 14 312 14H91C89.8954 14 89 14.8954 89 16V23.5Z" fill="#D8D8D8"/>
<path d="M89 47.5H314V23.5H89V47.5Z" fill="white"/>
<path d="M89 159.5H314V47.5H89V159.5Z" fill="#3095A1"/>
<path d="M91.502 259.751C91.8278 259.914 92.1919 259.985 92.555 259.956L311.033 242.577C311.644 242.528 312.198 242.202 312.538 241.693L313.664 240.004C313.883 239.675 314 239.289 314 238.894V159.5H89V257.264C89 258.021 89.428 258.714 90.1056 259.053L91.502 259.751Z" fill="white"/>
</g>
<path d="M137.8 96.0022L106.5 136.355C106.297 136.618 106.484 137 106.816 137H296.187C296.519 137 296.707 136.619 296.504 136.356L241.435 64.8149C241.41 64.7832 241.381 64.755 241.348 64.7321C237.559 62.0846 233.361 62.7851 230.822 64.7397C230.798 64.7579 230.777 64.7788 230.758 64.802L184.761 121.124C184.627 121.288 184.388 121.319 184.217 121.195L149.293 95.9597C142.994 91.5132 139.187 94.9301 137.874 95.9287C137.846 95.9503 137.822 95.974 137.8 96.0022Z" fill="#236D76" fill-opacity="0.15"/>
<path d="M263 19.0184C263 17.3513 261.657 16 260 16C258.343 16.0004 257 17.3513 257 19.0187C257 20.5249 258.097 21.7735 259.531 22V19.8909H258.77V19.0187H259.532V18.3532C259.532 17.5969 259.98 17.1792 260.665 17.1792C260.993 17.1792 261.336 17.2381 261.336 17.2381V17.9805H260.958C260.586 17.9805 260.469 18.2133 260.469 18.4522V19.0184H261.301L261.168 19.8905H260.469V21.9996C261.903 21.7732 263 20.5246 263 19.0184Z" fill="#1A1A1A"/>
<g clip-path="url(#clip0_1149_5)">
<path d="M279 16.4298C279 16.1924 279.197 16 279.441 16H284.559C284.803 16 285 16.1924 285 16.4298V21.5703C285 21.8076 284.803 22 284.559 22H279.441C279.197 22 279 21.8076 279 21.5703V16.4298ZM280.854 21.0227V18.3134H279.953V21.0227H280.854ZM280.404 17.9433C280.717 17.9433 280.913 17.7355 280.913 17.4753C280.907 17.2094 280.718 17.0073 280.41 17.0073C280.101 17.0073 279.9 17.2098 279.9 17.4753C279.9 17.7355 280.095 17.9433 280.398 17.9433H280.404ZM282.244 21.0227V19.5096C282.244 19.4286 282.25 19.3476 282.274 19.2899C282.339 19.1282 282.487 18.9606 282.736 18.9606C283.062 18.9606 283.192 19.2089 283.192 19.5734V21.0227H284.092V19.4688C284.092 18.6363 283.648 18.2492 283.056 18.2492C282.578 18.2492 282.364 18.5117 282.244 18.6966V18.706H282.238L282.244 18.6966V18.3134H281.344C281.355 18.5676 281.344 21.0227 281.344 21.0227H282.244Z" fill="#1A1A1A"/>
</g>
<g clip-path="url(#clip1_1149_5)">
<path d="M272.725 16.2812H273.645L271.635 18.5845L274 21.7188H272.149L270.699 19.8175L269.039 21.7188H268.119L270.268 19.255L268 16.2812H269.899L271.209 18.0186L272.725 16.2812ZM272.403 21.1667H272.913L269.621 16.8044H269.074L272.403 21.1667Z" fill="#1A1A1A"/>
</g>
<g clip-path="url(#clip2_1149_5)">
<path d="M299.404 19.8791C299.767 19.3836 299.929 18.7693 299.859 18.159C299.789 17.5488 299.49 16.9876 299.024 16.5878C298.558 16.1879 297.957 15.979 297.344 16.0026C296.73 16.0263 296.148 16.2808 295.713 16.7153C295.279 17.1499 295.025 17.7323 295.002 18.3462C294.979 18.96 295.188 19.56 295.588 20.0261C295.988 20.4922 296.55 20.79 297.16 20.8599C297.77 20.9299 298.384 20.7668 298.88 20.4033H298.879C298.89 20.4183 298.903 20.4327 298.916 20.4465L300.36 21.8902C300.43 21.9606 300.526 22.0001 300.625 22.0002C300.724 22.0002 300.82 21.9607 300.89 21.8904C300.961 21.8201 301 21.7247 301 21.6252C301 21.5258 300.961 21.4303 300.89 21.36L299.447 19.9162C299.433 19.9026 299.419 19.8905 299.404 19.8791ZM299.5 18.4376C299.5 18.7085 299.447 18.9766 299.343 19.2269C299.24 19.4771 299.088 19.7045 298.896 19.896C298.705 20.0875 298.477 20.2394 298.227 20.3431C297.977 20.4468 297.709 20.5001 297.438 20.5001C297.167 20.5001 296.899 20.4468 296.649 20.3431C296.398 20.2394 296.171 20.0875 295.979 19.896C295.788 19.7045 295.636 19.4771 295.532 19.2269C295.429 18.9766 295.375 18.7085 295.375 18.4376C295.375 17.8906 295.593 17.366 295.979 16.9792C296.366 16.5924 296.891 16.3751 297.438 16.3751C297.985 16.3751 298.509 16.5924 298.896 16.9792C299.283 17.366 299.5 17.8906 299.5 18.4376Z" fill="#1A1A1A"/>
</g>
<path d="M95.4941 42L101.866 30.192H103.486L104.836 42H103.396L102.784 35.214C102.724 34.59 102.664 33.96 102.604 33.324C102.556 32.688 102.508 32.04 102.46 31.38H102.388C102.076 32.052 101.764 32.7 101.452 33.324C101.152 33.936 100.834 34.566 100.498 35.214L97.0061 42H95.4941ZM98.3201 38.31L98.6081 37.23H103.792L103.54 38.31H98.3201Z" fill="#39A5B3"/>
<path d="M143 36H167" stroke="#39A5B3" stroke-width="2" stroke-linecap="round"/>
<path d="M104 173H199" stroke="#D8D8D8" stroke-width="2" stroke-linecap="round"/>
<path d="M104 181H199" stroke="#D8D8D8" stroke-width="2" stroke-linecap="round"/>
<path d="M104 189H166" stroke="#D8D8D8" stroke-width="2" stroke-linecap="round"/>
<path d="M152 86H252" stroke="white" stroke-width="2" stroke-linecap="round"/>
<path d="M152 110H252" stroke="white" stroke-width="2" stroke-linecap="round"/>
<path d="M134 98H267" stroke="white" stroke-width="2" stroke-linecap="round"/>
<path d="M175 36H199" stroke="#22646C" stroke-width="2" stroke-linecap="round"/>
<path d="M207 36H231" stroke="#39A5B3" stroke-width="2" stroke-linecap="round"/>
<path d="M239 36H263" stroke="#39A5B3" stroke-width="2" stroke-linecap="round"/>
<path d="M275 36H299" stroke="#F9D35D" stroke-width="8" stroke-linecap="round"/>
<path d="M180 122H220" stroke="#F9D35D" stroke-width="8" stroke-linecap="round"/>
<rect x="212" y="169" width="89" height="61" rx="1" fill="#D8D8D8"/>
<circle cx="257" cy="199" r="8" fill="#39A5B3"/>
<path d="M254 202.353V195.647C254 195.35 254.313 195.156 254.579 195.289L261.284 198.642C261.579 198.79 261.579 199.21 261.284 199.358L254.579 202.711C254.313 202.844 254 202.65 254 202.353Z" fill="white"/>
<circle cx="92" cy="16" r="10" fill="#C8543C"/>
<path d="M90.0584 19V17.81H91.4384V14.14H90.2484V13.23C90.5951 13.1633 90.8884 13.0833 91.1284 12.99C91.3751 12.8967 91.6084 12.7833 91.8284 12.65H92.9084V17.81H94.0984V19H90.0584Z" fill="white"/>
<circle cx="242" cy="12" r="10" fill="#C8543C"/>
<path d="M239.728 15V14.09C240.262 13.6167 240.735 13.1733 241.148 12.76C241.568 12.3467 241.895 11.9633 242.128 11.61C242.368 11.2567 242.488 10.9333 242.488 10.64C242.488 10.3267 242.408 10.09 242.248 9.93C242.088 9.76333 241.868 9.68 241.588 9.68C241.362 9.68 241.155 9.74667 240.968 9.88C240.788 10.0067 240.618 10.1567 240.458 10.33L239.688 9.57C239.995 9.22333 240.308 8.96333 240.628 8.79C240.955 8.61667 241.342 8.53 241.788 8.53C242.202 8.53 242.565 8.61333 242.878 8.78C243.198 8.94667 243.445 9.18 243.618 9.48C243.798 9.78 243.888 10.1333 243.888 10.54C243.888 10.92 243.785 11.2933 243.578 11.66C243.378 12.02 243.112 12.38 242.778 12.74C242.445 13.1 242.092 13.4667 241.718 13.84C241.878 13.82 242.058 13.8033 242.258 13.79C242.458 13.77 242.632 13.76 242.778 13.76H244.198V15H239.728Z" fill="white"/>
<circle cx="314" cy="15" r="10" fill="#C8543C"/>
<path d="M313.788 18.12C313.448 18.12 313.138 18.08 312.858 18C312.585 17.9267 312.342 17.8233 312.128 17.69C311.915 17.5567 311.732 17.4 311.578 17.22L312.258 16.29C312.452 16.4767 312.665 16.63 312.898 16.75C313.132 16.87 313.382 16.93 313.648 16.93C313.955 16.93 314.202 16.8667 314.388 16.74C314.582 16.6067 314.678 16.42 314.678 16.18C314.678 15.9933 314.632 15.8333 314.538 15.7C314.445 15.56 314.275 15.4533 314.028 15.38C313.788 15.3067 313.435 15.27 312.968 15.27V14.23C313.348 14.23 313.648 14.1933 313.868 14.12C314.088 14.0467 314.242 13.9467 314.328 13.82C314.422 13.6933 314.468 13.5467 314.468 13.38C314.468 13.1533 314.398 12.98 314.258 12.86C314.125 12.74 313.935 12.68 313.688 12.68C313.462 12.68 313.255 12.73 313.068 12.83C312.888 12.9233 312.698 13.06 312.498 13.24L311.758 12.34C312.052 12.0867 312.362 11.89 312.688 11.75C313.015 11.6033 313.372 11.53 313.758 11.53C314.192 11.53 314.572 11.6 314.898 11.74C315.232 11.8733 315.488 12.07 315.668 12.33C315.855 12.5833 315.948 12.8967 315.948 13.27C315.948 13.5967 315.855 13.8767 315.668 14.11C315.488 14.3433 315.228 14.5333 314.888 14.68V14.72C315.128 14.7933 315.345 14.9 315.538 15.04C315.732 15.1733 315.882 15.3433 315.988 15.55C316.095 15.7567 316.148 15.9967 316.148 16.27C316.148 16.6633 316.038 17 315.818 17.28C315.605 17.5533 315.318 17.7633 314.958 17.91C314.605 18.05 314.215 18.12 313.788 18.12Z" fill="white"/>
<circle cx="314" cy="49" r="10" fill="#C8543C"/>
<path d="M314.298 52V48.33C314.298 48.13 314.305 47.8933 314.318 47.62C314.338 47.3467 314.352 47.11 314.358 46.91H314.318C314.238 47.0833 314.155 47.26 314.068 47.44C313.982 47.6133 313.892 47.7933 313.798 47.98L312.958 49.36H316.398V50.48H311.548V49.47L313.868 45.65H315.668V52H314.298Z" fill="white"/>
<circle cx="129" cy="36" r="10" fill="#C8543C"/>
<path d="M128.828 39.12C128.482 39.12 128.168 39.08 127.888 39C127.615 38.92 127.372 38.8133 127.158 38.68C126.945 38.5467 126.755 38.3967 126.588 38.23L127.248 37.3C127.442 37.4733 127.652 37.6233 127.878 37.75C128.105 37.87 128.352 37.93 128.618 37.93C128.832 37.93 129.018 37.8933 129.178 37.82C129.338 37.74 129.462 37.6267 129.548 37.48C129.642 37.3333 129.688 37.1533 129.688 36.94C129.688 36.62 129.595 36.3767 129.408 36.21C129.222 36.0433 128.982 35.96 128.688 35.96C128.508 35.96 128.355 35.9833 128.228 36.03C128.102 36.0767 127.942 36.16 127.748 36.28L127.088 35.86L127.268 32.65H130.868V33.89H128.538L128.428 35.08C128.555 35.0267 128.672 34.99 128.778 34.97C128.885 34.9433 129.005 34.93 129.138 34.93C129.505 34.93 129.842 35 130.148 35.14C130.455 35.28 130.698 35.4967 130.878 35.79C131.065 36.0833 131.158 36.4533 131.158 36.9C131.158 37.3733 131.048 37.7767 130.828 38.11C130.615 38.4367 130.332 38.6867 129.978 38.86C129.625 39.0333 129.242 39.12 128.828 39.12Z" fill="white"/>
<rect x="157" y="43" width="60" height="36" rx="1" fill="#83CED8"/>
<path d="M186.856 39.1498C186.935 39.068 187.065 39.068 187.144 39.1498L191.004 43.1613C191.127 43.2884 191.036 43.5 190.86 43.5H183.14C182.964 43.5 182.873 43.2884 182.996 43.1613L186.856 39.1498Z" fill="#83CED8"/>
<path d="M167 49H207" stroke="white" stroke-width="2" stroke-linecap="round"/>
<path d="M167 57H207" stroke="white" stroke-width="2" stroke-linecap="round"/>
<path d="M167 65H207" stroke="white" stroke-width="2" stroke-linecap="round"/>
<path d="M167 73H207" stroke="white" stroke-width="2" stroke-linecap="round"/>
<circle cx="222" cy="49" r="10" fill="#C8543C"/>
<path d="M222.168 52.12C221.862 52.12 221.565 52.06 221.278 51.94C220.992 51.82 220.735 51.6333 220.508 51.38C220.282 51.1267 220.102 50.8033 219.968 50.41C219.835 50.01 219.768 49.53 219.768 48.97C219.768 48.3767 219.838 47.8633 219.978 47.43C220.118 46.9967 220.308 46.64 220.548 46.36C220.788 46.08 221.062 45.8733 221.368 45.74C221.675 45.6 221.998 45.53 222.338 45.53C222.758 45.53 223.122 45.6067 223.428 45.76C223.735 45.9067 223.988 46.0833 224.188 46.29L223.418 47.17C223.305 47.05 223.158 46.9467 222.978 46.86C222.798 46.7667 222.615 46.72 222.428 46.72C222.188 46.72 221.965 46.79 221.758 46.93C221.558 47.07 221.398 47.3067 221.278 47.64C221.165 47.9667 221.108 48.41 221.108 48.97C221.108 49.4967 221.155 49.91 221.248 50.21C221.348 50.5033 221.478 50.7133 221.638 50.84C221.798 50.96 221.965 51.02 222.138 51.02C222.285 51.02 222.418 50.9833 222.538 50.91C222.658 50.8367 222.755 50.7267 222.828 50.58C222.902 50.4267 222.938 50.23 222.938 49.99C222.938 49.7633 222.902 49.5833 222.828 49.45C222.755 49.3167 222.655 49.22 222.528 49.16C222.408 49.1 222.268 49.07 222.108 49.07C221.942 49.07 221.768 49.12 221.588 49.22C221.415 49.32 221.258 49.4967 221.118 49.75L221.048 48.79C221.215 48.5433 221.428 48.3567 221.688 48.23C221.948 48.0967 222.182 48.03 222.388 48.03C222.748 48.03 223.072 48.1 223.358 48.24C223.645 48.38 223.868 48.5967 224.028 48.89C224.195 49.1767 224.278 49.5433 224.278 49.99C224.278 50.43 224.182 50.81 223.988 51.13C223.802 51.45 223.548 51.6967 223.228 51.87C222.908 52.0367 222.555 52.12 222.168 52.12Z" fill="white"/>
<circle cx="272" cy="98" r="10" fill="#C8543C"/>
<path d="M270.858 101C270.892 100.473 270.945 99.99 271.018 99.55C271.092 99.1033 271.195 98.68 271.328 98.28C271.468 97.88 271.645 97.4867 271.858 97.1C272.072 96.7133 272.335 96.31 272.648 95.89H269.798V94.65H274.218V95.55C273.845 96.0033 273.538 96.4267 273.298 96.82C273.065 97.2133 272.885 97.6133 272.758 98.02C272.632 98.4267 272.538 98.87 272.478 99.35C272.418 99.83 272.372 100.38 272.338 101H270.858Z" fill="white"/>
<circle cx="165" cy="124" r="10" fill="#C8543C"/>
<path d="M164.988 127.12C164.568 127.12 164.188 127.047 163.848 126.9C163.515 126.753 163.252 126.55 163.058 126.29C162.872 126.023 162.778 125.72 162.778 125.38C162.778 125.12 162.825 124.897 162.918 124.71C163.018 124.517 163.148 124.347 163.308 124.2C163.475 124.053 163.658 123.927 163.858 123.82V123.78C163.618 123.593 163.415 123.38 163.248 123.14C163.088 122.9 163.008 122.613 163.008 122.28C163.008 121.92 163.095 121.61 163.268 121.35C163.442 121.083 163.682 120.88 163.988 120.74C164.295 120.6 164.645 120.53 165.038 120.53C165.625 120.53 166.092 120.69 166.438 121.01C166.792 121.323 166.968 121.743 166.968 122.27C166.968 122.47 166.928 122.66 166.848 122.84C166.775 123.013 166.675 123.17 166.548 123.31C166.422 123.443 166.285 123.56 166.138 123.66V123.7C166.338 123.807 166.522 123.937 166.688 124.09C166.855 124.237 166.988 124.417 167.088 124.63C167.188 124.837 167.238 125.08 167.238 125.36C167.238 125.693 167.145 125.993 166.958 126.26C166.772 126.52 166.508 126.73 166.168 126.89C165.835 127.043 165.442 127.12 164.988 127.12ZM165.388 123.3C165.515 123.153 165.612 123.003 165.678 122.85C165.745 122.697 165.778 122.537 165.778 122.37C165.778 122.203 165.748 122.06 165.688 121.94C165.628 121.82 165.538 121.727 165.418 121.66C165.305 121.587 165.168 121.55 165.008 121.55C164.815 121.55 164.648 121.613 164.508 121.74C164.368 121.86 164.298 122.04 164.298 122.28C164.298 122.453 164.345 122.6 164.438 122.72C164.532 122.84 164.658 122.947 164.818 123.04C164.985 123.133 165.175 123.22 165.388 123.3ZM165.018 126.1C165.178 126.1 165.322 126.073 165.448 126.02C165.582 125.96 165.685 125.873 165.758 125.76C165.832 125.64 165.868 125.49 165.868 125.31C165.868 125.123 165.812 124.97 165.698 124.85C165.592 124.723 165.435 124.613 165.228 124.52C165.028 124.42 164.795 124.313 164.528 124.2C164.388 124.327 164.272 124.48 164.178 124.66C164.085 124.833 164.038 125.017 164.038 125.21C164.038 125.397 164.082 125.557 164.168 125.69C164.262 125.823 164.382 125.927 164.528 126C164.682 126.067 164.845 126.1 165.018 126.1Z" fill="white"/>
<circle cx="229" cy="144" r="10" fill="#C8543C"/>
<path d="M228.648 147.12C228.228 147.12 227.865 147.043 227.558 146.89C227.252 146.737 226.995 146.56 226.788 146.36L227.568 145.48C227.675 145.6 227.818 145.707 227.998 145.8C228.185 145.887 228.368 145.93 228.548 145.93C228.802 145.93 229.025 145.86 229.218 145.72C229.418 145.58 229.575 145.347 229.688 145.02C229.808 144.687 229.868 144.24 229.868 143.68C229.868 143.153 229.818 142.743 229.718 142.45C229.625 142.15 229.498 141.94 229.338 141.82C229.185 141.693 229.018 141.63 228.838 141.63C228.698 141.63 228.565 141.667 228.438 141.74C228.318 141.813 228.222 141.923 228.148 142.07C228.075 142.217 228.038 142.413 228.038 142.66C228.038 142.88 228.075 143.06 228.148 143.2C228.222 143.333 228.322 143.43 228.448 143.49C228.575 143.55 228.718 143.58 228.878 143.58C229.045 143.58 229.215 143.53 229.388 143.43C229.562 143.323 229.718 143.147 229.858 142.9L229.928 143.86C229.768 144.093 229.558 144.28 229.298 144.42C229.038 144.553 228.802 144.62 228.588 144.62C228.228 144.62 227.905 144.55 227.618 144.41C227.332 144.27 227.105 144.057 226.938 143.77C226.778 143.477 226.698 143.107 226.698 142.66C226.698 142.22 226.795 141.84 226.988 141.52C227.182 141.2 227.438 140.957 227.758 140.79C228.078 140.617 228.428 140.53 228.808 140.53C229.122 140.53 229.422 140.59 229.708 140.71C229.995 140.83 230.248 141.017 230.468 141.27C230.695 141.523 230.875 141.85 231.008 142.25C231.148 142.643 231.218 143.12 231.218 143.68C231.218 144.273 231.145 144.787 230.998 145.22C230.858 145.653 230.668 146.01 230.428 146.29C230.188 146.57 229.915 146.78 229.608 146.92C229.302 147.053 228.982 147.12 228.648 147.12Z" fill="white"/>
<circle cx="211" cy="199" r="10" fill="#C8543C"/>
<path d="M205.917 202V200.81H207.297V197.14H206.107V196.23C206.453 196.163 206.747 196.083 206.987 195.99C207.233 195.897 207.467 195.783 207.687 195.65H208.767V200.81H209.957V202H205.917ZM213.14 202.12C212.46 202.12 211.91 201.837 211.49 201.27C211.077 200.703 210.87 199.88 210.87 198.8C210.87 197.713 211.077 196.897 211.49 196.35C211.91 195.803 212.46 195.53 213.14 195.53C213.82 195.53 214.367 195.807 214.78 196.36C215.2 196.907 215.41 197.72 215.41 198.8C215.41 199.88 215.2 200.703 214.78 201.27C214.367 201.837 213.82 202.12 213.14 202.12ZM213.14 200.98C213.307 200.98 213.457 200.92 213.59 200.8C213.723 200.673 213.827 200.453 213.9 200.14C213.98 199.82 214.02 199.373 214.02 198.8C214.02 198.22 213.98 197.777 213.9 197.47C213.827 197.163 213.723 196.953 213.59 196.84C213.457 196.727 213.307 196.67 213.14 196.67C212.973 196.67 212.823 196.727 212.69 196.84C212.557 196.953 212.45 197.163 212.37 197.47C212.297 197.777 212.26 198.22 212.26 198.8C212.26 199.373 212.297 199.82 212.37 200.14C212.45 200.453 212.557 200.673 212.69 200.8C212.823 200.92 212.973 200.98 213.14 200.98Z" fill="white"/>
<circle cx="188" cy="143" r="1.75" stroke="white" stroke-width="0.5"/>
<circle cx="196" cy="143" r="1.75" stroke="white" stroke-width="0.5"/>
<circle cx="204" cy="143" r="2" fill="white"/>
<circle cx="212" cy="143" r="1.75" stroke="white" stroke-width="0.5"/>
<defs>
<filter id="filter0_d_1149_5" x="78" y="10" width="259" height="279.962" filterUnits="userSpaceOnUse" color-interpolation-filters="sRGB">
<feFlood flood-opacity="0" result="BackgroundImageFix"/>
<feColorMatrix in="SourceAlpha" type="matrix" values="0 0 0 0 0 0 0 0 0 0 0 0 0 0 0 0 0 0 127 0" result="hardAlpha"/>
<feOffset dx="6" dy="13"/>
<feGaussianBlur stdDeviation="8.5"/>
<feComposite in2="hardAlpha" operator="out"/>
<feColorMatrix type="matrix" values="0 0 0 0 0 0 0 0 0 0 0 0 0 0 0 0 0 0 0.1 0"/>
<feBlend mode="normal" in2="BackgroundImageFix" result="effect1_dropShadow_1149_5"/>
<feBlend mode="normal" in="SourceGraphic" in2="effect1_dropShadow_1149_5" result="shape"/>
</filter>
<clipPath id="clip0_1149_5">
<rect width="6" height="6" fill="white" transform="translate(279 16)"/>
</clipPath>
<clipPath id="clip1_1149_5">
<rect width="6" height="6" fill="white" transform="translate(268 16)"/>
</clipPath>
<clipPath id="clip2_1149_5">
<rect width="6" height="6" fill="white" transform="translate(295 16)"/>
</clipPath>
</defs>
</svg>
