<svg xmlns="http://www.w3.org/2000/svg" width="400" height="200" fill="none">
    <path fill="#fff" d="M0 0h400v200H0z" />
    <path fill="#39A5B3"
        d="M83.5 133.174c87.77 8.027 225.816 11.83 300.5 12.826V19h-49.5l-15 34h-96l-15 24.5h-97l-28 28v27.674Z" />
    <path fill="#F9D35D"
        d="M16 123.5v31h368V146c-74.684-.996-212.73-4.799-300.5-12.826-29.752-2.721-53.728-5.927-67.5-9.674Z" />
    <path fill="#C8543C" d="M87 16.864c0 2.134-1.79 3.864-4 3.864s-4-1.73-4-3.864S80.79 13 83 13s4 1.73 4 3.864Z" />
    <path fill="#C8543C" d="M82 20.606h2V154.5h-2V20.606Z" />
    <path stroke="#000" stroke-opacity=".1" d="M16 53.5h368M17 77.5h367M16 105.5h368" />
    <path fill="#1A1A1A"
        d="M187.888 167v-4.72h-1.856v-.88h4.752v.88h-1.856V167h-1.04Zm5.151.056c-.475 0-.891-.093-1.248-.28a2.116 2.116 0 0 1-.824-.784 2.207 2.207 0 0 1-.288-1.128c0-.427.093-.803.28-1.128.192-.331.453-.589.784-.776.336-.187.717-.28 1.144-.28.416 0 .787.091 1.112.272.325.181.581.437.768.768.187.331.28.72.28 1.168 0 .043-.003.091-.008.144 0 .053-.003.104-.008.152h-3.56v-.664h3.032l-.392.208a1.23 1.23 0 0 0-.152-.648 1.162 1.162 0 0 0-.44-.44 1.22 1.22 0 0 0-.632-.16c-.245 0-.461.053-.648.16a1.17 1.17 0 0 0-.432.448 1.377 1.377 0 0 0-.152.664v.16c0 .256.059.483.176.68.117.197.283.349.496.456.213.107.459.16.736.16.24 0 .456-.037.648-.112a1.38 1.38 0 0 0 .512-.352l.536.616a1.92 1.92 0 0 1-.728.52 2.62 2.62 0 0 1-.992.176Zm8.361-4.376c.341 0 .642.067.904.2.266.133.474.339.624.616.149.272.224.624.224 1.056V167h-1v-2.32c0-.379-.083-.661-.248-.848-.166-.187-.403-.28-.712-.28-.219 0-.414.048-.584.144a1.003 1.003 0 0 0-.392.424c-.091.187-.136.424-.136.712V167h-1v-2.32c0-.379-.083-.661-.248-.848-.166-.187-.403-.28-.712-.28-.219 0-.414.048-.584.144a1.003 1.003 0 0 0-.392.424c-.091.187-.136.424-.136.712V167h-1v-4.272h.952v1.136l-.168-.336a1.46 1.46 0 0 1 .624-.632c.277-.144.592-.216.944-.216.4 0 .746.099 1.04.296.298.197.496.496.592.896l-.392-.136c.138-.32.368-.576.688-.768.32-.192.69-.288 1.112-.288Zm5.397 4.376c-.346 0-.664-.08-.952-.24a1.75 1.75 0 0 1-.68-.72c-.165-.325-.248-.736-.248-1.232 0-.501.08-.912.24-1.232.166-.32.39-.557.672-.712.283-.16.606-.24.968-.24.422 0 .792.091 1.112.272.326.181.582.435.768.76.192.325.288.709.288 1.152 0 .443-.096.829-.288 1.16a1.975 1.975 0 0 1-.768.76c-.32.181-.69.272-1.112.272Zm-2.368 1.496v-5.824h.952v1.008l-.032 1.136.08 1.136v2.544h-1Zm2.256-2.352c.24 0 .454-.053.64-.16.192-.107.344-.261.456-.464a1.45 1.45 0 0 0 .168-.712 1.42 1.42 0 0 0-.168-.712 1.158 1.158 0 0 0-.456-.464c-.186-.107-.4-.16-.64-.16s-.456.053-.648.16a1.158 1.158 0 0 0-.456.464 1.42 1.42 0 0 0-.168.712c0 .272.056.509.168.712.112.203.264.357.456.464.192.107.408.16.648.16Zm4.549.856c-.358 0-.702-.045-1.032-.136a2.717 2.717 0 0 1-.776-.344l.384-.76c.192.123.421.224.688.304.266.08.533.12.8.12.314 0 .541-.043.68-.128.144-.085.216-.2.216-.344a.29.29 0 0 0-.144-.264 1.07 1.07 0 0 0-.376-.144 8.33 8.33 0 0 0-.52-.088 7.493 7.493 0 0 1-.568-.104 2.175 2.175 0 0 1-.512-.2 1.108 1.108 0 0 1-.376-.36c-.096-.149-.144-.347-.144-.592 0-.272.077-.507.232-.704.154-.203.37-.357.648-.464a2.705 2.705 0 0 1 1-.168c.288 0 .578.032.872.096.293.064.536.155.728.272l-.384.76a1.945 1.945 0 0 0-.616-.248 2.637 2.637 0 0 0-.608-.072c-.304 0-.531.045-.68.136-.144.091-.216.205-.216.344 0 .128.048.224.144.288.096.064.221.115.376.152.154.037.325.069.512.096.192.021.381.056.568.104.186.048.357.115.512.2a.96.96 0 0 1 .384.344c.096.149.144.344.144.584 0 .267-.08.499-.24.696a1.522 1.522 0 0 1-.664.464c-.288.107-.632.16-1.032.16ZM10 119.248H4.4v-2.304c0-.496.08-.92.24-1.272.16-.357.39-.632.688-.824.299-.192.653-.288 1.064-.288.41 0 .765.096 1.064.288.293.192.52.467.68.824.155.352.232.776.232 1.272v1.728l-.472-.464H10v1.04Zm0-3.664L7.968 117v-1.112L10 114.464v1.12Zm-1.992 2.624-.496.464v-1.68c0-.459-.099-.803-.296-1.032-.197-.235-.472-.352-.824-.352-.357 0-.632.117-.824.352-.192.229-.288.573-.288 1.032v1.68l-.512-.464h3.24Zm2.048-6.724c0 .475-.093.891-.28 1.248a2.119 2.119 0 0 1-.784.824c-.33.192-.707.288-1.128.288-.427 0-.803-.093-1.128-.28a2.064 2.064 0 0 1-.776-.784 2.315 2.315 0 0 1-.28-1.144c0-.416.09-.786.272-1.112.181-.325.437-.581.768-.768.33-.186.72-.28 1.168-.28.043 0 .09.003.144.008.053 0 .104.003.152.008v3.56H7.52v-3.032l.208.392a1.17 1.17 0 0 0-1.088.592c-.107.182-.16.392-.16.632 0 .246.053.462.16.648.107.182.256.326.448.432.187.102.408.152.664.152h.16c.256 0 .483-.058.68-.176.197-.117.35-.282.456-.496.107-.213.16-.458.16-.736 0-.24-.037-.456-.112-.648a1.385 1.385 0 0 0-.352-.512l.616-.536c.224.192.397.435.52.728.117.288.176.619.176.992Zm-4.912.848-1.096-1.08v-1.176l1.096 1.392v.864Zm4.912-5.136c0 .357-.045.701-.136 1.032-.096.325-.21.584-.344.776l-.76-.384c.123-.192.224-.421.304-.688.08-.267.12-.533.12-.8 0-.315-.043-.541-.128-.68-.085-.144-.2-.216-.344-.216a.29.29 0 0 0-.264.144 1.063 1.063 0 0 0-.144.376 8.094 8.094 0 0 0-.088.52 7.493 7.493 0 0 1-.104.568 2.178 2.178 0 0 1-.2.512c-.09.155-.21.28-.36.376-.15.096-.347.144-.592.144-.272 0-.507-.077-.704-.232a1.446 1.446 0 0 1-.464-.648 2.71 2.71 0 0 1-.168-1c0-.288.032-.579.096-.872.064-.293.155-.536.272-.728l.76.384a1.945 1.945 0 0 0-.248.616 2.63 2.63 0 0 0-.072.608c0 .304.045.531.136.68.09.144.205.216.344.216a.323.323 0 0 0 .288-.144c.064-.096.115-.221.152-.376.037-.155.07-.325.096-.512.021-.192.056-.381.104-.568.048-.187.115-.357.2-.512a.957.957 0 0 1 .344-.384c.15-.096.344-.144.584-.144.267 0 .499.08.696.24.197.155.352.376.464.664.107.288.16.632.16 1.032Zm0-4.605c0 .362-.067.682-.2.96a1.497 1.497 0 0 1-.624.648c-.283.154-.637.232-1.064.232h-2.44v-1h2.304c.384 0 .672-.086.864-.256.187-.176.28-.424.28-.744 0-.235-.048-.438-.144-.608a.972.972 0 0 0-.432-.408c-.192-.102-.43-.152-.712-.152h-2.16v-1H10v.952H8.848l.352-.168c.277.144.49.354.64.632.144.277.216.581.216.912ZM10 98.953H4.064v-1H10v1Zm.056-4.131c0 .47-.12.832-.36 1.088-.245.256-.605.384-1.08.384H4.784v-1h3.808c.203 0 .36-.05.472-.152a.579.579 0 0 0 .168-.44.879.879 0 0 0-.176-.56l.712-.28c.096.117.168.261.216.432.048.17.072.347.072.528ZM6.56 96.998h-.8V94.15h.8v2.848Zm3.44-6.59h-.864l-.184.055H7.44c-.293 0-.52.088-.68.264-.165.176-.248.443-.248.8 0 .24.037.478.112.712.075.23.179.424.312.584l-.728.392a2.321 2.321 0 0 1-.392-.816c-.09-.32-.136-.65-.136-.992 0-.618.15-1.096.448-1.432.293-.341.75-.512 1.368-.512H10v.944Zm.056 1.343c0 .32-.053.6-.16.84-.112.24-.264.427-.456.56a1.194 1.194 0 0 1-.664.192c-.24 0-.456-.056-.648-.168-.192-.117-.344-.306-.456-.568-.112-.261-.168-.608-.168-1.04v-1.24h.664v1.168c0 .342.056.571.168.688.107.118.24.176.4.176a.51.51 0 0 0 .432-.216c.107-.144.16-.344.16-.6 0-.245-.056-.464-.168-.656a.948.948 0 0 0-.496-.424l.6-.168c.25.096.445.27.584.52.139.246.208.558.208.936Zm0-5.18c0 .47-.12.833-.36 1.089-.245.256-.605.384-1.08.384H4.784v-1h3.808c.203 0 .36-.05.472-.152a.579.579 0 0 0 .168-.44.879.879 0 0 0-.176-.56l.712-.28c.096.117.168.261.216.432.048.17.072.347.072.528ZM6.56 88.749h-.8V85.9h.8v2.848Zm3.496-5.279c0 .358-.045.702-.136 1.032-.096.326-.21.584-.344.776l-.76-.384a2.73 2.73 0 0 0 .304-.688c.08-.266.12-.533.12-.8 0-.314-.043-.541-.128-.68-.085-.144-.2-.216-.344-.216a.29.29 0 0 0-.264.144 1.065 1.065 0 0 0-.144.376 8.058 8.058 0 0 0-.088.52 7.52 7.52 0 0 1-.104.568 2.178 2.178 0 0 1-.2.512c-.09.155-.21.28-.36.376-.15.096-.347.144-.592.144-.272 0-.507-.077-.704-.232a1.443 1.443 0 0 1-.464-.648 2.708 2.708 0 0 1-.168-1c0-.288.032-.578.096-.872a2.36 2.36 0 0 1 .272-.728l.76.384a1.942 1.942 0 0 0-.248.616 2.63 2.63 0 0 0-.072.608c0 .304.045.531.136.68.09.144.205.216.344.216a.323.323 0 0 0 .288-.144c.064-.096.115-.221.152-.376.037-.154.07-.325.096-.512.021-.192.056-.381.104-.568.048-.186.115-.357.2-.512a.957.957 0 0 1 .344-.384c.15-.096.344-.144.584-.144.267 0 .499.08.696.24.197.155.352.376.464.664.107.288.16.632.16 1.032ZM92.752 20v-5.6h2.304c.496 0 .92.08 1.272.24.357.16.632.39.824.688.192.299.288.653.288 1.064 0 .41-.096.765-.288 1.064-.192.293-.467.52-.824.68-.352.155-.776.232-1.272.232h-1.728l.464-.472V20h-1.04Zm3.664 0L95 17.968h1.112L97.536 20h-1.12Zm-2.624-1.992-.464-.496h1.68c.459 0 .803-.099 1.032-.296.235-.197.352-.472.352-.824 0-.357-.117-.632-.352-.824-.23-.192-.573-.288-1.032-.288h-1.68l.464-.512v3.24Zm6.724 2.048c-.475 0-.891-.093-1.248-.28a2.12 2.12 0 0 1-.824-.784 2.205 2.205 0 0 1-.288-1.128c0-.427.093-.803.28-1.128.192-.33.453-.59.784-.776.336-.187.717-.28 1.144-.28.416 0 .786.09 1.112.272.325.181.581.437.768.768.186.33.28.72.28 1.168 0 .043-.003.09-.008.144 0 .053-.003.104-.008.152h-3.56v-.664h3.032l-.392.208a1.17 1.17 0 0 0-.592-1.088 1.225 1.225 0 0 0-.632-.16c-.246 0-.462.053-.648.16a1.163 1.163 0 0 0-.432.448 1.371 1.371 0 0 0-.152.664v.16c0 .256.058.483.176.68.117.197.282.35.496.456.213.107.458.16.736.16.24 0 .456-.037.648-.112.192-.075.362-.192.512-.352l.536.616a1.916 1.916 0 0 1-.728.52 2.615 2.615 0 0 1-.992.176Zm2.968-.056v-5.936h1V20h-1Zm4.945 0v-.864l-.056-.184V17.44c0-.293-.088-.52-.264-.68-.176-.165-.443-.248-.8-.248-.24 0-.478.037-.712.112a1.74 1.74 0 0 0-.584.312l-.392-.728c.229-.176.501-.307.816-.392.32-.09.65-.136.992-.136.618 0 1.096.15 1.432.448.341.293.512.75.512 1.368V20h-.944Zm-1.344.056c-.32 0-.6-.053-.84-.16a1.364 1.364 0 0 1-.56-.456 1.194 1.194 0 0 1-.192-.664c0-.24.056-.456.168-.648.117-.192.306-.344.568-.456.261-.112.608-.168 1.04-.168h1.24v.664h-1.168c-.342 0-.571.056-.688.168a.516.516 0 0 0-.176.4.51.51 0 0 0 .216.432c.144.107.344.16.6.16.245 0 .464-.056.656-.168a.952.952 0 0 0 .424-.496l.168.6a1.11 1.11 0 0 1-.52.584c-.246.139-.558.208-.936.208Zm5.995-4.376c.341 0 .645.067.912.2.272.133.485.339.64.616.155.272.232.624.232 1.056V20h-1v-2.32c0-.379-.091-.661-.272-.848-.176-.187-.424-.28-.744-.28-.235 0-.443.048-.624.144-.181.096-.323.24-.424.432-.096.187-.144.424-.144.712V20h-1v-4.272h.952v1.152l-.168-.352c.149-.272.365-.48.648-.624.288-.15.619-.224.992-.224Zm5.02 4.376c-.448 0-.848-.093-1.2-.28a2.145 2.145 0 0 1-.816-.784 2.162 2.162 0 0 1-.296-1.128c0-.427.099-.803.296-1.128.198-.33.47-.59.816-.776.352-.187.752-.28 1.2-.28.416 0 .782.085 1.096.256.32.165.563.41.728.736l-.768.448a1.217 1.217 0 0 0-1.064-.592c-.245 0-.466.053-.664.16a1.145 1.145 0 0 0-.464.464 1.42 1.42 0 0 0-.168.712c0 .277.056.517.168.72.112.197.267.35.464.456.198.107.419.16.664.16a1.217 1.217 0 0 0 1.064-.592l.768.448c-.165.32-.408.568-.728.744-.314.17-.68.256-1.096.256Zm4.634 0c-.474 0-.89-.093-1.248-.28a2.125 2.125 0 0 1-.824-.784 2.205 2.205 0 0 1-.288-1.128c0-.427.094-.803.28-1.128.192-.33.454-.59.784-.776.336-.187.718-.28 1.144-.28.416 0 .787.09 1.112.272.326.181.582.437.768.768.187.33.28.72.28 1.168 0 .043-.002.09-.008.144 0 .053-.002.104-.008.152h-3.56v-.664h3.032l-.392.208a1.218 1.218 0 0 0-.152-.648 1.155 1.155 0 0 0-.44-.44 1.222 1.222 0 0 0-.632-.16c-.245 0-.461.053-.648.16a1.169 1.169 0 0 0-.432.448 1.376 1.376 0 0 0-.152.664v.16c0 .256.059.483.176.68.118.197.283.35.496.456.214.107.459.16.736.16.24 0 .456-.037.648-.112.192-.075.363-.192.512-.352l.536.616a1.908 1.908 0 0 1-.728.52 2.611 2.611 0 0 1-.992.176Zm6.988 0c-.411 0-.782-.09-1.112-.272a2.033 2.033 0 0 1-.768-.768c-.187-.325-.28-.71-.28-1.152 0-.443.093-.827.28-1.152.186-.325.442-.579.768-.76.33-.181.701-.272 1.112-.272.357 0 .677.08.96.24.282.155.506.392.672.712.165.32.248.73.248 1.232 0 .496-.08.907-.24 1.232-.16.32-.382.56-.664.72-.283.16-.608.24-.976.24Zm.12-.856c.24 0 .453-.053.64-.16.192-.107.344-.261.456-.464a1.4 1.4 0 0 0 .176-.712c0-.277-.059-.515-.176-.712a1.158 1.158 0 0 0-.456-.464c-.187-.107-.4-.16-.64-.16s-.456.053-.648.16a1.225 1.225 0 0 0-.456.464 1.42 1.42 0 0 0-.168.712c0 .272.056.51.168.712.117.203.269.357.456.464.192.107.408.16.648.16Zm1.296.8v-1.008l.04-1.136-.08-1.136v-2.656h.992V20h-.952Zm4.076.056c-.363 0-.683-.067-.96-.2a1.497 1.497 0 0 1-.648-.624c-.155-.283-.232-.637-.232-1.064v-2.44h1v2.304c0 .384.085.672.256.864.176.187.424.28.744.28.235 0 .437-.048.608-.144a.972.972 0 0 0 .408-.432c.101-.192.152-.43.152-.712v-2.16h1V20h-.952v-1.152l.168.352c-.144.277-.355.49-.632.64a1.947 1.947 0 0 1-.912.216Zm7.168 0c-.357 0-.701-.045-1.032-.136a2.722 2.722 0 0 1-.776-.344l.384-.76c.192.123.422.224.688.304.267.08.534.12.8.12.315 0 .542-.043.68-.128.144-.085.216-.2.216-.344a.29.29 0 0 0-.144-.264 1.063 1.063 0 0 0-.376-.144 7.996 7.996 0 0 0-.52-.088 7.585 7.585 0 0 1-.568-.104 2.196 2.196 0 0 1-.512-.2c-.154-.09-.28-.21-.376-.36-.096-.15-.144-.347-.144-.592 0-.272.078-.507.232-.704.155-.203.371-.357.648-.464a2.71 2.71 0 0 1 1-.168c.288 0 .579.032.872.096.294.064.536.155.728.272l-.384.76a1.936 1.936 0 0 0-.616-.248 2.624 2.624 0 0 0-.608-.072c-.304 0-.53.045-.68.136-.144.09-.216.205-.216.344 0 .128.048.224.144.288.096.064.222.115.376.152a5.6 5.6 0 0 0 .512.096c.192.021.382.056.568.104.187.048.358.115.512.2.16.08.288.195.384.344.096.15.144.344.144.584 0 .267-.08.499-.24.696-.154.197-.376.352-.664.464-.288.107-.632.16-1.032.16Zm2.797-.056v-4.272h1V20h-1Zm.504-4.976a.646.646 0 0 1-.464-.176.58.58 0 0 1-.176-.424c0-.17.059-.312.176-.424a.646.646 0 0 1 .464-.176c.187 0 .339.056.456.168a.516.516 0 0 1 .184.408.621.621 0 0 1-.176.448.627.627 0 0 1-.464.176Zm3.417 5.032c-.469 0-.832-.12-1.088-.36-.256-.245-.384-.605-.384-1.08v-3.832h1v3.808c0 .203.051.36.152.472a.579.579 0 0 0 .44.168.878.878 0 0 0 .56-.176l.28.712a1.17 1.17 0 0 1-.432.216 1.944 1.944 0 0 1-.528.072Zm-2.176-3.496v-.8h2.848v.8h-2.848Zm5.826 3.496c-.475 0-.891-.093-1.248-.28a2.118 2.118 0 0 1-.824-.784 2.205 2.205 0 0 1-.288-1.128c0-.427.093-.803.28-1.128.192-.33.453-.59.784-.776.336-.187.717-.28 1.144-.28.416 0 .787.09 1.112.272.325.181.581.437.768.768.187.33.28.72.28 1.168 0 .043-.003.09-.008.144 0 .053-.003.104-.008.152h-3.56v-.664h3.032l-.392.208a1.228 1.228 0 0 0-.152-.648 1.162 1.162 0 0 0-.44-.44 1.222 1.222 0 0 0-.632-.16c-.245 0-.461.053-.648.16a1.169 1.169 0 0 0-.432.448 1.376 1.376 0 0 0-.152.664v.16c0 .256.059.483.176.68.117.197.283.35.496.456.213.107.459.16.736.16.24 0 .456-.037.648-.112.192-.075.363-.192.512-.352l.536.616a1.916 1.916 0 0 1-.728.52 2.615 2.615 0 0 1-.992.176Z" />
    <rect width="238" height="19" x="81" y="177" fill="#D8D8D8" fill-opacity=".7" rx="9" />
    <circle cx="93" cy="186.5" r="4" fill="#F9D35D" />
    <path fill="#1A1A1A" fill-opacity=".7"
        d="m99.024 189 1.776-5.248h.752l1.776 5.248h-.704l-.92-2.936a30.861 30.861 0 0 1-.272-.872 95.777 95.777 0 0 1-.256-.896h-.032a30.861 30.861 0 0 1-.52 1.768L99.696 189h-.672Zm.928-1.6v-.528h2.424v.528h-2.424Zm5.137 1.696c-.411 0-.712-.128-.904-.384-.187-.261-.28-.64-.28-1.136v-2.464h.656v2.376c0 .363.056.627.168.792.117.16.304.24.56.24a.946.946 0 0 0 .528-.152c.16-.107.333-.272.52-.496v-2.76h.656V189h-.544l-.056-.608h-.024a2.348 2.348 0 0 1-.576.512 1.29 1.29 0 0 1-.704.192Zm4.759 0c-.346 0-.658-.08-.936-.24a1.692 1.692 0 0 1-.656-.696c-.16-.304-.24-.669-.24-1.096 0-.437.086-.808.256-1.112a1.84 1.84 0 0 1 .688-.696c.288-.16.598-.24.928-.24a1.535 1.535 0 0 1 1.136.456l-.328.408a1 1 0 0 0-.344-.224 1.038 1.038 0 0 0-.44-.088 1.08 1.08 0 0 0-.624.192 1.276 1.276 0 0 0-.432.52c-.106.224-.16.485-.16.784 0 .293.051.552.152.776.102.224.243.4.424.528a1.1 1.1 0 0 0 .632.184c.182 0 .35-.035.504-.104.155-.069.288-.157.4-.264l.288.4c-.165.155-.352.28-.56.376a1.697 1.697 0 0 1-.688.136Zm3.241 0c-.411 0-.712-.128-.904-.384-.187-.261-.28-.64-.28-1.136v-2.464h.656v2.376c0 .363.056.627.168.792.117.16.304.24.56.24a.946.946 0 0 0 .528-.152c.16-.107.333-.272.52-.496v-2.76h.656V189h-.544l-.056-.608h-.024a2.348 2.348 0 0 1-.576.512 1.29 1.29 0 0 1-.704.192Zm3.215-.096v-3.888h.544l.056.56h.024c.187-.187.384-.341.592-.464.208-.128.446-.192.712-.192.411 0 .71.131.896.392.192.256.288.632.288 1.128V189h-.656v-2.376c0-.368-.058-.632-.176-.792-.112-.165-.298-.248-.56-.248a.985.985 0 0 0-.536.152c-.154.101-.33.251-.528.448V189h-.656Zm5.951.096c-.346 0-.664-.08-.952-.24a1.8 1.8 0 0 1-.672-.696c-.165-.304-.248-.672-.248-1.104 0-.421.086-.784.256-1.088.171-.304.39-.539.656-.704.267-.165.55-.248.848-.248.331 0 .611.077.84.232.235.149.411.36.528.632.118.272.176.592.176.96 0 .069-.002.136-.008.2a.789.789 0 0 1-.024.192h-2.8v-.52h2.24c0-.373-.082-.659-.248-.856-.16-.203-.392-.304-.696-.304-.176 0-.349.051-.52.152a1.09 1.09 0 0 0-.424.472c-.106.219-.16.509-.16.872 0 .331.056.608.168.832.118.224.275.395.472.512.198.112.414.168.648.168a1.706 1.706 0 0 0 .968-.296l.24.432c-.17.117-.362.213-.576.288a2.09 2.09 0 0 1-.712.112Zm4.891 0c-.214 0-.408-.043-.584-.128a1.064 1.064 0 0 1-.408-.376 1.12 1.12 0 0 1-.152-.6c0-.437.192-.768.576-.992.384-.224.992-.381 1.824-.472a1.716 1.716 0 0 0-.08-.464.683.683 0 0 0-.24-.36c-.118-.091-.28-.136-.488-.136a1.58 1.58 0 0 0-.632.128c-.198.08-.374.171-.528.272l-.256-.448c.117-.08.256-.157.416-.232.16-.08.333-.144.52-.192.186-.053.384-.08.592-.08.314 0 .57.067.768.2.202.128.349.312.44.552.096.24.144.523.144.848V189h-.544l-.056-.464h-.024a3.462 3.462 0 0 1-.6.4c-.214.107-.443.16-.688.16Zm.184-.544c.192 0 .37-.043.536-.128.17-.085.349-.211.536-.376V187a5.52 5.52 0 0 0-1.04.208c-.251.08-.432.181-.544.304a.63.63 0 0 0-.168.44c0 .213.066.368.2.464a.83.83 0 0 0 .48.136Zm2.951.448v-3.888h.544l.056.56h.024c.171-.181.355-.336.552-.464.203-.128.421-.192.656-.192.299 0 .531.067.696.2.171.133.296.315.376.544.203-.224.408-.403.616-.536.208-.139.429-.208.664-.208.405 0 .704.131.896.392.192.256.288.632.288 1.128V189h-.656v-2.376c0-.368-.059-.632-.176-.792-.117-.165-.299-.248-.544-.248a.882.882 0 0 0-.472.152 2.405 2.405 0 0 0-.504.448V189h-.656v-2.376c0-.368-.059-.632-.176-.792-.117-.165-.301-.248-.552-.248-.293 0-.619.2-.976.6V189h-.656Zm8.209.096c-.347 0-.664-.08-.952-.24a1.786 1.786 0 0 1-.672-.696c-.166-.304-.248-.672-.248-1.104 0-.421.085-.784.256-1.088.17-.304.389-.539.656-.704.266-.165.549-.248.848-.248.33 0 .61.077.84.232.234.149.41.36.528.632.117.272.176.592.176.96 0 .069-.003.136-.008.2a.789.789 0 0 1-.024.192h-2.8v-.52h2.24c0-.373-.083-.659-.248-.856-.16-.203-.392-.304-.696-.304-.176 0-.35.051-.52.152a1.084 1.084 0 0 0-.424.472c-.107.219-.16.509-.16.872 0 .331.056.608.168.832.117.224.274.395.472.512.197.112.413.168.648.168a1.737 1.737 0 0 0 .968-.296l.24.432a2.463 2.463 0 0 1-.576.288 2.095 2.095 0 0 1-.712.112Zm-.736-4.656 1.032-1.32h.72l.04.072-1.264 1.248h-.528Zm3.825 4.632a.738.738 0 0 1-.4-.096.598.598 0 0 1-.224-.296 1.419 1.419 0 0 1-.072-.48v-4.896h.656v4.944c0 .107.018.181.056.224a.185.185 0 0 0 .136.056h.056c.021-.005.048-.011.08-.016l.096.496a1.157 1.157 0 0 1-.168.04.836.836 0 0 1-.216.024Zm1.343-.072v-3.888h.656V189h-.656Zm.328-4.688a.45.45 0 0 1-.32-.12.422.422 0 0 1-.12-.312c0-.128.04-.232.12-.312a.45.45 0 0 1 .32-.12.422.422 0 0 1 .44.432.422.422 0 0 1-.44.432Zm3.152 4.784c-.314 0-.61-.08-.888-.24a1.82 1.82 0 0 1-.664-.696c-.165-.304-.248-.669-.248-1.096 0-.437.083-.808.248-1.112a1.82 1.82 0 0 1 .664-.696c.278-.16.574-.24.888-.24a1.72 1.72 0 0 1 1.544.936c.171.304.256.675.256 1.112 0 .427-.085.792-.256 1.096a1.72 1.72 0 0 1-1.544.936Zm0-.544a.984.984 0 0 0 .592-.184 1.2 1.2 0 0 0 .392-.528c.091-.224.136-.483.136-.776 0-.299-.045-.56-.136-.784a1.146 1.146 0 0 0-.392-.528.959.959 0 0 0-.592-.192.96.96 0 0 0-.592.192 1.235 1.235 0 0 0-.392.528c-.09.224-.136.485-.136.784 0 .293.046.552.136.776.096.224.227.4.392.528a.987.987 0 0 0 .592.184Zm2.824.448v-3.888h.544l.056.704h.024c.128-.245.288-.44.48-.584.192-.144.4-.216.624-.216.086 0 .16.005.224.016a.689.689 0 0 1 .192.064l-.144.56a.97.97 0 0 0-.168-.032.898.898 0 0 0-.192-.016c-.165 0-.338.067-.52.2-.176.133-.33.365-.464.696V189h-.656Zm3.482.096c-.213 0-.408-.043-.584-.128a1.078 1.078 0 0 1-.408-.376 1.128 1.128 0 0 1-.152-.6c0-.437.192-.768.576-.992.384-.224.992-.381 1.824-.472a1.679 1.679 0 0 0-.08-.464.672.672 0 0 0-.24-.36c-.117-.091-.28-.136-.488-.136-.224 0-.434.043-.632.128-.197.08-.373.171-.528.272l-.256-.448c.118-.08.256-.157.416-.232.16-.08.334-.144.52-.192a2.16 2.16 0 0 1 .592-.08c.315 0 .571.067.768.2.203.128.35.312.44.552.096.24.144.523.144.848V189h-.544l-.056-.464h-.024a3.388 3.388 0 0 1-.6.4 1.51 1.51 0 0 1-.688.16Zm.184-.544c.192 0 .371-.043.536-.128.171-.085.35-.211.536-.376V187a5.537 5.537 0 0 0-1.04.208c-.25.08-.432.181-.544.304a.63.63 0 0 0-.168.44c0 .213.067.368.2.464a.834.834 0 0 0 .48.136Zm4.066.52c-.411 0-.699-.12-.864-.36-.165-.24-.248-.552-.248-.936v-2.128h-.576v-.496l.608-.04.08-1.248h.552v1.248h1.056v.536h-1.056v2.136c0 .235.043.419.128.552.091.133.248.2.472.2.069 0 .141-.005.216-.016a.957.957 0 0 0 .224-.08l.144.464a1.845 1.845 0 0 1-.344.12 1.612 1.612 0 0 1-.392.048Zm1.479-.072v-3.888h.656V189h-.656Zm.328-4.688a.45.45 0 0 1-.32-.12.422.422 0 0 1-.12-.312c0-.128.04-.232.12-.312a.45.45 0 0 1 .32-.12c.128 0 .232.04.312.12.086.08.128.184.128.312a.406.406 0 0 1-.128.312.422.422 0 0 1-.312.12Zm3.153 4.784c-.315 0-.611-.08-.888-.24a1.82 1.82 0 0 1-.664-.696c-.165-.304-.248-.669-.248-1.096 0-.437.083-.808.248-1.112a1.82 1.82 0 0 1 .664-.696c.277-.16.573-.24.888-.24a1.72 1.72 0 0 1 1.544.936c.171.304.256.675.256 1.112 0 .427-.085.792-.256 1.096a1.72 1.72 0 0 1-1.544.936Zm0-.544a.987.987 0 0 0 .592-.184c.171-.128.301-.304.392-.528.091-.224.136-.483.136-.776 0-.299-.045-.56-.136-.784a1.153 1.153 0 0 0-.392-.528.96.96 0 0 0-.592-.192.96.96 0 0 0-.592.192 1.235 1.235 0 0 0-.392.528 2.073 2.073 0 0 0-.136.784c0 .293.045.552.136.776.096.224.227.4.392.528a.987.987 0 0 0 .592.184Zm2.824.448v-3.888h.544l.056.56h.024c.187-.187.384-.341.592-.464a1.33 1.33 0 0 1 .712-.192c.411 0 .709.131.896.392.192.256.288.632.288 1.128V189h-.656v-2.376c0-.368-.059-.632-.176-.792-.112-.165-.299-.248-.56-.248a.985.985 0 0 0-.536.152 3.445 3.445 0 0 0-.528.448V189h-.656Zm7.033 1.408a7.607 7.607 0 0 1-.776-1.688 6.427 6.427 0 0 1-.28-1.944c0-.704.093-1.352.28-1.944a7.386 7.386 0 0 1 .776-1.688l.408.192a6.067 6.067 0 0 0-.696 1.648 7.207 7.207 0 0 0-.224 1.792c0 .608.074 1.205.224 1.792.154.587.386 1.136.696 1.648l-.408.192ZM173.14 189v-3.888h.544l.056.704h.024c.128-.245.288-.44.48-.584.192-.144.4-.216.624-.216.086 0 .16.005.224.016a.689.689 0 0 1 .192.064l-.144.56a.97.97 0 0 0-.168-.032.898.898 0 0 0-.192-.016c-.165 0-.338.067-.52.2-.176.133-.33.365-.464.696V189h-.656Zm4.272.096c-.347 0-.664-.08-.952-.24a1.786 1.786 0 0 1-.672-.696c-.166-.304-.248-.672-.248-1.104 0-.421.085-.784.256-1.088.17-.304.389-.539.656-.704.266-.165.549-.248.848-.248.33 0 .61.077.84.232.234.149.41.36.528.632.117.272.176.592.176.96 0 .069-.003.136-.008.2a.789.789 0 0 1-.024.192h-2.8v-.52h2.24c0-.373-.083-.659-.248-.856-.16-.203-.392-.304-.696-.304-.176 0-.35.051-.52.152a1.084 1.084 0 0 0-.424.472c-.107.219-.16.509-.16.872 0 .331.056.608.168.832.117.224.274.395.472.512.197.112.413.168.648.168a1.737 1.737 0 0 0 .968-.296l.24.432a2.463 2.463 0 0 1-.576.288 2.095 2.095 0 0 1-.712.112Zm-.736-4.656 1.032-1.32h.72l.04.072-1.264 1.248h-.528Zm4.144 4.656c-.282 0-.552-.048-.808-.144a1.9 1.9 0 0 1-.64-.416l.304-.384c.171.139.347.245.528.32.187.075.4.112.64.112.256 0 .448-.059.576-.176a.58.58 0 0 0 .192-.432.43.43 0 0 0-.136-.328.981.981 0 0 0-.328-.224 3.637 3.637 0 0 0-.416-.176 4.553 4.553 0 0 1-.552-.24 1.416 1.416 0 0 1-.432-.352.88.88 0 0 1-.16-.536c0-.315.118-.576.352-.784.24-.213.571-.32.992-.32.24 0 .464.043.672.128.208.08.387.184.536.312l-.304.376a1.884 1.884 0 0 0-.424-.224 1.38 1.38 0 0 0-.48-.08c-.245 0-.426.056-.544.168a.538.538 0 0 0-.168.392c0 .117.035.216.104.296a.96.96 0 0 0 .288.2c.128.059.272.115.432.168.203.075.395.16.576.256.187.091.336.211.448.36.118.144.176.333.176.568 0 .213-.056.408-.168.584a1.15 1.15 0 0 1-.48.416c-.208.107-.466.16-.776.16Zm3.472 0c-.411 0-.712-.128-.904-.384-.187-.261-.28-.64-.28-1.136v-2.464h.656v2.376c0 .363.056.627.168.792.117.16.304.24.56.24a.946.946 0 0 0 .528-.152c.16-.107.333-.272.52-.496v-2.76h.656V189h-.544l-.056-.608h-.024a2.348 2.348 0 0 1-.576.512 1.29 1.29 0 0 1-.704.192Zm3.912-.024a.738.738 0 0 1-.4-.096.598.598 0 0 1-.224-.296 1.419 1.419 0 0 1-.072-.48v-4.896h.656v4.944c0 .107.018.181.056.224a.185.185 0 0 0 .136.056h.056c.021-.005.048-.011.08-.016l.096.496a1.157 1.157 0 0 1-.168.04.836.836 0 0 1-.216.024Zm2.567 0c-.411 0-.699-.12-.864-.36-.166-.24-.248-.552-.248-.936v-2.128h-.576v-.496l.608-.04.08-1.248h.552v1.248h1.056v.536h-1.056v2.136c0 .235.042.419.128.552.09.133.248.2.472.2.069 0 .141-.005.216-.016a.973.973 0 0 0 .224-.08l.144.464a1.87 1.87 0 0 1-.344.12 1.612 1.612 0 0 1-.392.048Zm2.203.024c-.213 0-.408-.043-.584-.128a1.064 1.064 0 0 1-.408-.376 1.128 1.128 0 0 1-.152-.6c0-.437.192-.768.576-.992.384-.224.992-.381 1.824-.472a1.679 1.679 0 0 0-.08-.464.683.683 0 0 0-.24-.36c-.117-.091-.28-.136-.488-.136a1.58 1.58 0 0 0-.632.128c-.197.08-.373.171-.528.272l-.256-.448c.117-.08.256-.157.416-.232.16-.08.333-.144.52-.192a2.16 2.16 0 0 1 .592-.08c.315 0 .571.067.768.2.203.128.349.312.44.552.096.24.144.523.144.848V189h-.544l-.056-.464h-.024a3.462 3.462 0 0 1-.6.4c-.213.107-.443.16-.688.16Zm.184-.544c.192 0 .371-.043.536-.128.171-.085.349-.211.536-.376V187a5.537 5.537 0 0 0-1.04.208c-.251.08-.432.181-.544.304a.63.63 0 0 0-.168.44c0 .213.067.368.2.464a.83.83 0 0 0 .48.136Zm4.066.52c-.411 0-.699-.12-.864-.36-.166-.24-.248-.552-.248-.936v-2.128h-.576v-.496l.608-.04.08-1.248h.552v1.248h1.056v.536h-1.056v2.136c0 .235.042.419.128.552.09.133.248.2.472.2.069 0 .141-.005.216-.016a.973.973 0 0 0 .224-.08l.144.464a1.87 1.87 0 0 1-.344.12 1.612 1.612 0 0 1-.392.048Zm2.417.024a2.28 2.28 0 0 1-.808-.144 1.89 1.89 0 0 1-.64-.416l.304-.384c.17.139.346.245.528.32.186.075.4.112.64.112.256 0 .448-.059.576-.176a.58.58 0 0 0 .192-.432.433.433 0 0 0-.136-.328 1.002 1.002 0 0 0-.328-.224 3.715 3.715 0 0 0-.416-.176 4.553 4.553 0 0 1-.552-.24 1.416 1.416 0 0 1-.432-.352.874.874 0 0 1-.16-.536c0-.315.117-.576.352-.784.24-.213.57-.32.992-.32.24 0 .464.043.672.128.208.08.386.184.536.312l-.304.376a1.906 1.906 0 0 0-.424-.224 1.38 1.38 0 0 0-.48-.08c-.246 0-.427.056-.544.168a.538.538 0 0 0-.168.392c0 .117.034.216.104.296a.936.936 0 0 0 .288.2c.128.059.272.115.432.168.202.075.394.16.576.256.186.091.336.211.448.36.117.144.176.333.176.568 0 .213-.056.408-.168.584a1.162 1.162 0 0 1-.48.416c-.208.107-.467.16-.776.16Zm5.513 0c-.347 0-.664-.08-.952-.24a1.786 1.786 0 0 1-.672-.696c-.165-.304-.248-.672-.248-1.104 0-.421.085-.784.256-1.088a1.9 1.9 0 0 1 .656-.704c.267-.165.549-.248.848-.248.331 0 .611.077.84.232.235.149.411.36.528.632.117.272.176.592.176.96 0 .069-.003.136-.008.2a.789.789 0 0 1-.024.192h-2.8v-.52h2.24c0-.373-.083-.659-.248-.856-.16-.203-.392-.304-.696-.304-.176 0-.349.051-.52.152a1.084 1.084 0 0 0-.424.472c-.107.219-.16.509-.16.872 0 .331.056.608.168.832.117.224.275.395.472.512.197.112.413.168.648.168a1.722 1.722 0 0 0 .968-.296l.24.432a2.463 2.463 0 0 1-.576.288 2.09 2.09 0 0 1-.712.112Zm2.393-.096v-3.888h.544l.056.56h.024a2.96 2.96 0 0 1 .592-.464 1.33 1.33 0 0 1 .712-.192c.41 0 .709.131.896.392.192.256.288.632.288 1.128V189h-.656v-2.376c0-.368-.059-.632-.176-.792-.112-.165-.299-.248-.56-.248a.982.982 0 0 0-.536.152 3.445 3.445 0 0 0-.528.448V189h-.656Zm7.696.096c-.181 0-.368-.043-.56-.128a2.372 2.372 0 0 1-.552-.368h-.024l-.056.4h-.528v-5.696h.656v1.552l-.016.704a2.56 2.56 0 0 1 .576-.384c.214-.107.427-.16.64-.16.336 0 .619.083.848.248.23.16.403.389.52.688.118.293.176.64.176 1.04 0 .443-.08.821-.24 1.136a1.74 1.74 0 0 1-.616.72c-.256.165-.53.248-.824.248Zm-.112-.552a.924.924 0 0 0 .568-.184c.171-.123.304-.299.4-.528.096-.235.144-.512.144-.832 0-.283-.034-.531-.104-.744a.996.996 0 0 0-.328-.504c-.149-.123-.346-.184-.592-.184-.16 0-.328.045-.504.136-.17.085-.349.216-.536.392v2.04c.171.149.339.256.504.32a1.4 1.4 0 0 0 .448.088Zm3.601.552c-.214 0-.408-.043-.584-.128a1.064 1.064 0 0 1-.408-.376 1.12 1.12 0 0 1-.152-.6c0-.437.192-.768.576-.992.384-.224.992-.381 1.824-.472a1.716 1.716 0 0 0-.08-.464.683.683 0 0 0-.24-.36c-.118-.091-.28-.136-.488-.136a1.58 1.58 0 0 0-.632.128c-.198.08-.374.171-.528.272l-.256-.448c.117-.08.256-.157.416-.232.16-.08.333-.144.52-.192.186-.053.384-.08.592-.08.314 0 .57.067.768.2.202.128.349.312.44.552.096.24.144.523.144.848V189h-.544l-.056-.464h-.024a3.462 3.462 0 0 1-.6.4c-.214.107-.443.16-.688.16Zm.184-.544c.192 0 .37-.043.536-.128.17-.085.349-.211.536-.376V187a5.52 5.52 0 0 0-1.04.208c-.251.08-.432.181-.544.304a.63.63 0 0 0-.168.44c0 .213.066.368.2.464a.83.83 0 0 0 .48.136Zm2.951.448v-3.888h.656V189h-.656Zm.328-4.688a.45.45 0 0 1-.32-.12.422.422 0 0 1-.12-.312c0-.128.04-.232.12-.312a.45.45 0 0 1 .32-.12.422.422 0 0 1 .44.432.422.422 0 0 1-.44.432Zm2.657 4.784a2.28 2.28 0 0 1-.808-.144 1.89 1.89 0 0 1-.64-.416l.304-.384c.17.139.346.245.528.32.186.075.4.112.64.112.256 0 .448-.059.576-.176a.58.58 0 0 0 .192-.432.433.433 0 0 0-.136-.328 1.002 1.002 0 0 0-.328-.224 3.715 3.715 0 0 0-.416-.176 4.553 4.553 0 0 1-.552-.24 1.416 1.416 0 0 1-.432-.352.874.874 0 0 1-.16-.536c0-.315.117-.576.352-.784.24-.213.57-.32.992-.32.24 0 .464.043.672.128.208.08.386.184.536.312l-.304.376a1.906 1.906 0 0 0-.424-.224 1.38 1.38 0 0 0-.48-.08c-.246 0-.427.056-.544.168a.538.538 0 0 0-.168.392c0 .117.034.216.104.296a.936.936 0 0 0 .288.2c.128.059.272.115.432.168.202.075.394.16.576.256.186.091.336.211.448.36.117.144.176.333.176.568 0 .213-.056.408-.168.584a1.162 1.162 0 0 1-.48.416c-.208.107-.467.16-.776.16Zm3.351 0c-.282 0-.552-.048-.808-.144a1.9 1.9 0 0 1-.64-.416l.304-.384c.171.139.347.245.528.32.187.075.4.112.64.112.256 0 .448-.059.576-.176a.58.58 0 0 0 .192-.432.43.43 0 0 0-.136-.328.981.981 0 0 0-.328-.224 3.637 3.637 0 0 0-.416-.176 4.553 4.553 0 0 1-.552-.24 1.416 1.416 0 0 1-.432-.352.88.88 0 0 1-.16-.536c0-.315.118-.576.352-.784.24-.213.571-.32.992-.32.24 0 .464.043.672.128.208.08.387.184.536.312l-.304.376a1.884 1.884 0 0 0-.424-.224 1.38 1.38 0 0 0-.48-.08c-.245 0-.426.056-.544.168a.538.538 0 0 0-.168.392c0 .117.035.216.104.296a.96.96 0 0 0 .288.2c.128.059.272.115.432.168.203.075.395.16.576.256.187.091.336.211.448.36.118.144.176.333.176.568 0 .213-.056.408-.168.584a1.15 1.15 0 0 1-.48.416c-.208.107-.466.16-.776.16Zm3.912 0c-.347 0-.664-.08-.952-.24a1.786 1.786 0 0 1-.672-.696c-.166-.304-.248-.672-.248-1.104 0-.421.085-.784.256-1.088.17-.304.389-.539.656-.704.266-.165.549-.248.848-.248.33 0 .61.077.84.232.234.149.41.36.528.632.117.272.176.592.176.96 0 .069-.003.136-.008.2a.789.789 0 0 1-.024.192h-2.8v-.52h2.24c0-.373-.083-.659-.248-.856-.16-.203-.392-.304-.696-.304-.176 0-.35.051-.52.152a1.084 1.084 0 0 0-.424.472c-.107.219-.16.509-.16.872 0 .331.056.608.168.832.117.224.274.395.472.512.197.112.413.168.648.168a1.737 1.737 0 0 0 .968-.296l.24.432a2.463 2.463 0 0 1-.576.288 2.095 2.095 0 0 1-.712.112Zm2.449 1.312-.408-.192a6.086 6.086 0 0 0 .688-1.648 7.032 7.032 0 0 0 0-3.584 5.957 5.957 0 0 0-.688-1.648l.408-.192c.336.533.594 1.096.776 1.688.186.592.28 1.24.28 1.944s-.094 1.352-.28 1.944a7.221 7.221 0 0 1-.776 1.688Z" />
    <circle cx="249" cy="186.5" r="4" fill="#39A5B3" />
    <path fill="#1A1A1A" fill-opacity=".7"
        d="M255.72 189v-5.248h1.64c.357 0 .675.048.952.144.277.091.493.245.648.464.16.213.24.501.24.864 0 .352-.08.643-.24.872a1.436 1.436 0 0 1-.648.52 2.526 2.526 0 0 1-.952.168h-.976V189h-.664Zm.664-2.76h.88c.411 0 .725-.083.944-.248.219-.171.328-.427.328-.768s-.109-.581-.328-.72c-.219-.144-.533-.216-.944-.216h-.88v1.952ZM258.6 189l-1.368-2.4.52-.352 1.6 2.752h-.752Zm3.109.096c-.347 0-.664-.08-.952-.24a1.786 1.786 0 0 1-.672-.696c-.166-.304-.248-.672-.248-1.104 0-.421.085-.784.256-1.088.17-.304.389-.539.656-.704.266-.165.549-.248.848-.248.33 0 .61.077.84.232.234.149.41.36.528.632.117.272.176.592.176.96 0 .069-.003.136-.008.2a.789.789 0 0 1-.024.192h-2.8v-.52h2.24c0-.373-.083-.659-.248-.856-.16-.203-.392-.304-.696-.304-.176 0-.35.051-.52.152a1.084 1.084 0 0 0-.424.472c-.107.219-.16.509-.16.872 0 .331.056.608.168.832.117.224.274.395.472.512.197.112.413.168.648.168a1.737 1.737 0 0 0 .968-.296l.24.432a2.463 2.463 0 0 1-.576.288 2.095 2.095 0 0 1-.712.112Zm2.489-.096v-4.504c0-.261.04-.488.12-.68a.903.903 0 0 1 .368-.448c.17-.107.386-.16.648-.16.117 0 .232.013.344.04.117.021.218.051.304.088l-.144.48a1.49 1.49 0 0 0-.44-.072c-.182 0-.318.064-.408.192-.091.123-.136.309-.136.56V189h-.656Zm-.576-3.352v-.496l.608-.04h1.448v.536h-2.056Zm4.234 3.448c-.315 0-.611-.08-.888-.24a1.812 1.812 0 0 1-.664-.696c-.166-.304-.248-.669-.248-1.096 0-.437.082-.808.248-1.112.17-.304.392-.536.664-.696.277-.16.573-.24.888-.24a1.72 1.72 0 0 1 1.544.936c.17.304.256.675.256 1.112 0 .427-.086.792-.256 1.096a1.72 1.72 0 0 1-1.544.936Zm0-.544a.987.987 0 0 0 .592-.184c.17-.128.301-.304.392-.528.09-.224.136-.483.136-.776 0-.299-.046-.56-.136-.784a1.16 1.16 0 0 0-.392-.528.96.96 0 0 0-.592-.192.959.959 0 0 0-.592.192 1.227 1.227 0 0 0-.392.528 2.073 2.073 0 0 0-.136.784c0 .293.045.552.136.776.096.224.226.4.392.528.17.123.368.184.592.184Zm2.823.448v-3.888h.544l.056.56h.024c.187-.187.384-.341.592-.464.208-.128.446-.192.712-.192.411 0 .71.131.896.392.192.256.288.632.288 1.128V189h-.656v-2.376c0-.368-.058-.632-.176-.792-.112-.165-.298-.248-.56-.248a.985.985 0 0 0-.536.152c-.154.101-.33.251-.528.448V189h-.656Zm5.599.072c-.41 0-.698-.12-.864-.36-.165-.24-.248-.552-.248-.936v-2.128h-.576v-.496l.608-.04.08-1.248h.552v1.248h1.056v.536h-1.056v2.136c0 .235.043.419.128.552.091.133.248.2.472.2.07 0 .142-.005.216-.016a.941.941 0 0 0 .224-.08l.144.464a1.845 1.845 0 0 1-.344.12 1.606 1.606 0 0 1-.392.048Zm2.946.024c-.346 0-.664-.08-.952-.24a1.8 1.8 0 0 1-.672-.696c-.165-.304-.248-.672-.248-1.104 0-.421.086-.784.256-1.088.171-.304.39-.539.656-.704.267-.165.55-.248.848-.248.331 0 .611.077.84.232.235.149.411.36.528.632.118.272.176.592.176.96 0 .069-.002.136-.008.2a.789.789 0 0 1-.024.192h-2.8v-.52h2.24c0-.373-.082-.659-.248-.856-.16-.203-.392-.304-.696-.304-.176 0-.349.051-.52.152a1.09 1.09 0 0 0-.424.472c-.106.219-.16.509-.16.872 0 .331.056.608.168.832.118.224.275.395.472.512.198.112.414.168.648.168a1.706 1.706 0 0 0 .968-.296l.24.432c-.17.117-.362.213-.576.288a2.09 2.09 0 0 1-.712.112Zm5.571 0c-.347 0-.664-.08-.952-.24a1.786 1.786 0 0 1-.672-.696c-.166-.304-.248-.672-.248-1.104 0-.421.085-.784.256-1.088.17-.304.389-.539.656-.704.266-.165.549-.248.848-.248.33 0 .61.077.84.232.234.149.41.36.528.632.117.272.176.592.176.96 0 .069-.003.136-.008.2a.789.789 0 0 1-.024.192h-2.8v-.52h2.24c0-.373-.083-.659-.248-.856-.16-.203-.392-.304-.696-.304-.176 0-.35.051-.52.152a1.084 1.084 0 0 0-.424.472c-.107.219-.16.509-.16.872 0 .331.056.608.168.832.117.224.274.395.472.512.197.112.413.168.648.168a1.737 1.737 0 0 0 .968-.296l.24.432a2.463 2.463 0 0 1-.576.288 2.095 2.095 0 0 1-.712.112Zm2.392-.096v-3.888h.544l.056.56h.024c.187-.187.384-.341.592-.464.208-.128.446-.192.712-.192.411 0 .71.131.896.392.192.256.288.632.288 1.128V189h-.656v-2.376c0-.368-.058-.632-.176-.792-.112-.165-.298-.248-.56-.248a.985.985 0 0 0-.536.152c-.154.101-.33.251-.528.448V189h-.656Zm7.521.096c-.347 0-.659-.08-.936-.24a1.686 1.686 0 0 1-.656-.696c-.16-.304-.24-.669-.24-1.096 0-.437.085-.808.256-1.112.176-.304.405-.536.688-.696.288-.16.597-.24.928-.24a1.538 1.538 0 0 1 1.136.456l-.328.408a1.01 1.01 0 0 0-.344-.224 1.041 1.041 0 0 0-.44-.088c-.23 0-.438.064-.624.192a1.26 1.26 0 0 0-.432.52 1.8 1.8 0 0 0-.16.784c0 .293.05.552.152.776.101.224.242.4.424.528.181.123.392.184.632.184.181 0 .349-.035.504-.104.154-.069.288-.157.4-.264l.288.4c-.166.155-.352.28-.56.376a1.7 1.7 0 0 1-.688.136Zm3.452 0c-.314 0-.61-.08-.888-.24a1.82 1.82 0 0 1-.664-.696c-.165-.304-.248-.669-.248-1.096 0-.437.083-.808.248-1.112a1.82 1.82 0 0 1 .664-.696c.278-.16.574-.24.888-.24a1.72 1.72 0 0 1 1.544.936c.171.304.256.675.256 1.112 0 .427-.085.792-.256 1.096a1.72 1.72 0 0 1-1.544.936Zm0-.544a.984.984 0 0 0 .592-.184 1.2 1.2 0 0 0 .392-.528c.091-.224.136-.483.136-.776 0-.299-.045-.56-.136-.784a1.146 1.146 0 0 0-.392-.528.959.959 0 0 0-.592-.192.96.96 0 0 0-.592.192 1.235 1.235 0 0 0-.392.528c-.09.224-.136.485-.136.784 0 .293.046.552.136.776.096.224.227.4.392.528a.987.987 0 0 0 .592.184Zm3.96.544c-.411 0-.712-.128-.904-.384-.187-.261-.28-.64-.28-1.136v-2.464h.656v2.376c0 .363.056.627.168.792.117.16.304.24.56.24a.946.946 0 0 0 .528-.152c.16-.107.333-.272.52-.496v-2.76h.656V189h-.544l-.056-.608h-.024a2.348 2.348 0 0 1-.576.512 1.29 1.29 0 0 1-.704.192Zm3.216-.096v-3.888h.544l.056.704h.024c.128-.245.288-.44.48-.584.192-.144.4-.216.624-.216.085 0 .16.005.224.016a.689.689 0 0 1 .192.064l-.144.56a1.007 1.007 0 0 0-.168-.032.898.898 0 0 0-.192-.016c-.166 0-.339.067-.52.2-.176.133-.331.365-.464.696V189h-.656Zm3.758.096a2.28 2.28 0 0 1-.808-.144 1.89 1.89 0 0 1-.64-.416l.304-.384c.171.139.347.245.528.32.187.075.4.112.64.112.256 0 .448-.059.576-.176a.58.58 0 0 0 .192-.432.43.43 0 0 0-.136-.328.991.991 0 0 0-.328-.224 3.715 3.715 0 0 0-.416-.176 4.553 4.553 0 0 1-.552-.24 1.416 1.416 0 0 1-.432-.352.874.874 0 0 1-.16-.536c0-.315.117-.576.352-.784.24-.213.571-.32.992-.32.24 0 .464.043.672.128.208.08.387.184.536.312l-.304.376a1.906 1.906 0 0 0-.424-.224 1.38 1.38 0 0 0-.48-.08c-.245 0-.427.056-.544.168a.538.538 0 0 0-.168.392c0 .117.035.216.104.296a.936.936 0 0 0 .288.2c.128.059.272.115.432.168.203.075.395.16.576.256.187.091.336.211.448.36.117.144.176.333.176.568 0 .213-.056.408-.168.584a1.162 1.162 0 0 1-.48.416c-.208.107-.467.16-.776.16Z" />
</svg>