<svg width="201" height="84" viewBox="0 0 201 84" fill="none" xmlns="http://www.w3.org/2000/svg">
<path d="M100.065 83.3147C122.982 83.3147 141.561 64.7364 141.561 41.8189C141.561 18.9013 122.982 0.322998 100.065 0.322998C77.1473 0.322998 58.569 18.9013 58.569 41.8189C58.569 64.7364 77.1473 83.3147 100.065 83.3147Z" fill="#F8F8F8"/>
<path d="M118.569 45.0176V38.6204L124.881 41.819L118.569 45.0176Z" fill="#C8543C"/>
<path d="M199.055 16.7085H130.625C130.45 16.7085 130.277 16.7429 130.116 16.8097C129.955 16.8765 129.808 16.9745 129.684 17.098C129.561 17.2215 129.463 17.3681 129.396 17.5294C129.329 17.6907 129.295 17.8637 129.295 18.0383V62.5324C129.295 62.707 129.329 62.8799 129.396 63.0413C129.463 63.2026 129.561 63.3492 129.684 63.4727C129.808 63.5962 129.955 63.6941 130.116 63.761C130.277 63.8278 130.45 63.8622 130.625 63.8622H178.856L193.643 74.9769V63.8622H199.055C199.23 63.8622 199.403 63.8278 199.564 63.761C199.726 63.6941 199.872 63.5962 199.996 63.4727C200.119 63.3492 200.217 63.2026 200.284 63.0413C200.351 62.8799 200.385 62.707 200.385 62.5324V18.0383C200.385 17.8637 200.351 17.6907 200.284 17.5294C200.217 17.3681 200.119 17.2215 199.996 17.098C199.872 16.9745 199.726 16.8765 199.564 16.8097C199.403 16.7429 199.23 16.7085 199.055 16.7085Z" fill="#F2F2F3"/>
<path d="M154.448 42.3533L161.441 49.347L175.232 35.5571" stroke="#39A5B3" stroke-width="5" stroke-linecap="round" stroke-linejoin="round"/>
<path d="M70.1456 16.7085H1.7151C1.54047 16.7085 1.36754 16.7429 1.2062 16.8097C1.04486 16.8765 0.898257 16.9745 0.77477 17.098C0.651282 17.2215 0.553323 17.3681 0.48649 17.5294C0.419657 17.6907 0.385257 17.8637 0.385254 18.0383V62.5324C0.385257 62.707 0.419657 62.8799 0.48649 63.0413C0.553323 63.2026 0.651282 63.3492 0.77477 63.4727C0.898257 63.5962 1.04486 63.6941 1.2062 63.761C1.36754 63.8278 1.54047 63.8622 1.7151 63.8622H7.14345V74.9769L21.9301 63.8622H70.1456C70.3202 63.8622 70.4932 63.8278 70.6545 63.761C70.8158 63.6941 70.9624 63.5962 71.0859 63.4727C71.2094 63.3492 71.3074 63.2026 71.3742 63.0413C71.441 62.8799 71.4754 62.707 71.4754 62.5324V18.0383C71.4754 17.8637 71.441 17.6907 71.3742 17.5294C71.3074 17.3681 71.2094 17.2215 71.0859 17.098C70.9624 16.9745 70.8158 16.8765 70.6545 16.8097C70.4932 16.7429 70.3202 16.7085 70.1456 16.7085Z" fill="#F2F2F3"/>
<ellipse cx="35.4512" cy="50.3633" rx="2" ry="2" fill="#D8D8D9"/>
<path d="M30.6252 35.747C30.9414 34.9987 31.4407 34.342 32.0772 33.8373C32.7137 33.3325 33.4669 32.996 34.2675 32.8587C35.0682 32.7214 35.8905 32.7877 36.6588 33.0516C37.427 33.3154 38.1166 33.7682 38.664 34.3684C39.2114 34.9686 39.599 35.6968 39.7912 36.4861C39.9834 37.2753 39.9739 38.1002 39.7637 38.8849C39.5535 39.6695 39.1493 40.3887 38.5882 40.9762C38.0272 41.5636 37.3274 42.0005 36.5533 42.2467C36.1228 42.3899 35.7488 42.666 35.4852 43.0353C35.2216 43.4046 35.0819 43.848 35.0862 44.3017V45.1173" stroke="#D8D8D9" stroke-width="3" stroke-linecap="round" stroke-linejoin="round"/>
<g opacity="0.05">
<path d="M30.6252 35.747C30.9414 34.9987 31.4407 34.342 32.0772 33.8373C32.7137 33.3325 33.4669 32.996 34.2675 32.8587C35.0682 32.7214 35.8905 32.7877 36.6588 33.0516C37.427 33.3154 38.1166 33.7682 38.664 34.3684C39.2114 34.9686 39.599 35.6968 39.7912 36.4861C39.9834 37.2753 39.9739 38.1002 39.7637 38.8849C39.5535 39.6695 39.1493 40.3887 38.5882 40.9762C38.0272 41.5636 37.3274 42.0005 36.5533 42.2467C36.1228 42.3899 35.7488 42.666 35.4852 43.0353C35.2216 43.4046 35.0819 43.848 35.0862 44.3017V45.1173" stroke="black" stroke-width="3" stroke-linecap="round" stroke-linejoin="round"/>
<ellipse cx="35.4512" cy="50.3633" rx="2" ry="2" fill="black"/>
</g>
<path d="M100.065 40.3147C98.6236 40.3147 97.1965 40.5986 95.8649 41.1501C94.5334 41.7017 93.3235 42.5101 92.3044 43.5292C91.2852 44.5483 90.4768 45.7582 89.9253 47.0898C89.3737 48.4213 89.0898 49.8485 89.0898 51.2897C89.0898 51.3623 89.0907 51.4347 89.0925 51.5068C89.1076 51.9539 89.247 52.388 89.4951 52.7603C89.7432 53.1326 90.0901 53.4284 90.497 53.6145C93.4942 55.0078 96.7596 55.7297 100.065 55.7297C103.37 55.7297 106.636 55.0078 109.633 53.6144C110.04 53.4284 110.387 53.1325 110.635 52.7602C110.883 52.3879 111.022 51.9538 111.037 51.5066C111.039 51.4345 111.04 51.3622 111.04 51.2897C111.04 49.8485 110.756 48.4213 110.204 47.0898C109.653 45.7582 108.845 44.5483 107.825 43.5292C106.806 42.5101 105.596 41.7017 104.265 41.1501C102.933 40.5986 101.506 40.3147 100.065 40.3147Z" fill="#39A5B3"/>
<path d="M100.065 38.7043C103.046 38.7043 105.463 36.2875 105.463 33.3062C105.463 30.325 103.046 27.9082 100.065 27.9082C97.0835 27.9082 94.6667 30.325 94.6667 33.3062C94.6667 36.2875 97.0835 38.7043 100.065 38.7043Z" fill="#39A5B3"/>
<path d="M88.514 41.543H77.4104C77.2298 41.543 77.0834 41.6894 77.0834 41.87C77.0834 42.0506 77.2298 42.1969 77.4104 42.1969H88.514C88.6946 42.1969 88.841 42.0506 88.841 41.87C88.841 41.6894 88.6946 41.543 88.514 41.543Z" fill="#C8543C"/>
<path d="M122.521 41.543H111.417C111.237 41.543 111.09 41.6894 111.09 41.87C111.09 42.0506 111.237 42.1969 111.417 42.1969H122.521C122.702 42.1969 122.848 42.0506 122.848 41.87C122.848 41.6894 122.702 41.543 122.521 41.543Z" fill="#C8543C"/>
</svg>
