<svg width="600" height="451" viewBox="0 0 600 451" fill="none" xmlns="http://www.w3.org/2000/svg">
<path d="M76 425C78.7614 425 81 422.761 81 420C81 417.239 78.7614 415 76 415C73.2386 415 71 417.239 71 420C71 422.761 73.2386 425 76 425Z" fill="#39A5B3"/>
<path d="M327 425C329.761 425 332 422.761 332 420C332 417.239 329.761 415 327 415C324.239 415 322 417.239 322 420C322 422.761 324.239 425 327 425Z" fill="#F9D35D"/>
<path opacity="0.2" d="M169.007 363.516V87.1741" stroke="#1A1A1A" stroke-width="2" stroke-miterlimit="10" stroke-linecap="round"/>
<path opacity="0.2" d="M294.985 363.516V87.1741" stroke="#1A1A1A" stroke-width="2" stroke-miterlimit="10" stroke-linecap="round"/>
<path opacity="0.2" d="M420.964 363.516V87.1741" stroke="#1A1A1A" stroke-width="2" stroke-miterlimit="10" stroke-linecap="round"/>
<path opacity="0.2" d="M546.942 363.516V87.1741" stroke="#1A1A1A" stroke-width="2" stroke-miterlimit="10" stroke-linecap="round"/>
<path opacity="0.2" d="M43.0283 87.1741V364.096" stroke="#1A1A1A" stroke-width="2" stroke-miterlimit="10" stroke-linecap="round"/>
<path d="M242.595 118.473C268.609 117.498 286.44 124.601 315.37 135.581C364.186 154.109 414.882 154.164 459.604 145.865C511.619 136.214 555.552 115.262 579.044 98.9315V363.625H277.217L242.595 118.473Z" fill="#F9D35D"/>
<path d="M143.816 194.153C111.838 239.685 87.3186 281.774 55.4839 320.518C42.8232 336.123 28.9936 350.742 14.1148 364.249H82.739L82.925 363.516H242.587V117.885C208.793 119.056 177.86 145.678 143.816 194.153Z" fill="#39A5B3"/>
<path d="M579.043 363.625C540.336 276.358 492.957 236.574 452.261 219.357C406.28 199.903 393.826 217.227 315.748 150.547C288.909 127.626 265.113 117.105 242.587 117.885V363.516H449.754L449.739 363.625H579.043Z" fill="#39A5B3"/>
<mask id="mask0_827_1625" style="mask-type:luminance" maskUnits="userSpaceOnUse" x="14" y="98" width="566" height="267">
<path d="M459.604 145.865C433.806 150.652 406.019 152.649 377.753 149.935C356.643 147.05 336.551 142.475 318.37 135.581C290.368 124.964 267.381 117.06 244.846 117.843C210.167 117.88 178.617 144.601 143.816 194.153C111.838 239.685 87.3186 281.774 55.484 320.518L55.3155 320.395C42.7163 336.039 28.9429 350.699 14.1149 364.249H82.7391L82.925 363.516H277.202L277.217 363.625H579.044V98.9315C555.552 115.262 511.619 136.214 459.604 145.865Z" fill="white"/>
</mask>
<g mask="url(#mask0_827_1625)">
<g style="mix-blend-mode:multiply">
<path d="M169.007 363.516V65.174" stroke="#F2F2F3" stroke-width="2.25" stroke-miterlimit="10" stroke-linecap="round"/>
<path d="M294.985 363.516V65.174" stroke="#F2F2F3" stroke-width="2.25" stroke-miterlimit="10" stroke-linecap="round"/>
<path d="M420.964 363.516V65.174" stroke="#F2F2F3" stroke-width="2.25" stroke-miterlimit="10" stroke-linecap="round"/>
<path d="M546.943 363.516V65.174" stroke="#F2F2F3" stroke-width="2.25" stroke-miterlimit="10" stroke-linecap="round"/>
<path d="M43.0283 65.174V364.096" stroke="#F2F2F3" stroke-width="2.25" stroke-miterlimit="10" stroke-linecap="round"/>
</g>
</g>
<path d="M8 364.091H589.044" stroke="#3093A0" stroke-width="2.25" stroke-miterlimit="10" stroke-linecap="round"/>
<path d="M247.528 70.1332C246.304 68.9095 244.67 68.1836 242.941 68.0959C241.213 68.0082 239.513 68.5651 238.172 69.6586C236.83 70.7522 235.942 72.3046 235.68 74.0153C235.417 75.726 235.799 77.4732 236.751 78.9186C237.007 79.3061 242.587 86.4975 242.587 86.4975C242.587 86.4975 248.163 79.3117 248.417 78.9276C249.305 77.5836 249.701 75.9744 249.539 74.3719C249.377 72.7695 248.667 71.2721 247.528 70.1332Z" fill="#C8543C"/>
<path d="M242.778 76.4249V364" stroke="#C8543C" stroke-width="2.25" stroke-miterlimit="10" stroke-linecap="round"/>
<path d="M187.528 29V27.32L191.848 23.24C192.189 22.9307 192.44 22.6533 192.6 22.408C192.76 22.1627 192.867 21.9387 192.92 21.736C192.984 21.5333 193.016 21.3467 193.016 21.176C193.016 20.728 192.861 20.3867 192.552 20.152C192.253 19.9067 191.811 19.784 191.224 19.784C190.755 19.784 190.317 19.8747 189.912 20.056C189.517 20.2373 189.181 20.52 188.904 20.904L187.016 19.688C187.443 19.048 188.04 18.5413 188.808 18.168C189.576 17.7947 190.461 17.608 191.464 17.608C192.296 17.608 193.021 17.7467 193.64 18.024C194.269 18.2907 194.755 18.6693 195.096 19.16C195.448 19.6507 195.624 20.2373 195.624 20.92C195.624 21.2827 195.576 21.6453 195.48 22.008C195.395 22.36 195.213 22.7333 194.936 23.128C194.669 23.5227 194.275 23.9653 193.752 24.456L190.168 27.832L189.672 26.888H195.992V29H187.528ZM207.401 29V27.32L207.241 26.952V23.944C207.241 23.4107 207.075 22.9947 206.745 22.696C206.425 22.3973 205.929 22.248 205.257 22.248C204.798 22.248 204.345 22.3227 203.897 22.472C203.459 22.6107 203.086 22.8027 202.777 23.048L201.881 21.304C202.35 20.9733 202.915 20.7173 203.577 20.536C204.238 20.3547 204.91 20.264 205.593 20.264C206.905 20.264 207.923 20.5733 208.649 21.192C209.374 21.8107 209.737 22.776 209.737 24.088V29H207.401ZM204.777 29.128C204.105 29.128 203.529 29.016 203.049 28.792C202.569 28.5573 202.201 28.2427 201.945 27.848C201.689 27.4533 201.561 27.0107 201.561 26.52C201.561 26.008 201.683 25.56 201.929 25.176C202.185 24.792 202.585 24.4933 203.129 24.28C203.673 24.056 204.382 23.944 205.257 23.944H207.545V25.4H205.529C204.942 25.4 204.537 25.496 204.313 25.688C204.099 25.88 203.993 26.12 203.993 26.408C203.993 26.728 204.115 26.984 204.361 27.176C204.617 27.3573 204.963 27.448 205.401 27.448C205.817 27.448 206.19 27.352 206.521 27.16C206.851 26.9573 207.091 26.664 207.241 26.28L207.625 27.432C207.443 27.9867 207.113 28.408 206.633 28.696C206.153 28.984 205.534 29.128 204.777 29.128ZM217.228 20.264C217.91 20.264 218.518 20.4027 219.052 20.68C219.596 20.9467 220.022 21.3627 220.332 21.928C220.641 22.4827 220.796 23.1973 220.796 24.072V29H218.3V24.456C218.3 23.7627 218.145 23.2507 217.836 22.92C217.537 22.5893 217.11 22.424 216.556 22.424C216.161 22.424 215.804 22.5093 215.484 22.68C215.174 22.84 214.929 23.0907 214.748 23.432C214.577 23.7733 214.492 24.2107 214.492 24.744V29H211.996V20.392H214.38V22.776L213.932 22.056C214.241 21.48 214.684 21.0373 215.26 20.728C215.836 20.4187 216.492 20.264 217.228 20.264ZM225.954 29.128C225.218 29.128 224.509 29.0427 223.826 28.872C223.154 28.6907 222.621 28.4667 222.226 28.2L223.058 26.408C223.453 26.6533 223.917 26.856 224.45 27.016C224.994 27.1653 225.528 27.24 226.05 27.24C226.626 27.24 227.032 27.1707 227.266 27.032C227.512 26.8933 227.634 26.7013 227.634 26.456C227.634 26.2533 227.538 26.104 227.346 26.008C227.165 25.9013 226.92 25.8213 226.61 25.768C226.301 25.7147 225.96 25.6613 225.586 25.608C225.224 25.5547 224.856 25.4853 224.482 25.4C224.109 25.304 223.768 25.1653 223.458 24.984C223.149 24.8027 222.898 24.5573 222.706 24.248C222.525 23.9387 222.434 23.5387 222.434 23.048C222.434 22.504 222.589 22.024 222.898 21.608C223.218 21.192 223.677 20.8667 224.274 20.632C224.872 20.3867 225.586 20.264 226.418 20.264C227.005 20.264 227.602 20.328 228.21 20.456C228.818 20.584 229.325 20.7707 229.73 21.016L228.898 22.792C228.482 22.5467 228.061 22.3813 227.634 22.296C227.218 22.2 226.813 22.152 226.418 22.152C225.864 22.152 225.458 22.2267 225.202 22.376C224.946 22.5253 224.818 22.7173 224.818 22.952C224.818 23.1653 224.909 23.3253 225.09 23.432C225.282 23.5387 225.533 23.624 225.842 23.688C226.152 23.752 226.488 23.8107 226.85 23.864C227.224 23.9067 227.597 23.976 227.97 24.072C228.344 24.168 228.68 24.3067 228.978 24.488C229.288 24.6587 229.538 24.8987 229.73 25.208C229.922 25.5067 230.018 25.9013 230.018 26.392C230.018 26.9253 229.858 27.4 229.538 27.816C229.218 28.2213 228.754 28.5413 228.146 28.776C227.549 29.0107 226.818 29.128 225.954 29.128ZM240.362 29.128C239.38 29.128 238.516 28.936 237.77 28.552C237.034 28.168 236.463 27.6453 236.058 26.984C235.652 26.312 235.45 25.5493 235.45 24.696C235.45 23.832 235.647 23.0693 236.042 22.408C236.447 21.736 236.996 21.2133 237.69 20.84C238.383 20.456 239.167 20.264 240.042 20.264C240.884 20.264 241.642 20.4453 242.314 20.808C242.996 21.16 243.535 21.672 243.93 22.344C244.324 23.0053 244.522 23.8 244.522 24.728C244.522 24.824 244.516 24.936 244.506 25.064C244.495 25.1813 244.484 25.2933 244.474 25.4H237.482V23.944H243.161L242.202 24.376C242.202 23.928 242.111 23.5387 241.93 23.208C241.748 22.8773 241.498 22.6213 241.178 22.44C240.858 22.248 240.484 22.152 240.058 22.152C239.631 22.152 239.252 22.248 238.922 22.44C238.602 22.6213 238.351 22.8827 238.17 23.224C237.988 23.5547 237.898 23.9493 237.898 24.408V24.792C237.898 25.2613 237.999 25.6773 238.202 26.04C238.415 26.392 238.708 26.664 239.082 26.856C239.466 27.0373 239.914 27.128 240.426 27.128C240.884 27.128 241.284 27.0587 241.626 26.92C241.978 26.7813 242.298 26.5733 242.586 26.296L243.914 27.736C243.519 28.184 243.023 28.5307 242.426 28.776C241.828 29.0107 241.14 29.128 240.362 29.128ZM249.703 29.128C248.69 29.128 247.901 28.872 247.335 28.36C246.77 27.8373 246.487 27.064 246.487 26.04V18.488H248.983V26.008C248.983 26.3707 249.079 26.6533 249.271 26.856C249.463 27.048 249.725 27.144 250.055 27.144C250.45 27.144 250.786 27.0373 251.063 26.824L251.735 28.584C251.479 28.7653 251.17 28.904 250.807 29C250.455 29.0853 250.087 29.128 249.703 29.128ZM245.159 22.504V20.584H251.127V22.504H245.159ZM258.932 29L263.444 18.792L264.116 19.912H258.084L259.236 18.696V21.736H256.932V17.8H265.908V19.48L261.748 29H258.932ZM283.145 20.264C283.827 20.264 284.43 20.4027 284.953 20.68C285.486 20.9467 285.902 21.3627 286.201 21.928C286.51 22.4827 286.665 23.1973 286.665 24.072V29H284.169V24.456C284.169 23.7627 284.025 23.2507 283.737 22.92C283.449 22.5893 283.043 22.424 282.521 22.424C282.158 22.424 281.833 22.5093 281.545 22.68C281.257 22.84 281.033 23.0853 280.873 23.416C280.713 23.7467 280.633 24.168 280.633 24.68V29H278.137V24.456C278.137 23.7627 277.993 23.2507 277.705 22.92C277.427 22.5893 277.027 22.424 276.505 22.424C276.142 22.424 275.817 22.5093 275.529 22.68C275.241 22.84 275.017 23.0853 274.857 23.416C274.697 23.7467 274.617 24.168 274.617 24.68V29H272.121V20.392H274.505V22.744L274.057 22.056C274.355 21.4693 274.777 21.0267 275.321 20.728C275.875 20.4187 276.505 20.264 277.209 20.264C277.998 20.264 278.686 20.4667 279.273 20.872C279.87 21.2667 280.265 21.8747 280.457 22.696L279.577 22.456C279.865 21.784 280.323 21.2507 280.953 20.856C281.593 20.4613 282.323 20.264 283.145 20.264ZM293.061 29.128C292.143 29.128 291.327 28.936 290.613 28.552C289.909 28.168 289.349 27.6453 288.933 26.984C288.527 26.312 288.325 25.5493 288.325 24.696C288.325 23.832 288.527 23.0693 288.933 22.408C289.349 21.736 289.909 21.2133 290.613 20.84C291.327 20.456 292.143 20.264 293.061 20.264C293.967 20.264 294.778 20.456 295.493 20.84C296.207 21.2133 296.767 21.7307 297.173 22.392C297.578 23.0533 297.781 23.8213 297.781 24.696C297.781 25.5493 297.578 26.312 297.173 26.984C296.767 27.6453 296.207 28.168 295.493 28.552C294.778 28.936 293.967 29.128 293.061 29.128ZM293.061 27.08C293.477 27.08 293.85 26.984 294.181 26.792C294.511 26.6 294.773 26.328 294.965 25.976C295.157 25.6133 295.253 25.1867 295.253 24.696C295.253 24.1947 295.157 23.768 294.965 23.416C294.773 23.064 294.511 22.792 294.181 22.6C293.85 22.408 293.477 22.312 293.061 22.312C292.645 22.312 292.271 22.408 291.941 22.6C291.61 22.792 291.343 23.064 291.141 23.416C290.949 23.768 290.853 24.1947 290.853 24.696C290.853 25.1867 290.949 25.6133 291.141 25.976C291.343 26.328 291.61 26.6 291.941 26.792C292.271 26.984 292.645 27.08 293.061 27.08ZM299.449 29V20.392H301.945V29H299.449ZM300.697 19.192C300.238 19.192 299.865 19.0587 299.577 18.792C299.289 18.5253 299.145 18.1947 299.145 17.8C299.145 17.4053 299.289 17.0747 299.577 16.808C299.865 16.5413 300.238 16.408 300.697 16.408C301.156 16.408 301.529 16.536 301.817 16.792C302.105 17.0373 302.249 17.3573 302.249 17.752C302.249 18.168 302.105 18.5147 301.817 18.792C301.54 19.0587 301.166 19.192 300.697 19.192ZM307.157 29.128C306.421 29.128 305.712 29.0427 305.029 28.872C304.357 28.6907 303.824 28.4667 303.429 28.2L304.261 26.408C304.656 26.6533 305.12 26.856 305.653 27.016C306.197 27.1653 306.731 27.24 307.253 27.24C307.829 27.24 308.235 27.1707 308.469 27.032C308.715 26.8933 308.837 26.7013 308.837 26.456C308.837 26.2533 308.741 26.104 308.549 26.008C308.368 25.9013 308.123 25.8213 307.813 25.768C307.504 25.7147 307.163 25.6613 306.789 25.608C306.427 25.5547 306.059 25.4853 305.685 25.4C305.312 25.304 304.971 25.1653 304.661 24.984C304.352 24.8027 304.101 24.5573 303.909 24.248C303.728 23.9387 303.637 23.5387 303.637 23.048C303.637 22.504 303.792 22.024 304.101 21.608C304.421 21.192 304.88 20.8667 305.477 20.632C306.075 20.3867 306.789 20.264 307.621 20.264C308.208 20.264 308.805 20.328 309.413 20.456C310.021 20.584 310.528 20.7707 310.933 21.016L310.101 22.792C309.685 22.5467 309.264 22.3813 308.837 22.296C308.421 22.2 308.016 22.152 307.621 22.152C307.067 22.152 306.661 22.2267 306.405 22.376C306.149 22.5253 306.021 22.7173 306.021 22.952C306.021 23.1653 306.112 23.3253 306.293 23.432C306.485 23.5387 306.736 23.624 307.045 23.688C307.355 23.752 307.691 23.8107 308.053 23.864C308.427 23.9067 308.8 23.976 309.173 24.072C309.547 24.168 309.883 24.3067 310.181 24.488C310.491 24.6587 310.741 24.8987 310.933 25.208C311.125 25.5067 311.221 25.9013 311.221 26.392C311.221 26.9253 311.061 27.4 310.741 27.816C310.421 28.2213 309.957 28.5413 309.349 28.776C308.752 29.0107 308.021 29.128 307.157 29.128Z" fill="#0D0D0D"/>
<path d="M138.26 50V40.816H139.422V49.006H143.44V50H138.26ZM146.525 50.168C146.151 50.168 145.811 50.0933 145.503 49.944C145.204 49.7853 144.966 49.566 144.789 49.286C144.611 48.9967 144.523 48.6467 144.523 48.236C144.523 47.4707 144.859 46.892 145.531 46.5C146.203 46.108 147.267 45.8327 148.723 45.674C148.713 45.394 148.667 45.1233 148.583 44.862C148.508 44.6007 148.368 44.3907 148.163 44.232C147.957 44.0733 147.673 43.994 147.309 43.994C146.917 43.994 146.548 44.0687 146.203 44.218C145.857 44.358 145.549 44.5167 145.279 44.694L144.831 43.91C145.036 43.77 145.279 43.6347 145.559 43.504C145.839 43.364 146.142 43.252 146.469 43.168C146.795 43.0747 147.141 43.028 147.505 43.028C148.055 43.028 148.503 43.1447 148.849 43.378C149.203 43.602 149.46 43.924 149.619 44.344C149.787 44.764 149.871 45.2587 149.871 45.828V50H148.919L148.821 49.188H148.779C148.452 49.4587 148.102 49.692 147.729 49.888C147.355 50.0747 146.954 50.168 146.525 50.168ZM146.847 49.216C147.183 49.216 147.495 49.1413 147.785 48.992C148.083 48.8427 148.396 48.6233 148.723 48.334V46.5C147.957 46.5933 147.351 46.7147 146.903 46.864C146.464 47.004 146.147 47.1813 145.951 47.396C145.755 47.6107 145.657 47.8673 145.657 48.166C145.657 48.5393 145.773 48.81 146.007 48.978C146.24 49.1367 146.52 49.216 146.847 49.216ZM157.138 50.168C156.279 50.168 155.593 49.86 155.08 49.244C154.576 48.6187 154.324 47.7413 154.324 46.612C154.324 45.8747 154.459 45.24 154.73 44.708C155.01 44.1667 155.374 43.7513 155.822 43.462C156.27 43.1727 156.755 43.028 157.278 43.028C157.679 43.028 158.02 43.098 158.3 43.238C158.589 43.3687 158.883 43.56 159.182 43.812L159.126 42.65V40.032H160.288V50H159.336L159.238 49.202H159.196C158.935 49.4633 158.627 49.692 158.272 49.888C157.917 50.0747 157.539 50.168 157.138 50.168ZM157.39 49.202C157.707 49.202 158.006 49.1227 158.286 48.964C158.566 48.8053 158.846 48.572 159.126 48.264V44.708C158.846 44.4467 158.571 44.2647 158.3 44.162C158.029 44.05 157.754 43.994 157.474 43.994C157.11 43.994 156.779 44.106 156.48 44.33C156.191 44.5447 155.957 44.848 155.78 45.24C155.603 45.6227 155.514 46.0753 155.514 46.598C155.514 47.41 155.677 48.0493 156.004 48.516C156.331 48.9733 156.793 49.202 157.39 49.202ZM164.568 50.168C163.849 50.168 163.322 49.944 162.986 49.496C162.659 49.0387 162.496 48.376 162.496 47.508V43.196H163.644V47.354C163.644 47.9887 163.742 48.4507 163.938 48.74C164.143 49.02 164.47 49.16 164.918 49.16C165.263 49.16 165.571 49.0713 165.842 48.894C166.122 48.7073 166.425 48.418 166.752 48.026V43.196H167.9V50H166.948L166.85 48.936H166.808C166.5 49.3093 166.164 49.608 165.8 49.832C165.445 50.056 165.034 50.168 164.568 50.168ZM170.195 50V43.196H171.147L171.245 44.428H171.287C171.511 43.9987 171.791 43.658 172.127 43.406C172.463 43.154 172.827 43.028 173.219 43.028C173.368 43.028 173.499 43.0373 173.611 43.056C173.723 43.0747 173.835 43.112 173.947 43.168L173.695 44.148C173.592 44.12 173.494 44.1013 173.401 44.092C173.317 44.0733 173.205 44.064 173.065 44.064C172.776 44.064 172.472 44.1807 172.155 44.414C171.847 44.6473 171.576 45.0533 171.343 45.632V50H170.195ZM177.67 50.168C177.063 50.168 176.508 50.028 176.004 49.748C175.509 49.4587 175.117 49.0527 174.828 48.53C174.538 47.998 174.394 47.354 174.394 46.598C174.394 45.8607 174.543 45.226 174.842 44.694C175.14 44.162 175.523 43.7513 175.99 43.462C176.456 43.1727 176.951 43.028 177.474 43.028C178.052 43.028 178.542 43.1633 178.944 43.434C179.354 43.6953 179.662 44.064 179.868 44.54C180.073 45.016 180.176 45.576 180.176 46.22C180.176 46.3413 180.171 46.458 180.162 46.57C180.162 46.682 180.148 46.794 180.12 46.906H175.22V45.996H179.14C179.14 45.3427 178.995 44.8433 178.706 44.498C178.426 44.1433 178.02 43.966 177.488 43.966C177.18 43.966 176.876 44.0547 176.578 44.232C176.279 44.4 176.032 44.6753 175.836 45.058C175.649 45.4407 175.556 45.9493 175.556 46.584C175.556 47.1627 175.654 47.648 175.85 48.04C176.055 48.432 176.33 48.7307 176.676 48.936C177.021 49.132 177.399 49.23 177.81 49.23C178.136 49.23 178.44 49.1833 178.72 49.09C179.009 48.9967 179.27 48.8707 179.504 48.712L179.924 49.468C179.625 49.6733 179.289 49.8413 178.916 49.972C178.552 50.1027 178.136 50.168 177.67 50.168ZM176.382 42.02L178.188 39.71H179.448L179.518 39.836L177.306 42.02H176.382ZM184.615 50.168C184.008 50.168 183.453 50.028 182.949 49.748C182.454 49.4587 182.062 49.0527 181.773 48.53C181.484 47.998 181.339 47.354 181.339 46.598C181.339 45.8607 181.488 45.226 181.787 44.694C182.086 44.162 182.468 43.7513 182.935 43.462C183.402 43.1727 183.896 43.028 184.419 43.028C184.998 43.028 185.488 43.1633 185.889 43.434C186.3 43.6953 186.608 44.064 186.813 44.54C187.018 45.016 187.121 45.576 187.121 46.22C187.121 46.3413 187.116 46.458 187.107 46.57C187.107 46.682 187.093 46.794 187.065 46.906H182.165V45.996H186.085C186.085 45.3427 185.94 44.8433 185.651 44.498C185.371 44.1433 184.965 43.966 184.433 43.966C184.125 43.966 183.822 44.0547 183.523 44.232C183.224 44.4 182.977 44.6753 182.781 45.058C182.594 45.4407 182.501 45.9493 182.501 46.584C182.501 47.1627 182.599 47.648 182.795 48.04C183 48.432 183.276 48.7307 183.621 48.936C183.966 49.132 184.344 49.23 184.755 49.23C185.082 49.23 185.385 49.1833 185.665 49.09C185.954 48.9967 186.216 48.8707 186.449 48.712L186.869 49.468C186.57 49.6733 186.234 49.8413 185.861 49.972C185.497 50.1027 185.082 50.168 184.615 50.168ZM193.929 50.168C193.07 50.168 192.384 49.86 191.871 49.244C191.367 48.6187 191.115 47.7413 191.115 46.612C191.115 45.8747 191.25 45.24 191.521 44.708C191.801 44.1667 192.165 43.7513 192.613 43.462C193.061 43.1727 193.546 43.028 194.069 43.028C194.47 43.028 194.811 43.098 195.091 43.238C195.38 43.3687 195.674 43.56 195.973 43.812L195.917 42.65V40.032H197.079V50H196.127L196.029 49.202H195.987C195.726 49.4633 195.418 49.692 195.063 49.888C194.708 50.0747 194.33 50.168 193.929 50.168ZM194.181 49.202C194.498 49.202 194.797 49.1227 195.077 48.964C195.357 48.8053 195.637 48.572 195.917 48.264V44.708C195.637 44.4467 195.362 44.2647 195.091 44.162C194.82 44.05 194.545 43.994 194.265 43.994C193.901 43.994 193.57 44.106 193.271 44.33C192.982 44.5447 192.748 44.848 192.571 45.24C192.394 45.6227 192.305 46.0753 192.305 46.598C192.305 47.41 192.468 48.0493 192.795 48.516C193.122 48.9733 193.584 49.202 194.181 49.202ZM202.129 50.168C201.522 50.168 200.967 50.028 200.463 49.748C199.968 49.4587 199.576 49.0527 199.287 48.53C198.997 47.998 198.853 47.354 198.853 46.598C198.853 45.8607 199.002 45.226 199.301 44.694C199.599 44.162 199.982 43.7513 200.449 43.462C200.915 43.1727 201.41 43.028 201.933 43.028C202.511 43.028 203.001 43.1633 203.403 43.434C203.813 43.6953 204.121 44.064 204.327 44.54C204.532 45.016 204.635 45.576 204.635 46.22C204.635 46.3413 204.63 46.458 204.621 46.57C204.621 46.682 204.607 46.794 204.579 46.906H199.679V45.996H203.599C203.599 45.3427 203.454 44.8433 203.165 44.498C202.885 44.1433 202.479 43.966 201.947 43.966C201.639 43.966 201.335 44.0547 201.037 44.232C200.738 44.4 200.491 44.6753 200.295 45.058C200.108 45.4407 200.015 45.9493 200.015 46.584C200.015 47.1627 200.113 47.648 200.309 48.04C200.514 48.432 200.789 48.7307 201.135 48.936C201.48 49.132 201.858 49.23 202.269 49.23C202.595 49.23 202.899 49.1833 203.179 49.09C203.468 48.9967 203.729 48.8707 203.963 48.712L204.383 49.468C204.084 49.6733 203.748 49.8413 203.375 49.972C203.011 50.1027 202.595 50.168 202.129 50.168ZM210.589 50L208.139 43.196H209.329L210.617 47.06C210.719 47.3867 210.822 47.7227 210.925 48.068C211.037 48.404 211.144 48.7353 211.247 49.062H211.303C211.396 48.7353 211.499 48.404 211.611 48.068C211.723 47.7227 211.825 47.3867 211.919 47.06L213.207 43.196H214.341L211.933 50H210.589ZM215.654 50V43.196H216.802V50H215.654ZM216.228 41.796C216.004 41.796 215.817 41.726 215.668 41.586C215.528 41.446 215.458 41.264 215.458 41.04C215.458 40.816 215.528 40.634 215.668 40.494C215.817 40.354 216.004 40.284 216.228 40.284C216.452 40.284 216.634 40.354 216.774 40.494C216.923 40.634 216.998 40.816 216.998 41.04C216.998 41.264 216.923 41.446 216.774 41.586C216.634 41.726 216.452 41.796 216.228 41.796ZM221.857 50.168C221.251 50.168 220.695 50.028 220.191 49.748C219.697 49.4587 219.305 49.0527 219.015 48.53C218.726 47.998 218.581 47.354 218.581 46.598C218.581 45.8607 218.731 45.226 219.029 44.694C219.328 44.162 219.711 43.7513 220.177 43.462C220.644 43.1727 221.139 43.028 221.661 43.028C222.24 43.028 222.73 43.1633 223.131 43.434C223.542 43.6953 223.85 44.064 224.055 44.54C224.261 45.016 224.363 45.576 224.363 46.22C224.363 46.3413 224.359 46.458 224.349 46.57C224.349 46.682 224.335 46.794 224.307 46.906H219.407V45.996H223.327C223.327 45.3427 223.183 44.8433 222.893 44.498C222.613 44.1433 222.207 43.966 221.675 43.966C221.367 43.966 221.064 44.0547 220.765 44.232C220.467 44.4 220.219 44.6753 220.023 45.058C219.837 45.4407 219.743 45.9493 219.743 46.584C219.743 47.1627 219.841 47.648 220.037 48.04C220.243 48.432 220.518 48.7307 220.863 48.936C221.209 49.132 221.587 49.23 221.997 49.23C222.324 49.23 222.627 49.1833 222.907 49.09C223.197 48.9967 223.458 48.8707 223.691 48.712L224.111 49.468C223.813 49.6733 223.477 49.8413 223.103 49.972C222.739 50.1027 222.324 50.168 221.857 50.168ZM228.847 50V43.196H229.799L229.897 44.176H229.939C230.238 43.8587 230.56 43.588 230.905 43.364C231.26 43.14 231.643 43.028 232.053 43.028C232.576 43.028 232.982 43.1447 233.271 43.378C233.57 43.6113 233.789 43.9287 233.929 44.33C234.284 43.938 234.643 43.6253 235.007 43.392C235.371 43.1493 235.759 43.028 236.169 43.028C236.879 43.028 237.401 43.2567 237.737 43.714C238.073 44.162 238.241 44.82 238.241 45.688V50H237.093V45.842C237.093 45.198 236.991 44.736 236.785 44.456C236.58 44.1667 236.263 44.022 235.833 44.022C235.563 44.022 235.287 44.1107 235.007 44.288C234.737 44.456 234.443 44.7173 234.125 45.072V50H232.977V45.842C232.977 45.198 232.875 44.736 232.669 44.456C232.464 44.1667 232.142 44.022 231.703 44.022C231.19 44.022 230.621 44.372 229.995 45.072V50H228.847ZM243.101 50.168C242.55 50.168 242.032 50.028 241.547 49.748C241.071 49.468 240.683 49.062 240.385 48.53C240.095 47.998 239.951 47.3587 239.951 46.612C239.951 45.8467 240.095 45.198 240.385 44.666C240.683 44.134 241.071 43.728 241.547 43.448C242.032 43.168 242.55 43.028 243.101 43.028C243.661 43.028 244.179 43.168 244.655 43.448C245.131 43.728 245.513 44.134 245.803 44.666C246.101 45.198 246.251 45.8467 246.251 46.612C246.251 47.3587 246.101 47.998 245.803 48.53C245.513 49.062 245.131 49.468 244.655 49.748C244.179 50.028 243.661 50.168 243.101 50.168ZM243.101 49.216C243.493 49.216 243.838 49.1087 244.137 48.894C244.435 48.67 244.664 48.362 244.823 47.97C244.981 47.578 245.061 47.1253 245.061 46.612C245.061 46.0893 244.981 45.632 244.823 45.24C244.664 44.8387 244.435 44.5307 244.137 44.316C243.838 44.092 243.493 43.98 243.101 43.98C242.709 43.98 242.363 44.092 242.065 44.316C241.775 44.5307 241.547 44.8387 241.379 45.24C241.22 45.632 241.141 46.0893 241.141 46.612C241.141 47.1253 241.22 47.578 241.379 47.97C241.547 48.362 241.775 48.67 242.065 48.894C242.363 49.1087 242.709 49.216 243.101 49.216ZM248.1 52.926C247.951 52.926 247.806 52.912 247.666 52.884C247.535 52.856 247.414 52.8233 247.302 52.786L247.554 51.89C247.638 51.918 247.722 51.9367 247.806 51.946C247.89 51.9647 247.969 51.974 248.044 51.974C248.436 51.974 248.753 51.834 248.996 51.554C249.248 51.2833 249.444 50.938 249.584 50.518L249.738 50.014L247.008 43.196H248.198L249.584 46.962C249.696 47.2513 249.808 47.564 249.92 47.9C250.032 48.236 250.139 48.5627 250.242 48.88H250.298C250.401 48.5627 250.499 48.2407 250.592 47.914C250.695 47.578 250.788 47.2607 250.872 46.962L252.09 43.196H253.21L250.648 50.56C250.489 51.008 250.298 51.4093 250.074 51.764C249.85 52.128 249.579 52.4127 249.262 52.618C248.945 52.8233 248.557 52.926 248.1 52.926ZM257.226 50.168C256.62 50.168 256.064 50.028 255.56 49.748C255.066 49.4587 254.674 49.0527 254.384 48.53C254.095 47.998 253.95 47.354 253.95 46.598C253.95 45.8607 254.1 45.226 254.398 44.694C254.697 44.162 255.08 43.7513 255.546 43.462C256.013 43.1727 256.508 43.028 257.03 43.028C257.609 43.028 258.099 43.1633 258.5 43.434C258.911 43.6953 259.219 44.064 259.424 44.54C259.63 45.016 259.732 45.576 259.732 46.22C259.732 46.3413 259.728 46.458 259.718 46.57C259.718 46.682 259.704 46.794 259.676 46.906H254.776V45.996H258.696C258.696 45.3427 258.552 44.8433 258.262 44.498C257.982 44.1433 257.576 43.966 257.044 43.966C256.736 43.966 256.433 44.0547 256.134 44.232C255.836 44.4 255.588 44.6753 255.392 45.058C255.206 45.4407 255.112 45.9493 255.112 46.584C255.112 47.1627 255.21 47.648 255.406 48.04C255.612 48.432 255.887 48.7307 256.232 48.936C256.578 49.132 256.956 49.23 257.366 49.23C257.693 49.23 257.996 49.1833 258.276 49.09C258.566 48.9967 258.827 48.8707 259.06 48.712L259.48 49.468C259.182 49.6733 258.846 49.8413 258.472 49.972C258.108 50.1027 257.693 50.168 257.226 50.168ZM261.414 50V43.196H262.366L262.464 44.176H262.506C262.832 43.8493 263.178 43.5787 263.542 43.364C263.906 43.14 264.321 43.028 264.788 43.028C265.506 43.028 266.029 43.2567 266.356 43.714C266.692 44.162 266.86 44.82 266.86 45.688V50H265.712V45.842C265.712 45.198 265.609 44.736 265.404 44.456C265.208 44.1667 264.881 44.022 264.424 44.022C264.078 44.022 263.766 44.1107 263.486 44.288C263.215 44.4653 262.907 44.7267 262.562 45.072V50H261.414ZM269.07 50V43.196H270.022L270.12 44.176H270.162C270.489 43.8493 270.834 43.5787 271.198 43.364C271.562 43.14 271.977 43.028 272.444 43.028C273.163 43.028 273.685 43.2567 274.012 43.714C274.348 44.162 274.516 44.82 274.516 45.688V50H273.368V45.842C273.368 45.198 273.265 44.736 273.06 44.456C272.864 44.1667 272.537 44.022 272.08 44.022C271.735 44.022 271.422 44.1107 271.142 44.288C270.871 44.4653 270.563 44.7267 270.218 45.072V50H269.07ZM279.484 50.168C278.877 50.168 278.322 50.028 277.818 49.748C277.323 49.4587 276.931 49.0527 276.642 48.53C276.353 47.998 276.208 47.354 276.208 46.598C276.208 45.8607 276.357 45.226 276.656 44.694C276.955 44.162 277.337 43.7513 277.804 43.462C278.271 43.1727 278.765 43.028 279.288 43.028C279.867 43.028 280.357 43.1633 280.758 43.434C281.169 43.6953 281.477 44.064 281.682 44.54C281.887 45.016 281.99 45.576 281.99 46.22C281.99 46.3413 281.985 46.458 281.976 46.57C281.976 46.682 281.962 46.794 281.934 46.906H277.034V45.996H280.954C280.954 45.3427 280.809 44.8433 280.52 44.498C280.24 44.1433 279.834 43.966 279.302 43.966C278.994 43.966 278.691 44.0547 278.392 44.232C278.093 44.4 277.846 44.6753 277.65 45.058C277.463 45.4407 277.37 45.9493 277.37 46.584C277.37 47.1627 277.468 47.648 277.664 48.04C277.869 48.432 278.145 48.7307 278.49 48.936C278.835 49.132 279.213 49.23 279.624 49.23C279.951 49.23 280.254 49.1833 280.534 49.09C280.823 48.9967 281.085 48.8707 281.318 48.712L281.738 49.468C281.439 49.6733 281.103 49.8413 280.73 49.972C280.366 50.1027 279.951 50.168 279.484 50.168ZM288.798 50.168C287.94 50.168 287.254 49.86 286.74 49.244C286.236 48.6187 285.984 47.7413 285.984 46.612C285.984 45.8747 286.12 45.24 286.39 44.708C286.67 44.1667 287.034 43.7513 287.482 43.462C287.93 43.1727 288.416 43.028 288.938 43.028C289.34 43.028 289.68 43.098 289.96 43.238C290.25 43.3687 290.544 43.56 290.842 43.812L290.786 42.65V40.032H291.948V50H290.996L290.898 49.202H290.856C290.595 49.4633 290.287 49.692 289.932 49.888C289.578 50.0747 289.2 50.168 288.798 50.168ZM289.05 49.202C289.368 49.202 289.666 49.1227 289.946 48.964C290.226 48.8053 290.506 48.572 290.786 48.264V44.708C290.506 44.4467 290.231 44.2647 289.96 44.162C289.69 44.05 289.414 43.994 289.134 43.994C288.77 43.994 288.439 44.106 288.14 44.33C287.851 44.5447 287.618 44.848 287.44 45.24C287.263 45.6227 287.174 46.0753 287.174 46.598C287.174 47.41 287.338 48.0493 287.664 48.516C287.991 48.9733 288.453 49.202 289.05 49.202ZM294.478 43.966L294.254 41.628L294.212 40.34H295.444L295.402 41.628L295.178 43.966H294.478ZM299.714 50.168C298.995 50.168 298.468 49.944 298.132 49.496C297.805 49.0387 297.642 48.376 297.642 47.508V43.196H298.79V47.354C298.79 47.9887 298.888 48.4507 299.084 48.74C299.289 49.02 299.616 49.16 300.064 49.16C300.409 49.16 300.717 49.0713 300.988 48.894C301.268 48.7073 301.571 48.418 301.898 48.026V43.196H303.046V50H302.094L301.996 48.936H301.954C301.646 49.3093 301.31 49.608 300.946 49.832C300.591 50.056 300.181 50.168 299.714 50.168ZM305.341 50V43.196H306.293L306.391 44.176H306.433C306.76 43.8493 307.105 43.5787 307.469 43.364C307.833 43.14 308.249 43.028 308.715 43.028C309.434 43.028 309.957 43.2567 310.283 43.714C310.619 44.162 310.787 44.82 310.787 45.688V50H309.639V45.842C309.639 45.198 309.537 44.736 309.331 44.456C309.135 44.1667 308.809 44.022 308.351 44.022C308.006 44.022 307.693 44.1107 307.413 44.288C307.143 44.4653 306.835 44.7267 306.489 45.072V50H305.341ZM317.578 50.168C317.084 50.168 316.612 50.084 316.164 49.916C315.726 49.7387 315.352 49.496 315.044 49.188L315.576 48.516C315.875 48.7587 316.183 48.9453 316.5 49.076C316.827 49.2067 317.2 49.272 317.62 49.272C318.068 49.272 318.404 49.1693 318.628 48.964C318.852 48.7493 318.964 48.4973 318.964 48.208C318.964 47.9747 318.885 47.7833 318.726 47.634C318.577 47.4753 318.386 47.3447 318.152 47.242C317.928 47.13 317.686 47.0273 317.424 46.934C317.088 46.8127 316.766 46.6727 316.458 46.514C316.15 46.346 315.898 46.1407 315.702 45.898C315.516 45.646 315.422 45.3333 315.422 44.96C315.422 44.4093 315.628 43.952 316.038 43.588C316.458 43.2147 317.037 43.028 317.774 43.028C318.194 43.028 318.586 43.1027 318.95 43.252C319.314 43.392 319.627 43.574 319.888 43.798L319.356 44.456C319.114 44.288 318.866 44.1573 318.614 44.064C318.362 43.9707 318.082 43.924 317.774 43.924C317.345 43.924 317.028 44.022 316.822 44.218C316.626 44.414 316.528 44.6427 316.528 44.904C316.528 45.1093 316.589 45.282 316.71 45.422C316.832 45.5527 317 45.6693 317.214 45.772C317.438 45.8747 317.69 45.9727 317.97 46.066C318.325 46.1967 318.661 46.346 318.978 46.514C319.305 46.6727 319.566 46.8827 319.762 47.144C319.968 47.396 320.07 47.7273 320.07 48.138C320.07 48.5113 319.972 48.852 319.776 49.16C319.59 49.4587 319.31 49.7013 318.936 49.888C318.572 50.0747 318.12 50.168 317.578 50.168ZM321.666 50V43.196H322.814V50H321.666ZM322.24 41.796C322.016 41.796 321.829 41.726 321.68 41.586C321.54 41.446 321.47 41.264 321.47 41.04C321.47 40.816 321.54 40.634 321.68 40.494C321.829 40.354 322.016 40.284 322.24 40.284C322.464 40.284 322.646 40.354 322.786 40.494C322.935 40.634 323.01 40.816 323.01 41.04C323.01 41.264 322.935 41.446 322.786 41.586C322.646 41.726 322.464 41.796 322.24 41.796ZM327.253 50.126C326.534 50.126 326.03 49.916 325.741 49.496C325.452 49.076 325.307 48.53 325.307 47.858V44.134H324.299V43.266L325.363 43.196L325.503 41.012H326.469V43.196H328.317V44.134H326.469V47.872C326.469 48.2827 326.544 48.6047 326.693 48.838C326.852 49.0713 327.127 49.188 327.519 49.188C327.64 49.188 327.766 49.1787 327.897 49.16C328.028 49.132 328.158 49.0853 328.289 49.02L328.541 49.832C328.364 49.916 328.163 49.986 327.939 50.042C327.715 50.098 327.486 50.126 327.253 50.126ZM332.408 50.168C331.801 50.168 331.246 50.028 330.742 49.748C330.247 49.4587 329.855 49.0527 329.566 48.53C329.277 47.998 329.132 47.354 329.132 46.598C329.132 45.8607 329.281 45.226 329.58 44.694C329.879 44.162 330.261 43.7513 330.728 43.462C331.195 43.1727 331.689 43.028 332.212 43.028C332.791 43.028 333.281 43.1633 333.682 43.434C334.093 43.6953 334.401 44.064 334.606 44.54C334.811 45.016 334.914 45.576 334.914 46.22C334.914 46.3413 334.909 46.458 334.9 46.57C334.9 46.682 334.886 46.794 334.858 46.906H329.958V45.996H333.878C333.878 45.3427 333.733 44.8433 333.444 44.498C333.164 44.1433 332.758 43.966 332.226 43.966C331.918 43.966 331.615 44.0547 331.316 44.232C331.017 44.4 330.77 44.6753 330.574 45.058C330.387 45.4407 330.294 45.9493 330.294 46.584C330.294 47.1627 330.392 47.648 330.588 48.04C330.793 48.432 331.069 48.7307 331.414 48.936C331.759 49.132 332.137 49.23 332.548 49.23C332.875 49.23 333.178 49.1833 333.458 49.09C333.747 48.9967 334.009 48.8707 334.242 48.712L334.662 49.468C334.363 49.6733 334.027 49.8413 333.654 49.972C333.29 50.1027 332.875 50.168 332.408 50.168ZM340.476 50L338.586 43.196H339.79L340.784 47.13C340.859 47.438 340.929 47.746 340.994 48.054C341.059 48.362 341.12 48.698 341.176 49.062H341.232C341.307 48.698 341.377 48.362 341.442 48.054C341.517 47.746 341.591 47.438 341.666 47.13L342.674 43.196H343.934L344.956 47.13C345.04 47.438 345.115 47.746 345.18 48.054C345.255 48.362 345.329 48.698 345.404 49.062H345.46C345.535 48.698 345.605 48.362 345.67 48.054C345.735 47.746 345.801 47.438 345.866 47.13L346.86 43.196H347.98L346.146 50H344.648L343.738 46.36C343.663 46.0427 343.589 45.73 343.514 45.422C343.449 45.1047 343.379 44.7453 343.304 44.344H343.248C343.183 44.7453 343.113 45.1047 343.038 45.422C342.973 45.7393 342.898 46.052 342.814 46.36L341.904 50H340.476ZM352.164 50.168C351.557 50.168 351.002 50.028 350.498 49.748C350.003 49.4587 349.611 49.0527 349.322 48.53C349.032 47.998 348.888 47.354 348.888 46.598C348.888 45.8607 349.037 45.226 349.336 44.694C349.634 44.162 350.017 43.7513 350.484 43.462C350.95 43.1727 351.445 43.028 351.968 43.028C352.546 43.028 353.036 43.1633 353.438 43.434C353.848 43.6953 354.156 44.064 354.362 44.54C354.567 45.016 354.67 45.576 354.67 46.22C354.67 46.3413 354.665 46.458 354.656 46.57C354.656 46.682 354.642 46.794 354.614 46.906H349.714V45.996H353.634C353.634 45.3427 353.489 44.8433 353.2 44.498C352.92 44.1433 352.514 43.966 351.982 43.966C351.674 43.966 351.37 44.0547 351.072 44.232C350.773 44.4 350.526 44.6753 350.33 45.058C350.143 45.4407 350.05 45.9493 350.05 46.584C350.05 47.1627 350.148 47.648 350.344 48.04C350.549 48.432 350.824 48.7307 351.17 48.936C351.515 49.132 351.893 49.23 352.304 49.23C352.63 49.23 352.934 49.1833 353.214 49.09C353.503 48.9967 353.764 48.8707 353.998 48.712L354.418 49.468C354.119 49.6733 353.783 49.8413 353.41 49.972C353.046 50.1027 352.63 50.168 352.164 50.168ZM359.361 50.168C359.044 50.168 358.717 50.0933 358.381 49.944C358.045 49.7853 357.723 49.5707 357.415 49.3H357.373L357.275 50H356.351V40.032H357.499V42.748L357.471 43.98C357.779 43.7093 358.115 43.4853 358.479 43.308C358.852 43.1213 359.226 43.028 359.599 43.028C360.187 43.028 360.682 43.1727 361.083 43.462C361.484 43.742 361.788 44.1433 361.993 44.666C362.198 45.1793 362.301 45.786 362.301 46.486C362.301 47.2607 362.161 47.9233 361.881 48.474C361.61 49.0247 361.251 49.4447 360.803 49.734C360.355 50.0233 359.874 50.168 359.361 50.168ZM359.165 49.202C359.538 49.202 359.87 49.0947 360.159 48.88C360.458 48.6653 360.691 48.3573 360.859 47.956C361.027 47.5453 361.111 47.06 361.111 46.5C361.111 46.0053 361.05 45.5713 360.929 45.198C360.808 44.8153 360.616 44.5213 360.355 44.316C360.094 44.1013 359.748 43.994 359.319 43.994C359.039 43.994 358.745 44.0733 358.437 44.232C358.138 44.3813 357.826 44.61 357.499 44.918V48.488C357.798 48.7493 358.092 48.936 358.381 49.048C358.68 49.1507 358.941 49.202 359.165 49.202Z" fill="#1A1A1A"/>
<path opacity="0.7" d="M33.98 384V382.334H35.912V377.196H34.246V375.922C34.7313 375.829 35.142 375.717 35.478 375.586C35.8233 375.455 36.15 375.297 36.458 375.11H37.97V382.334H39.636V384H33.98ZM45.8592 384.168C45.4392 384.168 45.0706 384.075 44.7532 383.888C44.4452 383.701 44.2072 383.449 44.0392 383.132C43.8712 382.815 43.7872 382.46 43.7872 382.068C43.7872 381.321 44.0952 380.747 44.7112 380.346C45.3272 379.935 46.3212 379.66 47.6932 379.52C47.6839 379.315 47.6372 379.142 47.5532 379.002C47.4786 378.853 47.3619 378.741 47.2032 378.666C47.0446 378.582 46.8439 378.54 46.6012 378.54C46.3119 378.54 46.0179 378.591 45.7192 378.694C45.4206 378.797 45.0986 378.946 44.7532 379.142L44.0252 377.798C44.3239 377.611 44.6319 377.453 44.9492 377.322C45.2666 377.182 45.5932 377.075 45.9292 377C46.2746 376.925 46.6292 376.888 46.9932 376.888C47.5906 376.888 48.0899 377.005 48.4912 377.238C48.9019 377.462 49.2146 377.807 49.4292 378.274C49.6439 378.731 49.7512 379.319 49.7512 380.038V384H48.0712L47.9312 383.286H47.8752C47.5766 383.547 47.2639 383.762 46.9372 383.93C46.6106 384.089 46.2512 384.168 45.8592 384.168ZM46.5452 382.558C46.7786 382.558 46.9839 382.507 47.1612 382.404C47.3386 382.301 47.5159 382.161 47.6932 381.984V380.808C47.2079 380.873 46.8206 380.957 46.5312 381.06C46.2512 381.163 46.0506 381.289 45.9292 381.438C45.8172 381.578 45.7612 381.737 45.7612 381.914C45.7612 382.129 45.8312 382.292 45.9712 382.404C46.1206 382.507 46.3119 382.558 46.5452 382.558ZM51.492 384V377.056H53.172L53.312 377.938H53.368C53.6574 377.649 53.984 377.401 54.348 377.196C54.712 376.991 55.1274 376.888 55.594 376.888C56.3594 376.888 56.91 377.14 57.246 377.644C57.582 378.139 57.75 378.82 57.75 379.688V384H55.692V379.954C55.692 379.45 55.622 379.105 55.482 378.918C55.3514 378.731 55.1367 378.638 54.838 378.638C54.5767 378.638 54.3527 378.699 54.166 378.82C53.9794 378.932 53.774 379.095 53.55 379.31V384H51.492Z" fill="#1A1A1A"/>
<path opacity="0.7" d="M159.518 384V382.726C160.265 382.063 160.927 381.443 161.506 380.864C162.094 380.285 162.551 379.749 162.878 379.254C163.214 378.759 163.382 378.307 163.382 377.896C163.382 377.457 163.27 377.126 163.046 376.902C162.822 376.669 162.514 376.552 162.122 376.552C161.805 376.552 161.515 376.645 161.254 376.832C161.002 377.009 160.764 377.219 160.54 377.462L159.462 376.398C159.891 375.913 160.33 375.549 160.778 375.306C161.235 375.063 161.777 374.942 162.402 374.942C162.981 374.942 163.489 375.059 163.928 375.292C164.376 375.525 164.721 375.852 164.964 376.272C165.216 376.692 165.342 377.187 165.342 377.756C165.342 378.288 165.197 378.811 164.908 379.324C164.628 379.828 164.255 380.332 163.788 380.836C163.321 381.34 162.827 381.853 162.304 382.376C162.528 382.348 162.78 382.325 163.06 382.306C163.34 382.278 163.583 382.264 163.788 382.264H165.776V384H159.518ZM171.859 384.168C171.439 384.168 171.071 384.075 170.753 383.888C170.445 383.701 170.207 383.449 170.039 383.132C169.871 382.815 169.787 382.46 169.787 382.068C169.787 381.321 170.095 380.747 170.711 380.346C171.327 379.935 172.321 379.66 173.693 379.52C173.684 379.315 173.637 379.142 173.553 379.002C173.479 378.853 173.362 378.741 173.203 378.666C173.045 378.582 172.844 378.54 172.601 378.54C172.312 378.54 172.018 378.591 171.719 378.694C171.421 378.797 171.099 378.946 170.753 379.142L170.025 377.798C170.324 377.611 170.632 377.453 170.949 377.322C171.267 377.182 171.593 377.075 171.929 377C172.275 376.925 172.629 376.888 172.993 376.888C173.591 376.888 174.09 377.005 174.491 377.238C174.902 377.462 175.215 377.807 175.429 378.274C175.644 378.731 175.751 379.319 175.751 380.038V384H174.071L173.931 383.286H173.875C173.577 383.547 173.264 383.762 172.937 383.93C172.611 384.089 172.251 384.168 171.859 384.168ZM172.545 382.558C172.779 382.558 172.984 382.507 173.161 382.404C173.339 382.301 173.516 382.161 173.693 381.984V380.808C173.208 380.873 172.821 380.957 172.531 381.06C172.251 381.163 172.051 381.289 171.929 381.438C171.817 381.578 171.761 381.737 171.761 381.914C171.761 382.129 171.831 382.292 171.971 382.404C172.121 382.507 172.312 382.558 172.545 382.558ZM177.492 384V377.056H179.172L179.312 377.938H179.368C179.657 377.649 179.984 377.401 180.348 377.196C180.712 376.991 181.127 376.888 181.594 376.888C182.359 376.888 182.91 377.14 183.246 377.644C183.582 378.139 183.75 378.82 183.75 379.688V384H181.692V379.954C181.692 379.45 181.622 379.105 181.482 378.918C181.351 378.731 181.137 378.638 180.838 378.638C180.577 378.638 180.353 378.699 180.166 378.82C179.979 378.932 179.774 379.095 179.55 379.31V384H177.492ZM187.548 384.168C187.09 384.168 186.619 384.079 186.134 383.902C185.648 383.725 185.233 383.468 184.888 383.132L185.756 381.97C186.073 382.222 186.386 382.399 186.694 382.502C187.011 382.595 187.314 382.642 187.604 382.642C187.912 382.642 188.136 382.591 188.276 382.488C188.416 382.376 188.486 382.231 188.486 382.054C188.486 381.895 188.42 381.765 188.29 381.662C188.168 381.559 188.005 381.471 187.8 381.396C187.604 381.312 187.38 381.223 187.128 381.13C186.792 381.009 186.484 380.855 186.204 380.668C185.924 380.481 185.695 380.257 185.518 379.996C185.35 379.735 185.266 379.422 185.266 379.058C185.266 378.405 185.508 377.882 185.994 377.49C186.488 377.089 187.132 376.888 187.926 376.888C188.43 376.888 188.887 376.972 189.298 377.14C189.718 377.299 190.077 377.509 190.376 377.77L189.494 378.918C189.242 378.741 188.99 378.615 188.738 378.54C188.486 378.456 188.238 378.414 187.996 378.414C187.725 378.414 187.524 378.465 187.394 378.568C187.263 378.671 187.198 378.801 187.198 378.96C187.198 379.091 187.244 379.203 187.338 379.296C187.431 379.389 187.571 379.478 187.758 379.562C187.954 379.637 188.196 379.721 188.486 379.814C188.84 379.935 189.162 380.089 189.452 380.276C189.75 380.453 189.984 380.677 190.152 380.948C190.32 381.219 190.404 381.545 190.404 381.928C190.404 382.348 190.292 382.726 190.068 383.062C189.853 383.398 189.536 383.669 189.116 383.874C188.696 384.07 188.173 384.168 187.548 384.168Z" fill="#1A1A1A"/>
<path opacity="0.7" d="M286.402 384.168C285.926 384.168 285.492 384.112 285.1 384C284.717 383.897 284.377 383.753 284.078 383.566C283.779 383.379 283.523 383.16 283.308 382.908L284.26 381.606C284.531 381.867 284.829 382.082 285.156 382.25C285.483 382.418 285.833 382.502 286.206 382.502C286.635 382.502 286.981 382.413 287.242 382.236C287.513 382.049 287.648 381.788 287.648 381.452C287.648 381.191 287.583 380.967 287.452 380.78C287.321 380.584 287.083 380.435 286.738 380.332C286.402 380.229 285.907 380.178 285.254 380.178V378.722C285.786 378.722 286.206 378.671 286.514 378.568C286.822 378.465 287.037 378.325 287.158 378.148C287.289 377.971 287.354 377.765 287.354 377.532C287.354 377.215 287.256 376.972 287.06 376.804C286.873 376.636 286.607 376.552 286.262 376.552C285.945 376.552 285.655 376.622 285.394 376.762C285.142 376.893 284.876 377.084 284.596 377.336L283.56 376.076C283.971 375.721 284.405 375.446 284.862 375.25C285.319 375.045 285.819 374.942 286.36 374.942C286.967 374.942 287.499 375.04 287.956 375.236C288.423 375.423 288.782 375.698 289.034 376.062C289.295 376.417 289.426 376.855 289.426 377.378C289.426 377.835 289.295 378.227 289.034 378.554C288.782 378.881 288.418 379.147 287.942 379.352V379.408C288.278 379.511 288.581 379.66 288.852 379.856C289.123 380.043 289.333 380.281 289.482 380.57C289.631 380.859 289.706 381.195 289.706 381.578C289.706 382.129 289.552 382.6 289.244 382.992C288.945 383.375 288.544 383.669 288.04 383.874C287.545 384.07 286.999 384.168 286.402 384.168ZM295.859 384.168C295.439 384.168 295.071 384.075 294.753 383.888C294.445 383.701 294.207 383.449 294.039 383.132C293.871 382.815 293.787 382.46 293.787 382.068C293.787 381.321 294.095 380.747 294.711 380.346C295.327 379.935 296.321 379.66 297.693 379.52C297.684 379.315 297.637 379.142 297.553 379.002C297.479 378.853 297.362 378.741 297.203 378.666C297.045 378.582 296.844 378.54 296.601 378.54C296.312 378.54 296.018 378.591 295.719 378.694C295.421 378.797 295.099 378.946 294.753 379.142L294.025 377.798C294.324 377.611 294.632 377.453 294.949 377.322C295.267 377.182 295.593 377.075 295.929 377C296.275 376.925 296.629 376.888 296.993 376.888C297.591 376.888 298.09 377.005 298.491 377.238C298.902 377.462 299.215 377.807 299.429 378.274C299.644 378.731 299.751 379.319 299.751 380.038V384H298.071L297.931 383.286H297.875C297.577 383.547 297.264 383.762 296.937 383.93C296.611 384.089 296.251 384.168 295.859 384.168ZM296.545 382.558C296.779 382.558 296.984 382.507 297.161 382.404C297.339 382.301 297.516 382.161 297.693 381.984V380.808C297.208 380.873 296.821 380.957 296.531 381.06C296.251 381.163 296.051 381.289 295.929 381.438C295.817 381.578 295.761 381.737 295.761 381.914C295.761 382.129 295.831 382.292 295.971 382.404C296.121 382.507 296.312 382.558 296.545 382.558ZM301.492 384V377.056H303.172L303.312 377.938H303.368C303.657 377.649 303.984 377.401 304.348 377.196C304.712 376.991 305.127 376.888 305.594 376.888C306.359 376.888 306.91 377.14 307.246 377.644C307.582 378.139 307.75 378.82 307.75 379.688V384H305.692V379.954C305.692 379.45 305.622 379.105 305.482 378.918C305.351 378.731 305.137 378.638 304.838 378.638C304.577 378.638 304.353 378.699 304.166 378.82C303.979 378.932 303.774 379.095 303.55 379.31V384H301.492ZM311.548 384.168C311.09 384.168 310.619 384.079 310.134 383.902C309.648 383.725 309.233 383.468 308.888 383.132L309.756 381.97C310.073 382.222 310.386 382.399 310.694 382.502C311.011 382.595 311.314 382.642 311.604 382.642C311.912 382.642 312.136 382.591 312.276 382.488C312.416 382.376 312.486 382.231 312.486 382.054C312.486 381.895 312.42 381.765 312.29 381.662C312.168 381.559 312.005 381.471 311.8 381.396C311.604 381.312 311.38 381.223 311.128 381.13C310.792 381.009 310.484 380.855 310.204 380.668C309.924 380.481 309.695 380.257 309.518 379.996C309.35 379.735 309.266 379.422 309.266 379.058C309.266 378.405 309.508 377.882 309.994 377.49C310.488 377.089 311.132 376.888 311.926 376.888C312.43 376.888 312.887 376.972 313.298 377.14C313.718 377.299 314.077 377.509 314.376 377.77L313.494 378.918C313.242 378.741 312.99 378.615 312.738 378.54C312.486 378.456 312.238 378.414 311.996 378.414C311.725 378.414 311.524 378.465 311.394 378.568C311.263 378.671 311.198 378.801 311.198 378.96C311.198 379.091 311.244 379.203 311.338 379.296C311.431 379.389 311.571 379.478 311.758 379.562C311.954 379.637 312.196 379.721 312.486 379.814C312.84 379.935 313.162 380.089 313.452 380.276C313.75 380.453 313.984 380.677 314.152 380.948C314.32 381.219 314.404 381.545 314.404 381.928C314.404 382.348 314.292 382.726 314.068 383.062C313.853 383.398 313.536 383.669 313.116 383.874C312.696 384.07 312.173 384.168 311.548 384.168Z" fill="#1A1A1A"/>
<path opacity="0.7" d="M413.116 384V378.862C413.116 378.582 413.125 378.251 413.144 377.868C413.172 377.485 413.191 377.154 413.2 376.874H413.144C413.032 377.117 412.915 377.364 412.794 377.616C412.673 377.859 412.547 378.111 412.416 378.372L411.24 380.304H416.056V381.872H409.266V380.458L412.514 375.11H415.034V384H413.116ZM421.859 384.168C421.439 384.168 421.071 384.075 420.753 383.888C420.445 383.701 420.207 383.449 420.039 383.132C419.871 382.815 419.787 382.46 419.787 382.068C419.787 381.321 420.095 380.747 420.711 380.346C421.327 379.935 422.321 379.66 423.693 379.52C423.684 379.315 423.637 379.142 423.553 379.002C423.479 378.853 423.362 378.741 423.203 378.666C423.045 378.582 422.844 378.54 422.601 378.54C422.312 378.54 422.018 378.591 421.719 378.694C421.421 378.797 421.099 378.946 420.753 379.142L420.025 377.798C420.324 377.611 420.632 377.453 420.949 377.322C421.267 377.182 421.593 377.075 421.929 377C422.275 376.925 422.629 376.888 422.993 376.888C423.591 376.888 424.09 377.005 424.491 377.238C424.902 377.462 425.215 377.807 425.429 378.274C425.644 378.731 425.751 379.319 425.751 380.038V384H424.071L423.931 383.286H423.875C423.577 383.547 423.264 383.762 422.937 383.93C422.611 384.089 422.251 384.168 421.859 384.168ZM422.545 382.558C422.779 382.558 422.984 382.507 423.161 382.404C423.339 382.301 423.516 382.161 423.693 381.984V380.808C423.208 380.873 422.821 380.957 422.531 381.06C422.251 381.163 422.051 381.289 421.929 381.438C421.817 381.578 421.761 381.737 421.761 381.914C421.761 382.129 421.831 382.292 421.971 382.404C422.121 382.507 422.312 382.558 422.545 382.558ZM427.492 384V377.056H429.172L429.312 377.938H429.368C429.657 377.649 429.984 377.401 430.348 377.196C430.712 376.991 431.127 376.888 431.594 376.888C432.359 376.888 432.91 377.14 433.246 377.644C433.582 378.139 433.75 378.82 433.75 379.688V384H431.692V379.954C431.692 379.45 431.622 379.105 431.482 378.918C431.351 378.731 431.137 378.638 430.838 378.638C430.577 378.638 430.353 378.699 430.166 378.82C429.979 378.932 429.774 379.095 429.55 379.31V384H427.492ZM437.548 384.168C437.09 384.168 436.619 384.079 436.134 383.902C435.648 383.725 435.233 383.468 434.888 383.132L435.756 381.97C436.073 382.222 436.386 382.399 436.694 382.502C437.011 382.595 437.314 382.642 437.604 382.642C437.912 382.642 438.136 382.591 438.276 382.488C438.416 382.376 438.486 382.231 438.486 382.054C438.486 381.895 438.42 381.765 438.29 381.662C438.168 381.559 438.005 381.471 437.8 381.396C437.604 381.312 437.38 381.223 437.128 381.13C436.792 381.009 436.484 380.855 436.204 380.668C435.924 380.481 435.695 380.257 435.518 379.996C435.35 379.735 435.266 379.422 435.266 379.058C435.266 378.405 435.508 377.882 435.994 377.49C436.488 377.089 437.132 376.888 437.926 376.888C438.43 376.888 438.887 376.972 439.298 377.14C439.718 377.299 440.077 377.509 440.376 377.77L439.494 378.918C439.242 378.741 438.99 378.615 438.738 378.54C438.486 378.456 438.238 378.414 437.996 378.414C437.725 378.414 437.524 378.465 437.394 378.568C437.263 378.671 437.198 378.801 437.198 378.96C437.198 379.091 437.244 379.203 437.338 379.296C437.431 379.389 437.571 379.478 437.758 379.562C437.954 379.637 438.196 379.721 438.486 379.814C438.84 379.935 439.162 380.089 439.452 380.276C439.75 380.453 439.984 380.677 440.152 380.948C440.32 381.219 440.404 381.545 440.404 381.928C440.404 382.348 440.292 382.726 440.068 383.062C439.853 383.398 439.536 383.669 439.116 383.874C438.696 384.07 438.173 384.168 437.548 384.168Z" fill="#1A1A1A"/>
<path opacity="0.7" d="M538.458 384.168C537.973 384.168 537.534 384.112 537.142 384C536.759 383.888 536.419 383.739 536.12 383.552C535.821 383.365 535.555 383.155 535.322 382.922L536.246 381.62C536.517 381.863 536.811 382.073 537.128 382.25C537.445 382.418 537.791 382.502 538.164 382.502C538.463 382.502 538.724 382.451 538.948 382.348C539.172 382.236 539.345 382.077 539.466 381.872C539.597 381.667 539.662 381.415 539.662 381.116C539.662 380.668 539.531 380.327 539.27 380.094C539.009 379.861 538.673 379.744 538.262 379.744C538.01 379.744 537.795 379.777 537.618 379.842C537.441 379.907 537.217 380.024 536.946 380.192L536.022 379.604L536.274 375.11H541.314V376.846H538.052L537.898 378.512C538.075 378.437 538.239 378.386 538.388 378.358C538.537 378.321 538.705 378.302 538.892 378.302C539.405 378.302 539.877 378.4 540.306 378.596C540.735 378.792 541.076 379.095 541.328 379.506C541.589 379.917 541.72 380.435 541.72 381.06C541.72 381.723 541.566 382.287 541.258 382.754C540.959 383.211 540.563 383.561 540.068 383.804C539.573 384.047 539.037 384.168 538.458 384.168ZM547.859 384.168C547.439 384.168 547.071 384.075 546.753 383.888C546.445 383.701 546.207 383.449 546.039 383.132C545.871 382.815 545.787 382.46 545.787 382.068C545.787 381.321 546.095 380.747 546.711 380.346C547.327 379.935 548.321 379.66 549.693 379.52C549.684 379.315 549.637 379.142 549.553 379.002C549.479 378.853 549.362 378.741 549.203 378.666C549.045 378.582 548.844 378.54 548.601 378.54C548.312 378.54 548.018 378.591 547.719 378.694C547.421 378.797 547.099 378.946 546.753 379.142L546.025 377.798C546.324 377.611 546.632 377.453 546.949 377.322C547.267 377.182 547.593 377.075 547.929 377C548.275 376.925 548.629 376.888 548.993 376.888C549.591 376.888 550.09 377.005 550.491 377.238C550.902 377.462 551.215 377.807 551.429 378.274C551.644 378.731 551.751 379.319 551.751 380.038V384H550.071L549.931 383.286H549.875C549.577 383.547 549.264 383.762 548.937 383.93C548.611 384.089 548.251 384.168 547.859 384.168ZM548.545 382.558C548.779 382.558 548.984 382.507 549.161 382.404C549.339 382.301 549.516 382.161 549.693 381.984V380.808C549.208 380.873 548.821 380.957 548.531 381.06C548.251 381.163 548.051 381.289 547.929 381.438C547.817 381.578 547.761 381.737 547.761 381.914C547.761 382.129 547.831 382.292 547.971 382.404C548.121 382.507 548.312 382.558 548.545 382.558ZM553.492 384V377.056H555.172L555.312 377.938H555.368C555.657 377.649 555.984 377.401 556.348 377.196C556.712 376.991 557.127 376.888 557.594 376.888C558.359 376.888 558.91 377.14 559.246 377.644C559.582 378.139 559.75 378.82 559.75 379.688V384H557.692V379.954C557.692 379.45 557.622 379.105 557.482 378.918C557.351 378.731 557.137 378.638 556.838 378.638C556.577 378.638 556.353 378.699 556.166 378.82C555.979 378.932 555.774 379.095 555.55 379.31V384H553.492ZM563.548 384.168C563.09 384.168 562.619 384.079 562.134 383.902C561.648 383.725 561.233 383.468 560.888 383.132L561.756 381.97C562.073 382.222 562.386 382.399 562.694 382.502C563.011 382.595 563.314 382.642 563.604 382.642C563.912 382.642 564.136 382.591 564.276 382.488C564.416 382.376 564.486 382.231 564.486 382.054C564.486 381.895 564.42 381.765 564.29 381.662C564.168 381.559 564.005 381.471 563.8 381.396C563.604 381.312 563.38 381.223 563.128 381.13C562.792 381.009 562.484 380.855 562.204 380.668C561.924 380.481 561.695 380.257 561.518 379.996C561.35 379.735 561.266 379.422 561.266 379.058C561.266 378.405 561.508 377.882 561.994 377.49C562.488 377.089 563.132 376.888 563.926 376.888C564.43 376.888 564.887 376.972 565.298 377.14C565.718 377.299 566.077 377.509 566.376 377.77L565.494 378.918C565.242 378.741 564.99 378.615 564.738 378.54C564.486 378.456 564.238 378.414 563.996 378.414C563.725 378.414 563.524 378.465 563.394 378.568C563.263 378.671 563.198 378.801 563.198 378.96C563.198 379.091 563.244 379.203 563.338 379.296C563.431 379.389 563.571 379.478 563.758 379.562C563.954 379.637 564.196 379.721 564.486 379.814C564.84 379.935 565.162 380.089 565.452 380.276C565.75 380.453 565.984 380.677 566.152 380.948C566.32 381.219 566.404 381.545 566.404 381.928C566.404 382.348 566.292 382.726 566.068 383.062C565.853 383.398 565.536 383.669 565.116 383.874C564.696 384.07 564.173 384.168 563.548 384.168Z" fill="#1A1A1A"/>
<path d="M90.26 424V414.816H92.556C93.4987 414.816 94.292 414.993 94.936 415.348C95.58 415.703 96.0653 416.221 96.392 416.902C96.728 417.574 96.896 418.395 96.896 419.366C96.896 420.337 96.728 421.172 96.392 421.872C96.0653 422.563 95.5847 423.09 94.95 423.454C94.3153 423.818 93.536 424 92.612 424H90.26ZM91.422 423.048H92.472C93.1907 423.048 93.788 422.903 94.264 422.614C94.74 422.315 95.0947 421.895 95.328 421.354C95.5613 420.813 95.678 420.15 95.678 419.366C95.678 418.601 95.5613 417.947 95.328 417.406C95.0947 416.865 94.74 416.459 94.264 416.188C93.788 415.908 93.1907 415.768 92.472 415.768H91.422V423.048ZM100.749 424.168C100.031 424.168 99.5033 423.944 99.1673 423.496C98.8406 423.039 98.6773 422.376 98.6773 421.508V417.196H99.8253V421.354C99.8253 421.989 99.9233 422.451 100.119 422.74C100.325 423.02 100.651 423.16 101.099 423.16C101.445 423.16 101.753 423.071 102.023 422.894C102.303 422.707 102.607 422.418 102.933 422.026V417.196H104.081V424H103.129L103.031 422.936H102.989C102.681 423.309 102.345 423.608 101.981 423.832C101.627 424.056 101.216 424.168 100.749 424.168ZM106.377 424V417.196H107.329L107.427 418.428H107.469C107.693 417.999 107.973 417.658 108.309 417.406C108.645 417.154 109.009 417.028 109.401 417.028C109.55 417.028 109.681 417.037 109.793 417.056C109.905 417.075 110.017 417.112 110.129 417.168L109.877 418.148C109.774 418.12 109.676 418.101 109.583 418.092C109.499 418.073 109.387 418.064 109.247 418.064C108.957 418.064 108.654 418.181 108.337 418.414C108.029 418.647 107.758 419.053 107.525 419.632V424H106.377ZM113.851 424.168C113.245 424.168 112.689 424.028 112.185 423.748C111.691 423.459 111.299 423.053 111.009 422.53C110.72 421.998 110.575 421.354 110.575 420.598C110.575 419.861 110.725 419.226 111.023 418.694C111.322 418.162 111.705 417.751 112.171 417.462C112.638 417.173 113.133 417.028 113.655 417.028C114.234 417.028 114.724 417.163 115.125 417.434C115.536 417.695 115.844 418.064 116.049 418.54C116.255 419.016 116.357 419.576 116.357 420.22C116.357 420.341 116.353 420.458 116.343 420.57C116.343 420.682 116.329 420.794 116.301 420.906H111.401V419.996H115.321C115.321 419.343 115.177 418.843 114.887 418.498C114.607 418.143 114.201 417.966 113.669 417.966C113.361 417.966 113.058 418.055 112.759 418.232C112.461 418.4 112.213 418.675 112.017 419.058C111.831 419.441 111.737 419.949 111.737 420.584C111.737 421.163 111.835 421.648 112.031 422.04C112.237 422.432 112.512 422.731 112.857 422.936C113.203 423.132 113.581 423.23 113.991 423.23C114.318 423.23 114.621 423.183 114.901 423.09C115.191 422.997 115.452 422.871 115.685 422.712L116.105 423.468C115.807 423.673 115.471 423.841 115.097 423.972C114.733 424.103 114.318 424.168 113.851 424.168ZM112.563 416.02L114.369 413.71H115.629L115.699 413.836L113.487 416.02H112.563ZM120.797 424.168C120.19 424.168 119.635 424.028 119.131 423.748C118.636 423.459 118.244 423.053 117.955 422.53C117.665 421.998 117.521 421.354 117.521 420.598C117.521 419.861 117.67 419.226 117.969 418.694C118.267 418.162 118.65 417.751 119.117 417.462C119.583 417.173 120.078 417.028 120.601 417.028C121.179 417.028 121.669 417.163 122.071 417.434C122.481 417.695 122.789 418.064 122.995 418.54C123.2 419.016 123.303 419.576 123.303 420.22C123.303 420.341 123.298 420.458 123.289 420.57C123.289 420.682 123.275 420.794 123.247 420.906H118.347V419.996H122.267C122.267 419.343 122.122 418.843 121.833 418.498C121.553 418.143 121.147 417.966 120.615 417.966C120.307 417.966 120.003 418.055 119.705 418.232C119.406 418.4 119.159 418.675 118.963 419.058C118.776 419.441 118.683 419.949 118.683 420.584C118.683 421.163 118.781 421.648 118.977 422.04C119.182 422.432 119.457 422.731 119.803 422.936C120.148 423.132 120.526 423.23 120.937 423.23C121.263 423.23 121.567 423.183 121.847 423.09C122.136 422.997 122.397 422.871 122.631 422.712L123.051 423.468C122.752 423.673 122.416 423.841 122.043 423.972C121.679 424.103 121.263 424.168 120.797 424.168ZM130.111 424.168C129.252 424.168 128.566 423.86 128.053 423.244C127.549 422.619 127.297 421.741 127.297 420.612C127.297 419.875 127.432 419.24 127.703 418.708C127.983 418.167 128.347 417.751 128.795 417.462C129.243 417.173 129.728 417.028 130.251 417.028C130.652 417.028 130.993 417.098 131.273 417.238C131.562 417.369 131.856 417.56 132.155 417.812L132.099 416.65V414.032H133.261V424H132.309L132.211 423.202H132.169C131.907 423.463 131.599 423.692 131.245 423.888C130.89 424.075 130.512 424.168 130.111 424.168ZM130.363 423.202C130.68 423.202 130.979 423.123 131.259 422.964C131.539 422.805 131.819 422.572 132.099 422.264V418.708C131.819 418.447 131.543 418.265 131.273 418.162C131.002 418.05 130.727 417.994 130.447 417.994C130.083 417.994 129.751 418.106 129.453 418.33C129.163 418.545 128.93 418.848 128.753 419.24C128.575 419.623 128.487 420.075 128.487 420.598C128.487 421.41 128.65 422.049 128.977 422.516C129.303 422.973 129.765 423.202 130.363 423.202ZM138.31 424.168C137.704 424.168 137.148 424.028 136.644 423.748C136.15 423.459 135.758 423.053 135.468 422.53C135.179 421.998 135.034 421.354 135.034 420.598C135.034 419.861 135.184 419.226 135.482 418.694C135.781 418.162 136.164 417.751 136.63 417.462C137.097 417.173 137.592 417.028 138.114 417.028C138.693 417.028 139.183 417.163 139.584 417.434C139.995 417.695 140.303 418.064 140.508 418.54C140.714 419.016 140.816 419.576 140.816 420.22C140.816 420.341 140.812 420.458 140.802 420.57C140.802 420.682 140.788 420.794 140.76 420.906H135.86V419.996H139.78C139.78 419.343 139.636 418.843 139.346 418.498C139.066 418.143 138.66 417.966 138.128 417.966C137.82 417.966 137.517 418.055 137.218 418.232C136.92 418.4 136.672 418.675 136.476 419.058C136.29 419.441 136.196 419.949 136.196 420.584C136.196 421.163 136.294 421.648 136.49 422.04C136.696 422.432 136.971 422.731 137.316 422.936C137.662 423.132 138.04 423.23 138.45 423.23C138.777 423.23 139.08 423.183 139.36 423.09C139.65 422.997 139.911 422.871 140.144 422.712L140.564 423.468C140.266 423.673 139.93 423.841 139.556 423.972C139.192 424.103 138.777 424.168 138.31 424.168ZM146.77 424L144.32 417.196H145.51L146.798 421.06C146.901 421.387 147.004 421.723 147.106 422.068C147.218 422.404 147.326 422.735 147.428 423.062H147.484C147.578 422.735 147.68 422.404 147.792 422.068C147.904 421.723 148.007 421.387 148.1 421.06L149.388 417.196H150.522L148.114 424H146.77ZM151.836 424V417.196H152.984V424H151.836ZM152.41 415.796C152.186 415.796 151.999 415.726 151.85 415.586C151.71 415.446 151.64 415.264 151.64 415.04C151.64 414.816 151.71 414.634 151.85 414.494C151.999 414.354 152.186 414.284 152.41 414.284C152.634 414.284 152.816 414.354 152.956 414.494C153.105 414.634 153.18 414.816 153.18 415.04C153.18 415.264 153.105 415.446 152.956 415.586C152.816 415.726 152.634 415.796 152.41 415.796ZM158.039 424.168C157.432 424.168 156.877 424.028 156.373 423.748C155.878 423.459 155.486 423.053 155.197 422.53C154.907 421.998 154.763 421.354 154.763 420.598C154.763 419.861 154.912 419.226 155.211 418.694C155.509 418.162 155.892 417.751 156.359 417.462C156.825 417.173 157.32 417.028 157.843 417.028C158.421 417.028 158.911 417.163 159.313 417.434C159.723 417.695 160.031 418.064 160.237 418.54C160.442 419.016 160.545 419.576 160.545 420.22C160.545 420.341 160.54 420.458 160.531 420.57C160.531 420.682 160.517 420.794 160.489 420.906H155.589V419.996H159.509C159.509 419.343 159.364 418.843 159.075 418.498C158.795 418.143 158.389 417.966 157.857 417.966C157.549 417.966 157.245 418.055 156.947 418.232C156.648 418.4 156.401 418.675 156.205 419.058C156.018 419.441 155.925 419.949 155.925 420.584C155.925 421.163 156.023 421.648 156.219 422.04C156.424 422.432 156.699 422.731 157.045 422.936C157.39 423.132 157.768 423.23 158.179 423.23C158.505 423.23 158.809 423.183 159.089 423.09C159.378 422.997 159.639 422.871 159.873 422.712L160.293 423.468C159.994 423.673 159.658 423.841 159.285 423.972C158.921 424.103 158.505 424.168 158.039 424.168ZM165.029 424V417.196H165.981L166.079 418.176H166.121C166.42 417.859 166.742 417.588 167.087 417.364C167.442 417.14 167.824 417.028 168.235 417.028C168.758 417.028 169.164 417.145 169.453 417.378C169.752 417.611 169.971 417.929 170.111 418.33C170.466 417.938 170.825 417.625 171.189 417.392C171.553 417.149 171.94 417.028 172.351 417.028C173.06 417.028 173.583 417.257 173.919 417.714C174.255 418.162 174.423 418.82 174.423 419.688V424H173.275V419.842C173.275 419.198 173.172 418.736 172.967 418.456C172.762 418.167 172.444 418.022 172.015 418.022C171.744 418.022 171.469 418.111 171.189 418.288C170.918 418.456 170.624 418.717 170.307 419.072V424H169.159V419.842C169.159 419.198 169.056 418.736 168.851 418.456C168.646 418.167 168.324 418.022 167.885 418.022C167.372 418.022 166.802 418.372 166.177 419.072V424H165.029ZM179.282 424.168C178.732 424.168 178.214 424.028 177.728 423.748C177.252 423.468 176.865 423.062 176.566 422.53C176.277 421.998 176.132 421.359 176.132 420.612C176.132 419.847 176.277 419.198 176.566 418.666C176.865 418.134 177.252 417.728 177.728 417.448C178.214 417.168 178.732 417.028 179.282 417.028C179.842 417.028 180.36 417.168 180.836 417.448C181.312 417.728 181.695 418.134 181.984 418.666C182.283 419.198 182.432 419.847 182.432 420.612C182.432 421.359 182.283 421.998 181.984 422.53C181.695 423.062 181.312 423.468 180.836 423.748C180.36 424.028 179.842 424.168 179.282 424.168ZM179.282 423.216C179.674 423.216 180.02 423.109 180.318 422.894C180.617 422.67 180.846 422.362 181.004 421.97C181.163 421.578 181.242 421.125 181.242 420.612C181.242 420.089 181.163 419.632 181.004 419.24C180.846 418.839 180.617 418.531 180.318 418.316C180.02 418.092 179.674 417.98 179.282 417.98C178.89 417.98 178.545 418.092 178.246 418.316C177.957 418.531 177.728 418.839 177.56 419.24C177.402 419.632 177.322 420.089 177.322 420.612C177.322 421.125 177.402 421.578 177.56 421.97C177.728 422.362 177.957 422.67 178.246 422.894C178.545 423.109 178.89 423.216 179.282 423.216ZM184.281 426.926C184.132 426.926 183.987 426.912 183.847 426.884C183.717 426.856 183.595 426.823 183.483 426.786L183.735 425.89C183.819 425.918 183.903 425.937 183.987 425.946C184.071 425.965 184.151 425.974 184.225 425.974C184.617 425.974 184.935 425.834 185.177 425.554C185.429 425.283 185.625 424.938 185.765 424.518L185.919 424.014L183.189 417.196H184.379L185.765 420.962C185.877 421.251 185.989 421.564 186.101 421.9C186.213 422.236 186.321 422.563 186.423 422.88H186.479C186.582 422.563 186.68 422.241 186.773 421.914C186.876 421.578 186.969 421.261 187.053 420.962L188.271 417.196H189.391L186.829 424.56C186.671 425.008 186.479 425.409 186.255 425.764C186.031 426.128 185.761 426.413 185.443 426.618C185.126 426.823 184.739 426.926 184.281 426.926ZM190.828 424.168C190.604 424.168 190.408 424.089 190.24 423.93C190.072 423.762 189.988 423.552 189.988 423.3C189.988 423.029 190.072 422.815 190.24 422.656C190.408 422.488 190.604 422.404 190.828 422.404C191.061 422.404 191.257 422.488 191.416 422.656C191.575 422.815 191.654 423.029 191.654 423.3C191.654 423.552 191.575 423.762 191.416 423.93C191.257 424.089 191.061 424.168 190.828 424.168ZM198.293 424.168C197.799 424.168 197.327 424.084 196.879 423.916C196.441 423.739 196.067 423.496 195.759 423.188L196.291 422.516C196.59 422.759 196.898 422.945 197.215 423.076C197.542 423.207 197.915 423.272 198.335 423.272C198.783 423.272 199.119 423.169 199.343 422.964C199.567 422.749 199.679 422.497 199.679 422.208C199.679 421.975 199.6 421.783 199.441 421.634C199.292 421.475 199.101 421.345 198.867 421.242C198.643 421.13 198.401 421.027 198.139 420.934C197.803 420.813 197.481 420.673 197.173 420.514C196.865 420.346 196.613 420.141 196.417 419.898C196.231 419.646 196.137 419.333 196.137 418.96C196.137 418.409 196.343 417.952 196.753 417.588C197.173 417.215 197.752 417.028 198.489 417.028C198.909 417.028 199.301 417.103 199.665 417.252C200.029 417.392 200.342 417.574 200.603 417.798L200.071 418.456C199.829 418.288 199.581 418.157 199.329 418.064C199.077 417.971 198.797 417.924 198.489 417.924C198.06 417.924 197.743 418.022 197.537 418.218C197.341 418.414 197.243 418.643 197.243 418.904C197.243 419.109 197.304 419.282 197.425 419.422C197.547 419.553 197.715 419.669 197.929 419.772C198.153 419.875 198.405 419.973 198.685 420.066C199.04 420.197 199.376 420.346 199.693 420.514C200.02 420.673 200.281 420.883 200.477 421.144C200.683 421.396 200.785 421.727 200.785 422.138C200.785 422.511 200.687 422.852 200.491 423.16C200.305 423.459 200.025 423.701 199.651 423.888C199.287 424.075 198.835 424.168 198.293 424.168ZM203.948 424.168C203.575 424.168 203.234 424.093 202.926 423.944C202.628 423.785 202.39 423.566 202.212 423.286C202.035 422.997 201.946 422.647 201.946 422.236C201.946 421.471 202.282 420.892 202.954 420.5C203.626 420.108 204.69 419.833 206.146 419.674C206.137 419.394 206.09 419.123 206.006 418.862C205.932 418.601 205.792 418.391 205.586 418.232C205.381 418.073 205.096 417.994 204.732 417.994C204.34 417.994 203.972 418.069 203.626 418.218C203.281 418.358 202.973 418.517 202.702 418.694L202.254 417.91C202.46 417.77 202.702 417.635 202.982 417.504C203.262 417.364 203.566 417.252 203.892 417.168C204.219 417.075 204.564 417.028 204.928 417.028C205.479 417.028 205.927 417.145 206.272 417.378C206.627 417.602 206.884 417.924 207.042 418.344C207.21 418.764 207.294 419.259 207.294 419.828V424H206.342L206.244 423.188H206.202C205.876 423.459 205.526 423.692 205.152 423.888C204.779 424.075 204.378 424.168 203.948 424.168ZM204.27 423.216C204.606 423.216 204.919 423.141 205.208 422.992C205.507 422.843 205.82 422.623 206.146 422.334V420.5C205.381 420.593 204.774 420.715 204.326 420.864C203.888 421.004 203.57 421.181 203.374 421.396C203.178 421.611 203.08 421.867 203.08 422.166C203.08 422.539 203.197 422.81 203.43 422.978C203.664 423.137 203.944 423.216 204.27 423.216ZM209.435 424V417.196H210.387L210.485 418.176H210.527C210.854 417.849 211.199 417.579 211.563 417.364C211.927 417.14 212.342 417.028 212.809 417.028C213.528 417.028 214.05 417.257 214.377 417.714C214.713 418.162 214.881 418.82 214.881 419.688V424H213.733V419.842C213.733 419.198 213.63 418.736 213.425 418.456C213.229 418.167 212.902 418.022 212.445 418.022C212.1 418.022 211.787 418.111 211.507 418.288C211.236 418.465 210.928 418.727 210.583 419.072V424H209.435ZM218.869 424.168C218.375 424.168 217.903 424.084 217.455 423.916C217.017 423.739 216.643 423.496 216.335 423.188L216.867 422.516C217.166 422.759 217.474 422.945 217.791 423.076C218.118 423.207 218.491 423.272 218.911 423.272C219.359 423.272 219.695 423.169 219.919 422.964C220.143 422.749 220.255 422.497 220.255 422.208C220.255 421.975 220.176 421.783 220.017 421.634C219.868 421.475 219.677 421.345 219.443 421.242C219.219 421.13 218.977 421.027 218.715 420.934C218.379 420.813 218.057 420.673 217.749 420.514C217.441 420.346 217.189 420.141 216.993 419.898C216.807 419.646 216.713 419.333 216.713 418.96C216.713 418.409 216.919 417.952 217.329 417.588C217.749 417.215 218.328 417.028 219.065 417.028C219.485 417.028 219.877 417.103 220.241 417.252C220.605 417.392 220.918 417.574 221.179 417.798L220.647 418.456C220.405 418.288 220.157 418.157 219.905 418.064C219.653 417.971 219.373 417.924 219.065 417.924C218.636 417.924 218.319 418.022 218.113 418.218C217.917 418.414 217.819 418.643 217.819 418.904C217.819 419.109 217.88 419.282 218.001 419.422C218.123 419.553 218.291 419.669 218.505 419.772C218.729 419.875 218.981 419.973 219.261 420.066C219.616 420.197 219.952 420.346 220.269 420.514C220.596 420.673 220.857 420.883 221.053 421.144C221.259 421.396 221.361 421.727 221.361 422.138C221.361 422.511 221.263 422.852 221.067 423.16C220.881 423.459 220.601 423.701 220.227 423.888C219.863 424.075 219.411 424.168 218.869 424.168ZM225.759 424V417.196H226.711L226.809 418.428H226.851C227.075 417.999 227.355 417.658 227.691 417.406C228.027 417.154 228.391 417.028 228.783 417.028C228.933 417.028 229.063 417.037 229.175 417.056C229.287 417.075 229.399 417.112 229.511 417.168L229.259 418.148C229.157 418.12 229.059 418.101 228.965 418.092C228.881 418.073 228.769 418.064 228.629 418.064C228.34 418.064 228.037 418.181 227.719 418.414C227.411 418.647 227.141 419.053 226.907 419.632V424H225.759ZM233.234 424.168C232.627 424.168 232.072 424.028 231.568 423.748C231.073 423.459 230.681 423.053 230.392 422.53C230.103 421.998 229.958 421.354 229.958 420.598C229.958 419.861 230.107 419.226 230.406 418.694C230.705 418.162 231.087 417.751 231.554 417.462C232.021 417.173 232.515 417.028 233.038 417.028C233.617 417.028 234.107 417.163 234.508 417.434C234.919 417.695 235.227 418.064 235.432 418.54C235.637 419.016 235.74 419.576 235.74 420.22C235.74 420.341 235.735 420.458 235.726 420.57C235.726 420.682 235.712 420.794 235.684 420.906H230.784V419.996H234.704C234.704 419.343 234.559 418.843 234.27 418.498C233.99 418.143 233.584 417.966 233.052 417.966C232.744 417.966 232.441 418.055 232.142 418.232C231.843 418.4 231.596 418.675 231.4 419.058C231.213 419.441 231.12 419.949 231.12 420.584C231.12 421.163 231.218 421.648 231.414 422.04C231.619 422.432 231.895 422.731 232.24 422.936C232.585 423.132 232.963 423.23 233.374 423.23C233.701 423.23 234.004 423.183 234.284 423.09C234.573 422.997 234.835 422.871 235.068 422.712L235.488 423.468C235.189 423.673 234.853 423.841 234.48 423.972C234.116 424.103 233.701 424.168 233.234 424.168ZM237.59 424V416.118C237.59 415.661 237.66 415.264 237.8 414.928C237.94 414.583 238.155 414.321 238.444 414.144C238.743 413.957 239.121 413.864 239.578 413.864C239.783 413.864 239.984 413.887 240.18 413.934C240.385 413.971 240.563 414.023 240.712 414.088L240.46 414.928C240.189 414.844 239.933 414.802 239.69 414.802C239.373 414.802 239.135 414.914 238.976 415.138C238.817 415.353 238.738 415.679 238.738 416.118V424H237.59ZM236.582 418.134V417.266L237.646 417.196H240.18V418.134H236.582ZM243.991 424.168C243.441 424.168 242.923 424.028 242.437 423.748C241.961 423.468 241.574 423.062 241.275 422.53C240.986 421.998 240.841 421.359 240.841 420.612C240.841 419.847 240.986 419.198 241.275 418.666C241.574 418.134 241.961 417.728 242.437 417.448C242.923 417.168 243.441 417.028 243.991 417.028C244.551 417.028 245.069 417.168 245.545 417.448C246.021 417.728 246.404 418.134 246.693 418.666C246.992 419.198 247.141 419.847 247.141 420.612C247.141 421.359 246.992 421.998 246.693 422.53C246.404 423.062 246.021 423.468 245.545 423.748C245.069 424.028 244.551 424.168 243.991 424.168ZM243.991 423.216C244.383 423.216 244.729 423.109 245.027 422.894C245.326 422.67 245.555 422.362 245.713 421.97C245.872 421.578 245.951 421.125 245.951 420.612C245.951 420.089 245.872 419.632 245.713 419.24C245.555 418.839 245.326 418.531 245.027 418.316C244.729 418.092 244.383 417.98 243.991 417.98C243.599 417.98 243.254 418.092 242.955 418.316C242.666 418.531 242.437 418.839 242.269 419.24C242.111 419.632 242.031 420.089 242.031 420.612C242.031 421.125 242.111 421.578 242.269 421.97C242.437 422.362 242.666 422.67 242.955 422.894C243.254 423.109 243.599 423.216 243.991 423.216ZM248.933 424V417.196H249.885L249.983 418.176H250.025C250.352 417.849 250.697 417.579 251.061 417.364C251.425 417.14 251.84 417.028 252.307 417.028C253.026 417.028 253.548 417.257 253.875 417.714C254.211 418.162 254.379 418.82 254.379 419.688V424H253.231V419.842C253.231 419.198 253.128 418.736 252.923 418.456C252.727 418.167 252.4 418.022 251.943 418.022C251.598 418.022 251.285 418.111 251.005 418.288C250.734 418.465 250.426 418.727 250.081 419.072V424H248.933ZM258.731 424.126C258.013 424.126 257.509 423.916 257.219 423.496C256.93 423.076 256.785 422.53 256.785 421.858V418.134H255.777V417.266L256.841 417.196L256.981 415.012H257.947V417.196H259.795V418.134H257.947V421.872C257.947 422.283 258.022 422.605 258.171 422.838C258.33 423.071 258.605 423.188 258.997 423.188C259.119 423.188 259.245 423.179 259.375 423.16C259.506 423.132 259.637 423.085 259.767 423.02L260.019 423.832C259.842 423.916 259.641 423.986 259.417 424.042C259.193 424.098 258.965 424.126 258.731 424.126ZM263.886 424.168C263.28 424.168 262.724 424.028 262.22 423.748C261.726 423.459 261.334 423.053 261.044 422.53C260.755 421.998 260.61 421.354 260.61 420.598C260.61 419.861 260.76 419.226 261.058 418.694C261.357 418.162 261.74 417.751 262.206 417.462C262.673 417.173 263.168 417.028 263.69 417.028C264.269 417.028 264.759 417.163 265.16 417.434C265.571 417.695 265.879 418.064 266.084 418.54C266.29 419.016 266.392 419.576 266.392 420.22C266.392 420.341 266.388 420.458 266.378 420.57C266.378 420.682 266.364 420.794 266.336 420.906H261.436V419.996H265.356C265.356 419.343 265.212 418.843 264.922 418.498C264.642 418.143 264.236 417.966 263.704 417.966C263.396 417.966 263.093 418.055 262.794 418.232C262.496 418.4 262.248 418.675 262.052 419.058C261.866 419.441 261.772 419.949 261.772 420.584C261.772 421.163 261.87 421.648 262.066 422.04C262.272 422.432 262.547 422.731 262.892 422.936C263.238 423.132 263.616 423.23 264.026 423.23C264.353 423.23 264.656 423.183 264.936 423.09C265.226 422.997 265.487 422.871 265.72 422.712L266.14 423.468C265.842 423.673 265.506 423.841 265.132 423.972C264.768 424.103 264.353 424.168 263.886 424.168Z" fill="#1A1A1A"/>
<path d="M341.289 424V414.816H343.585C344.528 414.816 345.321 414.993 345.965 415.348C346.609 415.703 347.094 416.221 347.421 416.902C347.757 417.574 347.925 418.395 347.925 419.366C347.925 420.337 347.757 421.172 347.421 421.872C347.094 422.563 346.614 423.09 345.979 423.454C345.344 423.818 344.565 424 343.641 424H341.289ZM342.451 423.048H343.501C344.22 423.048 344.817 422.903 345.293 422.614C345.769 422.315 346.124 421.895 346.357 421.354C346.59 420.813 346.707 420.15 346.707 419.366C346.707 418.601 346.59 417.947 346.357 417.406C346.124 416.865 345.769 416.459 345.293 416.188C344.817 415.908 344.22 415.768 343.501 415.768H342.451V423.048ZM351.778 424.168C351.06 424.168 350.532 423.944 350.196 423.496C349.87 423.039 349.706 422.376 349.706 421.508V417.196H350.854V421.354C350.854 421.989 350.952 422.451 351.148 422.74C351.354 423.02 351.68 423.16 352.128 423.16C352.474 423.16 352.782 423.071 353.052 422.894C353.332 422.707 353.636 422.418 353.962 422.026V417.196H355.11V424H354.158L354.06 422.936H354.018C353.71 423.309 353.374 423.608 353.01 423.832C352.656 424.056 352.245 424.168 351.778 424.168ZM357.406 424V417.196H358.358L358.456 418.428H358.498C358.722 417.999 359.002 417.658 359.338 417.406C359.674 417.154 360.038 417.028 360.43 417.028C360.579 417.028 360.71 417.037 360.822 417.056C360.934 417.075 361.046 417.112 361.158 417.168L360.906 418.148C360.803 418.12 360.705 418.101 360.612 418.092C360.528 418.073 360.416 418.064 360.276 418.064C359.986 418.064 359.683 418.181 359.366 418.414C359.058 418.647 358.787 419.053 358.554 419.632V424H357.406ZM364.88 424.168C364.274 424.168 363.718 424.028 363.214 423.748C362.72 423.459 362.328 423.053 362.038 422.53C361.749 421.998 361.604 421.354 361.604 420.598C361.604 419.861 361.754 419.226 362.052 418.694C362.351 418.162 362.734 417.751 363.2 417.462C363.667 417.173 364.162 417.028 364.684 417.028C365.263 417.028 365.753 417.163 366.154 417.434C366.565 417.695 366.873 418.064 367.078 418.54C367.284 419.016 367.386 419.576 367.386 420.22C367.386 420.341 367.382 420.458 367.372 420.57C367.372 420.682 367.358 420.794 367.33 420.906H362.43V419.996H366.35C366.35 419.343 366.206 418.843 365.916 418.498C365.636 418.143 365.23 417.966 364.698 417.966C364.39 417.966 364.087 418.055 363.788 418.232C363.49 418.4 363.242 418.675 363.046 419.058C362.86 419.441 362.766 419.949 362.766 420.584C362.766 421.163 362.864 421.648 363.06 422.04C363.266 422.432 363.541 422.731 363.886 422.936C364.232 423.132 364.61 423.23 365.02 423.23C365.347 423.23 365.65 423.183 365.93 423.09C366.22 422.997 366.481 422.871 366.714 422.712L367.134 423.468C366.836 423.673 366.5 423.841 366.126 423.972C365.762 424.103 365.347 424.168 364.88 424.168ZM363.592 416.02L365.398 413.71H366.658L366.728 413.836L364.516 416.02H363.592ZM371.826 424.168C371.219 424.168 370.664 424.028 370.16 423.748C369.665 423.459 369.273 423.053 368.984 422.53C368.694 421.998 368.55 421.354 368.55 420.598C368.55 419.861 368.699 419.226 368.998 418.694C369.296 418.162 369.679 417.751 370.146 417.462C370.612 417.173 371.107 417.028 371.63 417.028C372.208 417.028 372.698 417.163 373.1 417.434C373.51 417.695 373.818 418.064 374.024 418.54C374.229 419.016 374.332 419.576 374.332 420.22C374.332 420.341 374.327 420.458 374.318 420.57C374.318 420.682 374.304 420.794 374.276 420.906H369.376V419.996H373.296C373.296 419.343 373.151 418.843 372.862 418.498C372.582 418.143 372.176 417.966 371.644 417.966C371.336 417.966 371.032 418.055 370.734 418.232C370.435 418.4 370.188 418.675 369.992 419.058C369.805 419.441 369.712 419.949 369.712 420.584C369.712 421.163 369.81 421.648 370.006 422.04C370.211 422.432 370.486 422.731 370.832 422.936C371.177 423.132 371.555 423.23 371.966 423.23C372.292 423.23 372.596 423.183 372.876 423.09C373.165 422.997 373.426 422.871 373.66 422.712L374.08 423.468C373.781 423.673 373.445 423.841 373.072 423.972C372.708 424.103 372.292 424.168 371.826 424.168ZM381.14 424.168C380.281 424.168 379.595 423.86 379.082 423.244C378.578 422.619 378.326 421.741 378.326 420.612C378.326 419.875 378.461 419.24 378.732 418.708C379.012 418.167 379.376 417.751 379.824 417.462C380.272 417.173 380.757 417.028 381.28 417.028C381.681 417.028 382.022 417.098 382.302 417.238C382.591 417.369 382.885 417.56 383.184 417.812L383.128 416.65V414.032H384.29V424H383.338L383.24 423.202H383.198C382.936 423.463 382.628 423.692 382.274 423.888C381.919 424.075 381.541 424.168 381.14 424.168ZM381.392 423.202C381.709 423.202 382.008 423.123 382.288 422.964C382.568 422.805 382.848 422.572 383.128 422.264V418.708C382.848 418.447 382.572 418.265 382.302 418.162C382.031 418.05 381.756 417.994 381.476 417.994C381.112 417.994 380.78 418.106 380.482 418.33C380.192 418.545 379.959 418.848 379.782 419.24C379.604 419.623 379.516 420.075 379.516 420.598C379.516 421.41 379.679 422.049 380.006 422.516C380.332 422.973 380.794 423.202 381.392 423.202ZM389.339 424.168C388.733 424.168 388.177 424.028 387.673 423.748C387.179 423.459 386.787 423.053 386.497 422.53C386.208 421.998 386.063 421.354 386.063 420.598C386.063 419.861 386.213 419.226 386.511 418.694C386.81 418.162 387.193 417.751 387.659 417.462C388.126 417.173 388.621 417.028 389.143 417.028C389.722 417.028 390.212 417.163 390.613 417.434C391.024 417.695 391.332 418.064 391.537 418.54C391.743 419.016 391.845 419.576 391.845 420.22C391.845 420.341 391.841 420.458 391.831 420.57C391.831 420.682 391.817 420.794 391.789 420.906H386.889V419.996H390.809C390.809 419.343 390.665 418.843 390.375 418.498C390.095 418.143 389.689 417.966 389.157 417.966C388.849 417.966 388.546 418.055 388.247 418.232C387.949 418.4 387.701 418.675 387.505 419.058C387.319 419.441 387.225 419.949 387.225 420.584C387.225 421.163 387.323 421.648 387.519 422.04C387.725 422.432 388 422.731 388.345 422.936C388.691 423.132 389.069 423.23 389.479 423.23C389.806 423.23 390.109 423.183 390.389 423.09C390.679 422.997 390.94 422.871 391.173 422.712L391.593 423.468C391.295 423.673 390.959 423.841 390.585 423.972C390.221 424.103 389.806 424.168 389.339 424.168ZM397.799 424L395.349 417.196H396.539L397.827 421.06C397.93 421.387 398.033 421.723 398.135 422.068C398.247 422.404 398.355 422.735 398.457 423.062H398.513C398.607 422.735 398.709 422.404 398.821 422.068C398.933 421.723 399.036 421.387 399.129 421.06L400.417 417.196H401.551L399.143 424H397.799ZM402.864 424V417.196H404.012V424H402.864ZM403.438 415.796C403.214 415.796 403.028 415.726 402.878 415.586C402.738 415.446 402.668 415.264 402.668 415.04C402.668 414.816 402.738 414.634 402.878 414.494C403.028 414.354 403.214 414.284 403.438 414.284C403.662 414.284 403.844 414.354 403.984 414.494C404.134 414.634 404.208 414.816 404.208 415.04C404.208 415.264 404.134 415.446 403.984 415.586C403.844 415.726 403.662 415.796 403.438 415.796ZM409.068 424.168C408.461 424.168 407.906 424.028 407.402 423.748C406.907 423.459 406.515 423.053 406.226 422.53C405.936 421.998 405.792 421.354 405.792 420.598C405.792 419.861 405.941 419.226 406.24 418.694C406.538 418.162 406.921 417.751 407.388 417.462C407.854 417.173 408.349 417.028 408.872 417.028C409.45 417.028 409.94 417.163 410.342 417.434C410.752 417.695 411.06 418.064 411.266 418.54C411.471 419.016 411.574 419.576 411.574 420.22C411.574 420.341 411.569 420.458 411.56 420.57C411.56 420.682 411.546 420.794 411.518 420.906H406.618V419.996H410.538C410.538 419.343 410.393 418.843 410.104 418.498C409.824 418.143 409.418 417.966 408.886 417.966C408.578 417.966 408.274 418.055 407.976 418.232C407.677 418.4 407.43 418.675 407.234 419.058C407.047 419.441 406.954 419.949 406.954 420.584C406.954 421.163 407.052 421.648 407.248 422.04C407.453 422.432 407.728 422.731 408.074 422.936C408.419 423.132 408.797 423.23 409.208 423.23C409.534 423.23 409.838 423.183 410.118 423.09C410.407 422.997 410.668 422.871 410.902 422.712L411.322 423.468C411.023 423.673 410.687 423.841 410.314 423.972C409.95 424.103 409.534 424.168 409.068 424.168ZM416.058 424V417.196H417.01L417.108 418.176H417.15C417.449 417.859 417.771 417.588 418.116 417.364C418.471 417.14 418.853 417.028 419.264 417.028C419.787 417.028 420.193 417.145 420.482 417.378C420.781 417.611 421 417.929 421.14 418.33C421.495 417.938 421.854 417.625 422.218 417.392C422.582 417.149 422.969 417.028 423.38 417.028C424.089 417.028 424.612 417.257 424.948 417.714C425.284 418.162 425.452 418.82 425.452 419.688V424H424.304V419.842C424.304 419.198 424.201 418.736 423.996 418.456C423.791 418.167 423.473 418.022 423.044 418.022C422.773 418.022 422.498 418.111 422.218 418.288C421.947 418.456 421.653 418.717 421.336 419.072V424H420.188V419.842C420.188 419.198 420.085 418.736 419.88 418.456C419.675 418.167 419.353 418.022 418.914 418.022C418.401 418.022 417.831 418.372 417.206 419.072V424H416.058ZM430.311 424.168C429.761 424.168 429.243 424.028 428.757 423.748C428.281 423.468 427.894 423.062 427.595 422.53C427.306 421.998 427.161 421.359 427.161 420.612C427.161 419.847 427.306 419.198 427.595 418.666C427.894 418.134 428.281 417.728 428.757 417.448C429.243 417.168 429.761 417.028 430.311 417.028C430.871 417.028 431.389 417.168 431.865 417.448C432.341 417.728 432.724 418.134 433.013 418.666C433.312 419.198 433.461 419.847 433.461 420.612C433.461 421.359 433.312 421.998 433.013 422.53C432.724 423.062 432.341 423.468 431.865 423.748C431.389 424.028 430.871 424.168 430.311 424.168ZM430.311 423.216C430.703 423.216 431.049 423.109 431.347 422.894C431.646 422.67 431.875 422.362 432.033 421.97C432.192 421.578 432.271 421.125 432.271 420.612C432.271 420.089 432.192 419.632 432.033 419.24C431.875 418.839 431.646 418.531 431.347 418.316C431.049 418.092 430.703 417.98 430.311 417.98C429.919 417.98 429.574 418.092 429.275 418.316C428.986 418.531 428.757 418.839 428.589 419.24C428.431 419.632 428.351 420.089 428.351 420.612C428.351 421.125 428.431 421.578 428.589 421.97C428.757 422.362 428.986 422.67 429.275 422.894C429.574 423.109 429.919 423.216 430.311 423.216ZM435.31 426.926C435.161 426.926 435.016 426.912 434.876 426.884C434.746 426.856 434.624 426.823 434.512 426.786L434.764 425.89C434.848 425.918 434.932 425.937 435.016 425.946C435.1 425.965 435.18 425.974 435.254 425.974C435.646 425.974 435.964 425.834 436.206 425.554C436.458 425.283 436.654 424.938 436.794 424.518L436.948 424.014L434.218 417.196H435.408L436.794 420.962C436.906 421.251 437.018 421.564 437.13 421.9C437.242 422.236 437.35 422.563 437.452 422.88H437.508C437.611 422.563 437.709 422.241 437.802 421.914C437.905 421.578 437.998 421.261 438.082 420.962L439.3 417.196H440.42L437.858 424.56C437.7 425.008 437.508 425.409 437.284 425.764C437.06 426.128 436.79 426.413 436.472 426.618C436.155 426.823 435.768 426.926 435.31 426.926ZM441.857 424.168C441.633 424.168 441.437 424.089 441.269 423.93C441.101 423.762 441.017 423.552 441.017 423.3C441.017 423.029 441.101 422.815 441.269 422.656C441.437 422.488 441.633 422.404 441.857 422.404C442.09 422.404 442.286 422.488 442.445 422.656C442.604 422.815 442.683 423.029 442.683 423.3C442.683 423.552 442.604 423.762 442.445 423.93C442.286 424.089 442.09 424.168 441.857 424.168ZM449.112 424.168C448.739 424.168 448.398 424.093 448.09 423.944C447.792 423.785 447.554 423.566 447.376 423.286C447.199 422.997 447.11 422.647 447.11 422.236C447.11 421.471 447.446 420.892 448.118 420.5C448.79 420.108 449.854 419.833 451.31 419.674C451.301 419.394 451.254 419.123 451.17 418.862C451.096 418.601 450.956 418.391 450.75 418.232C450.545 418.073 450.26 417.994 449.896 417.994C449.504 417.994 449.136 418.069 448.79 418.218C448.445 418.358 448.137 418.517 447.866 418.694L447.418 417.91C447.624 417.77 447.866 417.635 448.146 417.504C448.426 417.364 448.73 417.252 449.056 417.168C449.383 417.075 449.728 417.028 450.092 417.028C450.643 417.028 451.091 417.145 451.436 417.378C451.791 417.602 452.048 417.924 452.206 418.344C452.374 418.764 452.458 419.259 452.458 419.828V424H451.506L451.408 423.188H451.366C451.04 423.459 450.69 423.692 450.316 423.888C449.943 424.075 449.542 424.168 449.112 424.168ZM449.434 423.216C449.77 423.216 450.083 423.141 450.372 422.992C450.671 422.843 450.984 422.623 451.31 422.334V420.5C450.545 420.593 449.938 420.715 449.49 420.864C449.052 421.004 448.734 421.181 448.538 421.396C448.342 421.611 448.244 421.867 448.244 422.166C448.244 422.539 448.361 422.81 448.594 422.978C448.828 423.137 449.108 423.216 449.434 423.216ZM456.069 424L453.619 417.196H454.809L456.097 421.06C456.2 421.387 456.302 421.723 456.405 422.068C456.517 422.404 456.624 422.735 456.727 423.062H456.783C456.876 422.735 456.979 422.404 457.091 422.068C457.203 421.723 457.306 421.387 457.399 421.06L458.687 417.196H459.821L457.413 424H456.069ZM463.837 424.168C463.231 424.168 462.675 424.028 462.171 423.748C461.677 423.459 461.285 423.053 460.995 422.53C460.706 421.998 460.561 421.354 460.561 420.598C460.561 419.861 460.711 419.226 461.009 418.694C461.308 418.162 461.691 417.751 462.157 417.462C462.624 417.173 463.119 417.028 463.641 417.028C464.22 417.028 464.71 417.163 465.111 417.434C465.522 417.695 465.83 418.064 466.035 418.54C466.241 419.016 466.343 419.576 466.343 420.22C466.343 420.341 466.339 420.458 466.329 420.57C466.329 420.682 466.315 420.794 466.287 420.906H461.387V419.996H465.307C465.307 419.343 465.163 418.843 464.873 418.498C464.593 418.143 464.187 417.966 463.655 417.966C463.347 417.966 463.044 418.055 462.745 418.232C462.447 418.4 462.199 418.675 462.003 419.058C461.817 419.441 461.723 419.949 461.723 420.584C461.723 421.163 461.821 421.648 462.017 422.04C462.223 422.432 462.498 422.731 462.843 422.936C463.189 423.132 463.567 423.23 463.977 423.23C464.304 423.23 464.607 423.183 464.887 423.09C465.177 422.997 465.438 422.871 465.671 422.712L466.091 423.468C465.793 423.673 465.457 423.841 465.083 423.972C464.719 424.103 464.304 424.168 463.837 424.168ZM470.727 424.168C470.12 424.168 469.574 424.028 469.089 423.748C468.603 423.468 468.221 423.062 467.941 422.53C467.661 421.998 467.521 421.359 467.521 420.612C467.521 419.847 467.67 419.198 467.969 418.666C468.277 418.134 468.678 417.728 469.173 417.448C469.677 417.168 470.218 417.028 470.797 417.028C471.245 417.028 471.627 417.103 471.945 417.252C472.271 417.401 472.551 417.593 472.785 417.826L472.211 418.54C472.043 418.372 471.842 418.241 471.609 418.148C471.385 418.045 471.128 417.994 470.839 417.994C470.437 417.994 470.073 418.106 469.747 418.33C469.429 418.545 469.177 418.848 468.991 419.24C468.804 419.632 468.711 420.089 468.711 420.612C468.711 421.125 468.799 421.578 468.977 421.97C469.154 422.362 469.401 422.67 469.719 422.894C470.036 423.109 470.405 423.216 470.825 423.216C471.142 423.216 471.436 423.155 471.707 423.034C471.977 422.913 472.211 422.759 472.407 422.572L472.911 423.272C472.621 423.543 472.295 423.762 471.931 423.93C471.567 424.089 471.165 424.168 470.727 424.168ZM477.212 424V417.196H478.164L478.262 418.428H478.304C478.528 417.999 478.808 417.658 479.144 417.406C479.48 417.154 479.844 417.028 480.236 417.028C480.385 417.028 480.516 417.037 480.628 417.056C480.74 417.075 480.852 417.112 480.964 417.168L480.712 418.148C480.609 418.12 480.511 418.101 480.418 418.092C480.334 418.073 480.222 418.064 480.082 418.064C479.793 418.064 479.489 418.181 479.172 418.414C478.864 418.647 478.593 419.053 478.36 419.632V424H477.212ZM484.687 424.168C484.08 424.168 483.525 424.028 483.021 423.748C482.526 423.459 482.134 423.053 481.845 422.53C481.556 421.998 481.411 421.354 481.411 420.598C481.411 419.861 481.56 419.226 481.859 418.694C482.158 418.162 482.54 417.751 483.007 417.462C483.474 417.173 483.968 417.028 484.491 417.028C485.07 417.028 485.56 417.163 485.961 417.434C486.372 417.695 486.68 418.064 486.885 418.54C487.09 419.016 487.193 419.576 487.193 420.22C487.193 420.341 487.188 420.458 487.179 420.57C487.179 420.682 487.165 420.794 487.137 420.906H482.237V419.996H486.157C486.157 419.343 486.012 418.843 485.723 418.498C485.443 418.143 485.037 417.966 484.505 417.966C484.197 417.966 483.894 418.055 483.595 418.232C483.296 418.4 483.049 418.675 482.853 419.058C482.666 419.441 482.573 419.949 482.573 420.584C482.573 421.163 482.671 421.648 482.867 422.04C483.072 422.432 483.348 422.731 483.693 422.936C484.038 423.132 484.416 423.23 484.827 423.23C485.154 423.23 485.457 423.183 485.737 423.09C486.026 422.997 486.288 422.871 486.521 422.712L486.941 423.468C486.642 423.673 486.306 423.841 485.933 423.972C485.569 424.103 485.154 424.168 484.687 424.168ZM489.043 424V416.118C489.043 415.661 489.113 415.264 489.253 414.928C489.393 414.583 489.608 414.321 489.897 414.144C490.196 413.957 490.574 413.864 491.031 413.864C491.236 413.864 491.437 413.887 491.633 413.934C491.838 413.971 492.016 414.023 492.165 414.088L491.913 414.928C491.642 414.844 491.386 414.802 491.143 414.802C490.826 414.802 490.588 414.914 490.429 415.138C490.27 415.353 490.191 415.679 490.191 416.118V424H489.043ZM488.035 418.134V417.266L489.099 417.196H491.633V418.134H488.035ZM495.444 424.168C494.893 424.168 494.375 424.028 493.89 423.748C493.414 423.468 493.027 423.062 492.728 422.53C492.439 421.998 492.294 421.359 492.294 420.612C492.294 419.847 492.439 419.198 492.728 418.666C493.027 418.134 493.414 417.728 493.89 417.448C494.375 417.168 494.893 417.028 495.444 417.028C496.004 417.028 496.522 417.168 496.998 417.448C497.474 417.728 497.857 418.134 498.146 418.666C498.445 419.198 498.594 419.847 498.594 420.612C498.594 421.359 498.445 421.998 498.146 422.53C497.857 423.062 497.474 423.468 496.998 423.748C496.522 424.028 496.004 424.168 495.444 424.168ZM495.444 423.216C495.836 423.216 496.181 423.109 496.48 422.894C496.779 422.67 497.007 422.362 497.166 421.97C497.325 421.578 497.404 421.125 497.404 420.612C497.404 420.089 497.325 419.632 497.166 419.24C497.007 418.839 496.779 418.531 496.48 418.316C496.181 418.092 495.836 417.98 495.444 417.98C495.052 417.98 494.707 418.092 494.408 418.316C494.119 418.531 493.89 418.839 493.722 419.24C493.563 419.632 493.484 420.089 493.484 420.612C493.484 421.125 493.563 421.578 493.722 421.97C493.89 422.362 494.119 422.67 494.408 422.894C494.707 423.109 495.052 423.216 495.444 423.216ZM500.386 424V417.196H501.338L501.436 418.176H501.478C501.805 417.849 502.15 417.579 502.514 417.364C502.878 417.14 503.293 417.028 503.76 417.028C504.479 417.028 505.001 417.257 505.328 417.714C505.664 418.162 505.832 418.82 505.832 419.688V424H504.684V419.842C504.684 419.198 504.581 418.736 504.376 418.456C504.18 418.167 503.853 418.022 503.396 418.022C503.051 418.022 502.738 418.111 502.458 418.288C502.187 418.465 501.879 418.727 501.534 419.072V424H500.386ZM510.184 424.126C509.466 424.126 508.962 423.916 508.672 423.496C508.383 423.076 508.238 422.53 508.238 421.858V418.134H507.23V417.266L508.294 417.196L508.434 415.012H509.4V417.196H511.248V418.134H509.4V421.872C509.4 422.283 509.475 422.605 509.624 422.838C509.783 423.071 510.058 423.188 510.45 423.188C510.572 423.188 510.698 423.179 510.828 423.16C510.959 423.132 511.09 423.085 511.22 423.02L511.472 423.832C511.295 423.916 511.094 423.986 510.87 424.042C510.646 424.098 510.418 424.126 510.184 424.126ZM515.339 424.168C514.733 424.168 514.177 424.028 513.673 423.748C513.179 423.459 512.787 423.053 512.497 422.53C512.208 421.998 512.063 421.354 512.063 420.598C512.063 419.861 512.213 419.226 512.511 418.694C512.81 418.162 513.193 417.751 513.659 417.462C514.126 417.173 514.621 417.028 515.143 417.028C515.722 417.028 516.212 417.163 516.613 417.434C517.024 417.695 517.332 418.064 517.537 418.54C517.743 419.016 517.845 419.576 517.845 420.22C517.845 420.341 517.841 420.458 517.831 420.57C517.831 420.682 517.817 420.794 517.789 420.906H512.889V419.996H516.809C516.809 419.343 516.665 418.843 516.375 418.498C516.095 418.143 515.689 417.966 515.157 417.966C514.849 417.966 514.546 418.055 514.247 418.232C513.949 418.4 513.701 418.675 513.505 419.058C513.319 419.441 513.225 419.949 513.225 420.584C513.225 421.163 513.323 421.648 513.519 422.04C513.725 422.432 514 422.731 514.345 422.936C514.691 423.132 515.069 423.23 515.479 423.23C515.806 423.23 516.109 423.183 516.389 423.09C516.679 422.997 516.94 422.871 517.173 422.712L517.593 423.468C517.295 423.673 516.959 423.841 516.585 423.972C516.221 424.103 515.806 424.168 515.339 424.168Z" fill="#1A1A1A"/>
</svg>
