<svg width="158" height="48" viewBox="0 0 158 48" fill="none" xmlns="http://www.w3.org/2000/svg">
    <g clip-path="url(#clip0_1952_6)">
        <path
            d="M7.08111 1.56136H5.77926C5.51921 1.56136 5.31184 1.62635 5.15548 1.75715C4.99831 1.88795 4.87322 2.05741 4.77777 2.26636C4.68313 2.47202 4.6173 2.71059 4.58356 2.98206C4.54735 3.25024 4.53089 3.52417 4.53089 3.80222V8.562C4.53089 9.16993 4.43955 9.68572 4.25604 10.1102C4.07499 10.538 3.86186 10.8876 3.6191 11.1656C3.37552 11.4437 3.12864 11.6526 2.87765 11.7892C2.62584 11.9299 2.42176 12.0146 2.26622 12.0508V12.1289C2.42176 12.1454 2.62584 12.2137 2.87765 12.3346C3.12946 12.4588 3.37634 12.6513 3.6191 12.9228C3.86268 13.191 4.07499 13.5431 4.25604 13.9749C4.43872 14.4093 4.53089 14.9547 4.53089 15.6145V20.3775C4.53089 20.6391 4.54735 20.9032 4.58356 21.1714C4.61812 21.4395 4.68313 21.6839 4.77777 21.9002C4.8724 22.1158 4.99831 22.2926 5.15548 22.4193C5.31266 22.5501 5.52004 22.6151 5.77926 22.6151H7.08111V24.1765H5.25917C4.92918 24.1765 4.59919 24.1016 4.2692 23.9543C3.94086 23.8071 3.64049 23.5916 3.37222 23.3045C3.10231 23.0207 2.88177 22.6644 2.70731 22.2391C2.5345 21.8114 2.44727 21.3211 2.44727 20.7658V16.0324C2.44727 15.5618 2.38719 15.1373 2.26622 14.7548C2.14361 14.3756 1.98396 14.0523 1.78399 13.7948C1.58485 13.5332 1.35443 13.3341 1.09439 13.1934C0.832703 13.0561 0.565255 12.9878 0.287109 12.9878V11.2175C0.565255 11.2175 0.832703 11.1426 1.09439 10.9954C1.35443 10.8481 1.58485 10.6392 1.78399 10.3718C1.98314 10.1036 2.14361 9.77703 2.26622 9.39533C2.38719 9.01609 2.44727 8.59819 2.44727 8.14739V3.41065C2.44727 2.85537 2.53367 2.36508 2.70731 1.9406C2.88177 1.51612 3.10231 1.15992 3.37222 0.871994C3.64049 0.588185 3.94086 0.368541 4.2692 0.222112C4.59919 0.0748599 4.92918 0 5.25917 0H7.08111V1.56136Z"
            fill="white" />
        <path
            d="M28.1933 10.2805V19.0251H26.0051V10.0189C26.0051 9.72522 25.9887 9.41426 25.9541 9.08438C25.9179 8.75451 25.8134 8.45424 25.6406 8.18606C25.4678 7.91789 25.211 7.68919 24.8728 7.50986C24.5346 7.32723 24.0622 7.2351 23.4549 7.2351C22.9859 7.2351 22.5925 7.30009 22.2707 7.43088C21.949 7.56168 21.6889 7.72127 21.4898 7.9113C21.2907 8.1038 21.1335 8.29383 21.0207 8.48304C20.908 8.67553 20.8265 8.83924 20.7739 8.97991H19.9147V19.0251H17.7282V10.0189C17.7282 9.72522 17.7101 9.41426 17.6756 9.08438C17.641 8.75451 17.5365 8.45424 17.3637 8.18606C17.1909 7.91789 16.9341 7.68919 16.5959 7.50986C16.2577 7.32723 15.7837 7.2351 15.178 7.2351C14.709 7.2351 14.314 7.30009 13.9939 7.43088C13.6721 7.56168 13.4121 7.72127 13.2129 7.9113C13.0121 8.1038 12.8566 8.29383 12.7438 8.48304C12.6311 8.67553 12.548 8.83924 12.497 8.97991H11.6378V19.0251H9.44971V5.59558H11.6378V7.3659H12.497C12.7043 6.79416 13.087 6.29729 13.6425 5.88268C14.1963 5.46478 14.8382 5.25912 15.5689 5.25912C16.3844 5.25912 17.1259 5.41296 17.7941 5.72638C18.4623 6.03981 18.9865 6.58521 19.3691 7.3659H20.2028C20.5492 6.81062 21.0216 6.32033 21.6206 5.89584C22.2189 5.47136 22.9604 5.25912 23.8458 5.25912C24.4539 5.25912 25.0176 5.34057 25.5385 5.50427C26.0578 5.67127 26.5186 5.94849 26.9178 6.3376C27.3161 6.73 27.6288 7.24579 27.8559 7.8858C28.0814 8.5291 28.1941 9.32624 28.1941 10.2805H28.1933Z"
            fill="white" />
        <path
            d="M37.199 5.25912C37.8071 5.25912 38.4095 5.32411 39.0078 5.45162C39.6077 5.58242 40.15 5.79137 40.6355 6.07847C41.121 6.36228 41.5111 6.74151 41.8073 7.20877C42.1011 7.67932 42.2501 8.25763 42.2501 8.95358V19.0251H40.0381V16.8394H39.2308C38.8662 17.741 38.3108 18.381 37.5644 18.7635C36.818 19.146 36.0107 19.3353 35.1425 19.3353C34.7097 19.3353 34.2406 19.2703 33.737 19.1428C33.2334 19.012 32.7651 18.7866 32.3315 18.4633C31.897 18.1433 31.5324 17.7023 31.237 17.1372C30.9432 16.5753 30.7959 15.8596 30.7959 14.9909C30.7959 13.6385 31.2814 12.6489 32.2533 12.0245C33.2251 11.4009 34.5698 11.0867 36.2872 11.0867H40.0373V9.44717C40.0373 9.0161 39.9492 8.65332 39.7756 8.36951C39.6028 8.08241 39.3723 7.85372 39.086 7.68014C38.8004 7.5041 38.4828 7.38317 38.1363 7.31407C37.7882 7.24579 37.4418 7.2096 37.0937 7.2096C36.1572 7.2096 35.3763 7.38893 34.7508 7.74184C34.1271 8.09804 33.779 8.77096 33.7098 9.76059H31.4978C31.5324 8.92726 31.7102 8.22555 32.0303 7.65382C32.352 7.0788 32.7684 6.61483 33.2803 6.25863C33.7913 5.90572 34.3863 5.64741 35.0644 5.49111C35.7408 5.33728 36.4518 5.25912 37.1982 5.25912H37.199ZM40.0373 15.1999V12.7007H36.5752C36.0543 12.7007 35.577 12.7369 35.1425 12.8052C34.7097 12.8734 34.332 12.9944 34.0102 13.1679C33.6901 13.344 33.4416 13.576 33.2688 13.8705C33.0959 14.1675 33.0087 14.5401 33.0087 14.9909C33.0087 15.2846 33.0564 15.5758 33.1527 15.8629C33.2474 16.1467 33.3996 16.4017 33.607 16.6173C33.816 16.8328 34.081 17.0121 34.4011 17.1495C34.7229 17.2902 35.1088 17.3585 35.5598 17.3585C36.2543 17.3585 36.8229 17.2704 37.2657 17.0969C37.7084 16.9233 38.0631 16.7176 38.333 16.4733C38.6029 16.2314 38.8021 15.9863 38.9313 15.7444C39.0621 15.5026 39.1617 15.32 39.2316 15.199H40.0389L40.0373 15.1999Z"
            fill="white" />
        <path d="M45.7378 0.444214H47.9514V19.0251H45.7378V0.444214Z" fill="white" />
        <path d="M53.7307 3.14904H51.5171V0.444214H53.7307V3.14904ZM51.5171 5.57006H53.7307V19.0259H51.5171V5.57006Z"
            fill="white" />
        <path
            d="M68.3588 10.2805V19.0251H66.1707V10.0189C66.1707 9.72522 66.1542 9.41426 66.118 9.08438C66.0835 8.75451 65.9789 8.45424 65.8061 8.18606C65.6333 7.91789 65.3733 7.68919 65.0252 7.50986C64.6787 7.32723 64.2014 7.2351 63.5941 7.2351C62.9177 7.2351 62.3754 7.32312 61.9664 7.49669C61.5574 7.67027 61.2373 7.87922 61.0044 8.12025C60.7691 8.36211 60.6045 8.60067 60.509 8.83595C60.4127 9.07122 60.3395 9.25714 60.2885 9.39452H59.4293V19.0243H57.2412V5.59558H59.4293V7.755H60.2885C60.6349 6.85339 61.1254 6.21338 61.759 5.83086C62.391 5.44833 63.1432 5.25912 64.0105 5.25912C64.6187 5.25912 65.1824 5.34057 65.7016 5.50427C66.2225 5.67127 66.6817 5.94849 67.0825 6.3376C67.4808 6.73 67.7935 7.24579 68.0189 7.8858C68.2444 8.5291 68.3588 9.32624 68.3588 10.2805Z"
            fill="white" />
        <path
            d="M73.0437 14.782C73.0618 15.269 73.1746 15.6803 73.3819 16.02C73.591 16.3565 73.8642 16.628 74.2024 16.827C74.5406 17.0261 74.9233 17.1701 75.3479 17.2548C75.7725 17.3428 76.2103 17.3856 76.6629 17.3856C77.0094 17.3856 77.3788 17.3593 77.7689 17.3075C78.1598 17.2548 78.5186 17.1602 78.8486 17.0204C79.1786 16.883 79.4518 16.6806 79.669 16.4091C79.8863 16.141 79.9941 15.7979 79.9941 15.38C79.9941 14.9621 79.8682 14.596 79.6164 14.3279C79.3645 14.0597 79.0313 13.8376 78.6149 13.6648C78.1985 13.4921 77.7212 13.3481 77.1822 13.2338C76.6448 13.1227 76.1025 13.0051 75.5561 12.8841C75.0089 12.7632 74.4665 12.6127 73.9284 12.4399C73.391 12.2672 72.9137 12.0418 72.4973 11.7637C72.0809 11.4857 71.746 11.1303 71.4942 10.6984C71.2424 10.264 71.1165 9.72522 71.1165 9.08438C71.1165 8.40818 71.2687 7.82657 71.5724 7.33957C71.876 6.85257 72.2669 6.45771 72.7442 6.15415C73.2215 5.85389 73.7588 5.62849 74.3587 5.47795C74.957 5.33069 75.5512 5.25912 76.1412 5.25912C76.904 5.25912 77.6084 5.32411 78.2503 5.45162C78.8922 5.58242 79.4608 5.80782 79.9546 6.13112C80.45 6.45112 80.8433 6.88548 81.1388 7.43088C81.4342 7.97629 81.6078 8.65908 81.6597 9.47267H79.4477C79.4115 9.03832 79.2987 8.67882 79.1078 8.39501C78.9169 8.10791 78.6749 7.87922 78.3787 7.70235C78.0849 7.5296 77.7582 7.40538 77.4035 7.32641C77.0472 7.24826 76.6876 7.20877 76.3239 7.20877C75.9939 7.20877 75.6557 7.2351 75.3076 7.28692C74.9611 7.33957 74.6443 7.43088 74.3579 7.56168C74.0724 7.68919 73.837 7.86524 73.6552 8.08077C73.4725 8.2963 73.3803 8.58093 73.3803 8.92644C73.3803 9.30896 73.5194 9.62568 73.7967 9.8774C74.0748 10.1291 74.4254 10.3348 74.8525 10.501C75.2771 10.6647 75.7544 10.8045 76.2835 10.9156C76.8127 11.0299 77.3377 11.1476 77.8586 11.2685C78.4141 11.3894 78.9547 11.5367 79.4847 11.7094C80.0138 11.8822 80.4829 12.1142 80.8919 12.3988C81.2984 12.6859 81.6284 13.0454 81.8802 13.4797C82.132 13.9141 82.2579 14.4496 82.2579 15.0937C82.2579 15.8909 82.0892 16.5638 81.751 17.1092C81.4111 17.6579 80.9701 18.0955 80.4228 18.4254C79.8756 18.752 79.2592 18.9873 78.5746 19.1279C77.8882 19.2653 77.2069 19.3336 76.5304 19.3336C75.784 19.3336 75.073 19.2522 74.3966 19.0885C73.7185 18.9215 73.1203 18.664 72.5993 18.3078C72.0801 17.9516 71.6629 17.4843 71.351 16.9027C71.0375 16.3211 70.8638 15.612 70.8301 14.7795H73.0421L73.0437 14.782Z"
            fill="white" />
        <path
            d="M5.88401 28.9346C6.35307 28.9346 6.7958 29.0062 7.21219 29.1534C7.62859 29.304 7.99643 29.4965 8.31819 29.7416C8.63831 29.9835 8.91316 30.2574 9.13864 30.5618C9.36412 30.8653 9.52953 31.1631 9.63239 31.4568H10.466V24.146H12.6797V42.7269H10.466V40.5157H9.63239C9.52953 40.8093 9.36412 41.1104 9.13864 41.4107C8.91316 41.7142 8.63831 41.989 8.31819 42.2309C7.99643 42.476 7.62859 42.6718 7.21219 42.819C6.7958 42.9663 6.35307 43.0379 5.88401 43.0379C5.03476 43.0379 4.24887 42.8873 3.528 42.5838C2.80712 42.2802 2.18829 41.8327 1.66738 41.2445C1.14812 40.653 0.739133 39.9217 0.443706 39.0464C0.149924 38.1679 0.000976562 37.1585 0.000976562 36.0117C0.000976562 34.865 0.149924 33.8326 0.443706 32.954C0.739133 32.0787 1.14812 31.3433 1.66738 30.7427C2.18829 30.1447 2.80795 29.6939 3.528 29.3903C4.24887 29.0868 5.03476 28.9362 5.88401 28.9362V28.9346ZM6.22223 41.0866C6.74313 41.0866 7.18915 41.0216 7.56358 40.8908C7.93636 40.76 8.25318 40.5938 8.51323 40.384C8.77491 40.1751 8.99052 39.9398 9.16498 39.6815C9.33779 39.4199 9.49332 39.1591 9.63239 38.9008H10.466V33.07H9.63239C9.49332 32.8117 9.33861 32.5509 9.16498 32.2893C8.99052 32.031 8.77409 31.7957 8.51323 31.5868C8.25318 31.3811 7.93636 31.2108 7.56358 31.08C7.18915 30.9492 6.74313 30.8842 6.22223 30.8842C5.70132 30.8842 5.2372 30.9854 4.77801 31.1845C4.31882 31.3836 3.91065 31.6912 3.55433 32.1091C3.19801 32.5238 2.91246 33.0568 2.69521 33.7067C2.4796 34.3599 2.37015 35.1274 2.37015 36.0101C2.37015 36.8928 2.4796 37.6562 2.69521 38.2904C2.91246 38.9206 3.19883 39.4471 3.55433 39.8617C3.91065 40.2796 4.31882 40.5872 4.77801 40.7863C5.2372 40.9854 5.71942 41.0866 6.22223 41.0866Z"
            fill="white" />
        <path
            d="M16.6089 24.1452H19.499V27.0327C19.499 27.5517 19.4422 28.0453 19.3294 28.5027C19.2167 28.9634 19.0439 29.3648 18.8102 29.7144C18.5748 30.0608 18.2811 30.338 17.9247 30.5478C17.5684 30.7534 17.1388 30.8579 16.6352 30.8579V29.5581C16.9306 29.5581 17.1726 29.4833 17.3643 29.336C17.5552 29.1888 17.7124 28.993 17.8334 28.7511C17.9544 28.5093 18.0375 28.2353 18.0819 27.931C18.1247 27.6274 18.1453 27.3296 18.1453 27.0327H16.6097V24.1452H16.6089Z"
            fill="white" />
        <path
            d="M33.7126 36.6632H23.5611C23.6475 38.0157 24.0252 39.09 24.6934 39.8872C25.3616 40.6876 26.303 41.0857 27.5168 41.0857C27.9168 41.0857 28.3159 41.0331 28.7142 40.9286C29.1141 40.8241 29.482 40.6604 29.8202 40.435C30.1601 40.2096 30.4489 39.9316 30.6925 39.6017C30.9361 39.2718 31.1006 38.8893 31.1879 38.4549H33.4525C33.3316 39.1838 33.0831 39.8304 32.7111 40.3955C32.3367 40.9574 31.8857 41.4345 31.3566 41.8261C30.8274 42.2152 30.2341 42.5155 29.5741 42.7244C28.9142 42.9301 28.2295 43.0346 27.5168 43.0346C26.5804 43.0346 25.7295 42.8709 24.9666 42.541C24.2038 42.2111 23.552 41.7438 23.0138 41.1359C22.4765 40.528 22.0593 39.7901 21.7638 38.9247C21.4701 38.056 21.3228 37.0853 21.3228 36.0076C21.3228 34.9299 21.4701 33.9592 21.7638 33.0807C22.0593 32.2054 22.4765 31.4634 23.0138 30.8563C23.5512 30.2483 24.203 29.7819 24.9666 29.4512C25.7295 29.1213 26.5812 28.9576 27.5168 28.9576C28.4525 28.9576 29.2746 29.118 30.03 29.438C30.7847 29.758 31.4356 30.2154 31.9828 30.8036C32.5284 31.3951 32.9547 32.1132 33.2592 32.963C33.5612 33.8153 33.7134 34.7695 33.7134 35.8283V36.6616L33.7126 36.6632ZM31.4479 34.7095C31.3796 34.2587 31.257 33.8079 31.0834 33.3571C30.9106 32.9063 30.667 32.4982 30.3543 32.1355C30.0424 31.7694 29.6515 31.4757 29.1824 31.2503C28.7134 31.0249 28.1579 30.9105 27.516 30.9105C26.3886 30.9105 25.4999 31.2503 24.8481 31.9265C24.198 32.6027 23.7857 33.5306 23.6129 34.7095H31.4471H31.4479Z"
            fill="white" />
        <path
            d="M41.8348 28.9601C42.4429 28.9601 43.0453 29.0251 43.6435 29.1526C44.2434 29.2834 44.7857 29.4923 45.2713 29.7794C45.7568 30.0632 46.1468 30.4425 46.4431 30.9097C46.7369 31.3803 46.8858 31.9586 46.8858 32.6545V42.7261H44.6738V40.5403H43.8665C43.502 41.4419 42.9465 42.082 42.2001 42.4645C41.4537 42.847 40.6465 43.0362 39.7783 43.0362C39.3454 43.0362 38.8764 42.9712 38.3727 42.8437C37.8691 42.7129 37.4009 42.4875 36.9672 42.1642C36.5327 41.8442 36.1682 41.4033 35.8727 40.8381C35.5789 40.2763 35.4316 39.5606 35.4316 38.6919C35.4316 37.3395 35.9172 36.3498 36.889 35.7254C37.8609 35.1019 39.2055 34.7876 40.923 34.7876H44.673V33.1481C44.673 32.7171 44.5849 32.3543 44.4113 32.0705C44.2385 31.7834 44.0081 31.5547 43.7217 31.3811C43.4361 31.2051 43.1185 31.0841 42.7721 31.015C42.424 30.9467 42.0775 30.9106 41.7294 30.9106C40.7929 30.9106 40.012 31.0899 39.3866 31.4428C38.7628 31.799 38.4147 32.4719 38.3456 33.4615H36.1336C36.1682 32.6282 36.3459 31.9265 36.666 31.3548C36.9878 30.7798 37.4042 30.3158 37.916 29.9596C38.4271 29.6067 39.022 29.3484 39.7001 29.1921C40.3765 29.0382 41.0875 28.9601 41.8339 28.9601H41.8348ZM44.6722 38.9008V36.4016H41.2102C40.6893 36.4016 40.212 36.4378 39.7775 36.5061C39.3446 36.5744 38.9669 36.6953 38.6451 36.8689C38.325 37.045 38.0765 37.2769 37.9037 37.5714C37.7309 37.8684 37.6436 38.2411 37.6436 38.6919C37.6436 38.9856 37.6914 39.2768 37.7877 39.5639C37.8823 39.8477 38.0345 40.1027 38.2419 40.3182C38.4509 40.5338 38.7159 40.7131 39.036 40.8505C39.3578 40.9911 39.7437 41.0594 40.1947 41.0594C40.8892 41.0594 41.4579 40.9714 41.9006 40.7978C42.3433 40.6251 42.698 40.4186 42.9679 40.1743C43.2378 39.9324 43.437 39.6873 43.5662 39.4454C43.697 39.2035 43.7966 39.0209 43.8665 38.9H44.6738L44.6722 38.9008Z"
            fill="white" />
        <path
            d="M50.0072 38.0157V29.2711H52.1953V38.2773C52.1953 38.571 52.2167 38.8819 52.2587 39.2118C52.3031 39.5417 52.4076 39.8419 52.5722 40.1101C52.736 40.3816 52.9919 40.607 53.34 40.7863C53.6864 40.9689 54.1637 41.0611 54.771 41.0611C55.4475 41.0611 55.9898 40.9731 56.3988 40.7995C56.8053 40.6267 57.1279 40.4202 57.3608 40.1759C57.5961 39.9341 57.759 39.6889 57.8562 39.4471C57.9508 39.2052 58.0248 39.0226 58.0767 38.9017H58.9358V29.2719H61.1223V42.7277H58.9358V40.542H58.0767C57.7302 41.4436 57.2398 42.0836 56.6061 42.4661C55.9725 42.8487 55.222 43.0379 54.3546 43.0379C53.7646 43.0379 53.2042 42.9564 52.6751 42.7927C52.1459 42.6257 51.6818 42.3485 51.2827 41.9594C50.8828 41.567 50.57 41.0512 50.3446 40.4112C50.1191 39.7679 50.0063 38.9708 50.0063 38.0165L50.0072 38.0157Z"
            fill="white" />
        <path
            d="M77.2531 29.0572C77.7222 29.0572 78.1649 29.1287 78.5813 29.276C78.9977 29.4265 79.3656 29.619 79.6873 29.8642C80.0074 30.106 80.2823 30.3799 80.5078 30.6843C80.7333 30.9879 80.8987 31.2857 81.0015 31.5794H81.8351V24.2686H84.0488V42.8495H81.8351V40.6382H81.0015C80.8987 40.9319 80.7333 41.233 80.5078 41.5333C80.2823 41.8368 80.0074 42.1116 79.6873 42.3534C79.3656 42.5986 78.9977 42.7944 78.5813 42.9416C78.1649 43.0889 77.7222 43.1604 77.2531 43.1604C76.4039 43.1604 75.618 43.0099 74.8971 42.7063C74.1763 42.4028 73.5574 41.9553 73.0365 41.3671C72.5173 40.7756 72.1083 40.0443 71.8128 39.169C71.5191 38.2904 71.3701 37.281 71.3701 36.1343C71.3701 34.9875 71.5191 33.9551 71.8128 33.0765C72.1083 32.2013 72.5173 31.4658 73.0365 30.8653C73.5574 30.2672 74.1771 29.8164 74.8971 29.5129C75.618 29.2093 76.4039 29.0588 77.2531 29.0588V29.0572ZM77.5914 41.2091C78.1123 41.2091 78.5583 41.1441 78.9327 41.0133C79.3055 40.8825 79.6223 40.7164 79.8824 40.5066C80.1441 40.2977 80.3597 40.0624 80.5341 39.8041C80.7069 39.5425 80.8625 39.2817 81.0015 39.0234H81.8351V33.1925H81.0015C80.8625 32.9342 80.7078 32.6735 80.5341 32.4119C80.3597 32.1536 80.1432 31.9183 79.8824 31.7093C79.6223 31.5037 79.3055 31.3334 78.9327 31.2026C78.5583 31.0718 78.1123 31.0068 77.5914 31.0068C77.0705 31.0068 76.6063 31.108 76.1471 31.3071C75.688 31.5061 75.2798 31.8138 74.9235 32.2317C74.5671 32.6463 74.2816 33.1794 74.0643 33.8293C73.8487 34.4824 73.7393 35.25 73.7393 36.1326C73.7393 37.0153 73.8487 37.7787 74.0643 38.413C74.2816 39.0431 74.568 39.5696 74.9235 39.9842C75.2798 40.4021 75.688 40.7098 76.1471 40.9089C76.6063 41.1079 77.0886 41.2091 77.5914 41.2091Z"
            fill="white" />
        <path
            d="M93.264 29.0827C93.9223 29.0827 94.63 29.1937 95.3846 29.4191C96.1392 29.6445 96.847 30.0303 97.5069 30.579C98.1653 31.1245 98.7125 31.85 99.1454 32.7516C99.5799 33.6532 99.7971 34.7803 99.7971 36.1327C99.7971 37.4851 99.5799 38.6121 99.1454 39.5038C98.7125 40.3989 98.1653 41.1178 97.5069 41.6632C96.847 42.2119 96.1392 42.5978 95.3846 42.8232C94.63 43.0486 93.9223 43.1596 93.264 43.1596C92.6056 43.1596 91.9177 43.0486 91.1548 42.8232C90.392 42.5978 89.6843 42.2119 89.0342 41.6632C88.3824 41.1178 87.8401 40.3989 87.4065 39.5038C86.972 38.6121 86.7563 37.4884 86.7563 36.1327C86.7563 34.777 86.972 33.6532 87.4065 32.7516C87.8393 31.85 88.3816 31.1245 89.0342 30.579C89.6843 30.0303 90.392 29.6445 91.1548 29.4191C91.9177 29.1937 92.6221 29.0827 93.264 29.0827ZM93.264 41.2092C93.9223 41.2092 94.5173 41.0882 95.0464 40.8431C95.5755 40.6012 96.0265 40.2582 96.3993 39.8173C96.7737 39.373 97.0642 38.8408 97.2716 38.2164C97.4806 37.5928 97.5835 36.8969 97.5835 36.1327C97.5835 35.3684 97.4806 34.6495 97.2716 34.0259C97.0642 33.4023 96.7729 32.8693 96.3993 32.425C96.0265 31.9841 95.5755 31.6411 95.0464 31.3992C94.5173 31.1541 93.9223 31.0331 93.264 31.0331C92.6056 31.0331 92.0304 31.1541 91.4931 31.3992C90.9557 31.6411 90.4998 31.9841 90.127 32.425C89.7526 32.8693 89.4637 33.4015 89.2547 34.0259C89.0473 34.6495 88.9428 35.352 88.9428 36.1327C88.9428 36.9133 89.0473 37.5928 89.2547 38.2164C89.4637 38.84 89.7534 39.373 90.127 39.8173C90.4998 40.2582 90.9557 40.6012 91.4931 40.8431C92.0304 41.0882 92.6221 41.2092 93.264 41.2092Z"
            fill="white" />
        <path
            d="M102.165 38.1382V29.3936H104.354V38.3998C104.354 38.6935 104.375 39.0045 104.417 39.3344C104.461 39.6642 104.566 39.9645 104.73 40.2327C104.894 40.5041 105.15 40.7295 105.498 40.9089C105.845 41.0915 106.322 41.1836 106.929 41.1836C107.606 41.1836 108.148 41.0956 108.557 40.922C108.963 40.7493 109.286 40.5428 109.519 40.2985C109.754 40.0566 109.917 39.8115 110.014 39.5696C110.109 39.3278 110.183 39.1451 110.235 39.0242H111.094V29.3944H113.281V42.8503H111.094V40.6646H110.235C109.888 41.5662 109.398 42.2062 108.764 42.5887C108.131 42.9712 107.38 43.1604 106.513 43.1604C105.923 43.1604 105.362 43.079 104.833 42.9153C104.304 42.7483 103.84 42.4711 103.441 42.082C103.041 41.6896 102.728 41.1738 102.503 40.5338C102.277 39.8905 102.165 39.0933 102.165 38.1391L102.165 38.1382Z"
            fill="white" />
        <path
            d="M128.225 37.9293C128.12 38.71 127.89 39.4257 127.534 40.0756C127.179 40.7287 126.728 41.2774 126.181 41.7282C125.633 42.179 125.017 42.532 124.332 42.7837C123.646 43.0354 122.923 43.1596 122.157 43.1596C121.221 43.1596 120.37 42.9959 119.607 42.666C118.844 42.3362 118.193 41.8689 117.654 41.261C117.117 40.6531 116.7 39.9151 116.404 39.0497C116.111 38.181 115.963 37.2103 115.963 36.1327C115.963 34.953 116.127 33.9214 116.457 33.0387C116.787 32.1536 117.235 31.4148 117.798 30.8242C118.362 30.236 119.022 29.7984 119.777 29.5113C120.531 29.2242 121.325 29.0835 122.157 29.0835C122.904 29.0835 123.612 29.1649 124.28 29.3286C124.948 29.4956 125.546 29.763 126.075 30.1356C126.605 30.5116 127.047 30.9912 127.404 31.5794C127.758 32.1708 127.989 32.889 128.093 33.7421H125.802C125.629 32.8898 125.238 32.226 124.63 31.7497C124.022 31.2725 123.199 31.034 122.157 31.034C121.55 31.034 120.998 31.1549 120.505 31.4C120.01 31.6419 119.588 31.9849 119.242 32.4259C118.894 32.8701 118.626 33.4023 118.435 34.0267C118.244 34.6503 118.149 35.3528 118.149 36.1335C118.149 37.6784 118.491 38.9099 119.177 39.8312C119.863 40.7493 120.856 41.21 122.157 41.21C122.747 41.21 123.268 41.1154 123.719 40.9229C124.17 40.7337 124.553 40.4852 124.865 40.1817C125.178 39.8781 125.425 39.5318 125.606 39.1427C125.789 38.7503 125.907 38.3488 125.959 37.9309H128.224L128.225 37.9293Z"
            fill="white" />
        <path
            d="M142.358 36.7858H132.206C132.293 38.1382 132.67 39.2126 133.338 40.0097C134.007 40.8102 134.948 41.2083 136.162 41.2083C136.562 41.2083 136.961 41.1557 137.359 41.0512C137.759 40.9467 138.127 40.783 138.465 40.5576C138.805 40.3322 139.094 40.0542 139.338 39.7243C139.581 39.3944 139.746 39.0119 139.833 38.5775H142.098C141.977 39.3064 141.728 39.953 141.356 40.5181C140.982 41.08 140.531 41.5571 140.002 41.9487C139.472 42.3378 138.879 42.6381 138.219 42.847C137.559 43.0527 136.875 43.1572 136.162 43.1572C135.225 43.1572 134.374 42.9934 133.612 42.6636C132.849 42.3337 132.197 41.8664 131.659 41.2585C131.122 40.6506 130.704 39.9127 130.409 39.0473C130.115 38.1786 129.968 37.2078 129.968 36.1302C129.968 35.0525 130.115 34.0818 130.409 33.2033C130.704 32.328 131.122 31.5859 131.659 30.9788C132.196 30.3709 132.848 29.9045 133.612 29.5738C134.374 29.2439 135.226 29.0802 136.162 29.0802C137.098 29.0802 137.92 29.2406 138.675 29.5606C139.43 29.8806 140.081 30.338 140.628 30.9262C141.173 31.5177 141.6 32.2358 141.904 33.0856C142.206 33.9379 142.358 34.8921 142.358 35.9509V36.7842L142.358 36.7858ZM140.093 34.8321C140.025 34.3813 139.902 33.9305 139.728 33.4797C139.555 33.0289 139.312 32.6208 138.999 32.258C138.687 31.892 138.297 31.5983 137.827 31.3729C137.358 31.1475 136.803 31.0331 136.161 31.0331C135.034 31.0331 134.145 31.3729 133.493 32.0491C132.843 32.7253 132.431 33.6532 132.258 34.8321H140.092H140.093Z"
            fill="white" />
        <path
            d="M143.791 46.4386H145.093C145.353 46.4386 145.562 46.3736 145.717 46.2429C145.874 46.1153 145.999 45.9459 146.094 45.7361C146.191 45.5272 146.255 45.2886 146.29 45.0204C146.325 44.7522 146.343 44.4783 146.343 44.2002V39.4372C146.343 38.8293 146.434 38.3135 146.616 37.889C146.799 37.4645 147.011 37.1149 147.253 36.8368C147.497 36.5588 147.743 36.3498 147.994 36.21C148.246 36.0726 148.45 35.9846 148.608 35.9517V35.8735C148.45 35.8571 148.246 35.7855 147.994 35.6646C147.743 35.5436 147.496 35.3479 147.253 35.0797C147.011 34.8115 146.799 34.4594 146.616 34.0242C146.435 33.5932 146.343 33.0445 146.343 32.3847V27.6743C146.343 27.3806 146.325 27.0993 146.29 26.8311C146.254 26.5596 146.191 26.3186 146.094 26.1022C146 25.8834 145.874 25.7099 145.717 25.5799C145.561 25.4491 145.352 25.3841 145.093 25.3841H143.791V23.8227H145.615C145.943 23.8227 146.273 23.8976 146.603 24.0448C146.933 24.1921 147.232 24.4109 147.502 24.6947C147.77 24.9818 147.992 25.338 148.165 25.7633C148.338 26.1878 148.425 26.6781 148.425 27.2334V31.9701C148.425 32.4374 148.485 32.8618 148.608 33.2444C148.729 33.6269 148.889 33.9535 149.09 34.2208C149.289 34.489 149.518 34.6947 149.779 34.8321C150.039 34.9727 150.309 35.041 150.587 35.041V36.8113C150.309 36.8113 150.039 36.8829 149.779 37.0301C149.518 37.1774 149.289 37.3863 149.09 37.657C148.889 37.9252 148.729 38.2452 148.608 38.617C148.485 38.993 148.425 39.4043 148.425 39.8551V44.5885C148.425 45.1438 148.338 45.6341 148.165 46.0619C147.992 46.4864 147.77 46.8426 147.502 47.1272C147.232 47.4143 146.933 47.6306 146.603 47.7771C146.273 47.9243 145.943 47.9992 145.615 47.9992H143.791V46.4378V46.4386Z"
            fill="white" />
        <path
            d="M157.975 12.4391C158.307 8.33495 155.247 4.73921 151.142 4.40769L99.7985 0.264892C95.693 -0.0666306 92.096 2.99193 91.7644 7.09606C91.4327 11.2002 94.4923 14.7959 98.5979 15.1275L149.941 19.2703C154.047 19.6018 157.644 16.5432 157.975 12.4391Z"
            fill="#E95A0C" />
        <path
            d="M107.981 19.3994C107.698 19.6931 107.232 19.7071 106.931 19.4323L102.416 15.3126L111.296 15.9707L107.982 19.4002L107.981 19.3994Z"
            fill="#E95A0C" />
        <path d="M99.1296 9.18143L100.117 9.26122L100.037 10.2484L99.0498 10.1686L99.1296 9.18143Z" fill="white" />
        <path
            d="M103.664 5.80698C103.871 5.82343 104.076 5.8621 104.277 5.92297C104.479 5.98385 104.658 6.07022 104.817 6.1821C104.975 6.29233 105.098 6.433 105.185 6.60082C105.273 6.76946 105.306 6.97183 105.287 7.20957L105.009 10.6507L104.254 10.5898L104.314 9.84283L104.038 9.82062C103.889 10.1192 103.681 10.3224 103.415 10.4318C103.15 10.5412 102.869 10.5848 102.573 10.561C102.425 10.5487 102.266 10.5133 102.098 10.4549C101.929 10.3973 101.775 10.3068 101.636 10.1859C101.497 10.0641 101.384 9.90288 101.3 9.70216C101.215 9.50144 101.184 9.253 101.207 8.95603C101.245 8.49371 101.439 8.16959 101.788 7.98203C102.137 7.79611 102.605 7.72619 103.192 7.7739L104.473 7.87755L104.518 7.31734C104.53 7.16926 104.511 7.04505 104.459 6.94222C104.408 6.83939 104.335 6.75383 104.242 6.6872C104.15 6.61974 104.046 6.57038 103.929 6.53583C103.811 6.50293 103.694 6.48072 103.575 6.47167C103.255 6.44617 102.984 6.48565 102.76 6.58931C102.537 6.6946 102.401 6.91425 102.349 7.24988L101.593 7.18901C101.628 6.90602 101.709 6.66992 101.834 6.48401C101.959 6.29645 102.114 6.15002 102.299 6.04225C102.484 5.93531 102.694 5.86374 102.93 5.83001C103.165 5.79546 103.41 5.78806 103.666 5.80862L103.664 5.80698ZM104.359 9.28179L104.428 8.4279L103.246 8.33247C103.067 8.31766 102.904 8.31602 102.754 8.32836C102.604 8.3407 102.471 8.37114 102.356 8.42214C102.242 8.4715 102.151 8.54553 102.083 8.64096C102.016 8.73721 101.977 8.86225 101.965 9.01608C101.956 9.11644 101.964 9.21763 101.989 9.31799C102.013 9.41835 102.058 9.50802 102.124 9.58781C102.189 9.66843 102.275 9.73589 102.381 9.79183C102.486 9.84941 102.617 9.88232 102.772 9.89548C103.009 9.9144 103.205 9.90124 103.361 9.85435C103.517 9.80664 103.644 9.74494 103.743 9.67008C103.842 9.5944 103.917 9.51707 103.967 9.43809C104.018 9.35748 104.057 9.29907 104.085 9.25876L104.361 9.28097L104.359 9.28179Z"
            fill="white" />
        <path
            d="M110.191 10.584C110.148 11.3499 109.944 11.9208 109.587 12.2943C109.228 12.6678 108.676 12.8249 107.928 12.764C107.715 12.7467 107.5 12.7048 107.286 12.6406C107.07 12.5756 106.877 12.4818 106.708 12.3609C106.539 12.2408 106.403 12.0886 106.302 11.9076C106.2 11.7267 106.153 11.5111 106.162 11.2619L106.918 11.3228C106.912 11.4593 106.945 11.5786 107.015 11.6798C107.084 11.7801 107.172 11.8657 107.281 11.9331C107.388 12.0022 107.508 12.0557 107.639 12.0927C107.769 12.1306 107.895 12.1528 108.014 12.1627C108.264 12.1832 108.474 12.1561 108.647 12.0845C108.82 12.0113 108.963 11.9035 109.071 11.7612C109.182 11.6173 109.265 11.4396 109.321 11.2265C109.377 11.0126 109.414 10.779 109.435 10.524L109.465 10.1505L109.182 10.1275C109.138 10.2254 109.075 10.3216 108.993 10.4162C108.911 10.5108 108.81 10.5964 108.694 10.6704C108.578 10.7444 108.447 10.8004 108.301 10.8399C108.155 10.8777 108.001 10.8909 107.841 10.8785C107.586 10.858 107.346 10.7897 107.118 10.6729C106.892 10.5561 106.699 10.3932 106.536 10.1826C106.373 9.97363 106.253 9.71697 106.172 9.41588C106.092 9.11315 106.068 8.766 106.1 8.37525C106.132 7.97873 106.212 7.63816 106.339 7.35189C106.468 7.06725 106.627 6.83363 106.821 6.65182C107.016 6.47167 107.233 6.34169 107.475 6.26189C107.718 6.18292 107.966 6.15413 108.22 6.17469C108.38 6.18786 108.529 6.22487 108.668 6.28657C108.805 6.34909 108.926 6.4256 109.029 6.51691C109.132 6.60822 109.218 6.70776 109.284 6.8147C109.349 6.92247 109.396 7.02777 109.423 7.13142L109.707 7.15445L109.767 6.4075L110.525 6.46837L110.192 10.5848L110.191 10.584ZM109.508 9.59851L109.661 7.70562L109.377 7.68259C109.337 7.58963 109.291 7.49585 109.238 7.40207C109.187 7.30829 109.119 7.22438 109.036 7.14869C108.952 7.07384 108.849 7.01049 108.729 6.95867C108.607 6.90766 108.457 6.87393 108.28 6.85995C108.108 6.84596 107.944 6.86489 107.788 6.91507C107.632 6.96442 107.493 7.05162 107.373 7.17666C107.253 7.30171 107.151 7.46788 107.068 7.67518C106.986 7.88413 106.932 8.13833 106.908 8.44023C106.884 8.74214 106.895 9.00209 106.944 9.21763C106.992 9.43316 107.066 9.61249 107.165 9.75481C107.263 9.89712 107.387 10.0049 107.532 10.0797C107.679 10.1546 107.839 10.199 108.011 10.213C108.187 10.227 108.341 10.218 108.469 10.1875C108.596 10.1554 108.708 10.1094 108.802 10.0493C108.897 9.98761 108.977 9.9144 109.043 9.83131C109.111 9.74658 109.171 9.66185 109.225 9.57712L109.509 9.60015L109.508 9.59851Z"
            fill="white" />
        <path
            d="M115.478 9.40929L112.009 9.12959C112.001 9.59438 112.1 9.97197 112.306 10.2632C112.512 10.5544 112.824 10.7165 113.238 10.7502C113.374 10.7609 113.512 10.7543 113.651 10.7296C113.79 10.7049 113.921 10.6589 114.042 10.5922C114.165 10.524 114.272 10.4376 114.363 10.3306C114.455 10.2253 114.522 10.0995 114.564 9.95305L115.338 10.0156C115.275 10.2615 115.174 10.4754 115.031 10.6572C114.887 10.8407 114.72 10.9912 114.529 11.1089C114.337 11.2281 114.126 11.3137 113.895 11.3663C113.664 11.4198 113.426 11.4363 113.183 11.4165C112.863 11.391 112.578 11.3096 112.325 11.1771C112.074 11.0439 111.864 10.8654 111.697 10.6432C111.53 10.4211 111.408 10.1579 111.331 9.85351C111.254 9.54831 111.23 9.2135 111.259 8.84496C111.289 8.47806 111.367 8.14819 111.491 7.85697C111.616 7.56576 111.779 7.32391 111.979 7.13059C112.179 6.93809 112.415 6.7966 112.685 6.70446C112.954 6.61315 113.25 6.58106 113.57 6.60657C113.885 6.63207 114.167 6.71022 114.416 6.8402C114.664 6.97017 114.875 7.14375 115.045 7.3601C115.216 7.5781 115.341 7.83558 115.421 8.1342C115.501 8.43282 115.528 8.76352 115.499 9.12383L115.476 9.40929H115.478ZM114.757 8.67961C114.747 8.52331 114.717 8.36619 114.671 8.20742C114.623 8.04865 114.552 7.90304 114.455 7.76977C114.358 7.63733 114.233 7.52463 114.079 7.43578C113.924 7.34612 113.739 7.29182 113.518 7.27372C113.133 7.24246 112.82 7.33378 112.579 7.54684C112.339 7.76073 112.172 8.06675 112.079 8.46408L114.757 8.68043L114.757 8.67961Z"
            fill="white" />
        <path
            d="M120.222 8.87046L119.981 11.8583L119.234 11.7982L119.482 8.72156C119.49 8.6212 119.493 8.51344 119.49 8.40074C119.487 8.28639 119.459 8.18192 119.408 8.08484C119.355 7.9886 119.274 7.90386 119.16 7.83312C119.046 7.76073 118.885 7.7163 118.679 7.69903C118.447 7.68011 118.26 7.69574 118.114 7.74345C117.97 7.79199 117.855 7.85368 117.768 7.93101C117.681 8.00752 117.618 8.08402 117.58 8.16053C117.541 8.23785 117.51 8.29955 117.488 8.34644L117.195 8.32259L116.929 11.6123L116.182 11.5523L116.552 6.96277L117.3 7.02282L117.24 7.76155L117.533 7.7854C117.676 7.48679 117.862 7.28113 118.089 7.1676C118.314 7.0549 118.578 7.01048 118.873 7.03434C119.08 7.05079 119.271 7.09439 119.445 7.16514C119.619 7.23588 119.768 7.34365 119.893 7.48761C120.019 7.63239 120.112 7.81831 120.171 8.04371C120.231 8.26911 120.247 8.5447 120.221 8.87128L120.222 8.87046Z"
            fill="white" />
        <path
            d="M125.205 10.5881C125.149 10.8514 125.049 11.09 124.91 11.303C124.77 11.5144 124.601 11.6913 124.402 11.8303C124.202 11.9694 123.982 12.0722 123.74 12.1396C123.499 12.2063 123.248 12.2293 122.986 12.2087C122.666 12.1832 122.38 12.1018 122.128 11.9694C121.877 11.8361 121.667 11.6576 121.5 11.4355C121.333 11.2134 121.211 10.9501 121.134 10.6457C121.056 10.3414 121.032 10.0057 121.062 9.63718C121.095 9.23491 121.179 8.88611 121.317 8.59326C121.454 8.29875 121.627 8.06019 121.836 7.87345C122.045 7.68753 122.282 7.55673 122.548 7.47941C122.813 7.40208 123.089 7.37575 123.373 7.39879C123.628 7.41935 123.867 7.46707 124.091 7.5411C124.315 7.61596 124.513 7.72373 124.683 7.86605C124.853 8.00918 124.991 8.18605 125.097 8.39665C125.201 8.60806 125.261 8.85979 125.273 9.15347L124.49 9.09013C124.454 8.7948 124.338 8.55706 124.144 8.37772C123.951 8.19839 123.676 8.09392 123.319 8.06512C123.111 8.04867 122.92 8.07499 122.744 8.1441C122.569 8.2132 122.416 8.31932 122.285 8.46081C122.154 8.60148 122.046 8.77588 121.964 8.98483C121.882 9.19213 121.831 9.4307 121.809 9.69723C121.767 10.2245 121.849 10.6556 122.058 10.988C122.267 11.3219 122.594 11.5054 123.038 11.5416C123.24 11.558 123.421 11.5408 123.579 11.4881C123.739 11.4346 123.877 11.3606 123.991 11.266C124.106 11.1706 124.2 11.0587 124.273 10.9295C124.346 10.802 124.397 10.6679 124.426 10.5265L125.201 10.589L125.205 10.5881Z"
            fill="white" />
        <path
            d="M130.067 10.5865L126.598 10.3068C126.59 10.7716 126.689 11.1492 126.895 11.4404C127.101 11.7316 127.412 11.8937 127.826 11.9274C127.963 11.9381 128.1 11.9315 128.239 11.9068C128.379 11.8822 128.509 11.8361 128.631 11.7695C128.754 11.7012 128.861 11.6148 128.952 11.5079C129.044 11.4026 129.111 11.2767 129.153 11.1303L129.926 11.1928C129.864 11.4388 129.763 11.6526 129.62 11.8344C129.476 12.0179 129.309 12.1684 129.118 12.2861C128.926 12.4054 128.715 12.4909 128.484 12.5436C128.253 12.597 128.015 12.6135 127.772 12.5937C127.452 12.5682 127.166 12.4868 126.914 12.3543C126.663 12.2211 126.453 12.0426 126.286 11.8205C126.119 11.5983 125.997 11.3351 125.92 11.0307C125.843 10.7255 125.818 10.3907 125.848 10.0222C125.878 9.65363 125.956 9.3254 126.08 9.03419C126.205 8.74298 126.368 8.50112 126.568 8.3078C126.768 8.1153 127.004 7.97381 127.273 7.88168C127.543 7.79036 127.839 7.75828 128.159 7.78378C128.474 7.80928 128.756 7.88743 129.005 8.01741C129.253 8.14739 129.464 8.32096 129.634 8.53732C129.805 8.75532 129.93 9.0128 130.01 9.31142C130.09 9.61003 130.117 9.94073 130.088 10.301L130.065 10.5865H130.067ZM129.346 9.85683C129.336 9.70052 129.306 9.5434 129.26 9.38463C129.212 9.22586 129.141 9.08026 129.043 8.94699C128.946 8.81455 128.822 8.70184 128.667 8.613C128.513 8.52333 128.328 8.46904 128.107 8.45094C127.722 8.41968 127.409 8.51099 127.168 8.72406C126.928 8.93794 126.761 9.24396 126.668 9.64129L129.346 9.85765L129.346 9.85683Z"
            fill="white" />
        <path d="M130.848 9.88806L133.419 10.0954L133.361 10.8078L130.791 10.6005L130.848 9.88806Z" fill="white" />
        <path
            d="M140.651 8.89928L139.284 13.4156L137.851 13.2996L137.359 9.30402L137.243 9.29497L136.125 13.1605L134.693 13.0445L134.069 8.36786L134.878 8.43285L135.325 12.4251L135.618 12.449L136.693 8.57928L138.028 8.68704L138.457 12.6777L138.75 12.7015L139.842 8.83347L140.652 8.89928H140.651Z"
            fill="white" />
        <path
            d="M145.074 11.7974L141.605 11.5177C141.596 11.9825 141.696 12.3601 141.902 12.6513C142.107 12.9425 142.419 13.1046 142.833 13.1383C142.97 13.149 143.107 13.1424 143.246 13.1177C143.385 13.0931 143.516 13.047 143.638 12.9804C143.761 12.9121 143.868 12.8257 143.959 12.7188C144.051 12.6135 144.118 12.4876 144.16 12.3412L144.933 12.4037C144.871 12.6497 144.77 12.8635 144.626 13.0454C144.483 13.2288 144.316 13.3793 144.124 13.497C143.933 13.6163 143.722 13.7018 143.491 13.7545C143.26 13.8079 143.022 13.8244 142.779 13.8046C142.459 13.7791 142.173 13.6977 141.921 13.5653C141.67 13.432 141.46 13.2535 141.293 13.0314C141.126 12.8093 141.004 12.546 140.927 12.2416C140.85 11.9364 140.825 11.6016 140.855 11.2331C140.885 10.8662 140.963 10.5363 141.087 10.2451C141.212 9.95388 141.375 9.71203 141.575 9.51871C141.775 9.32621 142.011 9.18472 142.28 9.09258C142.55 9.00127 142.846 8.96919 143.166 8.99469C143.481 9.02019 143.763 9.09834 144.012 9.22832C144.26 9.35829 144.471 9.53187 144.64 9.74822C144.812 9.96622 144.937 10.2237 145.016 10.5223C145.097 10.8209 145.123 11.1516 145.095 11.512L145.072 11.7974H145.074ZM144.353 11.0677C144.342 10.9114 144.313 10.7543 144.267 10.5955C144.219 10.4368 144.147 10.2912 144.05 10.1579C143.953 10.0255 143.829 9.91275 143.674 9.82391C143.52 9.73506 143.334 9.67995 143.114 9.66185C142.729 9.63059 142.416 9.7219 142.175 9.93496C141.935 10.1488 141.768 10.4549 141.675 10.8522L144.352 11.0686L144.353 11.0677Z"
            fill="white" />
        <path
            d="M148.489 9.41506C148.786 9.43892 149.053 9.51296 149.29 9.63635C149.528 9.75975 149.727 9.93086 149.889 10.1505C150.051 10.3685 150.169 10.6326 150.246 10.9394C150.322 11.2471 150.345 11.6 150.313 11.9965C150.282 12.3872 150.203 12.7286 150.078 13.0199C149.953 13.3111 149.794 13.5513 149.599 13.738C149.404 13.9248 149.18 14.0605 148.926 14.1452C148.672 14.2283 148.396 14.2587 148.099 14.2349C147.939 14.2217 147.791 14.1847 147.656 14.1222C147.52 14.0613 147.4 13.9848 147.294 13.8919C147.189 13.7997 147.101 13.6994 147.036 13.5899C146.971 13.4797 146.924 13.3728 146.896 13.2699L146.604 13.2461L146.543 14.0013L145.795 13.9412L146.308 7.59293L147.055 7.65298L146.854 10.1513L147.147 10.1752C147.19 10.0773 147.254 9.97857 147.336 9.8815C147.418 9.78443 147.52 9.69723 147.639 9.62401C147.759 9.54998 147.889 9.49404 148.034 9.45455C148.177 9.41589 148.329 9.40273 148.489 9.41589V9.41506ZM148.048 13.5587C148.219 13.5727 148.387 13.5529 148.549 13.4962C148.711 13.441 148.857 13.3464 148.988 13.2132C149.118 13.0816 149.229 12.9096 149.32 12.699C149.411 12.4884 149.471 12.2326 149.495 11.9299C149.52 11.628 149.503 11.3622 149.447 11.1344C149.391 10.9057 149.31 10.7157 149.201 10.5635C149.094 10.4121 148.965 10.2953 148.814 10.2155C148.662 10.134 148.5 10.0863 148.329 10.0724C148.144 10.0575 147.987 10.0674 147.856 10.102C147.725 10.1365 147.612 10.1851 147.517 10.2492C147.423 10.3134 147.344 10.3866 147.28 10.4713C147.217 10.5561 147.157 10.6408 147.103 10.7263L146.81 10.7025L146.65 12.6941L146.943 12.7179C146.983 12.8109 147.027 12.9047 147.077 12.9968C147.127 13.0906 147.193 13.177 147.275 13.2551C147.358 13.3333 147.462 13.3999 147.586 13.455C147.71 13.5101 147.863 13.5439 148.049 13.5587H148.048Z"
            fill="white" />
    </g>
    <defs>
        <clipPath id="clip0_1952_6">
            <rect width="158" height="48" fill="white" />
        </clipPath>
    </defs>
</svg>