<svg xmlns="http://www.w3.org/2000/svg" width="48" height="48" fill="none">
    <path fill="#C8543C"
        d="M5.067 9.647c3.124.957 5.741 1.65 8.433 2.186 1.066-3.957 2.675-7.127 4.783-9.425.938-1.03 2.194-1.81 3.23-2.376C14.624.629 9.106 3.858 5.067 9.647Z" />
    <path fill="#C8543C"
        d="M14.447 12.007c2.242.365 5.48.815 9.126.858 0-1.622-.019-8.212-.025-12.858-.926.22-2.632.896-4.502 2.945-1.986 2.17-3.575 5.295-4.599 9.055Z" />
    <path fill="#C8543C" fill-rule="evenodd"
        d="m14.44 12.005.007.002-.001.004-.006-.006Zm-9.377-2.36.004.002-.004.005v-.006ZM23.935 41.901l4.509 5.676c.304.384.773.519 1.2.354C33.903 46.279 47.78 41.278 48 26H36c-.28 3.103-1.056 5-2.621 7.482l-.366.58-3.988-7.513a.508.508 0 0 0-.097-.165 1.145 1.145 0 0 0-.871-.402H19.5c-.317 0-.646.164-.883.432a.894.894 0 0 0-.098.165l-3.668 7.464-.366-.555c-1.736-2.61-2.412-4.739-2.485-7.506L0 26c.22 15.278 13.955 20.279 18.214 21.93.427.166.902.025 1.2-.353l4.509-5.676h.012Zm3.442-9.382a1.13 1.13 0 0 0 1.128 1.134 1.13 1.13 0 0 0 1.127-1.134 1.13 1.13 0 0 0-1.128-1.134 1.13 1.13 0 0 0-1.127 1.134Zm-4.57 2.268a1.13 1.13 0 0 0 1.128 1.134 1.13 1.13 0 0 0 1.127-1.134 1.13 1.13 0 0 0-1.127-1.134 1.13 1.13 0 0 0-1.127 1.134Zm-4.569-2.268a1.13 1.13 0 0 0 1.128 1.134 1.13 1.13 0 0 0 1.127-1.134 1.13 1.13 0 0 0-1.127-1.134 1.13 1.13 0 0 0-1.128 1.134Z"
        clip-rule="evenodd" />
    <path fill="#C8543C"
        d="M4.588 10.426C.988 15.926.188 21.848 0 24h12c.024-4.012.441-7.947 1.27-11.281-3.528-.616-6.5-1.44-8.682-2.293ZM19.899 23.983 23.5 24V13.743h-.262c-2.907-.012-5.825-.287-9.017-.878C13.398 16.15 13.024 20.03 13 24l6.899-.017ZM36 24h12c-.189-2.152-1.068-8.002-4.675-13.507-3.046 1.116-5.895 1.677-8.667 2.152.597 2.427 1.311 6.35 1.342 11.355ZM26.387.038c1.036.554 2.175 1.329 3.108 2.31 2.156 2.268 3.79 5.42 4.855 9.37-.042.007.037-.005 0 0 2.626-.517 5.435-1.213 8.53-2.078C39.98 5.5 34.874.812 26.387.038Z" />
    <path fill="#C8543C"
        d="M24.476 0c0 4.652.024 11.248.024 12.864 3.022-.025 5.994-.487 9.01-.999-1.03-3.798-2.602-6.822-4.661-8.992C26.96.885 25.42.219 24.476 0ZM24.5 24H35c-.03-4.963-.662-8.798-1.253-11.176a60.69 60.69 0 0 1-6.13.841c-1.096.098-2.039.072-3.117.078V24Z" />
</svg>