<svg width="600" height="450" viewBox="0 0 600 450" fill="none" xmlns="http://www.w3.org/2000/svg">
    <rect width="600" height="450" fill="white" />
    <path opacity="0.9"
        d="M135.91 408L139.03 401H140.63L143.76 408H142.06L139.5 401.82H140.14L137.57 408H135.91ZM137.47 406.5L137.9 405.27H141.5L141.94 406.5H137.47ZM146.857 410.02C146.351 410.02 145.861 409.957 145.387 409.83C144.921 409.71 144.531 409.527 144.217 409.28L144.837 408.16C145.064 408.347 145.351 408.493 145.697 408.6C146.051 408.713 146.397 408.77 146.737 408.77C147.291 408.77 147.691 408.647 147.937 408.4C148.191 408.153 148.317 407.787 148.317 407.3V406.49L148.417 405.14L148.397 403.78V402.62H149.877V407.1C149.877 408.1 149.617 408.837 149.097 409.31C148.577 409.783 147.831 410.02 146.857 410.02ZM146.617 407.74C146.117 407.74 145.664 407.633 145.257 407.42C144.857 407.2 144.534 406.897 144.287 406.51C144.047 406.117 143.927 405.66 143.927 405.14C143.927 404.613 144.047 404.157 144.287 403.77C144.534 403.377 144.857 403.073 145.257 402.86C145.664 402.647 146.117 402.54 146.617 402.54C147.071 402.54 147.471 402.633 147.817 402.82C148.164 403 148.434 403.283 148.627 403.67C148.821 404.05 148.917 404.54 148.917 405.14C148.917 405.733 148.821 406.223 148.627 406.61C148.434 406.99 148.164 407.273 147.817 407.46C147.471 407.647 147.071 407.74 146.617 407.74ZM146.927 406.46C147.201 406.46 147.444 406.407 147.657 406.3C147.871 406.187 148.037 406.03 148.157 405.83C148.277 405.63 148.337 405.4 148.337 405.14C148.337 404.873 148.277 404.643 148.157 404.45C148.037 404.25 147.871 404.097 147.657 403.99C147.444 403.877 147.201 403.82 146.927 403.82C146.654 403.82 146.411 403.877 146.197 403.99C145.984 404.097 145.814 404.25 145.687 404.45C145.567 404.643 145.507 404.873 145.507 405.14C145.507 405.4 145.567 405.63 145.687 405.83C145.814 406.03 145.984 406.187 146.197 406.3C146.411 406.407 146.654 406.46 146.927 406.46ZM153.999 408.08C153.386 408.08 152.846 407.96 152.379 407.72C151.919 407.48 151.563 407.153 151.309 406.74C151.056 406.32 150.929 405.843 150.929 405.31C150.929 404.77 151.053 404.293 151.299 403.88C151.553 403.46 151.896 403.133 152.329 402.9C152.763 402.66 153.253 402.54 153.799 402.54C154.326 402.54 154.799 402.653 155.219 402.88C155.646 403.1 155.983 403.42 156.229 403.84C156.476 404.253 156.599 404.75 156.599 405.33C156.599 405.39 156.596 405.46 156.589 405.54C156.583 405.613 156.576 405.683 156.569 405.75H152.199V404.84H155.749L155.149 405.11C155.149 404.83 155.093 404.587 154.979 404.38C154.866 404.173 154.709 404.013 154.509 403.9C154.309 403.78 154.076 403.72 153.809 403.72C153.543 403.72 153.306 403.78 153.099 403.9C152.899 404.013 152.743 404.177 152.629 404.39C152.516 404.597 152.459 404.843 152.459 405.13V405.37C152.459 405.663 152.523 405.923 152.649 406.15C152.783 406.37 152.966 406.54 153.199 406.66C153.439 406.773 153.719 406.83 154.039 406.83C154.326 406.83 154.576 406.787 154.789 406.7C155.009 406.613 155.209 406.483 155.389 406.31L156.219 407.21C155.973 407.49 155.663 407.707 155.289 407.86C154.916 408.007 154.486 408.08 153.999 408.08ZM160.908 402.54C161.335 402.54 161.715 402.627 162.048 402.8C162.388 402.967 162.655 403.227 162.848 403.58C163.041 403.927 163.138 404.373 163.138 404.92V408H161.578V405.16C161.578 404.727 161.481 404.407 161.288 404.2C161.101 403.993 160.835 403.89 160.488 403.89C160.241 403.89 160.018 403.943 159.818 404.05C159.625 404.15 159.471 404.307 159.358 404.52C159.251 404.733 159.198 405.007 159.198 405.34V408H157.638V402.62H159.128V404.11L158.848 403.66C159.041 403.3 159.318 403.023 159.678 402.83C160.038 402.637 160.448 402.54 160.908 402.54ZM167.191 408.08C166.611 408.08 166.094 407.963 165.641 407.73C165.188 407.49 164.831 407.16 164.571 406.74C164.318 406.32 164.191 405.843 164.191 405.31C164.191 404.77 164.318 404.293 164.571 403.88C164.831 403.46 165.188 403.133 165.641 402.9C166.094 402.66 166.611 402.54 167.191 402.54C167.758 402.54 168.251 402.66 168.671 402.9C169.091 403.133 169.401 403.47 169.601 403.91L168.391 404.56C168.251 404.307 168.074 404.12 167.861 404C167.654 403.88 167.428 403.82 167.181 403.82C166.914 403.82 166.674 403.88 166.461 404C166.248 404.12 166.078 404.29 165.951 404.51C165.831 404.73 165.771 404.997 165.771 405.31C165.771 405.623 165.831 405.89 165.951 406.11C166.078 406.33 166.248 406.5 166.461 406.62C166.674 406.74 166.914 406.8 167.181 406.8C167.428 406.8 167.654 406.743 167.861 406.63C168.074 406.51 168.251 406.32 168.391 406.06L169.601 406.72C169.401 407.153 169.091 407.49 168.671 407.73C168.251 407.963 167.758 408.08 167.191 408.08ZM173.101 408.08C172.488 408.08 171.948 407.96 171.481 407.72C171.021 407.48 170.664 407.153 170.411 406.74C170.158 406.32 170.031 405.843 170.031 405.31C170.031 404.77 170.154 404.293 170.401 403.88C170.654 403.46 170.998 403.133 171.431 402.9C171.864 402.66 172.354 402.54 172.901 402.54C173.428 402.54 173.901 402.653 174.321 402.88C174.748 403.1 175.084 403.42 175.331 403.84C175.578 404.253 175.701 404.75 175.701 405.33C175.701 405.39 175.698 405.46 175.691 405.54C175.684 405.613 175.678 405.683 175.671 405.75H171.301V404.84H174.851L174.251 405.11C174.251 404.83 174.194 404.587 174.081 404.38C173.968 404.173 173.811 404.013 173.611 403.9C173.411 403.78 173.178 403.72 172.911 403.72C172.644 403.72 172.408 403.78 172.201 403.9C172.001 404.013 171.844 404.177 171.731 404.39C171.618 404.597 171.561 404.843 171.561 405.13V405.37C171.561 405.663 171.624 405.923 171.751 406.15C171.884 406.37 172.068 406.54 172.301 406.66C172.541 406.773 172.821 406.83 173.141 406.83C173.428 406.83 173.678 406.787 173.891 406.7C174.111 406.613 174.311 406.483 174.491 406.31L175.321 407.21C175.074 407.49 174.764 407.707 174.391 407.86C174.018 408.007 173.588 408.08 173.101 408.08ZM181.772 408.08C181.138 408.08 180.645 407.92 180.292 407.6C179.938 407.273 179.762 406.79 179.762 406.15V401.43H181.322V406.13C181.322 406.357 181.382 406.533 181.502 406.66C181.622 406.78 181.785 406.84 181.992 406.84C182.238 406.84 182.448 406.773 182.622 406.64L183.042 407.74C182.882 407.853 182.688 407.94 182.462 408C182.242 408.053 182.012 408.08 181.772 408.08ZM178.932 403.94V402.74H182.662V403.94H178.932ZM183.917 408V402.62H185.407V404.14L185.197 403.7C185.357 403.32 185.614 403.033 185.967 402.84C186.321 402.64 186.751 402.54 187.257 402.54V403.98C187.191 403.973 187.131 403.97 187.077 403.97C187.024 403.963 186.967 403.96 186.907 403.96C186.481 403.96 186.134 404.083 185.867 404.33C185.607 404.57 185.477 404.947 185.477 405.46V408H183.917ZM191.133 408V406.95L191.033 406.72V404.84C191.033 404.507 190.93 404.247 190.723 404.06C190.523 403.873 190.213 403.78 189.793 403.78C189.507 403.78 189.223 403.827 188.943 403.92C188.67 404.007 188.437 404.127 188.243 404.28L187.683 403.19C187.977 402.983 188.33 402.823 188.743 402.71C189.157 402.597 189.577 402.54 190.003 402.54C190.823 402.54 191.46 402.733 191.913 403.12C192.367 403.507 192.593 404.11 192.593 404.93V408H191.133ZM189.493 408.08C189.073 408.08 188.713 408.01 188.413 407.87C188.113 407.723 187.883 407.527 187.723 407.28C187.563 407.033 187.483 406.757 187.483 406.45C187.483 406.13 187.56 405.85 187.713 405.61C187.873 405.37 188.123 405.183 188.463 405.05C188.803 404.91 189.247 404.84 189.793 404.84H191.223V405.75H189.963C189.597 405.75 189.343 405.81 189.203 405.93C189.07 406.05 189.003 406.2 189.003 406.38C189.003 406.58 189.08 406.74 189.233 406.86C189.393 406.973 189.61 407.03 189.883 407.03C190.143 407.03 190.377 406.97 190.583 406.85C190.79 406.723 190.94 406.54 191.033 406.3L191.273 407.02C191.16 407.367 190.953 407.63 190.653 407.81C190.353 407.99 189.967 408.08 189.493 408.08ZM196.354 408.08C195.848 408.08 195.391 407.967 194.984 407.74C194.578 407.507 194.254 407.183 194.014 406.77C193.781 406.357 193.664 405.87 193.664 405.31C193.664 404.743 193.781 404.253 194.014 403.84C194.254 403.427 194.578 403.107 194.984 402.88C195.391 402.653 195.848 402.54 196.354 402.54C196.808 402.54 197.204 402.64 197.544 402.84C197.884 403.04 198.148 403.343 198.334 403.75C198.521 404.157 198.614 404.677 198.614 405.31C198.614 405.937 198.524 406.457 198.344 406.87C198.164 407.277 197.904 407.58 197.564 407.78C197.231 407.98 196.828 408.08 196.354 408.08ZM196.624 406.8C196.878 406.8 197.108 406.74 197.314 406.62C197.521 406.5 197.684 406.33 197.804 406.11C197.931 405.883 197.994 405.617 197.994 405.31C197.994 404.997 197.931 404.73 197.804 404.51C197.684 404.29 197.521 404.12 197.314 404C197.108 403.88 196.878 403.82 196.624 403.82C196.364 403.82 196.131 403.88 195.924 404C195.718 404.12 195.551 404.29 195.424 404.51C195.304 404.73 195.244 404.997 195.244 405.31C195.244 405.617 195.304 405.883 195.424 406.11C195.551 406.33 195.718 406.5 195.924 406.62C196.131 406.74 196.364 406.8 196.624 406.8ZM198.034 408V406.9L198.064 405.3L197.964 403.71V400.58H199.524V408H198.034ZM200.968 408V402.62H202.528V408H200.968ZM201.748 401.87C201.461 401.87 201.228 401.787 201.048 401.62C200.868 401.453 200.778 401.247 200.778 401C200.778 400.753 200.868 400.547 201.048 400.38C201.228 400.213 201.461 400.13 201.748 400.13C202.035 400.13 202.268 400.21 202.448 400.37C202.628 400.523 202.718 400.723 202.718 400.97C202.718 401.23 202.628 401.447 202.448 401.62C202.275 401.787 202.041 401.87 201.748 401.87ZM206.176 408.08C205.543 408.08 205.049 407.92 204.696 407.6C204.343 407.273 204.166 406.79 204.166 406.15V401.43H205.726V406.13C205.726 406.357 205.786 406.533 205.906 406.66C206.026 406.78 206.189 406.84 206.396 406.84C206.643 406.84 206.853 406.773 207.026 406.64L207.446 407.74C207.286 407.853 207.093 407.94 206.866 408C206.646 408.053 206.416 408.08 206.176 408.08ZM203.336 403.94V402.74H207.066V403.94H203.336ZM208.322 408V402.62H209.882V408H208.322ZM209.102 401.87C208.815 401.87 208.582 401.787 208.402 401.62C208.222 401.453 208.132 401.247 208.132 401C208.132 400.753 208.222 400.547 208.402 400.38C208.582 400.213 208.815 400.13 209.102 400.13C209.388 400.13 209.622 400.21 209.802 400.37C209.982 400.523 210.072 400.723 210.072 400.97C210.072 401.23 209.982 401.447 209.802 401.62C209.628 401.787 209.395 401.87 209.102 401.87ZM213.889 408.08C213.316 408.08 212.806 407.96 212.359 407.72C211.919 407.48 211.569 407.153 211.309 406.74C211.056 406.32 210.929 405.843 210.929 405.31C210.929 404.77 211.056 404.293 211.309 403.88C211.569 403.46 211.919 403.133 212.359 402.9C212.806 402.66 213.316 402.54 213.889 402.54C214.456 402.54 214.963 402.66 215.409 402.9C215.856 403.133 216.206 403.457 216.459 403.87C216.713 404.283 216.839 404.763 216.839 405.31C216.839 405.843 216.713 406.32 216.459 406.74C216.206 407.153 215.856 407.48 215.409 407.72C214.963 407.96 214.456 408.08 213.889 408.08ZM213.889 406.8C214.149 406.8 214.383 406.74 214.589 406.62C214.796 406.5 214.959 406.33 215.079 406.11C215.199 405.883 215.259 405.617 215.259 405.31C215.259 404.997 215.199 404.73 215.079 404.51C214.959 404.29 214.796 404.12 214.589 404C214.383 403.88 214.149 403.82 213.889 403.82C213.629 403.82 213.396 403.88 213.189 404C212.983 404.12 212.816 404.29 212.689 404.51C212.569 404.73 212.509 404.997 212.509 405.31C212.509 405.617 212.569 405.883 212.689 406.11C212.816 406.33 212.983 406.5 213.189 406.62C213.396 406.74 213.629 406.8 213.889 406.8ZM221.152 402.54C221.579 402.54 221.959 402.627 222.292 402.8C222.632 402.967 222.899 403.227 223.092 403.58C223.285 403.927 223.382 404.373 223.382 404.92V408H221.822V405.16C221.822 404.727 221.725 404.407 221.532 404.2C221.345 403.993 221.079 403.89 220.732 403.89C220.485 403.89 220.262 403.943 220.062 404.05C219.869 404.15 219.715 404.307 219.602 404.52C219.495 404.733 219.442 405.007 219.442 405.34V408H217.882V402.62H219.372V404.11L219.092 403.66C219.285 403.3 219.562 403.023 219.922 402.83C220.282 402.637 220.692 402.54 221.152 402.54ZM228.066 402.54C228.493 402.54 228.873 402.627 229.206 402.8C229.546 402.967 229.813 403.227 230.006 403.58C230.2 403.927 230.296 404.373 230.296 404.92V408H228.736V405.16C228.736 404.727 228.64 404.407 228.446 404.2C228.26 403.993 227.993 403.89 227.646 403.89C227.4 403.89 227.176 403.943 226.976 404.05C226.783 404.15 226.63 404.307 226.516 404.52C226.41 404.733 226.356 405.007 226.356 405.34V408H224.796V402.62H226.286V404.11L226.006 403.66C226.2 403.3 226.476 403.023 226.836 402.83C227.196 402.637 227.606 402.54 228.066 402.54ZM234.419 408.08C233.806 408.08 233.266 407.96 232.799 407.72C232.339 407.48 231.983 407.153 231.729 406.74C231.476 406.32 231.349 405.843 231.349 405.31C231.349 404.77 231.473 404.293 231.719 403.88C231.973 403.46 232.316 403.133 232.749 402.9C233.183 402.66 233.673 402.54 234.219 402.54C234.746 402.54 235.219 402.653 235.639 402.88C236.066 403.1 236.403 403.42 236.649 403.84C236.896 404.253 237.019 404.75 237.019 405.33C237.019 405.39 237.016 405.46 237.009 405.54C237.003 405.613 236.996 405.683 236.989 405.75H232.619V404.84H236.169L235.569 405.11C235.569 404.83 235.513 404.587 235.399 404.38C235.286 404.173 235.129 404.013 234.929 403.9C234.729 403.78 234.496 403.72 234.229 403.72C233.963 403.72 233.726 403.78 233.519 403.9C233.319 404.013 233.163 404.177 233.049 404.39C232.936 404.597 232.879 404.843 232.879 405.13V405.37C232.879 405.663 232.943 405.923 233.069 406.15C233.203 406.37 233.386 406.54 233.619 406.66C233.859 406.773 234.139 406.83 234.459 406.83C234.746 406.83 234.996 406.787 235.209 406.7C235.429 406.613 235.629 406.483 235.809 406.31L236.639 407.21C236.393 407.49 236.083 407.707 235.709 407.86C235.336 408.007 234.906 408.08 234.419 408.08ZM238.058 408V400.58H239.618V408H238.058ZM241.066 408V400.58H242.626V408H241.066ZM246.744 408.08C246.13 408.08 245.59 407.96 245.124 407.72C244.664 407.48 244.307 407.153 244.054 406.74C243.8 406.32 243.674 405.843 243.674 405.31C243.674 404.77 243.797 404.293 244.044 403.88C244.297 403.46 244.64 403.133 245.074 402.9C245.507 402.66 245.997 402.54 246.544 402.54C247.07 402.54 247.544 402.653 247.964 402.88C248.39 403.1 248.727 403.42 248.974 403.84C249.22 404.253 249.344 404.75 249.344 405.33C249.344 405.39 249.34 405.46 249.334 405.54C249.327 405.613 249.32 405.683 249.314 405.75H244.944V404.84H248.494L247.894 405.11C247.894 404.83 247.837 404.587 247.724 404.38C247.61 404.173 247.454 404.013 247.254 403.9C247.054 403.78 246.82 403.72 246.554 403.72C246.287 403.72 246.05 403.78 245.844 403.9C245.644 404.013 245.487 404.177 245.374 404.39C245.26 404.597 245.204 404.843 245.204 405.13V405.37C245.204 405.663 245.267 405.923 245.394 406.15C245.527 406.37 245.71 406.54 245.944 406.66C246.184 406.773 246.464 406.83 246.784 406.83C247.07 406.83 247.32 406.787 247.534 406.7C247.754 406.613 247.954 406.483 248.134 406.31L248.964 407.21C248.717 407.49 248.407 407.707 248.034 407.86C247.66 408.007 247.23 408.08 246.744 408.08Z"
        fill="#1A1A1A" />
    <path opacity="0.9"
        d="M388.91 408L392.03 401H393.63L396.76 408H395.06L392.5 401.82H393.14L390.57 408H388.91ZM390.47 406.5L390.9 405.27H394.5L394.94 406.5H390.47ZM399.857 410.02C399.351 410.02 398.861 409.957 398.387 409.83C397.921 409.71 397.531 409.527 397.217 409.28L397.837 408.16C398.064 408.347 398.351 408.493 398.697 408.6C399.051 408.713 399.397 408.77 399.737 408.77C400.291 408.77 400.691 408.647 400.937 408.4C401.191 408.153 401.317 407.787 401.317 407.3V406.49L401.417 405.14L401.397 403.78V402.62H402.877V407.1C402.877 408.1 402.617 408.837 402.097 409.31C401.577 409.783 400.831 410.02 399.857 410.02ZM399.617 407.74C399.117 407.74 398.664 407.633 398.257 407.42C397.857 407.2 397.534 406.897 397.287 406.51C397.047 406.117 396.927 405.66 396.927 405.14C396.927 404.613 397.047 404.157 397.287 403.77C397.534 403.377 397.857 403.073 398.257 402.86C398.664 402.647 399.117 402.54 399.617 402.54C400.071 402.54 400.471 402.633 400.817 402.82C401.164 403 401.434 403.283 401.627 403.67C401.821 404.05 401.917 404.54 401.917 405.14C401.917 405.733 401.821 406.223 401.627 406.61C401.434 406.99 401.164 407.273 400.817 407.46C400.471 407.647 400.071 407.74 399.617 407.74ZM399.927 406.46C400.201 406.46 400.444 406.407 400.657 406.3C400.871 406.187 401.037 406.03 401.157 405.83C401.277 405.63 401.337 405.4 401.337 405.14C401.337 404.873 401.277 404.643 401.157 404.45C401.037 404.25 400.871 404.097 400.657 403.99C400.444 403.877 400.201 403.82 399.927 403.82C399.654 403.82 399.411 403.877 399.197 403.99C398.984 404.097 398.814 404.25 398.687 404.45C398.567 404.643 398.507 404.873 398.507 405.14C398.507 405.4 398.567 405.63 398.687 405.83C398.814 406.03 398.984 406.187 399.197 406.3C399.411 406.407 399.654 406.46 399.927 406.46ZM406.999 408.08C406.386 408.08 405.846 407.96 405.379 407.72C404.919 407.48 404.563 407.153 404.309 406.74C404.056 406.32 403.929 405.843 403.929 405.31C403.929 404.77 404.053 404.293 404.299 403.88C404.553 403.46 404.896 403.133 405.329 402.9C405.763 402.66 406.253 402.54 406.799 402.54C407.326 402.54 407.799 402.653 408.219 402.88C408.646 403.1 408.983 403.42 409.229 403.84C409.476 404.253 409.599 404.75 409.599 405.33C409.599 405.39 409.596 405.46 409.589 405.54C409.583 405.613 409.576 405.683 409.569 405.75H405.199V404.84H408.749L408.149 405.11C408.149 404.83 408.093 404.587 407.979 404.38C407.866 404.173 407.709 404.013 407.509 403.9C407.309 403.78 407.076 403.72 406.809 403.72C406.543 403.72 406.306 403.78 406.099 403.9C405.899 404.013 405.743 404.177 405.629 404.39C405.516 404.597 405.459 404.843 405.459 405.13V405.37C405.459 405.663 405.523 405.923 405.649 406.15C405.783 406.37 405.966 406.54 406.199 406.66C406.439 406.773 406.719 406.83 407.039 406.83C407.326 406.83 407.576 406.787 407.789 406.7C408.009 406.613 408.209 406.483 408.389 406.31L409.219 407.21C408.973 407.49 408.663 407.707 408.289 407.86C407.916 408.007 407.486 408.08 406.999 408.08ZM413.908 402.54C414.335 402.54 414.715 402.627 415.048 402.8C415.388 402.967 415.655 403.227 415.848 403.58C416.041 403.927 416.138 404.373 416.138 404.92V408H414.578V405.16C414.578 404.727 414.481 404.407 414.288 404.2C414.101 403.993 413.835 403.89 413.488 403.89C413.241 403.89 413.018 403.943 412.818 404.05C412.625 404.15 412.471 404.307 412.358 404.52C412.251 404.733 412.198 405.007 412.198 405.34V408H410.638V402.62H412.128V404.11L411.848 403.66C412.041 403.3 412.318 403.023 412.678 402.83C413.038 402.637 413.448 402.54 413.908 402.54ZM420.191 408.08C419.611 408.08 419.094 407.963 418.641 407.73C418.188 407.49 417.831 407.16 417.571 406.74C417.318 406.32 417.191 405.843 417.191 405.31C417.191 404.77 417.318 404.293 417.571 403.88C417.831 403.46 418.188 403.133 418.641 402.9C419.094 402.66 419.611 402.54 420.191 402.54C420.758 402.54 421.251 402.66 421.671 402.9C422.091 403.133 422.401 403.47 422.601 403.91L421.391 404.56C421.251 404.307 421.074 404.12 420.861 404C420.654 403.88 420.428 403.82 420.181 403.82C419.914 403.82 419.674 403.88 419.461 404C419.248 404.12 419.078 404.29 418.951 404.51C418.831 404.73 418.771 404.997 418.771 405.31C418.771 405.623 418.831 405.89 418.951 406.11C419.078 406.33 419.248 406.5 419.461 406.62C419.674 406.74 419.914 406.8 420.181 406.8C420.428 406.8 420.654 406.743 420.861 406.63C421.074 406.51 421.251 406.32 421.391 406.06L422.601 406.72C422.401 407.153 422.091 407.49 421.671 407.73C421.251 407.963 420.758 408.08 420.191 408.08ZM426.101 408.08C425.488 408.08 424.948 407.96 424.481 407.72C424.021 407.48 423.664 407.153 423.411 406.74C423.158 406.32 423.031 405.843 423.031 405.31C423.031 404.77 423.154 404.293 423.401 403.88C423.654 403.46 423.998 403.133 424.431 402.9C424.864 402.66 425.354 402.54 425.901 402.54C426.428 402.54 426.901 402.653 427.321 402.88C427.748 403.1 428.084 403.42 428.331 403.84C428.578 404.253 428.701 404.75 428.701 405.33C428.701 405.39 428.698 405.46 428.691 405.54C428.684 405.613 428.678 405.683 428.671 405.75H424.301V404.84H427.851L427.251 405.11C427.251 404.83 427.194 404.587 427.081 404.38C426.968 404.173 426.811 404.013 426.611 403.9C426.411 403.78 426.178 403.72 425.911 403.72C425.644 403.72 425.408 403.78 425.201 403.9C425.001 404.013 424.844 404.177 424.731 404.39C424.618 404.597 424.561 404.843 424.561 405.13V405.37C424.561 405.663 424.624 405.923 424.751 406.15C424.884 406.37 425.068 406.54 425.301 406.66C425.541 406.773 425.821 406.83 426.141 406.83C426.428 406.83 426.678 406.787 426.891 406.7C427.111 406.613 427.311 406.483 427.491 406.31L428.321 407.21C428.074 407.49 427.764 407.707 427.391 407.86C427.018 408.007 426.588 408.08 426.101 408.08ZM434.362 408L432.072 401H433.752L435.742 407.2H434.902L436.982 401H438.482L440.482 407.2H439.672L441.712 401H443.262L440.972 408H439.232L437.462 402.56H437.922L436.102 408H434.362ZM446.326 408.08C445.712 408.08 445.172 407.96 444.706 407.72C444.246 407.48 443.889 407.153 443.636 406.74C443.382 406.32 443.256 405.843 443.256 405.31C443.256 404.77 443.379 404.293 443.626 403.88C443.879 403.46 444.222 403.133 444.656 402.9C445.089 402.66 445.579 402.54 446.126 402.54C446.652 402.54 447.126 402.653 447.546 402.88C447.972 403.1 448.309 403.42 448.556 403.84C448.802 404.253 448.926 404.75 448.926 405.33C448.926 405.39 448.922 405.46 448.916 405.54C448.909 405.613 448.902 405.683 448.896 405.75H444.526V404.84H448.076L447.476 405.11C447.476 404.83 447.419 404.587 447.306 404.38C447.192 404.173 447.036 404.013 446.836 403.9C446.636 403.78 446.402 403.72 446.136 403.72C445.869 403.72 445.632 403.78 445.426 403.9C445.226 404.013 445.069 404.177 444.956 404.39C444.842 404.597 444.786 404.843 444.786 405.13V405.37C444.786 405.663 444.849 405.923 444.976 406.15C445.109 406.37 445.292 406.54 445.526 406.66C445.766 406.773 446.046 406.83 446.366 406.83C446.652 406.83 446.902 406.787 447.116 406.7C447.336 406.613 447.536 406.483 447.716 406.31L448.546 407.21C448.299 407.49 447.989 407.707 447.616 407.86C447.242 408.007 446.812 408.08 446.326 408.08ZM453.144 408.08C452.671 408.08 452.264 407.98 451.924 407.78C451.584 407.58 451.324 407.277 451.144 406.87C450.964 406.457 450.874 405.937 450.874 405.31C450.874 404.677 450.967 404.157 451.154 403.75C451.347 403.343 451.614 403.04 451.954 402.84C452.294 402.64 452.691 402.54 453.144 402.54C453.651 402.54 454.104 402.653 454.504 402.88C454.911 403.107 455.231 403.427 455.464 403.84C455.704 404.253 455.824 404.743 455.824 405.31C455.824 405.87 455.704 406.357 455.464 406.77C455.231 407.183 454.911 407.507 454.504 407.74C454.104 407.967 453.651 408.08 453.144 408.08ZM449.964 408V400.58H451.524V403.71L451.424 405.3L451.454 406.9V408H449.964ZM452.874 406.8C453.134 406.8 453.364 406.74 453.564 406.62C453.771 406.5 453.934 406.33 454.054 406.11C454.181 405.883 454.244 405.617 454.244 405.31C454.244 404.997 454.181 404.73 454.054 404.51C453.934 404.29 453.771 404.12 453.564 404C453.364 403.88 453.134 403.82 452.874 403.82C452.614 403.82 452.381 403.88 452.174 404C451.967 404.12 451.804 404.29 451.684 404.51C451.564 404.73 451.504 404.997 451.504 405.31C451.504 405.617 451.564 405.883 451.684 406.11C451.804 406.33 451.967 406.5 452.174 406.62C452.381 406.74 452.614 406.8 452.874 406.8ZM456.868 408V402.62H458.358V404.14L458.148 403.7C458.308 403.32 458.565 403.033 458.918 402.84C459.272 402.64 459.702 402.54 460.208 402.54V403.98C460.142 403.973 460.082 403.97 460.028 403.97C459.975 403.963 459.918 403.96 459.858 403.96C459.432 403.96 459.085 404.083 458.818 404.33C458.558 404.57 458.428 404.947 458.428 405.46V408H456.868ZM463.657 408.08C463.084 408.08 462.574 407.96 462.127 407.72C461.687 407.48 461.337 407.153 461.077 406.74C460.824 406.32 460.697 405.843 460.697 405.31C460.697 404.77 460.824 404.293 461.077 403.88C461.337 403.46 461.687 403.133 462.127 402.9C462.574 402.66 463.084 402.54 463.657 402.54C464.224 402.54 464.73 402.66 465.177 402.9C465.624 403.133 465.974 403.457 466.227 403.87C466.48 404.283 466.607 404.763 466.607 405.31C466.607 405.843 466.48 406.32 466.227 406.74C465.974 407.153 465.624 407.48 465.177 407.72C464.73 407.96 464.224 408.08 463.657 408.08ZM463.657 406.8C463.917 406.8 464.15 406.74 464.357 406.62C464.564 406.5 464.727 406.33 464.847 406.11C464.967 405.883 465.027 405.617 465.027 405.31C465.027 404.997 464.967 404.73 464.847 404.51C464.727 404.29 464.564 404.12 464.357 404C464.15 403.88 463.917 403.82 463.657 403.82C463.397 403.82 463.164 403.88 462.957 404C462.75 404.12 462.584 404.29 462.457 404.51C462.337 404.73 462.277 404.997 462.277 405.31C462.277 405.617 462.337 405.883 462.457 406.11C462.584 406.33 462.75 406.5 462.957 406.62C463.164 406.74 463.397 406.8 463.657 406.8Z"
        fill="#1A1A1A" />
    <path opacity="0.2"
        d="M60.5 9V35.5M571.5 390.5H481.5H378H243M60.5 319.5V390.5H140.5H243M60.5 319.5V248.5M60.5 319.5H567M60.5 248.5V177.5M60.5 248.5H378H481.5H567M60.5 177.5V106.5M60.5 177.5H378H481.5H567M567 106.5H481.5H378H60.5M60.5 106.5V35.5M60.5 35.5H567M243 390.5H218.5"
        stroke="#1A1A1A" stroke-linecap="round" stroke-linejoin="round" />
    <path
        d="M451.5 68H381.5C379.291 68 377.5 69.7909 377.5 72V107V142.5V178V249V320V391H457V320V249V178V107V90.25V73.5C457 70.7 453.333 68.6667 451.5 68Z"
        fill="#39A5B3" />
    <path
        d="M481 72C481 69.7909 479.209 68 477 68H451.5C453.333 68.6667 457 70.7 457 73.5V90.25V107V178V249V320V391H481V320V249V178V107V72Z"
        fill="#3095A1" />
    <path d="M144 360.5C141.791 360.5 140 362.291 140 364.5V391H218V367.5C218 362.3 216.167 360.667 214 360.5H144Z"
        fill="#F9D35D" />
    <path
        d="M242.5 391V364.5C242.5 362.291 240.709 360.5 238.5 360.5H214C216.167 360.667 218 362.3 218 367.5V391H242.5Z"
        fill="#EFB64D" />
    <path opacity="0.7"
        d="M558.77 28.62C558.283 28.62 557.8 28.5567 557.32 28.43C556.847 28.2967 556.44 28.11 556.1 27.87L556.74 26.63C557.007 26.8233 557.313 26.9767 557.66 27.09C558.013 27.2033 558.37 27.26 558.73 27.26C559.137 27.26 559.457 27.18 559.69 27.02C559.923 26.86 560.04 26.6367 560.04 26.35C560.04 26.17 559.993 26.01 559.9 25.87C559.807 25.73 559.64 25.6233 559.4 25.55C559.167 25.4767 558.837 25.44 558.41 25.44H556.62L556.98 21.5H561.25V22.8H557.56L558.4 22.06L558.15 24.87L557.31 24.13H558.79C559.483 24.13 560.04 24.2267 560.46 24.42C560.887 24.6067 561.197 24.8633 561.39 25.19C561.583 25.5167 561.68 25.8867 561.68 26.3C561.68 26.7133 561.577 27.0967 561.37 27.45C561.163 27.7967 560.843 28.08 560.41 28.3C559.983 28.5133 559.437 28.62 558.77 28.62ZM565.337 28.62C564.764 28.62 564.251 28.48 563.797 28.2C563.344 27.9133 562.987 27.5 562.727 26.96C562.467 26.42 562.337 25.7667 562.337 25C562.337 24.2333 562.467 23.58 562.727 23.04C562.987 22.5 563.344 22.09 563.797 21.81C564.251 21.5233 564.764 21.38 565.337 21.38C565.917 21.38 566.431 21.5233 566.877 21.81C567.331 22.09 567.687 22.5 567.947 23.04C568.207 23.58 568.337 24.2333 568.337 25C568.337 25.7667 568.207 26.42 567.947 26.96C567.687 27.5 567.331 27.9133 566.877 28.2C566.431 28.48 565.917 28.62 565.337 28.62ZM565.337 27.25C565.611 27.25 565.847 27.1733 566.047 27.02C566.254 26.8667 566.414 26.6233 566.527 26.29C566.647 25.9567 566.707 25.5267 566.707 25C566.707 24.4733 566.647 24.0433 566.527 23.71C566.414 23.3767 566.254 23.1333 566.047 22.98C565.847 22.8267 565.611 22.75 565.337 22.75C565.071 22.75 564.834 22.8267 564.627 22.98C564.427 23.1333 564.267 23.3767 564.147 23.71C564.034 24.0433 563.977 24.4733 563.977 25C563.977 25.5267 564.034 25.9567 564.147 26.29C564.267 26.6233 564.427 26.8667 564.627 27.02C564.834 27.1733 565.071 27.25 565.337 27.25Z"
        fill="#1A1A1A" />
    <path opacity="0.7"
        d="M555.31 98.03V96.94L558.61 92.5H560.31L557.08 96.94L556.29 96.71H561.8V98.03H555.31ZM559.08 99.5V98.03L559.13 96.71V95.4H560.66V99.5H559.08ZM565.285 99.62C564.711 99.62 564.198 99.48 563.745 99.2C563.291 98.9133 562.935 98.5 562.675 97.96C562.415 97.42 562.285 96.7667 562.285 96C562.285 95.2333 562.415 94.58 562.675 94.04C562.935 93.5 563.291 93.09 563.745 92.81C564.198 92.5233 564.711 92.38 565.285 92.38C565.865 92.38 566.378 92.5233 566.825 92.81C567.278 93.09 567.635 93.5 567.895 94.04C568.155 94.58 568.285 95.2333 568.285 96C568.285 96.7667 568.155 97.42 567.895 97.96C567.635 98.5 567.278 98.9133 566.825 99.2C566.378 99.48 565.865 99.62 565.285 99.62ZM565.285 98.25C565.558 98.25 565.795 98.1733 565.995 98.02C566.201 97.8667 566.361 97.6233 566.475 97.29C566.595 96.9567 566.655 96.5267 566.655 96C566.655 95.4733 566.595 95.0433 566.475 94.71C566.361 94.3767 566.201 94.1333 565.995 93.98C565.795 93.8267 565.558 93.75 565.285 93.75C565.018 93.75 564.781 93.8267 564.575 93.98C564.375 94.1333 564.215 94.3767 564.095 94.71C563.981 95.0433 563.925 95.4733 563.925 96C563.925 96.5267 563.981 96.9567 564.095 97.29C564.215 97.6233 564.375 97.8667 564.575 98.02C564.781 98.1733 565.018 98.25 565.285 98.25Z"
        fill="#1A1A1A" />
    <path opacity="0.7"
        d="M558.66 170.62C558.173 170.62 557.69 170.557 557.21 170.43C556.73 170.297 556.323 170.11 555.99 169.87L556.62 168.63C556.887 168.823 557.197 168.977 557.55 169.09C557.903 169.203 558.26 169.26 558.62 169.26C559.027 169.26 559.347 169.18 559.58 169.02C559.813 168.86 559.93 168.64 559.93 168.36C559.93 168.093 559.827 167.883 559.62 167.73C559.413 167.577 559.08 167.5 558.62 167.5H557.88V166.43L559.83 164.22L560.01 164.8H556.34V163.5H561.24V164.55L559.3 166.76L558.48 166.29H558.95C559.81 166.29 560.46 166.483 560.9 166.87C561.34 167.257 561.56 167.753 561.56 168.36C561.56 168.753 561.457 169.123 561.25 169.47C561.043 169.81 560.727 170.087 560.3 170.3C559.873 170.513 559.327 170.62 558.66 170.62ZM565.308 170.62C564.735 170.62 564.221 170.48 563.768 170.2C563.315 169.913 562.958 169.5 562.698 168.96C562.438 168.42 562.308 167.767 562.308 167C562.308 166.233 562.438 165.58 562.698 165.04C562.958 164.5 563.315 164.09 563.768 163.81C564.221 163.523 564.735 163.38 565.308 163.38C565.888 163.38 566.401 163.523 566.848 163.81C567.301 164.09 567.658 164.5 567.918 165.04C568.178 165.58 568.308 166.233 568.308 167C568.308 167.767 568.178 168.42 567.918 168.96C567.658 169.5 567.301 169.913 566.848 170.2C566.401 170.48 565.888 170.62 565.308 170.62ZM565.308 169.25C565.581 169.25 565.818 169.173 566.018 169.02C566.225 168.867 566.385 168.623 566.498 168.29C566.618 167.957 566.678 167.527 566.678 167C566.678 166.473 566.618 166.043 566.498 165.71C566.385 165.377 566.225 165.133 566.018 164.98C565.818 164.827 565.581 164.75 565.308 164.75C565.041 164.75 564.805 164.827 564.598 164.98C564.398 165.133 564.238 165.377 564.118 165.71C564.005 166.043 563.948 166.473 563.948 167C563.948 167.527 564.005 167.957 564.118 168.29C564.238 168.623 564.398 168.867 564.598 169.02C564.805 169.173 565.041 169.25 565.308 169.25Z"
        fill="#1A1A1A" />
    <path opacity="0.7"
        d="M556.33 242.5V241.45L559.03 238.9C559.243 238.707 559.4 238.533 559.5 238.38C559.6 238.227 559.667 238.087 559.7 237.96C559.74 237.833 559.76 237.717 559.76 237.61C559.76 237.33 559.663 237.117 559.47 236.97C559.283 236.817 559.007 236.74 558.64 236.74C558.347 236.74 558.073 236.797 557.82 236.91C557.573 237.023 557.363 237.2 557.19 237.44L556.01 236.68C556.277 236.28 556.65 235.963 557.13 235.73C557.61 235.497 558.163 235.38 558.79 235.38C559.31 235.38 559.763 235.467 560.15 235.64C560.543 235.807 560.847 236.043 561.06 236.35C561.28 236.657 561.39 237.023 561.39 237.45C561.39 237.677 561.36 237.903 561.3 238.13C561.247 238.35 561.133 238.583 560.96 238.83C560.793 239.077 560.547 239.353 560.22 239.66L557.98 241.77L557.67 241.18H561.62V242.5H556.33ZM565.288 242.62C564.715 242.62 564.202 242.48 563.748 242.2C563.295 241.913 562.938 241.5 562.678 240.96C562.418 240.42 562.288 239.767 562.288 239C562.288 238.233 562.418 237.58 562.678 237.04C562.938 236.5 563.295 236.09 563.748 235.81C564.202 235.523 564.715 235.38 565.288 235.38C565.868 235.38 566.382 235.523 566.828 235.81C567.282 236.09 567.638 236.5 567.898 237.04C568.158 237.58 568.288 238.233 568.288 239C568.288 239.767 568.158 240.42 567.898 240.96C567.638 241.5 567.282 241.913 566.828 242.2C566.382 242.48 565.868 242.62 565.288 242.62ZM565.288 241.25C565.562 241.25 565.798 241.173 565.998 241.02C566.205 240.867 566.365 240.623 566.478 240.29C566.598 239.957 566.658 239.527 566.658 239C566.658 238.473 566.598 238.043 566.478 237.71C566.365 237.377 566.205 237.133 565.998 236.98C565.798 236.827 565.562 236.75 565.288 236.75C565.022 236.75 564.785 236.827 564.578 236.98C564.378 237.133 564.218 237.377 564.098 237.71C563.985 238.043 563.928 238.473 563.928 239C563.928 239.527 563.985 239.957 564.098 240.29C564.218 240.623 564.378 240.867 564.578 241.02C564.785 241.173 565.022 241.25 565.288 241.25Z"
        fill="#1A1A1A" />
    <path opacity="0.7"
        d="M559.47 314.5V308.1L560.17 308.8H558.07V307.5H561.09V314.5H559.47ZM565.306 314.62C564.733 314.62 564.219 314.48 563.766 314.2C563.313 313.913 562.956 313.5 562.696 312.96C562.436 312.42 562.306 311.767 562.306 311C562.306 310.233 562.436 309.58 562.696 309.04C562.956 308.5 563.313 308.09 563.766 307.81C564.219 307.523 564.733 307.38 565.306 307.38C565.886 307.38 566.399 307.523 566.846 307.81C567.299 308.09 567.656 308.5 567.916 309.04C568.176 309.58 568.306 310.233 568.306 311C568.306 311.767 568.176 312.42 567.916 312.96C567.656 313.5 567.299 313.913 566.846 314.2C566.399 314.48 565.886 314.62 565.306 314.62ZM565.306 313.25C565.579 313.25 565.816 313.173 566.016 313.02C566.223 312.867 566.383 312.623 566.496 312.29C566.616 311.957 566.676 311.527 566.676 311C566.676 310.473 566.616 310.043 566.496 309.71C566.383 309.377 566.223 309.133 566.016 308.98C565.816 308.827 565.579 308.75 565.306 308.75C565.039 308.75 564.803 308.827 564.596 308.98C564.396 309.133 564.236 309.377 564.116 309.71C564.003 310.043 563.946 310.473 563.946 311C563.946 311.527 564.003 311.957 564.116 312.29C564.236 312.623 564.396 312.867 564.596 313.02C564.803 313.173 565.039 313.25 565.306 313.25Z"
        fill="#1A1A1A" />
    <path opacity="0.7"
        d="M565.39 386.62C564.817 386.62 564.303 386.48 563.85 386.2C563.397 385.913 563.04 385.5 562.78 384.96C562.52 384.42 562.39 383.767 562.39 383C562.39 382.233 562.52 381.58 562.78 381.04C563.04 380.5 563.397 380.09 563.85 379.81C564.303 379.523 564.817 379.38 565.39 379.38C565.97 379.38 566.483 379.523 566.93 379.81C567.383 380.09 567.74 380.5 568 381.04C568.26 381.58 568.39 382.233 568.39 383C568.39 383.767 568.26 384.42 568 384.96C567.74 385.5 567.383 385.913 566.93 386.2C566.483 386.48 565.97 386.62 565.39 386.62ZM565.39 385.25C565.663 385.25 565.9 385.173 566.1 385.02C566.307 384.867 566.467 384.623 566.58 384.29C566.7 383.957 566.76 383.527 566.76 383C566.76 382.473 566.7 382.043 566.58 381.71C566.467 381.377 566.307 381.133 566.1 380.98C565.9 380.827 565.663 380.75 565.39 380.75C565.123 380.75 564.887 380.827 564.68 380.98C564.48 381.133 564.32 381.377 564.2 381.71C564.087 382.043 564.03 382.473 564.03 383C564.03 383.527 564.087 383.957 564.2 384.29C564.32 384.623 564.48 384.867 564.68 385.02C564.887 385.173 565.123 385.25 565.39 385.25Z"
        fill="#1A1A1A" />
    <path opacity="0.9"
        d="M50.12 239.87C50.12 240.43 50.0467 240.967 49.9 241.48C49.7467 241.993 49.55 242.407 49.31 242.72L48.09 242.17C48.3033 241.87 48.48 241.517 48.62 241.11C48.7533 240.697 48.82 240.28 48.82 239.86C48.82 239.54 48.79 239.283 48.73 239.09C48.6633 238.89 48.5733 238.743 48.46 238.65C48.3467 238.557 48.2167 238.51 48.07 238.51C47.8833 238.51 47.7367 238.583 47.63 238.73C47.5167 238.877 47.4267 239.07 47.36 239.31C47.2867 239.55 47.22 239.817 47.16 240.11C47.0933 240.397 47.0133 240.687 46.92 240.98C46.8267 241.267 46.7067 241.53 46.56 241.77C46.4133 242.01 46.22 242.207 45.98 242.36C45.74 242.507 45.4333 242.58 45.06 242.58C44.66 242.58 44.2967 242.473 43.97 242.26C43.6367 242.04 43.3733 241.713 43.18 241.28C42.98 240.84 42.88 240.29 42.88 239.63C42.88 239.19 42.9333 238.757 43.04 238.33C43.14 237.903 43.2933 237.527 43.5 237.2L44.73 237.7C44.5433 238.027 44.4067 238.353 44.32 238.68C44.2267 239.007 44.18 239.327 44.18 239.64C44.18 239.953 44.2167 240.21 44.29 240.41C44.3633 240.61 44.46 240.753 44.58 240.84C44.6933 240.927 44.8267 240.97 44.98 240.97C45.16 240.97 45.3067 240.897 45.42 240.75C45.5267 240.603 45.6133 240.41 45.68 240.17C45.7467 239.93 45.8133 239.667 45.88 239.38C45.9467 239.087 46.0233 238.797 46.11 238.51C46.1967 238.217 46.3133 237.95 46.46 237.71C46.6067 237.47 46.8 237.277 47.04 237.13C47.28 236.977 47.5833 236.9 47.95 236.9C48.3433 236.9 48.7033 237.01 49.03 237.23C49.3567 237.45 49.62 237.78 49.82 238.22C50.02 238.653 50.12 239.203 50.12 239.87ZM50 235.903L44.62 235.903L44.62 234.343L50 234.343L50 235.903ZM43.87 235.123C43.87 235.41 43.7867 235.643 43.62 235.823C43.4533 236.003 43.2467 236.093 43 236.093C42.7533 236.093 42.5467 236.003 42.38 235.823C42.2133 235.643 42.13 235.41 42.13 235.123C42.13 234.836 42.21 234.603 42.37 234.423C42.5233 234.243 42.7233 234.153 42.97 234.153C43.23 234.153 43.4467 234.243 43.62 234.423C43.7867 234.596 43.87 234.83 43.87 235.123ZM50.08 230.695C50.08 231.329 49.92 231.822 49.6 232.175C49.2733 232.529 48.79 232.705 48.15 232.705L43.43 232.705L43.43 231.145L48.13 231.145C48.3567 231.145 48.5333 231.085 48.66 230.965C48.78 230.845 48.84 230.682 48.84 230.475C48.84 230.229 48.7733 230.019 48.64 229.845L49.74 229.425C49.8533 229.585 49.94 229.779 50 230.005C50.0533 230.225 50.08 230.455 50.08 230.695ZM45.94 233.535L44.74 233.535L44.74 229.805L45.94 229.805L45.94 233.535ZM50.08 226.046C50.08 226.659 49.96 227.199 49.72 227.666C49.48 228.126 49.1533 228.482 48.74 228.736C48.32 228.989 47.8433 229.116 47.31 229.116C46.77 229.116 46.2933 228.992 45.88 228.746C45.46 228.492 45.1333 228.149 44.9 227.716C44.66 227.282 44.54 226.792 44.54 226.246C44.54 225.719 44.6533 225.246 44.88 224.826C45.1 224.399 45.42 224.062 45.84 223.816C46.2533 223.569 46.75 223.446 47.33 223.446C47.39 223.446 47.46 223.449 47.54 223.456C47.6133 223.462 47.6833 223.469 47.75 223.476L47.75 227.846L46.84 227.846L46.84 224.296L47.11 224.896C46.83 224.896 46.5867 224.952 46.38 225.066C46.1733 225.179 46.0133 225.336 45.9 225.536C45.78 225.736 45.72 225.969 45.72 226.236C45.72 226.502 45.78 226.739 45.9 226.946C46.0133 227.146 46.1767 227.302 46.39 227.416C46.5967 227.529 46.8433 227.586 47.13 227.586L47.37 227.586C47.6633 227.586 47.9233 227.522 48.15 227.396C48.37 227.262 48.54 227.079 48.66 226.846C48.7733 226.606 48.83 226.326 48.83 226.006C48.83 225.719 48.7867 225.469 48.7 225.256C48.6133 225.036 48.4833 224.836 48.31 224.656L49.21 223.826C49.49 224.072 49.7067 224.382 49.86 224.756C50.0067 225.129 50.08 225.559 50.08 226.046ZM50.08 220.597C50.08 221.057 50.0267 221.5 49.92 221.927C49.8067 222.347 49.6667 222.68 49.5 222.927L48.38 222.407C48.5333 222.16 48.66 221.87 48.76 221.537C48.8533 221.197 48.9 220.864 48.9 220.537C48.9 220.177 48.8567 219.924 48.77 219.777C48.6833 219.624 48.5633 219.547 48.41 219.547C48.2833 219.547 48.19 219.607 48.13 219.727C48.0633 219.84 48.0133 219.994 47.98 220.187C47.9467 220.38 47.9133 220.594 47.88 220.827C47.8467 221.054 47.8033 221.284 47.75 221.517C47.69 221.75 47.6033 221.964 47.49 222.157C47.3767 222.35 47.2233 222.507 47.03 222.627C46.8367 222.74 46.5867 222.797 46.28 222.797C45.94 222.797 45.64 222.7 45.38 222.507C45.12 222.307 44.9167 222.02 44.77 221.647C44.6167 221.274 44.54 220.827 44.54 220.307C44.54 219.94 44.58 219.567 44.66 219.187C44.74 218.807 44.8567 218.49 45.01 218.237L46.12 218.757C45.9667 219.017 45.8633 219.28 45.81 219.547C45.75 219.807 45.72 220.06 45.72 220.307C45.72 220.654 45.7667 220.907 45.86 221.067C45.9533 221.227 46.0733 221.307 46.22 221.307C46.3533 221.307 46.4533 221.25 46.52 221.137C46.5867 221.017 46.64 220.86 46.68 220.667C46.72 220.474 46.7567 220.264 46.79 220.037C46.8167 219.804 46.86 219.57 46.92 219.337C46.98 219.104 47.0667 218.894 47.18 218.707C47.2867 218.514 47.4367 218.357 47.63 218.237C47.8167 218.117 48.0633 218.057 48.37 218.057C48.7033 218.057 49 218.157 49.26 218.357C49.5133 218.557 49.7133 218.847 49.86 219.227C50.0067 219.6 50.08 220.057 50.08 220.597ZM50 213.032L44.62 214.972L44.62 213.502L49.25 211.892L49.25 212.592L44.62 210.912L44.62 209.592L49.25 207.962L49.25 208.662L44.62 207.002L44.62 205.622L50 207.572L50 209.082L46.03 210.512L46.03 210.052L50 211.532L50 213.032ZM50.08 202.374C50.08 202.987 49.96 203.527 49.72 203.994C49.48 204.454 49.1533 204.81 48.74 205.064C48.32 205.317 47.8433 205.444 47.31 205.444C46.77 205.444 46.2933 205.32 45.88 205.074C45.46 204.82 45.1333 204.477 44.9 204.044C44.66 203.61 44.54 203.12 44.54 202.574C44.54 202.047 44.6533 201.574 44.88 201.154C45.1 200.727 45.42 200.39 45.84 200.144C46.2533 199.897 46.75 199.774 47.33 199.774C47.39 199.774 47.46 199.777 47.54 199.784C47.6133 199.79 47.6833 199.797 47.75 199.804L47.75 204.174L46.84 204.174L46.84 200.624L47.11 201.224C46.83 201.224 46.5867 201.28 46.38 201.394C46.1733 201.507 46.0133 201.664 45.9 201.864C45.78 202.064 45.72 202.297 45.72 202.564C45.72 202.83 45.78 203.067 45.9 203.274C46.0133 203.474 46.1767 203.63 46.39 203.744C46.5967 203.857 46.8433 203.914 47.13 203.914L47.37 203.914C47.6633 203.914 47.9233 203.85 48.15 203.724C48.37 203.59 48.54 203.407 48.66 203.174C48.7733 202.934 48.83 202.654 48.83 202.334C48.83 202.047 48.7867 201.797 48.7 201.584C48.6133 201.364 48.4833 201.164 48.31 200.984L49.21 200.154C49.49 200.4 49.7067 200.71 49.86 201.084C50.0067 201.457 50.08 201.887 50.08 202.374ZM50.08 195.555C50.08 196.028 49.98 196.435 49.78 196.775C49.58 197.115 49.2767 197.375 48.87 197.555C48.4567 197.735 47.9367 197.825 47.31 197.825C46.6767 197.825 46.1567 197.732 45.75 197.545C45.3433 197.352 45.04 197.085 44.84 196.745C44.64 196.405 44.54 196.008 44.54 195.555C44.54 195.048 44.6533 194.595 44.88 194.195C45.1067 193.788 45.4267 193.468 45.84 193.235C46.2533 192.995 46.7433 192.875 47.31 192.875C47.87 192.875 48.3567 192.995 48.77 193.235C49.1833 193.468 49.5067 193.788 49.74 194.195C49.9667 194.595 50.08 195.048 50.08 195.555ZM50 198.735L42.58 198.735L42.58 197.175L45.71 197.175L47.3 197.275L48.9 197.245L50 197.245L50 198.735ZM48.8 195.825C48.8 195.565 48.74 195.335 48.62 195.135C48.5 194.928 48.33 194.765 48.11 194.645C47.8833 194.518 47.6167 194.455 47.31 194.455C46.9967 194.455 46.73 194.518 46.51 194.645C46.29 194.765 46.12 194.928 46 195.135C45.88 195.335 45.82 195.565 45.82 195.825C45.82 196.085 45.88 196.318 46 196.525C46.12 196.732 46.29 196.895 46.51 197.015C46.73 197.135 46.9967 197.195 47.31 197.195C47.6167 197.195 47.8833 197.135 48.11 197.015C48.33 196.895 48.5 196.732 48.62 196.525C48.74 196.318 48.8 196.085 48.8 195.825ZM50.08 185.819C50.08 186.272 49.98 186.669 49.78 187.009C49.58 187.349 49.2767 187.615 48.87 187.809C48.4567 187.995 47.9367 188.089 47.31 188.089C46.6767 188.089 46.1567 187.999 45.75 187.819C45.3433 187.639 45.04 187.379 44.84 187.039C44.64 186.699 44.54 186.292 44.54 185.819C44.54 185.312 44.6567 184.859 44.89 184.459C45.1167 184.052 45.4367 183.732 45.85 183.499C46.2633 183.259 46.75 183.139 47.31 183.139C47.8767 183.139 48.3667 183.259 48.78 183.499C49.1933 183.732 49.5133 184.052 49.74 184.459C49.9667 184.859 50.08 185.312 50.08 185.819ZM51.94 188.999L44.62 188.999L44.62 187.509L45.72 187.509L47.32 187.539L48.91 187.439L51.94 187.439L51.94 188.999ZM48.8 186.089C48.8 185.829 48.74 185.599 48.62 185.399C48.5 185.192 48.33 185.029 48.11 184.909C47.8833 184.782 47.6167 184.719 47.31 184.719C46.9967 184.719 46.73 184.782 46.51 184.909C46.29 185.029 46.12 185.192 46 185.399C45.88 185.599 45.82 185.829 45.82 186.089C45.82 186.349 45.88 186.582 46 186.789C46.12 186.995 46.29 187.159 46.51 187.279C46.73 187.399 46.9967 187.459 47.31 187.459C47.6167 187.459 47.8833 187.399 48.11 187.279C48.33 187.159 48.5 186.995 48.62 186.789C48.74 186.582 48.8 186.349 48.8 186.089ZM50 178.882L48.95 178.882L48.72 178.982L46.84 178.982C46.5067 178.982 46.2467 179.086 46.06 179.292C45.8733 179.492 45.78 179.802 45.78 180.222C45.78 180.509 45.8267 180.792 45.92 181.072C46.0067 181.346 46.1267 181.579 46.28 181.772L45.19 182.332C44.9833 182.039 44.8233 181.686 44.71 181.272C44.5967 180.859 44.54 180.439 44.54 180.012C44.54 179.192 44.7333 178.556 45.12 178.102C45.5067 177.649 46.11 177.422 46.93 177.422L50 177.422L50 178.882ZM50.08 180.522C50.08 180.942 50.01 181.302 49.87 181.602C49.7233 181.902 49.5267 182.132 49.28 182.292C49.0333 182.452 48.7567 182.532 48.45 182.532C48.13 182.532 47.85 182.456 47.61 182.302C47.37 182.142 47.1833 181.892 47.05 181.552C46.91 181.212 46.84 180.769 46.84 180.222L46.84 178.792L47.75 178.792L47.75 180.052C47.75 180.419 47.81 180.672 47.93 180.812C48.05 180.946 48.2 181.012 48.38 181.012C48.58 181.012 48.74 180.936 48.86 180.782C48.9733 180.622 49.03 180.406 49.03 180.132C49.03 179.872 48.97 179.639 48.85 179.432C48.7233 179.226 48.54 179.076 48.3 178.982L49.02 178.742C49.3667 178.856 49.63 179.062 49.81 179.362C49.99 179.662 50.08 180.049 50.08 180.522ZM50 176.01L44.62 176.01L44.62 174.52L46.14 174.52L45.7 174.73C45.32 174.57 45.0333 174.314 44.84 173.96C44.64 173.607 44.54 173.177 44.54 172.67L45.98 172.67C45.9733 172.737 45.97 172.797 45.97 172.85C45.9633 172.904 45.96 172.96 45.96 173.02C45.96 173.447 46.0833 173.794 46.33 174.06C46.57 174.32 46.9467 174.45 47.46 174.45L50 174.45L50 176.01ZM50 165.572L48.95 165.572L48.72 165.672L46.84 165.672C46.5067 165.672 46.2467 165.775 46.06 165.982C45.8733 166.182 45.78 166.492 45.78 166.912C45.78 167.198 45.8267 167.482 45.92 167.762C46.0067 168.035 46.1267 168.268 46.28 168.462L45.19 169.022C44.9833 168.728 44.8233 168.375 44.71 167.962C44.5967 167.548 44.54 167.128 44.54 166.702C44.54 165.882 44.7333 165.245 45.12 164.792C45.5067 164.338 46.11 164.112 46.93 164.112L50 164.112L50 165.572ZM50.08 167.212C50.08 167.632 50.01 167.992 49.87 168.292C49.7233 168.592 49.5267 168.822 49.28 168.982C49.0333 169.142 48.7567 169.222 48.45 169.222C48.13 169.222 47.85 169.145 47.61 168.992C47.37 168.832 47.1833 168.582 47.05 168.242C46.91 167.902 46.84 167.458 46.84 166.912L46.84 165.482L47.75 165.482L47.75 166.742C47.75 167.108 47.81 167.362 47.93 167.502C48.05 167.635 48.2 167.702 48.38 167.702C48.58 167.702 48.74 167.625 48.86 167.472C48.9733 167.312 49.03 167.095 49.03 166.822C49.03 166.562 48.97 166.328 48.85 166.122C48.7233 165.915 48.54 165.765 48.3 165.672L49.02 165.432C49.3667 165.545 49.63 165.752 49.81 166.052C49.99 166.352 50.08 166.738 50.08 167.212ZM44.54 159.43C44.54 159.003 44.6267 158.623 44.8 158.29C44.9667 157.95 45.2267 157.683 45.58 157.49C45.9267 157.297 46.3733 157.2 46.92 157.2L50 157.2L50 158.76L47.16 158.76C46.7267 158.76 46.4067 158.857 46.2 159.05C45.9933 159.237 45.89 159.503 45.89 159.85C45.89 160.097 45.9433 160.32 46.05 160.52C46.15 160.713 46.3067 160.867 46.52 160.98C46.7333 161.087 47.0067 161.14 47.34 161.14L50 161.14L50 162.7L44.62 162.7L44.62 161.21L46.11 161.21L45.66 161.49C45.3 161.297 45.0233 161.02 44.83 160.66C44.6367 160.3 44.54 159.89 44.54 159.43Z"
        fill="#1A1A1A" />
</svg>