<svg width="201" height="115" viewBox="0 0 201 115" fill="none" xmlns="http://www.w3.org/2000/svg">
<path d="M199.328 27.5452H117.473C116.751 27.5452 116.165 28.1362 116.165 28.8652V86.1436C116.165 86.8727 116.751 87.4637 117.473 87.4637H199.328C200.05 87.4637 200.636 86.8727 200.636 86.1436V28.8652C200.636 28.1362 200.05 27.5452 199.328 27.5452Z" fill="#F2F2F3"/>
<path opacity="0.05" d="M200.636 28.8652C200.636 28.5151 200.498 28.1794 200.253 27.9318C200.007 27.6843 199.675 27.5452 199.328 27.5452H117.473C117.126 27.5452 116.794 27.6842 116.548 27.9318C116.303 28.1794 116.165 28.5151 116.165 28.8652V34.0593H200.636V28.8652Z" fill="black"/>
<path d="M119.526 31.9973C120.171 31.9973 120.694 31.4694 120.694 30.8182C120.694 30.167 120.171 29.6392 119.526 29.6392C118.88 29.6392 118.357 30.167 118.357 30.8182C118.357 31.4694 118.88 31.9973 119.526 31.9973Z" fill="white"/>
<path d="M123.653 31.9973C124.298 31.9973 124.822 31.4694 124.822 30.8182C124.822 30.167 124.298 29.6392 123.653 29.6392C123.007 29.6392 122.484 30.167 122.484 30.8182C122.484 31.4694 123.007 31.9973 123.653 31.9973Z" fill="white"/>
<path d="M127.78 31.9973C128.425 31.9973 128.949 31.4694 128.949 30.8182C128.949 30.167 128.425 29.6392 127.78 29.6392C127.135 29.6392 126.611 30.167 126.611 30.8182C126.611 31.4694 127.135 31.9973 127.78 31.9973Z" fill="white"/>
<path d="M171.915 54.136C171.849 53.9309 171.727 53.7485 171.564 53.6095C171.4 53.4704 171.202 53.3802 170.99 53.3491L163.001 52.1777L159.427 44.874C159.333 44.6806 159.186 44.5178 159.005 44.4039C158.823 44.2901 158.614 44.2297 158.4 44.2297C158.186 44.2297 157.977 44.2901 157.795 44.4039C157.614 44.5178 157.467 44.6806 157.373 44.874L153.8 52.1777L145.811 53.3491C145.599 53.3801 145.4 53.4702 145.237 53.6093C145.074 53.7483 144.952 53.9308 144.886 54.1359C144.82 54.3411 144.812 54.5608 144.863 54.7702C144.915 54.9797 145.023 55.1704 145.176 55.321L150.957 61.0058L149.592 69.034C149.556 69.2466 149.58 69.4653 149.66 69.6652C149.741 69.8651 149.875 70.0382 150.048 70.1651C150.221 70.2919 150.426 70.3674 150.639 70.383C150.852 70.3986 151.066 70.3536 151.255 70.2532L158.4 66.4622L165.546 70.2532C165.735 70.3536 165.949 70.3986 166.162 70.383C166.375 70.3674 166.58 70.2919 166.753 70.1651C166.926 70.0382 167.06 69.8651 167.141 69.6652C167.221 69.4653 167.245 69.2466 167.209 69.034L165.844 61.0058L171.625 55.321C171.778 55.1704 171.886 54.9796 171.938 54.7702C171.989 54.5608 171.981 54.3411 171.915 54.136Z" fill="#F9D35D"/>
<path d="M105.852 61.2737V53.7295L113.229 57.502L105.852 61.2737Z" fill="#C8543C"/>
<path d="M46.9761 17.9363H77.7182C79.7455 17.9363 81.6898 18.7488 83.1233 20.1951C84.5568 21.6413 85.3622 23.6029 85.3622 25.6482V57.5018H108.942" stroke="#C8543C" stroke-miterlimit="10"/>
<path d="M46.9761 97.0675H77.7182C78.722 97.0675 79.716 96.868 80.6434 96.4805C81.5708 96.0929 82.4135 95.5249 83.1233 94.8088C83.8331 94.0926 84.3962 93.2425 84.7803 92.3068C85.1644 91.3712 85.3622 90.3683 85.3622 89.3556V57.502H108.942" stroke="#C8543C" stroke-miterlimit="10"/>
<path d="M60.5228 79.5681H13.5934C13.1712 79.5681 12.829 79.9134 12.829 80.3393V113.804C12.829 114.23 13.1712 114.575 13.5934 114.575H60.5228C60.945 114.575 61.2872 114.23 61.2872 113.804V80.3393C61.2872 79.9134 60.945 79.5681 60.5228 79.5681Z" fill="#F2F2F3"/>
<path opacity="0.05" d="M61.2873 80.3393C61.2873 80.1348 61.2067 79.9386 61.0634 79.794C60.92 79.6494 60.7256 79.5681 60.5228 79.5681H13.5934C13.3907 79.5681 13.1962 79.6494 13.0529 79.794C12.9095 79.9386 12.829 80.1348 12.829 80.3393V83.3739H61.2873V80.3393Z" fill="black"/>
<path d="M14.8518 82.2197C15.2616 82.2197 15.5939 81.8845 15.5939 81.4711C15.5939 81.0576 15.2616 80.7224 14.8518 80.7224C14.442 80.7224 14.1097 81.0576 14.1097 81.4711C14.1097 81.8845 14.442 82.2197 14.8518 82.2197Z" fill="white"/>
<path d="M17.4723 82.2197C17.8821 82.2197 18.2143 81.8845 18.2143 81.4711C18.2143 81.0576 17.8821 80.7224 17.4723 80.7224C17.0625 80.7224 16.7302 81.0576 16.7302 81.4711C16.7302 81.8845 17.0625 82.2197 17.4723 82.2197Z" fill="white"/>
<path d="M20.0929 82.2197C20.5027 82.2197 20.8349 81.8845 20.8349 81.4711C20.8349 81.0576 20.5027 80.7224 20.0929 80.7224C19.6831 80.7224 19.3508 81.0576 19.3508 81.4711C19.3508 81.8845 19.6831 82.2197 20.0929 82.2197Z" fill="white"/>
<path d="M27.9475 98.0736L34.0792 104.259L46.1685 92.0615" stroke="#39A5B3" stroke-width="4" stroke-linecap="round" stroke-linejoin="round"/>
<path d="M48.3298 40.0007H1.40042C0.978233 40.0007 0.635986 40.346 0.635986 40.772V74.2364C0.635986 74.6624 0.978233 75.0077 1.40042 75.0077H48.3298C48.752 75.0077 49.0942 74.6624 49.0942 74.2364V40.772C49.0942 40.346 48.752 40.0007 48.3298 40.0007Z" fill="#F2F2F3"/>
<path opacity="0.05" d="M49.0943 40.772C49.0943 40.5674 49.0137 40.3713 48.8704 40.2266C48.727 40.082 48.5326 40.0007 48.3298 40.0007H1.40042C1.19768 40.0007 1.00324 40.082 0.859886 40.2266C0.716528 40.3713 0.635988 40.5674 0.635986 40.772V43.8065H49.0943V40.772Z" fill="black"/>
<path d="M2.65868 42.6619C3.06851 42.6619 3.40074 42.3267 3.40074 41.9132C3.40074 41.4997 3.06851 41.1646 2.65868 41.1646C2.24886 41.1646 1.91663 41.4997 1.91663 41.9132C1.91663 42.3267 2.24886 42.6619 2.65868 42.6619Z" fill="white"/>
<path d="M5.27929 42.6619C5.68911 42.6619 6.02134 42.3267 6.02134 41.9132C6.02134 41.4997 5.68911 41.1646 5.27929 41.1646C4.86946 41.1646 4.53723 41.4997 4.53723 41.9132C4.53723 42.3267 4.86946 42.6619 5.27929 42.6619Z" fill="white"/>
<path d="M7.89989 42.6619C8.30972 42.6619 8.64195 42.3267 8.64195 41.9132C8.64195 41.4997 8.30972 41.1646 7.89989 41.1646C7.49007 41.1646 7.15784 41.4997 7.15784 41.9132C7.15784 42.3267 7.49007 42.6619 7.89989 42.6619Z" fill="white"/>
<path d="M18.8204 64.6916L30.9099 52.4946" stroke="#D8D8D9" stroke-width="4" stroke-linecap="round" stroke-linejoin="round"/>
<path d="M30.9099 64.6916L18.8204 52.4946" stroke="#D8D8D9" stroke-width="4" stroke-linecap="round" stroke-linejoin="round"/>
<g opacity="0.05">
<path d="M18.8204 64.6916L30.9099 52.4946" stroke="black" stroke-width="4" stroke-linecap="round" stroke-linejoin="round"/>
<path d="M30.9099 64.6916L18.8204 52.4946" stroke="black" stroke-width="4" stroke-linecap="round" stroke-linejoin="round"/>
</g>
<path d="M61.2867 0.433594H14.3573C13.9351 0.433594 13.5929 0.778883 13.5929 1.20482V34.6693C13.5929 35.0952 13.9351 35.4405 14.3573 35.4405H61.2867C61.7089 35.4405 62.0511 35.0952 62.0511 34.6693V1.20482C62.0511 0.778883 61.7089 0.433594 61.2867 0.433594Z" fill="#F2F2F3"/>
<path opacity="0.05" d="M62.0512 1.20482C62.0512 1.00028 61.9707 0.804115 61.8273 0.659482C61.6839 0.51485 61.4895 0.433596 61.2868 0.433594H14.3573C14.1546 0.433594 13.9602 0.514847 13.8168 0.65948C13.6734 0.804112 13.5929 1.00028 13.5929 1.20482V4.23941H62.0512V1.20482Z" fill="black"/>
<path d="M15.6156 3.09471C16.0254 3.09471 16.3576 2.75953 16.3576 2.34606C16.3576 1.93259 16.0254 1.59741 15.6156 1.59741C15.2058 1.59741 14.8735 1.93259 14.8735 2.34606C14.8735 2.75953 15.2058 3.09471 15.6156 3.09471Z" fill="white"/>
<path d="M18.2362 3.09471C18.646 3.09471 18.9783 2.75953 18.9783 2.34606C18.9783 1.93259 18.646 1.59741 18.2362 1.59741C17.8264 1.59741 17.4941 1.93259 17.4941 2.34606C17.4941 2.75953 17.8264 3.09471 18.2362 3.09471Z" fill="white"/>
<path d="M20.8568 3.09471C21.2666 3.09471 21.5989 2.75953 21.5989 2.34606C21.5989 1.93259 21.2666 1.59741 20.8568 1.59741C20.447 1.59741 20.1147 1.93259 20.1147 2.34606C20.1147 2.75953 20.447 3.09471 20.8568 3.09471Z" fill="white"/>
<path d="M27.9475 18.9388L34.0792 25.1242L46.1685 12.9275" stroke="#39A5B3" stroke-width="4" stroke-linecap="round" stroke-linejoin="round"/>
</svg>
