<svg width="600" height="517" viewBox="0 0 600 517" fill="none" xmlns="http://www.w3.org/2000/svg">
<g filter="url(#filter0_d_824_839)">
<path d="M218.703 57.9501H27.1268C24.6852 57.9501 22.7058 59.9294 22.7058 62.3711V438.157C22.7058 440.598 24.6852 442.578 27.1268 442.578H218.703C221.145 442.578 223.124 440.598 223.124 438.157V62.3711C223.124 59.9294 221.145 57.9501 218.703 57.9501Z" fill="white"/>
</g>
<path d="M203.442 417.891H42.3876C40.6224 417.891 38.9295 418.592 37.6813 419.84C36.4332 421.088 35.7319 422.781 35.7319 424.546V442.578H210.098V424.546C210.098 423.672 209.926 422.807 209.591 421.999C209.257 421.192 208.766 420.458 208.148 419.84C207.53 419.222 206.797 418.732 205.989 418.397C205.182 418.063 204.316 417.891 203.442 417.891Z" fill="#F7F7F7"/>
<path d="M88.601 427.072H157.229" stroke="#D8D8D8" stroke-width="3" stroke-miterlimit="10" stroke-linecap="round"/>
<path d="M101.232 434.104H144.599" stroke="#D8D8D8" stroke-width="3" stroke-miterlimit="10" stroke-linecap="round"/>
<path d="M214.463 70.5129H196.15" stroke="#D8D8D8" stroke-width="2" stroke-miterlimit="10" stroke-linecap="round"/>
<path d="M185.583 70.5129H167.27" stroke="#D8D8D8" stroke-width="2" stroke-miterlimit="10" stroke-linecap="round"/>
<path d="M31.3668 70.5129H49.6798" stroke="#D8D8D8" stroke-width="2" stroke-miterlimit="10" stroke-linecap="round"/>
<path d="M60.2477 70.5129H78.5607" stroke="#D8D8D8" stroke-width="2" stroke-miterlimit="10" stroke-linecap="round"/>
<path d="M126.604 64.8942H119.226C118.131 64.8942 117.244 65.7814 117.244 66.8758V74.2542C117.244 75.3486 118.131 76.2358 119.226 76.2358H126.604C127.699 76.2358 128.586 75.3486 128.586 74.2542V66.8758C128.586 65.7814 127.699 64.8942 126.604 64.8942Z" stroke="#C8543C" stroke-width="2" stroke-miterlimit="10" stroke-linecap="round"/>
<path d="M130.842 95.5269H40.2353C38.3974 95.5269 36.9075 97.0168 36.9075 98.8547V160.761C36.9075 162.599 38.3974 164.089 40.2353 164.089H130.842C132.68 164.089 134.169 162.599 134.169 160.761V98.8547C134.169 97.0168 132.68 95.5269 130.842 95.5269Z" fill="#C8543C"/>
<path d="M72.698 127.165L63.9571 137.155C63.7262 137.418 63.5762 137.742 63.525 138.088C63.4737 138.434 63.5235 138.788 63.6683 139.107C63.8131 139.425 64.0468 139.695 64.3413 139.885C64.6358 140.074 64.9787 140.174 65.3287 140.173H82.809C83.1589 140.174 83.5016 140.073 83.796 139.884C84.0904 139.695 84.3239 139.425 84.4687 139.106C84.6135 138.788 84.6633 138.434 84.6122 138.088C84.5611 137.742 84.4113 137.418 84.1807 137.155L75.4398 127.165C75.3877 127.103 75.3307 127.046 75.2694 126.993C75.0894 126.836 74.88 126.715 74.6533 126.638C74.4266 126.561 74.1869 126.53 73.9481 126.546C73.7092 126.562 73.4759 126.625 73.2614 126.731C73.0468 126.837 72.8554 126.985 72.698 127.165Z" fill="white"/>
<path d="M90.5159 120.068L76.7025 137.21C76.4861 137.477 76.35 137.801 76.3098 138.142C76.2696 138.484 76.3271 138.829 76.4756 139.14C76.6241 139.45 76.8574 139.711 77.1486 139.894C77.4398 140.077 77.7768 140.174 78.1207 140.173H105.749C106.093 140.174 106.431 140.078 106.722 139.895C107.014 139.713 107.247 139.451 107.396 139.14C107.544 138.83 107.602 138.484 107.561 138.142C107.521 137.8 107.384 137.477 107.167 137.21L93.3538 120.068C93.2717 119.966 93.1793 119.873 93.0781 119.79C92.7013 119.487 92.2198 119.346 91.7394 119.399C91.2589 119.451 90.8189 119.692 90.5159 120.068Z" fill="white"/>
<path d="M144.599 96.9915H187.016" stroke="#C8543C" stroke-width="4" stroke-miterlimit="10" stroke-linecap="round"/>
<path d="M144.599 107.57H207.583" stroke="#D8D8D8" stroke-width="3" stroke-linecap="round" stroke-linejoin="round"/>
<path d="M144.599 115.078H207.583" stroke="#D8D8D8" stroke-width="3" stroke-linecap="round" stroke-linejoin="round"/>
<path d="M144.599 122.587H187.016" stroke="#D8D8D8" stroke-width="3" stroke-linecap="round" stroke-linejoin="round"/>
<path d="M144.599 137.604H207.583" stroke="#D8D8D8" stroke-width="3" stroke-linecap="round" stroke-linejoin="round"/>
<path d="M144.599 152.621H186.54" stroke="#D8D8D8" stroke-width="3" stroke-linecap="round" stroke-linejoin="round"/>
<path d="M144.599 145.113H207.583" stroke="#D8D8D8" stroke-width="3" stroke-linecap="round" stroke-linejoin="round"/>
<path d="M144.599 167.638H207.583" stroke="#D8D8D8" stroke-width="3" stroke-linecap="round" stroke-linejoin="round"/>
<path d="M144.599 160.129H207.583" stroke="#D8D8D8" stroke-width="3" stroke-linecap="round" stroke-linejoin="round"/>
<path d="M36.9075 197.672H187.016" stroke="#D8D8D8" stroke-width="3" stroke-linecap="round" stroke-linejoin="round"/>
<path d="M36.9075 182.655H207.583" stroke="#D8D8D8" stroke-width="3" stroke-linecap="round" stroke-linejoin="round"/>
<path d="M36.9075 190.164H207.583" stroke="#D8D8D8" stroke-width="3" stroke-linecap="round" stroke-linejoin="round"/>
<path d="M36.9075 175.146H207.583" stroke="#D8D8D8" stroke-width="3" stroke-linecap="round" stroke-linejoin="round"/>
<path d="M130.842 290.104H40.2353C38.3974 290.104 36.9075 291.594 36.9075 293.432V355.338C36.9075 357.176 38.3974 358.666 40.2353 358.666H130.842C132.68 358.666 134.169 357.176 134.169 355.338V293.432C134.169 291.594 132.68 290.104 130.842 290.104Z" fill="#F9D35D"/>
<path d="M72.698 321.742L63.9571 331.732C63.7262 331.995 63.5762 332.319 63.525 332.665C63.4737 333.011 63.5235 333.365 63.6683 333.684C63.8131 334.002 64.0468 334.273 64.3413 334.462C64.6358 334.651 64.9787 334.751 65.3287 334.75H82.809C83.1589 334.751 83.5016 334.651 83.796 334.461C84.0904 334.272 84.3239 334.002 84.4687 333.684C84.6135 333.365 84.6633 333.011 84.6122 332.665C84.5611 332.319 84.4113 331.995 84.1807 331.732L75.4398 321.742C75.3877 321.68 75.3307 321.623 75.2694 321.571C75.0894 321.413 74.88 321.292 74.6533 321.215C74.4266 321.138 74.1869 321.107 73.9481 321.123C73.7092 321.139 73.4759 321.202 73.2614 321.308C73.0468 321.414 72.8554 321.562 72.698 321.742Z" fill="white"/>
<path d="M90.5159 314.645L76.7025 331.787C76.4861 332.055 76.35 332.378 76.3098 332.719C76.2696 333.061 76.3271 333.407 76.4756 333.717C76.6241 334.027 76.8574 334.289 77.1486 334.472C77.4398 334.654 77.7768 334.751 78.1207 334.75H105.749C106.093 334.752 106.431 334.655 106.722 334.473C107.014 334.29 107.247 334.028 107.396 333.718C107.544 333.407 107.602 333.061 107.561 332.719C107.521 332.378 107.384 332.054 107.167 331.787L93.3538 314.645C93.2717 314.543 93.1793 314.45 93.0781 314.367C92.7013 314.064 92.2198 313.924 91.7394 313.976C91.2589 314.028 90.8189 314.269 90.5159 314.645Z" fill="white"/>
<path d="M144.599 291.569H187.016" stroke="#F9D35D" stroke-width="4" stroke-miterlimit="10" stroke-linecap="round"/>
<path d="M144.599 302.147H207.583" stroke="#D8D8D8" stroke-width="3" stroke-linecap="round" stroke-linejoin="round"/>
<path d="M144.599 309.656H207.583" stroke="#D8D8D8" stroke-width="3" stroke-linecap="round" stroke-linejoin="round"/>
<path d="M144.599 317.164H207.583" stroke="#D8D8D8" stroke-width="3" stroke-linecap="round" stroke-linejoin="round"/>
<path d="M144.599 332.181H207.583" stroke="#D8D8D8" stroke-width="3" stroke-linecap="round" stroke-linejoin="round"/>
<path d="M144.599 347.198H207.583" stroke="#D8D8D8" stroke-width="3" stroke-linecap="round" stroke-linejoin="round"/>
<path d="M144.599 339.689H207.583" stroke="#D8D8D8" stroke-width="3" stroke-linecap="round" stroke-linejoin="round"/>
<path d="M144.599 324.672H207.583" stroke="#D8D8D8" stroke-width="3" stroke-linecap="round" stroke-linejoin="round"/>
<path d="M144.599 362.215H207.583" stroke="#D8D8D8" stroke-width="3" stroke-linecap="round" stroke-linejoin="round"/>
<path d="M144.599 354.707H207.583" stroke="#D8D8D8" stroke-width="3" stroke-linecap="round" stroke-linejoin="round"/>
<path d="M36.9075 392.249H187.016" stroke="#D8D8D8" stroke-width="3" stroke-linecap="round" stroke-linejoin="round"/>
<path d="M36.9075 377.232H207.583" stroke="#D8D8D8" stroke-width="3" stroke-linecap="round" stroke-linejoin="round"/>
<path d="M36.9075 384.74H207.583" stroke="#D8D8D8" stroke-width="3" stroke-linecap="round" stroke-linejoin="round"/>
<path d="M36.9075 369.724H207.583" stroke="#D8D8D8" stroke-width="3" stroke-linecap="round" stroke-linejoin="round"/>
<path d="M82.2106 216.187H40.2353C38.3974 216.187 36.9075 217.677 36.9075 219.515V249.223C36.9075 251.061 38.3974 252.551 40.2353 252.551H82.2106C84.0485 252.551 85.5384 251.061 85.5384 249.223V219.515C85.5384 217.677 84.0485 216.187 82.2106 216.187Z" fill="#C8543C"/>
<path d="M41.0044 261.145H81.4418" stroke="#C8543C" stroke-width="4" stroke-miterlimit="10" stroke-linecap="round"/>
<path d="M46.0337 269.479H76.4121" stroke="#D8D8D8" stroke-width="2" stroke-linecap="round" stroke-linejoin="round"/>
<path d="M61.2227 241.936C65.4019 241.936 68.7897 238.548 68.7897 234.369C68.7897 230.19 65.4019 226.802 61.2227 226.802C57.0436 226.802 53.6558 230.19 53.6558 234.369C53.6558 238.548 57.0436 241.936 61.2227 241.936Z" fill="white"/>
<path d="M143.233 216.187H101.258C99.4196 216.187 97.9297 217.677 97.9297 219.515V249.223C97.9297 251.061 99.4196 252.551 101.258 252.551H143.233C145.071 252.551 146.561 251.061 146.561 249.223V219.515C146.561 217.677 145.071 216.187 143.233 216.187Z" fill="#39A5B3"/>
<path d="M122.245 241.936C126.424 241.936 129.812 238.548 129.812 234.369C129.812 230.19 126.424 226.802 122.245 226.802C118.066 226.802 114.678 230.19 114.678 234.369C114.678 238.548 118.066 241.936 122.245 241.936Z" fill="white"/>
<path d="M102.026 261.145H142.464" stroke="#39A5B3" stroke-width="4" stroke-miterlimit="10" stroke-linecap="round"/>
<path d="M107.056 269.479H137.434" stroke="#D8D8D8" stroke-width="2" stroke-linecap="round" stroke-linejoin="round"/>
<path d="M206.57 216.187H164.595C162.757 216.187 161.267 217.677 161.267 219.515V249.223C161.267 251.061 162.757 252.551 164.595 252.551H206.57C208.408 252.551 209.898 251.061 209.898 249.223V219.515C209.898 217.677 208.408 216.187 206.57 216.187Z" fill="#F9D35D"/>
<path d="M185.582 241.936C189.762 241.936 193.149 238.548 193.149 234.369C193.149 230.19 189.762 226.802 185.582 226.802C181.403 226.802 178.016 230.19 178.016 234.369C178.016 238.548 181.403 241.936 185.582 241.936Z" fill="white"/>
<path d="M165.364 261.145H205.801" stroke="#F9D35D" stroke-width="4" stroke-miterlimit="10" stroke-linecap="round"/>
<path d="M170.393 269.479H200.772" stroke="#D8D8D8" stroke-width="2" stroke-linecap="round" stroke-linejoin="round"/>
<g filter="url(#filter1_d_824_839)">
<path d="M550.429 29.0742H329.852C327.04 29.0742 324.761 31.3532 324.761 34.1645V466.836C324.761 469.648 327.04 471.927 329.852 471.927H550.429C553.24 471.927 555.519 469.648 555.519 466.836V34.1645C555.519 31.3532 553.24 29.0742 550.429 29.0742Z" fill="white"/>
</g>
<path d="M555.519 57.2742H324.761V219.941H555.519V57.2742Z" fill="#F7F7F7"/>
<path d="M555.519 219.941H324.761V277.919H555.519V219.941Z" fill="#39A5B3"/>
<path d="M340.62 50.3707C344.36 50.3707 347.392 47.3388 347.392 43.5986C347.392 39.8585 344.36 36.8265 340.62 36.8265C336.879 36.8265 333.848 39.8585 333.848 43.5986C333.848 47.3388 336.879 50.3707 340.62 50.3707Z" stroke="#39A5B3" stroke-width="2" stroke-miterlimit="10" stroke-linecap="round"/>
<path d="M546.313 38.2871H533.8" stroke="#39A5B3" stroke-width="2" stroke-miterlimit="10" stroke-linecap="round"/>
<path d="M546.313 43.5387H536.992" stroke="#39A5B3" stroke-width="2" stroke-miterlimit="10" stroke-linecap="round"/>
<path d="M546.314 48.7904H540.057" stroke="#39A5B3" stroke-width="2" stroke-miterlimit="10" stroke-linecap="round"/>
<path d="M395.244 43.5986H355.407" stroke="#39A5B3" stroke-width="2" stroke-miterlimit="10" stroke-linecap="round"/>
<path d="M409.676 132.337L388.938 156.037C388.39 156.662 388.034 157.431 387.913 158.252C387.791 159.074 387.909 159.913 388.253 160.669C388.596 161.425 389.151 162.066 389.85 162.515C390.548 162.963 391.362 163.201 392.192 163.199H433.665C434.495 163.201 435.308 162.963 436.007 162.514C436.705 162.065 437.259 161.424 437.603 160.668C437.946 159.912 438.064 159.074 437.943 158.252C437.822 157.431 437.466 156.662 436.919 156.037L416.181 132.337C416.057 132.19 415.922 132.054 415.777 131.93C415.35 131.555 414.853 131.269 414.315 131.087C413.777 130.904 413.209 130.83 412.642 130.868C412.075 130.906 411.522 131.055 411.013 131.307C410.504 131.559 410.05 131.909 409.676 132.337Z" fill="#39A5B3"/>
<path d="M451.95 115.5L419.177 156.17C418.664 156.804 418.341 157.57 418.246 158.381C418.15 159.191 418.287 160.011 418.639 160.747C418.991 161.483 419.545 162.104 420.236 162.538C420.926 162.972 421.726 163.201 422.542 163.199H488.091C488.908 163.203 489.708 162.974 490.4 162.541C491.092 162.107 491.646 161.486 491.998 160.749C492.351 160.013 492.487 159.192 492.391 158.381C492.295 157.57 491.971 156.803 491.456 156.17L458.683 115.5C458.488 115.258 458.269 115.036 458.029 114.839C457.135 114.121 455.993 113.787 454.853 113.911C453.713 114.035 452.669 114.606 451.95 115.5Z" fill="#39A5B3"/>
<path d="M340.619 234.252H448.881" stroke="white" stroke-width="4" stroke-miterlimit="10" stroke-linecap="round"/>
<path d="M340.619 247.717H532.393" stroke="white" stroke-width="3" stroke-miterlimit="10" stroke-linecap="round"/>
<path d="M340.619 260.07H514.206" stroke="white" stroke-width="3" stroke-miterlimit="10" stroke-linecap="round"/>
<path d="M450.836 302.148H513.351" stroke="#39A5B3" stroke-width="4" stroke-miterlimit="10" stroke-linecap="round"/>
<path d="M450.836 315.07H536.988" stroke="#D8D8D8" stroke-width="2" stroke-linecap="round" stroke-linejoin="round"/>
<path d="M450.836 323.699H536.988" stroke="#D8D8D8" stroke-width="2" stroke-linecap="round" stroke-linejoin="round"/>
<path d="M450.836 332.328H513.351" stroke="#D8D8D8" stroke-width="2" stroke-linecap="round" stroke-linejoin="round"/>
<path d="M450.836 349.586H536.988" stroke="#D8D8D8" stroke-width="2" stroke-linecap="round" stroke-linejoin="round"/>
<path d="M450.836 358.215H497.489" stroke="#D8D8D8" stroke-width="2" stroke-linecap="round" stroke-linejoin="round"/>
<path d="M450.836 384.867H513.351" stroke="#39A5B3" stroke-width="4" stroke-miterlimit="10" stroke-linecap="round"/>
<path d="M450.836 397.789H536.988" stroke="#D8D8D8" stroke-width="2" stroke-linecap="round" stroke-linejoin="round"/>
<path d="M450.836 406.418H513.351" stroke="#D8D8D8" stroke-width="2" stroke-linecap="round" stroke-linejoin="round"/>
<path d="M450.836 432.306H536.988" stroke="#D8D8D8" stroke-width="2" stroke-linecap="round" stroke-linejoin="round"/>
<path d="M450.836 440.935H497.489" stroke="#D8D8D8" stroke-width="2" stroke-linecap="round" stroke-linejoin="round"/>
<path d="M450.836 423.677H536.988" stroke="#D8D8D8" stroke-width="2" stroke-linecap="round" stroke-linejoin="round"/>
<path d="M435.301 381.631H341.559C340.622 381.631 339.863 382.391 339.863 383.327V441.941C339.863 442.878 340.622 443.638 341.559 443.638H435.301C436.238 443.638 436.997 442.878 436.997 441.941V383.327C436.997 382.391 436.238 381.631 435.301 381.631Z" fill="#F7F7F7"/>
<path d="M374.821 409.862L365.557 420.45C365.312 420.729 365.153 421.072 365.099 421.439C365.045 421.806 365.098 422.181 365.251 422.519C365.405 422.856 365.652 423.143 365.964 423.343C366.276 423.544 366.64 423.65 367.011 423.649H385.537C385.908 423.65 386.271 423.543 386.583 423.343C386.895 423.142 387.143 422.856 387.296 422.518C387.45 422.181 387.502 421.806 387.448 421.439C387.394 421.072 387.235 420.729 386.991 420.45L377.727 409.862C377.672 409.797 377.611 409.736 377.546 409.681C377.356 409.513 377.134 409.385 376.893 409.304C376.653 409.223 376.399 409.189 376.146 409.206C375.893 409.223 375.646 409.29 375.418 409.402C375.191 409.515 374.988 409.671 374.821 409.862Z" fill="#39A5B3"/>
<path d="M393.705 402.341L379.065 420.509C378.836 420.792 378.692 421.135 378.649 421.496C378.607 421.858 378.667 422.225 378.825 422.554C378.982 422.882 379.23 423.16 379.538 423.354C379.847 423.548 380.204 423.65 380.568 423.649H409.85C410.215 423.651 410.572 423.549 410.881 423.355C411.19 423.161 411.438 422.884 411.596 422.555C411.753 422.226 411.814 421.859 411.771 421.497C411.728 421.134 411.583 420.792 411.353 420.509L396.713 402.341C396.626 402.233 396.528 402.134 396.421 402.046C396.022 401.725 395.511 401.576 395.002 401.631C394.493 401.687 394.026 401.942 393.705 402.341Z" fill="#39A5B3"/>
<path d="M435.301 298.678H341.559C340.622 298.678 339.863 299.438 339.863 300.375V358.989C339.863 359.925 340.622 360.685 341.559 360.685H435.301C436.238 360.685 436.997 359.925 436.997 358.989V300.375C436.997 299.438 436.238 298.678 435.301 298.678Z" fill="#F7F7F7"/>
<path d="M374.821 326.909L365.557 337.497C365.312 337.776 365.153 338.119 365.099 338.486C365.045 338.853 365.098 339.228 365.251 339.566C365.405 339.904 365.652 340.19 365.964 340.39C366.276 340.591 366.64 340.697 367.011 340.696H385.537C385.908 340.697 386.271 340.59 386.583 340.39C386.895 340.189 387.143 339.903 387.296 339.566C387.45 339.228 387.502 338.853 387.448 338.486C387.394 338.119 387.235 337.776 386.991 337.497L377.727 326.909C377.672 326.844 377.611 326.783 377.546 326.728C377.356 326.56 377.134 326.432 376.893 326.351C376.653 326.27 376.399 326.236 376.146 326.253C375.893 326.27 375.646 326.337 375.418 326.449C375.191 326.562 374.988 326.718 374.821 326.909Z" fill="#39A5B3"/>
<path d="M393.705 319.388L379.065 337.556C378.836 337.839 378.692 338.182 378.649 338.544C378.607 338.906 378.667 339.272 378.825 339.601C378.982 339.93 379.23 340.207 379.538 340.401C379.847 340.595 380.204 340.697 380.568 340.696H409.85C410.215 340.698 410.572 340.596 410.881 340.402C411.19 340.208 411.438 339.931 411.596 339.602C411.753 339.273 411.814 338.906 411.771 338.544C411.728 338.182 411.583 337.839 411.353 337.556L396.713 319.388C396.626 319.28 396.528 319.181 396.421 319.093C396.022 318.772 395.511 318.623 395.002 318.679C394.493 318.734 394.026 318.989 393.705 319.388Z" fill="#39A5B3"/>
<path d="M247.92 250.5H295.822" stroke="#C8543C" stroke-width="1.5" stroke-miterlimit="10" stroke-linecap="round"/>
<path d="M291.668 256.732V244.269L303.964 250.5L291.668 256.732Z" fill="#C8543C"/>
<path d="M247.92 250.5H295.822" stroke="#C8543C" stroke-width="1.5" stroke-miterlimit="10" stroke-linecap="round"/>
<path d="M291.668 256.732V244.269L303.964 250.5L291.668 256.732Z" fill="#C8543C"/>
<path d="M275.135 310.407H287.475V298.067H275.135V310.407Z" fill="#D8D8D8"/>
<path d="M297.864 310.407H287.475V298.067H297.864C298.382 298.067 298.878 298.273 299.244 298.639C299.61 299.004 299.815 299.501 299.815 300.018V308.456C299.815 308.974 299.61 309.47 299.244 309.836C298.878 310.202 298.382 310.407 297.864 310.407Z" fill="white"/>
<path d="M262.795 310.407H275.135V298.067H262.795V310.407Z" fill="#D8D8D8"/>
<g style="mix-blend-mode:multiply" opacity="0.5">
<path d="M262.795 310.407H275.135V298.067H262.795V310.407Z" fill="#D8D8D8"/>
</g>
<path d="M262.795 310.407H252.406C251.888 310.407 251.392 310.202 251.026 309.836C250.66 309.47 250.455 308.974 250.455 308.456V300.018C250.455 299.501 250.66 299.004 251.026 298.639C251.392 298.273 251.888 298.067 252.406 298.067H262.795V310.407Z" fill="#D8D8D8"/>
<g style="mix-blend-mode:multiply">
<path d="M262.795 310.407H252.406C251.888 310.407 251.392 310.202 251.026 309.836C250.66 309.47 250.455 308.974 250.455 308.456V300.018C250.455 299.501 250.66 299.004 251.026 298.639C251.392 298.273 251.888 298.067 252.406 298.067H262.795V310.407Z" fill="#D8D8D8"/>
</g>
<path d="M275.135 292.903H287.475V280.563H275.135V292.903Z" fill="#39A5B3"/>
<path opacity="0.5" d="M297.864 292.903H287.475V280.563H297.864C298.382 280.563 298.878 280.768 299.244 281.134C299.61 281.5 299.815 281.996 299.815 282.514V290.952C299.815 291.469 299.61 291.966 299.244 292.331C298.878 292.697 298.382 292.903 297.864 292.903Z" fill="#39A5B3"/>
<path d="M262.795 292.903H275.135V280.563H262.795V292.903Z" fill="#39A5B3"/>
<path d="M262.795 292.903H252.406C251.888 292.903 251.392 292.697 251.026 292.331C250.66 291.966 250.455 291.469 250.455 290.952V282.514C250.455 281.996 250.66 281.5 251.026 281.134C251.392 280.768 251.888 280.563 252.406 280.563H262.795V292.903Z" fill="#39A5B3"/>
<g style="mix-blend-mode:multiply" opacity="0.5">
<path d="M262.795 292.903H252.406C251.888 292.903 251.392 292.697 251.026 292.331C250.66 291.966 250.455 291.469 250.455 290.952V282.514C250.455 281.996 250.66 281.5 251.026 281.134C251.392 280.768 251.888 280.563 252.406 280.563H262.795V292.903Z" fill="#39A5B3"/>
</g>
<path d="M274.515 155.835C287.848 155.835 298.656 145.027 298.656 131.694C298.656 118.362 287.848 107.554 274.515 107.554C261.183 107.554 250.375 118.362 250.375 131.694C250.375 145.027 261.183 155.835 274.515 155.835Z" fill="white"/>
<path d="M279.306 123.107L281.02 121.393C281.359 121.032 281.827 120.82 282.322 120.803C282.817 120.785 283.299 120.964 283.662 121.301L285.753 123.391C286.089 123.755 286.268 124.236 286.251 124.731C286.233 125.226 286.021 125.694 285.661 126.033L283.946 127.748" stroke="#39A5B3" stroke-width="2" stroke-linecap="round" stroke-linejoin="round"/>
<path d="M269.81 141.506L264.323 142.73L265.548 137.243C265.675 136.867 265.887 136.525 266.168 136.245L279.306 123.107L283.946 127.748L270.809 140.885C270.528 141.166 270.186 141.379 269.81 141.506Z" stroke="#39A5B3" stroke-width="2" stroke-linecap="round" stroke-linejoin="round"/>
<path d="M270.273 141.21L265.844 136.78" stroke="#39A5B3" stroke-width="2" stroke-linecap="round" stroke-linejoin="round"/>
<path d="M275.755 222.979C289.087 222.979 299.895 212.171 299.895 198.838C299.895 185.506 289.087 174.698 275.755 174.698C262.422 174.698 251.614 185.506 251.614 198.838C251.614 212.171 262.422 222.979 275.755 222.979Z" fill="white"/>
<path d="M282.98 190.951L289.322 198.838L282.98 206.726" stroke="#39A5B3" stroke-width="2" stroke-linecap="round" stroke-linejoin="round"/>
<path d="M268.529 206.726L262.187 198.838L268.529 190.951" stroke="#39A5B3" stroke-width="2" stroke-linecap="round" stroke-linejoin="round"/>
<path d="M278.143 187.308L273.366 210.369" stroke="#39A5B3" stroke-width="2" stroke-linecap="round" stroke-linejoin="round"/>
<path d="M260.605 343.811C260.53 343.809 260.459 343.778 260.406 343.725C260.353 343.673 260.323 343.602 260.321 343.527L260.09 340.6H255.389L253.81 343.651C253.78 343.694 253.74 343.731 253.694 343.759C253.648 343.786 253.597 343.804 253.544 343.811C253.467 343.808 253.393 343.774 253.34 343.718C253.287 343.661 253.259 343.586 253.26 343.509C253.267 343.455 253.279 343.401 253.296 343.35L259.167 332.137C259.204 332.066 259.26 332.006 259.329 331.965C259.398 331.924 259.478 331.904 259.558 331.907C259.665 331.906 259.768 331.946 259.847 332.019C259.926 332.091 259.975 332.19 259.984 332.297L260.888 343.473C260.893 343.514 260.889 343.556 260.877 343.595C260.865 343.634 260.845 343.671 260.818 343.702C260.792 343.734 260.759 343.76 260.723 343.778C260.686 343.797 260.646 343.808 260.605 343.811ZM260.055 340.067L259.487 332.687L255.673 340.067H260.055Z" fill="#1A1A1A"/>
<path d="M271.396 343.846C271.222 343.846 271.054 343.78 270.926 343.661C270.798 343.543 270.719 343.381 270.704 343.207L270.581 341.096H266.234L265.045 343.473C264.979 343.609 264.869 343.718 264.732 343.783C264.596 343.847 264.441 343.863 264.294 343.828C264.148 343.793 264.017 343.709 263.925 343.589C263.832 343.47 263.783 343.323 263.785 343.172C263.792 343.062 263.816 342.954 263.856 342.853L269.267 332.439C269.377 332.235 269.549 332.072 269.758 331.974C269.967 331.875 270.203 331.847 270.43 331.892C270.656 331.938 270.863 332.055 271.017 332.227C271.172 332.399 271.268 332.616 271.29 332.847L272.088 343.083C272.097 343.18 272.085 343.277 272.055 343.369C272.024 343.461 271.974 343.545 271.909 343.617C271.844 343.688 271.765 343.746 271.677 343.785C271.589 343.825 271.493 343.845 271.396 343.846ZM270.51 339.854L270.119 333.308L266.854 339.854H270.51Z" fill="#1A1A1A"/>
<path d="M282.584 343.882C282.34 343.88 282.105 343.785 281.927 343.617C281.75 343.45 281.642 343.221 281.626 342.977L281.555 341.433H277.457L276.534 343.35C276.459 343.508 276.341 343.641 276.194 343.735C276.046 343.829 275.875 343.88 275.701 343.882C275.453 343.877 275.216 343.777 275.041 343.601C274.865 343.426 274.764 343.19 274.76 342.942C274.763 342.791 274.806 342.644 274.884 342.515L279.976 332.634C280.108 332.392 280.303 332.19 280.54 332.049C280.777 331.909 281.048 331.835 281.324 331.836C281.7 331.838 282.062 331.982 282.338 332.238C282.614 332.494 282.784 332.844 282.814 333.219L283.541 342.817C283.554 342.951 283.54 343.086 283.498 343.214C283.456 343.342 283.387 343.46 283.297 343.56C283.207 343.661 283.097 343.741 282.974 343.796C282.852 343.851 282.719 343.881 282.584 343.882ZM281.466 339.695L281.2 333.734L278.308 339.695H281.466Z" fill="#1A1A1A"/>
<path d="M294.216 343.917C293.858 343.915 293.514 343.773 293.259 343.521C293.003 343.269 292.857 342.927 292.85 342.569L292.833 341.859H289.213L288.627 343.136C288.5 343.413 288.283 343.639 288.01 343.775C287.738 343.912 287.427 343.951 287.129 343.887C286.831 343.823 286.564 343.659 286.372 343.422C286.18 343.186 286.075 342.891 286.073 342.586C286.077 342.37 286.132 342.157 286.233 341.965L290.827 332.989C291.047 332.565 291.399 332.223 291.83 332.017C292.262 331.81 292.748 331.749 293.217 331.843C293.686 331.937 294.111 332.181 294.429 332.538C294.747 332.895 294.94 333.346 294.979 333.823L295.6 342.409C295.617 342.601 295.594 342.794 295.532 342.976C295.47 343.159 295.371 343.327 295.241 343.469C295.111 343.61 294.952 343.724 294.776 343.801C294.599 343.878 294.409 343.918 294.216 343.917ZM292.779 339.393L292.655 334.408L290.348 339.393H292.779Z" fill="#1A1A1A"/>
<path d="M260.605 361.917C260.53 361.915 260.459 361.885 260.406 361.832C260.353 361.779 260.323 361.708 260.321 361.634L260.09 358.706H255.389L253.81 361.757C253.78 361.801 253.74 361.838 253.694 361.866C253.648 361.893 253.597 361.911 253.544 361.917C253.467 361.914 253.393 361.881 253.34 361.824C253.287 361.768 253.259 361.693 253.26 361.615C253.267 361.561 253.279 361.508 253.296 361.456L259.167 350.244C259.204 350.172 259.26 350.112 259.329 350.072C259.398 350.031 259.478 350.01 259.558 350.013C259.665 350.013 259.768 350.053 259.847 350.125C259.926 350.197 259.975 350.297 259.984 350.403L260.888 361.58C260.893 361.621 260.889 361.662 260.877 361.702C260.865 361.741 260.845 361.778 260.818 361.809C260.792 361.841 260.759 361.866 260.723 361.885C260.686 361.904 260.646 361.915 260.605 361.917ZM260.055 358.174L259.487 350.794L255.673 358.174H260.055Z" fill="#1A1A1A"/>
<path d="M271.396 361.953C271.222 361.952 271.054 361.886 270.926 361.768C270.798 361.65 270.719 361.488 270.704 361.314L270.581 359.203H266.234L265.045 361.58C264.979 361.716 264.869 361.825 264.732 361.889C264.596 361.954 264.441 361.97 264.294 361.935C264.148 361.899 264.017 361.815 263.925 361.696C263.832 361.577 263.783 361.429 263.785 361.278C263.792 361.169 263.816 361.061 263.856 360.959L269.267 350.546C269.377 350.342 269.549 350.179 269.758 350.08C269.967 349.982 270.203 349.953 270.43 349.999C270.656 350.045 270.863 350.162 271.017 350.334C271.172 350.506 271.268 350.723 271.29 350.953L272.088 361.19C272.097 361.286 272.085 361.384 272.055 361.475C272.024 361.567 271.974 361.652 271.909 361.723C271.844 361.795 271.765 361.852 271.677 361.892C271.589 361.931 271.493 361.952 271.396 361.953ZM270.51 357.961L270.119 351.415L266.854 357.961H270.51Z" fill="#1A1A1A"/>
<path d="M282.584 361.988C282.34 361.986 282.105 361.892 281.927 361.724C281.75 361.556 281.642 361.328 281.626 361.084L281.555 359.54H277.457L276.534 361.456C276.459 361.614 276.341 361.748 276.194 361.842C276.046 361.936 275.875 361.987 275.701 361.988C275.453 361.984 275.216 361.883 275.041 361.708C274.865 361.533 274.764 361.296 274.76 361.048C274.763 360.898 274.806 360.751 274.884 360.622L279.976 350.741C280.108 350.498 280.303 350.296 280.54 350.156C280.777 350.015 281.048 349.942 281.324 349.942C281.7 349.945 282.062 350.088 282.338 350.344C282.614 350.601 282.784 350.951 282.814 351.326L283.541 360.924C283.554 361.058 283.54 361.193 283.498 361.321C283.456 361.449 283.387 361.567 283.297 361.667C283.207 361.767 283.097 361.847 282.974 361.903C282.852 361.958 282.719 361.987 282.584 361.988ZM281.466 357.801L281.2 351.84L278.308 357.801H281.466Z" fill="#1A1A1A"/>
<path d="M294.216 362.024C293.858 362.022 293.514 361.879 293.259 361.627C293.004 361.376 292.857 361.034 292.85 360.675L292.833 359.966H289.213L288.627 361.243C288.501 361.52 288.283 361.745 288.01 361.882C287.738 362.018 287.427 362.058 287.129 361.994C286.831 361.93 286.564 361.766 286.372 361.529C286.18 361.293 286.075 360.997 286.073 360.693C286.078 360.476 286.132 360.264 286.233 360.072L290.827 351.096C291.047 350.671 291.4 350.33 291.831 350.123C292.262 349.917 292.748 349.856 293.217 349.95C293.686 350.044 294.111 350.288 294.429 350.645C294.747 351.002 294.94 351.453 294.979 351.929L295.6 360.516C295.617 360.707 295.594 360.901 295.532 361.083C295.471 361.266 295.371 361.433 295.241 361.575C295.111 361.717 294.953 361.83 294.776 361.908C294.6 361.985 294.409 362.024 294.216 362.024ZM292.779 357.5L292.655 352.515L290.348 357.5H292.779Z" fill="#1A1A1A"/>
<defs>
<filter id="filter0_d_824_839" x="18.7058" y="57.9501" width="208.419" height="392.628" filterUnits="userSpaceOnUse" color-interpolation-filters="sRGB">
<feFlood flood-opacity="0" result="BackgroundImageFix"/>
<feColorMatrix in="SourceAlpha" type="matrix" values="0 0 0 0 0 0 0 0 0 0 0 0 0 0 0 0 0 0 127 0" result="hardAlpha"/>
<feOffset dy="4"/>
<feGaussianBlur stdDeviation="2"/>
<feComposite in2="hardAlpha" operator="out"/>
<feColorMatrix type="matrix" values="0 0 0 0 0 0 0 0 0 0 0 0 0 0 0 0 0 0 0.25 0"/>
<feBlend mode="normal" in2="BackgroundImageFix" result="effect1_dropShadow_824_839"/>
<feBlend mode="normal" in="SourceGraphic" in2="effect1_dropShadow_824_839" result="shape"/>
</filter>
<filter id="filter1_d_824_839" x="320.761" y="29.0742" width="238.758" height="450.853" filterUnits="userSpaceOnUse" color-interpolation-filters="sRGB">
<feFlood flood-opacity="0" result="BackgroundImageFix"/>
<feColorMatrix in="SourceAlpha" type="matrix" values="0 0 0 0 0 0 0 0 0 0 0 0 0 0 0 0 0 0 127 0" result="hardAlpha"/>
<feOffset dy="4"/>
<feGaussianBlur stdDeviation="2"/>
<feComposite in2="hardAlpha" operator="out"/>
<feColorMatrix type="matrix" values="0 0 0 0 0 0 0 0 0 0 0 0 0 0 0 0 0 0 0.25 0"/>
<feBlend mode="normal" in2="BackgroundImageFix" result="effect1_dropShadow_824_839"/>
<feBlend mode="normal" in="SourceGraphic" in2="effect1_dropShadow_824_839" result="shape"/>
</filter>
</defs>
</svg>
