<svg width="200" height="79" viewBox="0 0 200 79" fill="none" xmlns="http://www.w3.org/2000/svg">
<path d="M198.692 0.00012207H116.837C116.115 0.00012207 115.529 0.588521 115.529 1.31435V76.7684C115.529 77.4943 116.115 78.0827 116.837 78.0827H198.692C199.414 78.0827 200 77.4943 200 76.7684V1.31435C200 0.588521 199.414 0.00012207 198.692 0.00012207Z" fill="#F2F2F3"/>
<path opacity="0.05" d="M200 1.31423C200 0.965675 199.862 0.631403 199.617 0.384939C199.371 0.138476 199.039 1.01815e-05 198.692 0H116.837C116.49 1.01815e-05 116.158 0.138476 115.912 0.384939C115.667 0.631403 115.529 0.965675 115.529 1.31423V6.4854H200V1.31423Z" fill="#0D0D0D"/>
<path d="M118.89 4.43268C119.535 4.43268 120.058 3.90713 120.058 3.25882C120.058 2.61052 119.535 2.08496 118.89 2.08496C118.244 2.08496 117.721 2.61052 117.721 3.25882C117.721 3.90713 118.244 4.43268 118.89 4.43268Z" fill="white"/>
<path d="M123.017 4.43268C123.662 4.43268 124.186 3.90713 124.186 3.25882C124.186 2.61052 123.662 2.08496 123.017 2.08496C122.372 2.08496 121.848 2.61052 121.848 3.25882C121.848 3.90713 122.372 4.43268 123.017 4.43268Z" fill="white"/>
<path d="M127.144 4.43268C127.789 4.43268 128.313 3.90713 128.313 3.25882C128.313 2.61052 127.789 2.08496 127.144 2.08496C126.499 2.08496 125.975 2.61052 125.975 3.25882C125.975 3.90713 126.499 4.43268 127.144 4.43268Z" fill="white"/>
<path d="M189.405 56.4009H126.124C125.702 56.4009 125.359 56.7446 125.359 57.1687V69.5207C125.359 69.9448 125.702 70.2886 126.124 70.2886H189.405C189.828 70.2886 190.17 69.9448 190.17 69.5207V57.1687C190.17 56.7446 189.828 56.4009 189.405 56.4009Z" fill="white"/>
<path opacity="0.05" d="M129.255 63.7119H179.01" stroke="#0D0D0D" stroke-width="1.4" stroke-linecap="round" stroke-linejoin="round"/>
<path opacity="0.05" d="M129.255 66.7832H169.438" stroke="#0D0D0D" stroke-width="1.4" stroke-linecap="round" stroke-linejoin="round"/>
<path d="M129.255 59.8895H160.165" stroke="#D8D8D9" stroke-width="1.4" stroke-linecap="round" stroke-linejoin="round"/>
<path d="M189.405 38.4404H126.124C125.702 38.4404 125.359 38.7842 125.359 39.2083V51.5603C125.359 51.9844 125.702 52.3281 126.124 52.3281H189.405C189.828 52.3281 190.17 51.9844 190.17 51.5603V39.2083C190.17 38.7842 189.828 38.4404 189.405 38.4404Z" fill="white"/>
<path opacity="0.05" d="M129.255 45.7515H179.01" stroke="#0D0D0D" stroke-width="1.4" stroke-linecap="round" stroke-linejoin="round"/>
<path opacity="0.05" d="M129.255 48.8228H169.438" stroke="#0D0D0D" stroke-width="1.4" stroke-linecap="round" stroke-linejoin="round"/>
<path d="M129.255 41.929H160.165" stroke="#D8D8D9" stroke-width="1.4" stroke-linecap="round" stroke-linejoin="round"/>
<path d="M189.405 21.2478H126.124C125.702 21.2478 125.359 21.5916 125.359 22.0156V33.5998C125.359 34.0239 125.702 34.3677 126.124 34.3677H189.405C189.828 34.3677 190.17 34.0239 190.17 33.5998V22.0156C190.17 21.5916 189.828 21.2478 189.405 21.2478Z" fill="white"/>
<path opacity="0.05" d="M133.842 28.1832H183.597" stroke="#0D0D0D" stroke-width="1.4" stroke-linecap="round" stroke-linejoin="round"/>
<path opacity="0.05" d="M133.842 31.2545H177.813" stroke="#0D0D0D" stroke-width="1.4" stroke-linecap="round" stroke-linejoin="round"/>
<path d="M148.499 24.3607H169.338" stroke="#39A5B3" stroke-width="1.4" stroke-linecap="round" stroke-linejoin="round"/>
<path d="M133.842 24.3607H144.012" stroke="#39A5B3" stroke-width="1.4" stroke-linecap="round" stroke-linejoin="round"/>
<path d="M129.283 26.8862C129.261 26.8181 129.22 26.7575 129.166 26.7113C129.112 26.6652 129.045 26.6352 128.975 26.6248L126.714 26.2945L125.702 24.2366C125.667 24.1767 125.617 24.127 125.557 24.0925C125.497 24.058 125.429 24.0398 125.359 24.0398C125.29 24.0398 125.222 24.058 125.162 24.0925C125.102 24.127 125.052 24.1767 125.017 24.2366L124.005 26.2945L121.743 26.6248C121.673 26.6352 121.606 26.6651 121.552 26.7113C121.497 26.7575 121.457 26.818 121.435 26.8861C121.413 26.9543 121.41 27.0272 121.428 27.0967C121.445 27.1662 121.481 27.2295 121.532 27.2794L123.168 28.8818L122.782 31.144C122.77 31.2146 122.778 31.2872 122.805 31.3535C122.831 31.4198 122.876 31.4773 122.934 31.5193C122.992 31.5614 123.06 31.5864 123.131 31.5916C123.202 31.5968 123.273 31.5819 123.336 31.5486L125.359 30.4808L127.382 31.5486C127.446 31.5819 127.517 31.5968 127.588 31.5916C127.659 31.5864 127.727 31.5614 127.785 31.5193C127.843 31.4773 127.887 31.4198 127.914 31.3535C127.941 31.2872 127.949 31.2146 127.937 31.1441L127.55 28.8814L129.186 27.2795C129.237 27.2296 129.273 27.1663 129.291 27.0967C129.308 27.0272 129.305 26.9543 129.283 26.8862Z" fill="#F9D35D"/>
<path d="M173.152 15.906H123.519C122.911 15.906 122.327 15.6634 121.897 15.2314C121.467 14.7994 121.225 14.2135 121.225 13.6026C121.225 12.9916 121.467 12.4057 121.897 11.9737C122.327 11.5418 122.911 11.2991 123.519 11.2991H173.152C173.76 11.2991 174.344 11.5418 174.774 11.9737C175.204 12.4057 175.446 12.9916 175.446 13.6026C175.446 14.2135 175.204 14.7994 174.774 15.2314C174.344 15.6634 173.76 15.906 173.152 15.906Z" fill="white"/>
<path d="M181.203 15.906H192.01C192.618 15.906 193.202 15.6634 193.632 15.2314C194.062 14.7994 194.303 14.2135 194.303 13.6026C194.303 12.9916 194.062 12.4057 193.632 11.9737C193.202 11.5418 192.618 11.2991 192.01 11.2991H181.203C180.595 11.2991 180.012 11.5418 179.582 11.9737C179.152 12.4057 178.91 12.9916 178.91 13.6026C178.91 14.2135 179.152 14.7994 179.582 15.2314C180.012 15.6634 180.595 15.906 181.203 15.906Z" fill="#D8D8D9"/>
<path d="M104.341 42.1708V35.9117L110.49 39.0413L104.341 42.1708Z" fill="#C8543C"/>
<path d="M89.731 39.0414H106.917" stroke="#C8543C" stroke-miterlimit="10" stroke-linecap="round"/>
<path d="M83.1625 9.21411H1.30841C0.585798 9.21411 0 9.80251 0 10.5283V67.5544C0 68.2803 0.585798 68.8687 1.30841 68.8687H83.1625C83.8851 68.8687 84.4709 68.2803 84.4709 67.5544V10.5283C84.4709 9.80251 83.8851 9.21411 83.1625 9.21411Z" fill="#F2F2F3"/>
<path opacity="0.05" d="M84.471 10.5283C84.471 10.1798 84.3331 9.84551 84.0877 9.59905C83.8424 9.35259 83.5096 9.21412 83.1626 9.21411H1.30841C0.961403 9.21412 0.62861 9.35259 0.383237 9.59905C0.137865 9.84551 1.01364e-05 10.1798 0 10.5283V15.6995H84.471V10.5283Z" fill="#0D0D0D"/>
<path d="M3.36056 13.6467C4.006 13.6467 4.52923 13.1211 4.52923 12.4728C4.52923 11.8245 4.006 11.299 3.36056 11.299C2.71513 11.299 2.19189 11.8245 2.19189 12.4728C2.19189 13.1211 2.71513 13.6467 3.36056 13.6467Z" fill="white"/>
<path d="M7.48788 13.6467C8.13332 13.6467 8.65655 13.1211 8.65655 12.4728C8.65655 11.8245 8.13332 11.299 7.48788 11.299C6.84245 11.299 6.31921 11.8245 6.31921 12.4728C6.31921 13.1211 6.84245 13.6467 7.48788 13.6467Z" fill="white"/>
<path d="M11.6151 13.6467C12.2605 13.6467 12.7837 13.1211 12.7837 12.4728C12.7837 11.8245 12.2605 11.299 11.6151 11.299C10.9696 11.299 10.4464 11.8245 10.4464 12.4728C10.4464 13.1211 10.9696 13.6467 11.6151 13.6467Z" fill="white"/>
<path d="M42.2355 61.8748C53.4704 61.8748 62.578 52.7267 62.578 41.4419C62.578 30.1571 53.4704 21.0089 42.2355 21.0089C31.0006 21.0089 21.8929 30.1571 21.8929 41.4419C21.8929 52.7267 31.0006 61.8748 42.2355 61.8748Z" fill="white"/>
<mask id="mask0_945_314" style="mask-type:luminance" maskUnits="userSpaceOnUse" x="21" y="21" width="42" height="41">
<path d="M42.2355 61.8748C53.4704 61.8748 62.578 52.7267 62.578 41.4419C62.578 30.1571 53.4704 21.0089 42.2355 21.0089C31.0006 21.0089 21.8929 30.1571 21.8929 41.4419C21.8929 52.7267 31.0006 61.8748 42.2355 61.8748Z" fill="white"/>
</mask>
<g mask="url(#mask0_945_314)">
<path d="M15.2094 24.9336H37.2449" stroke="#39A5B3" stroke-width="2.8" stroke-miterlimit="10" stroke-linecap="round"/>
<path d="M43.1698 24.9336H64.4409" stroke="#F2F2F3" stroke-width="2.8" stroke-miterlimit="10" stroke-linecap="round"/>
<path d="M15.2094 30.4419H31.1294" stroke="#F2F2F3" stroke-width="2.8" stroke-miterlimit="10" stroke-linecap="round"/>
<path d="M15.2094 35.9502H39.5382" stroke="#F2F2F3" stroke-width="2.8" stroke-miterlimit="10" stroke-linecap="round"/>
<path d="M45.463 35.9502H64.4408" stroke="#F2F2F3" stroke-width="2.8" stroke-miterlimit="10" stroke-linecap="round"/>
<path d="M33.228 41.4585H51.7692" stroke="#F2F2F3" stroke-width="2.8" stroke-miterlimit="10" stroke-linecap="round"/>
<path d="M15.2094 41.4585H27.3032" stroke="#39A5B3" stroke-width="2.8" stroke-miterlimit="10" stroke-linecap="round"/>
<path d="M56.9919 30.4419H71.7109" stroke="#F2F2F3" stroke-width="2.8" stroke-miterlimit="10" stroke-linecap="round"/>
<path d="M37.0543 30.4419H51.0672" stroke="#39A5B3" stroke-width="2.8" stroke-miterlimit="10" stroke-linecap="round"/>
<path d="M57.6941 41.4585H64.4409" stroke="#F2F2F3" stroke-width="2.8" stroke-miterlimit="10" stroke-linecap="round"/>
<path d="M13.6805 46.9668H35.7161" stroke="#F2F2F3" stroke-width="2.8" stroke-miterlimit="10" stroke-linecap="round"/>
<path d="M41.6409 46.9668H64.4408" stroke="#39A5B3" stroke-width="2.8" stroke-miterlimit="10" stroke-linecap="round"/>
<path d="M15.2094 52.4752H44.1248" stroke="#F2F2F3" stroke-width="2.8" stroke-miterlimit="10" stroke-linecap="round"/>
<path d="M50.0497 52.4752H64.4409" stroke="#F2F2F3" stroke-width="2.8" stroke-miterlimit="10" stroke-linecap="round"/>
<path d="M15.2094 57.9835H37.2449" stroke="#39A5B3" stroke-width="2.8" stroke-miterlimit="10" stroke-linecap="round"/>
<path d="M43.1698 57.9835H64.4409" stroke="#F2F2F3" stroke-width="2.8" stroke-miterlimit="10" stroke-linecap="round"/>
</g>
<path d="M42.2355 61.8748C53.4704 61.8748 62.578 52.7267 62.578 41.4419C62.578 30.1571 53.4704 21.0089 42.2355 21.0089C31.0006 21.0089 21.8929 30.1571 21.8929 41.4419C21.8929 52.7267 31.0006 61.8748 42.2355 61.8748Z" stroke="#39A5B3" stroke-width="4.2" stroke-linejoin="round"/>
<path d="M58.105 57.3818L72.2698 71.6096" stroke="#39A5B3" stroke-width="5.2" stroke-linecap="round" stroke-linejoin="round"/>
<g opacity="0.05">
<path d="M42.2355 61.8748C53.4704 61.8748 62.578 52.7267 62.578 41.4419C62.578 30.1571 53.4704 21.0089 42.2355 21.0089C31.0006 21.0089 21.8929 30.1571 21.8929 41.4419C21.8929 52.7267 31.0006 61.8748 42.2355 61.8748Z" stroke="#39A5B3" stroke-width="4" stroke-linejoin="round"/>
<path d="M58.105 57.3818L72.2698 71.6096" stroke="#39A5B3" stroke-width="7.2" stroke-linecap="round" stroke-linejoin="round"/>
</g>
</svg>
