<svg width="600" height="450" viewBox="0 0 600 450" fill="none" xmlns="http://www.w3.org/2000/svg">
    <path opacity="0.1" d="M23.4493 290.349L47.4327 162.981L88.8353 138.442L551.919 264.768" fill="#39A5B3" />
    <mask id="mask0_827_1767" style="mask-type:luminance" maskUnits="userSpaceOnUse" x="22" y="263" width="556"
        height="71">
        <path
            d="M542.672 263.527H57.3277C38.1024 263.527 22.5173 279.112 22.5173 298.337V298.337C22.5173 317.563 38.1024 333.148 57.3277 333.148H542.672C561.898 333.148 577.483 317.563 577.483 298.337C577.483 279.112 561.898 263.527 542.672 263.527Z"
            fill="white" />
    </mask>
    <g mask="url(#mask0_827_1767)">
        <path d="M410.733 247.662H246.967V360.162H410.733V247.662Z" fill="#369FAD" />
        <path d="M265.892 247.662H119.167V360.162H265.892V247.662Z" fill="#3399A6" />
        <path d="M129.5 247.662H22.5173V360.162H129.5V247.662Z" fill="#3093A0" />
        <path d="M577.483 247.662H407.167V360.162H577.483V247.662Z" fill="#39A5B3" />
        <path d="M138.605 298.337L129.5 333.147L122.695 298.337L129.5 263.527L138.605 298.337Z" fill="#3093A0" />
        <path d="M274.997 298.337L265.892 333.147L259.087 298.337L265.892 263.527L274.997 298.337Z" fill="#3399A6" />
        <path d="M416.271 298.337L407.167 333.147L400.362 298.337L407.167 263.527L416.271 298.337Z" fill="#369FAD" />
        <path
            d="M62.204 318V308.83H64.584C65.5173 308.83 66.3107 309.003 66.964 309.348C67.6173 309.693 68.1167 310.207 68.462 310.888C68.8073 311.56 68.98 312.391 68.98 313.38C68.98 314.369 68.8073 315.209 68.462 315.9C68.126 316.581 67.636 317.104 66.992 317.468C66.348 317.823 65.5687 318 64.654 318H62.204ZM63.604 316.866H64.486C65.1487 316.866 65.7087 316.735 66.166 316.474C66.6233 316.203 66.964 315.811 67.188 315.298C67.4213 314.785 67.538 314.145 67.538 313.38C67.538 312.615 67.4213 311.98 67.188 311.476C66.964 310.972 66.6233 310.594 66.166 310.342C65.7087 310.09 65.1487 309.964 64.486 309.964H63.604V316.866ZM73.6296 318.168C72.995 318.168 72.4256 318.028 71.9216 317.748C71.4176 317.459 71.0163 317.048 70.7176 316.516C70.4283 315.984 70.2836 315.34 70.2836 314.584C70.2836 313.837 70.433 313.198 70.7316 312.666C71.0303 312.125 71.4176 311.709 71.8936 311.42C72.3696 311.131 72.8736 310.986 73.4056 310.986C74.0123 310.986 74.521 311.126 74.9316 311.406C75.3423 311.677 75.6503 312.055 75.8556 312.54C76.0703 313.016 76.1776 313.576 76.1776 314.22C76.1776 314.351 76.173 314.481 76.1636 314.612C76.1543 314.743 76.1356 314.869 76.1076 314.99H71.2916V313.912H74.9456C74.9456 313.333 74.8196 312.89 74.5676 312.582C74.3156 312.265 73.9376 312.106 73.4336 312.106C73.1443 312.106 72.8643 312.185 72.5936 312.344C72.323 312.493 72.099 312.75 71.9216 313.114C71.7443 313.469 71.6556 313.954 71.6556 314.57C71.6556 315.13 71.7536 315.592 71.9496 315.956C72.1456 316.32 72.407 316.595 72.7336 316.782C73.0603 316.959 73.4103 317.048 73.7836 317.048C74.101 317.048 74.395 317.006 74.6656 316.922C74.9456 316.829 75.2023 316.707 75.4356 316.558L75.9256 317.454C75.6176 317.669 75.2676 317.841 74.8756 317.972C74.493 318.103 74.0776 318.168 73.6296 318.168ZM72.2716 310.02L74.0356 307.654H75.5336L75.6176 307.794L73.3776 310.02H72.2716ZM77.7873 320.8V311.154H78.9213L79.0333 311.924H79.0753C79.374 311.663 79.7053 311.443 80.0693 311.266C80.4333 311.079 80.8066 310.986 81.1893 310.986C81.768 310.986 82.258 311.131 82.6593 311.42C83.0606 311.709 83.364 312.115 83.5693 312.638C83.784 313.161 83.8913 313.772 83.8913 314.472C83.8913 315.256 83.7513 315.923 83.4713 316.474C83.2006 317.025 82.8413 317.445 82.3933 317.734C81.9453 318.023 81.4646 318.168 80.9513 318.168C80.6526 318.168 80.3446 318.103 80.0273 317.972C79.7193 317.832 79.4206 317.641 79.1313 317.398L79.1733 318.56V320.8H77.7873ZM80.6853 317.02C81.0213 317.02 81.3246 316.922 81.5953 316.726C81.866 316.53 82.076 316.245 82.2253 315.872C82.384 315.489 82.4633 315.027 82.4633 314.486C82.4633 314.01 82.4073 313.599 82.2953 313.254C82.1833 312.899 82.006 312.629 81.7633 312.442C81.5206 312.246 81.208 312.148 80.8253 312.148C80.564 312.148 80.298 312.218 80.0273 312.358C79.7566 312.498 79.472 312.708 79.1733 312.988V316.376C79.444 316.609 79.71 316.777 79.9713 316.88C80.242 316.973 80.48 317.02 80.6853 317.02ZM87.0399 318.168C86.6479 318.168 86.2979 318.089 85.9899 317.93C85.6912 317.771 85.4532 317.543 85.2759 317.244C85.1079 316.945 85.0239 316.595 85.0239 316.194C85.0239 315.419 85.3506 314.836 86.0039 314.444C86.6666 314.052 87.7119 313.777 89.1399 313.618C89.1399 313.366 89.0979 313.128 89.0139 312.904C88.9392 312.671 88.8039 312.489 88.6079 312.358C88.4119 312.218 88.1459 312.148 87.8099 312.148C87.4459 312.148 87.0959 312.213 86.7599 312.344C86.4332 312.475 86.1206 312.633 85.8219 312.82L85.3039 311.868C85.5372 311.719 85.7986 311.579 86.0879 311.448C86.3772 311.308 86.6852 311.196 87.0119 311.112C87.3479 311.028 87.6979 310.986 88.0619 310.986C88.6219 310.986 89.0839 311.103 89.4479 311.336C89.8119 311.569 90.0826 311.901 90.2599 312.33C90.4372 312.759 90.5259 313.277 90.5259 313.884V318H89.3779L89.2799 317.216H89.2239C88.9066 317.477 88.5659 317.701 88.2019 317.888C87.8472 318.075 87.4599 318.168 87.0399 318.168ZM87.4599 317.034C87.7586 317.034 88.0386 316.969 88.2999 316.838C88.5706 316.698 88.8506 316.497 89.1399 316.236V314.598C88.4492 314.682 87.8986 314.794 87.4879 314.934C87.0866 315.065 86.7972 315.228 86.6199 315.424C86.4519 315.611 86.3679 315.835 86.3679 316.096C86.3679 316.432 86.4706 316.675 86.6759 316.824C86.8906 316.964 87.1519 317.034 87.4599 317.034ZM92.5666 318V311.154H93.7006L93.8126 312.386H93.8546C94.0879 311.947 94.3726 311.607 94.7086 311.364C95.0539 311.112 95.4179 310.986 95.8006 310.986C95.9593 310.986 96.0946 311 96.2066 311.028C96.3279 311.047 96.4399 311.079 96.5426 311.126L96.2626 312.316C96.1599 312.288 96.0619 312.269 95.9686 312.26C95.8753 312.241 95.7586 312.232 95.6186 312.232C95.3386 312.232 95.0446 312.344 94.7366 312.568C94.4286 312.783 94.1673 313.165 93.9526 313.716V318H92.5666ZM99.8935 318.14C99.1282 318.14 98.5915 317.921 98.2835 317.482C97.9755 317.034 97.8215 316.455 97.8215 315.746V312.274H96.8275V311.224L97.8915 311.154L98.0595 308.984H99.2215V311.154H101.014V312.274H99.2215V315.76C99.2215 316.171 99.2962 316.483 99.4455 316.698C99.6042 316.913 99.8655 317.02 100.23 317.02C100.351 317.02 100.472 317.011 100.594 316.992C100.724 316.964 100.85 316.922 100.972 316.866L101.238 317.832C101.06 317.925 100.855 318 100.622 318.056C100.388 318.112 100.146 318.14 99.8935 318.14Z"
            fill="white" />
        <path
            d="M185.802 318.168C185.027 318.168 184.327 317.986 183.702 317.622C183.086 317.249 182.596 316.707 182.232 315.998C181.877 315.289 181.7 314.435 181.7 313.436C181.7 312.689 181.803 312.022 182.008 311.434C182.223 310.837 182.517 310.333 182.89 309.922C183.273 309.511 183.711 309.199 184.206 308.984C184.71 308.769 185.251 308.662 185.83 308.662C186.399 308.662 186.903 308.774 187.342 308.998C187.781 309.222 188.14 309.493 188.42 309.81L187.664 310.664C187.431 310.412 187.165 310.221 186.866 310.09C186.567 309.95 186.236 309.88 185.872 309.88C185.34 309.88 184.869 310.025 184.458 310.314C184.047 310.603 183.725 311.009 183.492 311.532C183.259 312.055 183.142 312.675 183.142 313.394C183.142 314.131 183.254 314.766 183.478 315.298C183.702 315.821 184.019 316.227 184.43 316.516C184.85 316.796 185.335 316.936 185.886 316.936C186.306 316.936 186.675 316.857 186.992 316.698C187.319 316.539 187.617 316.315 187.888 316.026L188.602 316.852C188.238 317.272 187.823 317.599 187.356 317.832C186.899 318.056 186.381 318.168 185.802 318.168ZM192.847 318.168C192.278 318.168 191.751 318.028 191.265 317.748C190.78 317.468 190.383 317.062 190.075 316.53C189.777 315.989 189.627 315.34 189.627 314.584C189.627 313.828 189.777 313.184 190.075 312.652C190.383 312.111 190.78 311.7 191.265 311.42C191.751 311.131 192.278 310.986 192.847 310.986C193.407 310.986 193.93 311.131 194.415 311.42C194.901 311.7 195.293 312.111 195.591 312.652C195.899 313.184 196.053 313.828 196.053 314.584C196.053 315.34 195.899 315.989 195.591 316.53C195.293 317.062 194.901 317.468 194.415 317.748C193.93 318.028 193.407 318.168 192.847 318.168ZM192.847 317.034C193.211 317.034 193.524 316.931 193.785 316.726C194.056 316.521 194.261 316.236 194.401 315.872C194.551 315.508 194.625 315.079 194.625 314.584C194.625 314.099 194.551 313.674 194.401 313.31C194.261 312.937 194.056 312.647 193.785 312.442C193.524 312.237 193.211 312.134 192.847 312.134C192.483 312.134 192.166 312.237 191.895 312.442C191.634 312.647 191.429 312.937 191.279 313.31C191.13 313.674 191.055 314.099 191.055 314.584C191.055 315.079 191.13 315.508 191.279 315.872C191.429 316.236 191.634 316.521 191.895 316.726C192.166 316.931 192.483 317.034 192.847 317.034ZM197.76 318V311.154H198.894L199.006 312.12H199.048C199.365 311.803 199.706 311.537 200.07 311.322C200.434 311.098 200.849 310.986 201.316 310.986C202.044 310.986 202.576 311.219 202.912 311.686C203.248 312.153 203.416 312.82 203.416 313.688V318H202.03V313.87C202.03 313.263 201.937 312.834 201.75 312.582C201.563 312.321 201.265 312.19 200.854 312.19C200.527 312.19 200.238 312.269 199.986 312.428C199.734 312.587 199.454 312.82 199.146 313.128V318H197.76ZM207.78 318.14C207.015 318.14 206.478 317.921 206.17 317.482C205.862 317.034 205.708 316.455 205.708 315.746V312.274H204.714V311.224L205.778 311.154L205.946 308.984H207.108V311.154H208.9V312.274H207.108V315.76C207.108 316.171 207.183 316.483 207.332 316.698C207.491 316.913 207.752 317.02 208.116 317.02C208.238 317.02 208.359 317.011 208.48 316.992C208.611 316.964 208.737 316.922 208.858 316.866L209.124 317.832C208.947 317.925 208.742 318 208.508 318.056C208.275 318.112 208.032 318.14 207.78 318.14ZM211.702 318.168C211.31 318.168 210.96 318.089 210.652 317.93C210.353 317.771 210.115 317.543 209.938 317.244C209.77 316.945 209.686 316.595 209.686 316.194C209.686 315.419 210.013 314.836 210.666 314.444C211.329 314.052 212.374 313.777 213.802 313.618C213.802 313.366 213.76 313.128 213.676 312.904C213.601 312.671 213.466 312.489 213.27 312.358C213.074 312.218 212.808 312.148 212.472 312.148C212.108 312.148 211.758 312.213 211.422 312.344C211.095 312.475 210.783 312.633 210.484 312.82L209.966 311.868C210.199 311.719 210.461 311.579 210.75 311.448C211.039 311.308 211.347 311.196 211.674 311.112C212.01 311.028 212.36 310.986 212.724 310.986C213.284 310.986 213.746 311.103 214.11 311.336C214.474 311.569 214.745 311.901 214.922 312.33C215.099 312.759 215.188 313.277 215.188 313.884V318H214.04L213.942 317.216H213.886C213.569 317.477 213.228 317.701 212.864 317.888C212.509 318.075 212.122 318.168 211.702 318.168ZM212.122 317.034C212.421 317.034 212.701 316.969 212.962 316.838C213.233 316.698 213.513 316.497 213.802 316.236V314.598C213.111 314.682 212.561 314.794 212.15 314.934C211.749 315.065 211.459 315.228 211.282 315.424C211.114 315.611 211.03 315.835 211.03 316.096C211.03 316.432 211.133 316.675 211.338 316.824C211.553 316.964 211.814 317.034 212.122 317.034ZM220.029 318.168C219.403 318.168 218.843 318.028 218.349 317.748C217.854 317.459 217.462 317.048 217.173 316.516C216.883 315.984 216.739 315.34 216.739 314.584C216.739 313.828 216.893 313.184 217.201 312.652C217.518 312.111 217.933 311.7 218.447 311.42C218.96 311.131 219.511 310.986 220.099 310.986C220.547 310.986 220.934 311.061 221.261 311.21C221.587 311.359 221.872 311.546 222.115 311.77L221.443 312.638C221.284 312.489 221.097 312.367 220.883 312.274C220.677 312.181 220.439 312.134 220.169 312.134C219.786 312.134 219.445 312.237 219.147 312.442C218.848 312.647 218.61 312.932 218.433 313.296C218.255 313.66 218.167 314.089 218.167 314.584C218.167 315.079 218.251 315.508 218.419 315.872C218.587 316.236 218.82 316.521 219.119 316.726C219.417 316.931 219.763 317.034 220.155 317.034C220.444 317.034 220.715 316.978 220.967 316.866C221.219 316.754 221.443 316.609 221.639 316.432L222.227 317.286C221.937 317.557 221.606 317.771 221.233 317.93C220.859 318.089 220.458 318.168 220.029 318.168ZM225.8 318.14C225.034 318.14 224.498 317.921 224.19 317.482C223.882 317.034 223.728 316.455 223.728 315.746V312.274H222.734V311.224L223.798 311.154L223.966 308.984H225.128V311.154H226.92V312.274H225.128V315.76C225.128 316.171 225.202 316.483 225.352 316.698C225.51 316.913 225.772 317.02 226.136 317.02C226.257 317.02 226.378 317.011 226.5 316.992C226.63 316.964 226.756 316.922 226.878 316.866L227.144 317.832C226.966 317.925 226.761 318 226.528 318.056C226.294 318.112 226.052 318.14 225.8 318.14Z"
            fill="white" />
        <path
            d="M440.802 319.168C440.027 319.168 439.327 318.986 438.702 318.622C438.086 318.249 437.596 317.707 437.232 316.998C436.877 316.289 436.7 315.435 436.7 314.436C436.7 313.689 436.803 313.022 437.008 312.434C437.223 311.837 437.517 311.333 437.89 310.922C438.273 310.511 438.711 310.199 439.206 309.984C439.71 309.769 440.251 309.662 440.83 309.662C441.399 309.662 441.903 309.774 442.342 309.998C442.781 310.222 443.14 310.493 443.42 310.81L442.664 311.664C442.431 311.412 442.165 311.221 441.866 311.09C441.567 310.95 441.236 310.88 440.872 310.88C440.34 310.88 439.869 311.025 439.458 311.314C439.047 311.603 438.725 312.009 438.492 312.532C438.259 313.055 438.142 313.675 438.142 314.394C438.142 315.131 438.254 315.766 438.478 316.298C438.702 316.821 439.019 317.227 439.43 317.516C439.85 317.796 440.335 317.936 440.886 317.936C441.306 317.936 441.675 317.857 441.992 317.698C442.319 317.539 442.617 317.315 442.888 317.026L443.602 317.852C443.238 318.272 442.823 318.599 442.356 318.832C441.899 319.056 441.381 319.168 440.802 319.168ZM446.727 319.168C446.335 319.168 445.985 319.089 445.677 318.93C445.379 318.771 445.141 318.543 444.963 318.244C444.795 317.945 444.711 317.595 444.711 317.194C444.711 316.419 445.038 315.836 445.691 315.444C446.354 315.052 447.399 314.777 448.827 314.618C448.827 314.366 448.785 314.128 448.701 313.904C448.627 313.671 448.491 313.489 448.295 313.358C448.099 313.218 447.833 313.148 447.497 313.148C447.133 313.148 446.783 313.213 446.447 313.344C446.121 313.475 445.808 313.633 445.509 313.82L444.991 312.868C445.225 312.719 445.486 312.579 445.775 312.448C446.065 312.308 446.373 312.196 446.699 312.112C447.035 312.028 447.385 311.986 447.749 311.986C448.309 311.986 448.771 312.103 449.135 312.336C449.499 312.569 449.77 312.901 449.947 313.33C450.125 313.759 450.213 314.277 450.213 314.884V319H449.065L448.967 318.216H448.911C448.594 318.477 448.253 318.701 447.889 318.888C447.535 319.075 447.147 319.168 446.727 319.168ZM447.147 318.034C447.446 318.034 447.726 317.969 447.987 317.838C448.258 317.698 448.538 317.497 448.827 317.236V315.598C448.137 315.682 447.586 315.794 447.175 315.934C446.774 316.065 446.485 316.228 446.307 316.424C446.139 316.611 446.055 316.835 446.055 317.096C446.055 317.432 446.158 317.675 446.363 317.824C446.578 317.964 446.839 318.034 447.147 318.034ZM452.254 319V309.074H453.64V311.706L453.584 313.078C453.883 312.779 454.209 312.523 454.564 312.308C454.928 312.093 455.343 311.986 455.81 311.986C456.538 311.986 457.07 312.219 457.406 312.686C457.742 313.153 457.91 313.82 457.91 314.688V319H456.524V314.87C456.524 314.263 456.431 313.834 456.244 313.582C456.057 313.321 455.759 313.19 455.348 313.19C455.021 313.19 454.732 313.269 454.48 313.428C454.228 313.587 453.948 313.82 453.64 314.128V319H452.254ZM459.951 319V312.154H461.337V319H459.951ZM460.651 310.852C460.399 310.852 460.189 310.777 460.021 310.628C459.862 310.469 459.783 310.264 459.783 310.012C459.783 309.769 459.862 309.573 460.021 309.424C460.189 309.265 460.399 309.186 460.651 309.186C460.912 309.186 461.122 309.265 461.281 309.424C461.44 309.573 461.519 309.769 461.519 310.012C461.519 310.264 461.44 310.469 461.281 310.628C461.122 310.777 460.912 310.852 460.651 310.852ZM466.376 319.168C465.741 319.168 465.172 319.028 464.668 318.748C464.164 318.459 463.762 318.048 463.464 317.516C463.174 316.984 463.03 316.34 463.03 315.584C463.03 314.837 463.179 314.198 463.478 313.666C463.776 313.125 464.164 312.709 464.64 312.42C465.116 312.131 465.62 311.986 466.152 311.986C466.758 311.986 467.267 312.126 467.678 312.406C468.088 312.677 468.396 313.055 468.602 313.54C468.816 314.016 468.924 314.576 468.924 315.22C468.924 315.351 468.919 315.481 468.91 315.612C468.9 315.743 468.882 315.869 468.854 315.99H464.038V314.912H467.692C467.692 314.333 467.566 313.89 467.314 313.582C467.062 313.265 466.684 313.106 466.18 313.106C465.89 313.106 465.61 313.185 465.34 313.344C465.069 313.493 464.845 313.75 464.668 314.114C464.49 314.469 464.402 314.954 464.402 315.57C464.402 316.13 464.5 316.592 464.696 316.956C464.892 317.32 465.153 317.595 465.48 317.782C465.806 317.959 466.156 318.048 466.53 318.048C466.847 318.048 467.141 318.006 467.412 317.922C467.692 317.829 467.948 317.707 468.182 317.558L468.672 318.454C468.364 318.669 468.014 318.841 467.622 318.972C467.239 319.103 466.824 319.168 466.376 319.168ZM470.533 319V312.154H471.667L471.779 313.386H471.821C472.055 312.947 472.339 312.607 472.675 312.364C473.021 312.112 473.385 311.986 473.767 311.986C473.926 311.986 474.061 312 474.173 312.028C474.295 312.047 474.407 312.079 474.509 312.126L474.229 313.316C474.127 313.288 474.029 313.269 473.935 313.26C473.842 313.241 473.725 313.232 473.585 313.232C473.305 313.232 473.011 313.344 472.703 313.568C472.395 313.783 472.134 314.165 471.919 314.716V319H470.533ZM480.733 319.168C479.884 319.168 479.202 318.855 478.689 318.23C478.176 317.595 477.919 316.713 477.919 315.584C477.919 314.847 478.054 314.212 478.325 313.68C478.605 313.139 478.969 312.723 479.417 312.434C479.865 312.135 480.341 311.986 480.845 311.986C481.246 311.986 481.587 312.056 481.867 312.196C482.147 312.327 482.427 312.513 482.707 312.756L482.651 311.622V309.074H484.037V319H482.903L482.791 318.23H482.749C482.488 318.482 482.184 318.701 481.839 318.888C481.494 319.075 481.125 319.168 480.733 319.168ZM481.069 318.02C481.358 318.02 481.629 317.95 481.881 317.81C482.142 317.67 482.399 317.455 482.651 317.166V313.778C482.39 313.545 482.133 313.381 481.881 313.288C481.638 313.195 481.386 313.148 481.125 313.148C480.798 313.148 480.5 313.246 480.229 313.442C479.968 313.638 479.753 313.918 479.585 314.282C479.426 314.646 479.347 315.075 479.347 315.57C479.347 316.354 479.496 316.961 479.795 317.39C480.094 317.81 480.518 318.02 481.069 318.02ZM489.057 319.168C488.423 319.168 487.853 319.028 487.349 318.748C486.845 318.459 486.444 318.048 486.145 317.516C485.856 316.984 485.711 316.34 485.711 315.584C485.711 314.837 485.861 314.198 486.159 313.666C486.458 313.125 486.845 312.709 487.321 312.42C487.797 312.131 488.301 311.986 488.833 311.986C489.44 311.986 489.949 312.126 490.359 312.406C490.77 312.677 491.078 313.055 491.283 313.54C491.498 314.016 491.605 314.576 491.605 315.22C491.605 315.351 491.601 315.481 491.591 315.612C491.582 315.743 491.563 315.869 491.535 315.99H486.719V314.912H490.373C490.373 314.333 490.247 313.89 489.995 313.582C489.743 313.265 489.365 313.106 488.861 313.106C488.572 313.106 488.292 313.185 488.021 313.344C487.751 313.493 487.527 313.75 487.349 314.114C487.172 314.469 487.083 314.954 487.083 315.57C487.083 316.13 487.181 316.592 487.377 316.956C487.573 317.32 487.835 317.595 488.161 317.782C488.488 317.959 488.838 318.048 489.211 318.048C489.529 318.048 489.823 318.006 490.093 317.922C490.373 317.829 490.63 317.707 490.863 317.558L491.353 318.454C491.045 318.669 490.695 318.841 490.303 318.972C489.921 319.103 489.505 319.168 489.057 319.168ZM495.063 319.168C494.568 319.168 494.097 319.084 493.649 318.916C493.201 318.739 492.814 318.491 492.487 318.174L493.103 317.376C493.411 317.619 493.724 317.801 494.041 317.922C494.358 318.043 494.713 318.104 495.105 318.104C495.516 318.104 495.819 318.015 496.015 317.838C496.22 317.651 496.323 317.427 496.323 317.166C496.323 316.961 496.248 316.788 496.099 316.648C495.959 316.499 495.777 316.377 495.553 316.284C495.329 316.181 495.091 316.083 494.839 315.99C494.503 315.869 494.181 315.724 493.873 315.556C493.574 315.379 493.332 315.164 493.145 314.912C492.958 314.66 492.865 314.352 492.865 313.988C492.865 313.409 493.08 312.933 493.509 312.56C493.948 312.177 494.545 311.986 495.301 311.986C495.74 311.986 496.146 312.061 496.519 312.21C496.902 312.359 497.228 312.551 497.499 312.784L496.883 313.582C496.64 313.414 496.393 313.283 496.141 313.19C495.889 313.097 495.614 313.05 495.315 313.05C494.932 313.05 494.648 313.139 494.461 313.316C494.274 313.484 494.181 313.685 494.181 313.918C494.181 314.105 494.237 314.263 494.349 314.394C494.47 314.515 494.634 314.623 494.839 314.716C495.054 314.809 495.306 314.907 495.595 315.01C495.95 315.131 496.281 315.276 496.589 315.444C496.906 315.612 497.158 315.827 497.345 316.088C497.541 316.349 497.639 316.681 497.639 317.082C497.639 317.465 497.541 317.815 497.345 318.132C497.149 318.449 496.86 318.701 496.477 318.888C496.094 319.075 495.623 319.168 495.063 319.168ZM504.765 319.168C504.14 319.168 503.58 319.028 503.085 318.748C502.59 318.459 502.198 318.048 501.909 317.516C501.62 316.984 501.475 316.34 501.475 315.584C501.475 314.828 501.629 314.184 501.937 313.652C502.254 313.111 502.67 312.7 503.183 312.42C503.696 312.131 504.247 311.986 504.835 311.986C505.283 311.986 505.67 312.061 505.997 312.21C506.324 312.359 506.608 312.546 506.851 312.77L506.179 313.638C506.02 313.489 505.834 313.367 505.619 313.274C505.414 313.181 505.176 313.134 504.905 313.134C504.522 313.134 504.182 313.237 503.883 313.442C503.584 313.647 503.346 313.932 503.169 314.296C502.992 314.66 502.903 315.089 502.903 315.584C502.903 316.079 502.987 316.508 503.155 316.872C503.323 317.236 503.556 317.521 503.855 317.726C504.154 317.931 504.499 318.034 504.891 318.034C505.18 318.034 505.451 317.978 505.703 317.866C505.955 317.754 506.179 317.609 506.375 317.432L506.963 318.286C506.674 318.557 506.342 318.771 505.969 318.93C505.596 319.089 505.194 319.168 504.765 319.168ZM508.391 319V309.074H509.777V311.706L509.721 313.078C510.019 312.779 510.346 312.523 510.701 312.308C511.065 312.093 511.48 311.986 511.947 311.986C512.675 311.986 513.207 312.219 513.543 312.686C513.879 313.153 514.047 313.82 514.047 314.688V319H512.661V314.87C512.661 314.263 512.567 313.834 512.381 313.582C512.194 313.321 511.895 313.19 511.485 313.19C511.158 313.19 510.869 313.269 510.617 313.428C510.365 313.587 510.085 313.82 509.777 314.128V319H508.391ZM517.712 319.168C517.32 319.168 516.97 319.089 516.662 318.93C516.363 318.771 516.125 318.543 515.948 318.244C515.78 317.945 515.696 317.595 515.696 317.194C515.696 316.419 516.022 315.836 516.676 315.444C517.338 315.052 518.384 314.777 519.812 314.618C519.812 314.366 519.77 314.128 519.686 313.904C519.611 313.671 519.476 313.489 519.28 313.358C519.084 313.218 518.818 313.148 518.482 313.148C518.118 313.148 517.768 313.213 517.432 313.344C517.105 313.475 516.792 313.633 516.494 313.82L515.976 312.868C516.209 312.719 516.47 312.579 516.76 312.448C517.049 312.308 517.357 312.196 517.684 312.112C518.02 312.028 518.37 311.986 518.734 311.986C519.294 311.986 519.756 312.103 520.12 312.336C520.484 312.569 520.754 312.901 520.932 313.33C521.109 313.759 521.198 314.277 521.198 314.884V319H520.05L519.952 318.216H519.896C519.578 318.477 519.238 318.701 518.874 318.888C518.519 319.075 518.132 319.168 517.712 319.168ZM518.132 318.034C518.43 318.034 518.71 317.969 518.972 317.838C519.242 317.698 519.522 317.497 519.812 317.236V315.598C519.121 315.682 518.57 315.794 518.16 315.934C517.758 316.065 517.469 316.228 517.292 316.424C517.124 316.611 517.04 316.835 517.04 317.096C517.04 317.432 517.142 317.675 517.348 317.824C517.562 317.964 517.824 318.034 518.132 318.034ZM523.238 319V312.154H524.372L524.484 313.386H524.526C524.76 312.947 525.044 312.607 525.38 312.364C525.726 312.112 526.09 311.986 526.472 311.986C526.631 311.986 526.766 312 526.878 312.028C527 312.047 527.112 312.079 527.214 312.126L526.934 313.316C526.832 313.288 526.734 313.269 526.64 313.26C526.547 313.241 526.43 313.232 526.29 313.232C526.01 313.232 525.716 313.344 525.408 313.568C525.1 313.783 524.839 314.165 524.624 314.716V319H523.238ZM530.485 322.08C529.934 322.08 529.444 322.01 529.015 321.87C528.585 321.739 528.249 321.539 528.007 321.268C527.764 321.007 527.643 320.675 527.643 320.274C527.643 319.985 527.731 319.709 527.909 319.448C528.086 319.196 528.329 318.972 528.637 318.776V318.72C528.469 318.599 528.324 318.449 528.203 318.272C528.081 318.085 528.021 317.857 528.021 317.586C528.021 317.306 528.1 317.059 528.259 316.844C528.427 316.62 528.599 316.443 528.777 316.312V316.256C528.553 316.079 528.347 315.831 528.161 315.514C527.974 315.197 527.881 314.837 527.881 314.436C527.881 313.923 528.002 313.484 528.245 313.12C528.497 312.756 528.819 312.476 529.211 312.28C529.612 312.084 530.051 311.986 530.527 311.986C530.713 311.986 530.891 312.005 531.059 312.042C531.236 312.07 531.39 312.107 531.521 312.154H533.929V313.204H532.585V313.26C532.725 313.4 532.841 313.573 532.935 313.778C533.028 313.983 533.075 314.221 533.075 314.492C533.075 314.987 532.958 315.407 532.725 315.752C532.501 316.097 532.197 316.363 531.815 316.55C531.432 316.737 531.003 316.83 530.527 316.83C530.368 316.83 530.205 316.811 530.037 316.774C529.869 316.737 529.705 316.685 529.547 316.62C529.444 316.713 529.355 316.816 529.281 316.928C529.206 317.04 529.169 317.185 529.169 317.362C529.169 317.558 529.253 317.721 529.421 317.852C529.589 317.973 529.887 318.034 530.317 318.034H531.591C532.403 318.034 533.014 318.165 533.425 318.426C533.835 318.687 534.041 319.112 534.041 319.7C534.041 320.139 533.896 320.535 533.607 320.89C533.317 321.254 532.907 321.543 532.375 321.758C531.843 321.973 531.213 322.08 530.485 322.08ZM530.527 315.934C530.769 315.934 530.989 315.873 531.185 315.752C531.381 315.631 531.539 315.458 531.661 315.234C531.782 315.01 531.843 314.744 531.843 314.436C531.843 313.969 531.712 313.61 531.451 313.358C531.199 313.097 530.891 312.966 530.527 312.966C530.153 312.966 529.841 313.097 529.589 313.358C529.337 313.61 529.211 313.969 529.211 314.436C529.211 314.744 529.271 315.01 529.393 315.234C529.514 315.458 529.673 315.631 529.869 315.752C530.065 315.873 530.284 315.934 530.527 315.934ZM530.695 321.156C531.096 321.156 531.446 321.1 531.745 320.988C532.043 320.876 532.277 320.722 532.445 320.526C532.613 320.339 532.697 320.134 532.697 319.91C532.697 319.621 532.585 319.42 532.361 319.308C532.146 319.205 531.829 319.154 531.409 319.154H530.345C530.195 319.154 530.041 319.145 529.883 319.126C529.733 319.107 529.589 319.084 529.449 319.056C529.234 319.205 529.075 319.364 528.973 319.532C528.879 319.709 528.833 319.891 528.833 320.078C528.833 320.414 528.996 320.675 529.323 320.862C529.659 321.058 530.116 321.156 530.695 321.156ZM537.962 319.168C537.327 319.168 536.758 319.028 536.254 318.748C535.75 318.459 535.348 318.048 535.05 317.516C534.76 316.984 534.616 316.34 534.616 315.584C534.616 314.837 534.765 314.198 535.064 313.666C535.362 313.125 535.75 312.709 536.226 312.42C536.702 312.131 537.206 311.986 537.738 311.986C538.344 311.986 538.853 312.126 539.264 312.406C539.674 312.677 539.982 313.055 540.188 313.54C540.402 314.016 540.51 314.576 540.51 315.22C540.51 315.351 540.505 315.481 540.496 315.612C540.486 315.743 540.468 315.869 540.44 315.99H535.624V314.912H539.278C539.278 314.333 539.152 313.89 538.9 313.582C538.648 313.265 538.27 313.106 537.766 313.106C537.476 313.106 537.196 313.185 536.926 313.344C536.655 313.493 536.431 313.75 536.254 314.114C536.076 314.469 535.988 314.954 535.988 315.57C535.988 316.13 536.086 316.592 536.282 316.956C536.478 317.32 536.739 317.595 537.066 317.782C537.392 317.959 537.742 318.048 538.116 318.048C538.433 318.048 538.727 318.006 538.998 317.922C539.278 317.829 539.534 317.707 539.768 317.558L540.258 318.454C539.95 318.669 539.6 318.841 539.208 318.972C538.825 319.103 538.41 319.168 537.962 319.168ZM543.967 319.168C543.473 319.168 543.001 319.084 542.553 318.916C542.105 318.739 541.718 318.491 541.391 318.174L542.007 317.376C542.315 317.619 542.628 317.801 542.945 317.922C543.263 318.043 543.617 318.104 544.009 318.104C544.42 318.104 544.723 318.015 544.919 317.838C545.125 317.651 545.227 317.427 545.227 317.166C545.227 316.961 545.153 316.788 545.003 316.648C544.863 316.499 544.681 316.377 544.457 316.284C544.233 316.181 543.995 316.083 543.743 315.99C543.407 315.869 543.085 315.724 542.777 315.556C542.479 315.379 542.236 315.164 542.049 314.912C541.863 314.66 541.769 314.352 541.769 313.988C541.769 313.409 541.984 312.933 542.413 312.56C542.852 312.177 543.449 311.986 544.205 311.986C544.644 311.986 545.05 312.061 545.423 312.21C545.806 312.359 546.133 312.551 546.403 312.784L545.787 313.582C545.545 313.414 545.297 313.283 545.045 313.19C544.793 313.097 544.518 313.05 544.219 313.05C543.837 313.05 543.552 313.139 543.365 313.316C543.179 313.484 543.085 313.685 543.085 313.918C543.085 314.105 543.141 314.263 543.253 314.394C543.375 314.515 543.538 314.623 543.743 314.716C543.958 314.809 544.21 314.907 544.499 315.01C544.854 315.131 545.185 315.276 545.493 315.444C545.811 315.612 546.063 315.827 546.249 316.088C546.445 316.349 546.543 316.681 546.543 317.082C546.543 317.465 546.445 317.815 546.249 318.132C546.053 318.449 545.764 318.701 545.381 318.888C544.999 319.075 544.527 319.168 543.967 319.168Z"
            fill="white" />
        <path
            d="M304.204 318V308.83H306.584C307.517 308.83 308.311 309.003 308.964 309.348C309.617 309.693 310.117 310.207 310.462 310.888C310.807 311.56 310.98 312.391 310.98 313.38C310.98 314.369 310.807 315.209 310.462 315.9C310.126 316.581 309.636 317.104 308.992 317.468C308.348 317.823 307.569 318 306.654 318H304.204ZM305.604 316.866H306.486C307.149 316.866 307.709 316.735 308.166 316.474C308.623 316.203 308.964 315.811 309.188 315.298C309.421 314.785 309.538 314.145 309.538 313.38C309.538 312.615 309.421 311.98 309.188 311.476C308.964 310.972 308.623 310.594 308.166 310.342C307.709 310.09 307.149 309.964 306.486 309.964H305.604V316.866ZM315.63 318.168C314.995 318.168 314.426 318.028 313.922 317.748C313.418 317.459 313.016 317.048 312.718 316.516C312.428 315.984 312.284 315.34 312.284 314.584C312.284 313.837 312.433 313.198 312.732 312.666C313.03 312.125 313.418 311.709 313.894 311.42C314.37 311.131 314.874 310.986 315.406 310.986C316.012 310.986 316.521 311.126 316.932 311.406C317.342 311.677 317.65 312.055 317.856 312.54C318.07 313.016 318.178 313.576 318.178 314.22C318.178 314.351 318.173 314.481 318.164 314.612C318.154 314.743 318.136 314.869 318.108 314.99H313.292V313.912H316.946C316.946 313.333 316.82 312.89 316.568 312.582C316.316 312.265 315.938 312.106 315.434 312.106C315.144 312.106 314.864 312.185 314.594 312.344C314.323 312.493 314.099 312.75 313.922 313.114C313.744 313.469 313.656 313.954 313.656 314.57C313.656 315.13 313.754 315.592 313.95 315.956C314.146 316.32 314.407 316.595 314.734 316.782C315.06 316.959 315.41 317.048 315.784 317.048C316.101 317.048 316.395 317.006 316.666 316.922C316.946 316.829 317.202 316.707 317.436 316.558L317.926 317.454C317.618 317.669 317.268 317.841 316.876 317.972C316.493 318.103 316.078 318.168 315.63 318.168ZM321.313 318L318.891 311.154H320.305L321.495 314.878C321.588 315.205 321.686 315.541 321.789 315.886C321.901 316.231 322.003 316.572 322.097 316.908H322.153C322.255 316.572 322.358 316.231 322.461 315.886C322.563 315.541 322.661 315.205 322.755 314.878L323.945 311.154H325.289L322.923 318H321.313ZM326.541 318V311.154H327.927V318H326.541ZM327.241 309.852C326.989 309.852 326.779 309.777 326.611 309.628C326.452 309.469 326.373 309.264 326.373 309.012C326.373 308.769 326.452 308.573 326.611 308.424C326.779 308.265 326.989 308.186 327.241 308.186C327.502 308.186 327.712 308.265 327.871 308.424C328.03 308.573 328.109 308.769 328.109 309.012C328.109 309.264 328.03 309.469 327.871 309.628C327.712 309.777 327.502 309.852 327.241 309.852ZM331.958 318.168C331.463 318.168 330.992 318.084 330.544 317.916C330.096 317.739 329.708 317.491 329.382 317.174L329.998 316.376C330.306 316.619 330.618 316.801 330.936 316.922C331.253 317.043 331.608 317.104 332 317.104C332.41 317.104 332.714 317.015 332.91 316.838C333.115 316.651 333.218 316.427 333.218 316.166C333.218 315.961 333.143 315.788 332.994 315.648C332.854 315.499 332.672 315.377 332.448 315.284C332.224 315.181 331.986 315.083 331.734 314.99C331.398 314.869 331.076 314.724 330.768 314.556C330.469 314.379 330.226 314.164 330.04 313.912C329.853 313.66 329.76 313.352 329.76 312.988C329.76 312.409 329.974 311.933 330.404 311.56C330.842 311.177 331.44 310.986 332.196 310.986C332.634 310.986 333.04 311.061 333.414 311.21C333.796 311.359 334.123 311.551 334.394 311.784L333.778 312.582C333.535 312.414 333.288 312.283 333.036 312.19C332.784 312.097 332.508 312.05 332.21 312.05C331.827 312.05 331.542 312.139 331.356 312.316C331.169 312.484 331.076 312.685 331.076 312.918C331.076 313.105 331.132 313.263 331.244 313.394C331.365 313.515 331.528 313.623 331.734 313.716C331.948 313.809 332.2 313.907 332.49 314.01C332.844 314.131 333.176 314.276 333.484 314.444C333.801 314.612 334.053 314.827 334.24 315.088C334.436 315.349 334.534 315.681 334.534 316.082C334.534 316.465 334.436 316.815 334.24 317.132C334.044 317.449 333.754 317.701 333.372 317.888C332.989 318.075 332.518 318.168 331.958 318.168ZM341.212 318.168C340.362 318.168 339.681 317.855 339.168 317.23C338.654 316.595 338.398 315.713 338.398 314.584C338.398 313.847 338.533 313.212 338.804 312.68C339.084 312.139 339.448 311.723 339.896 311.434C340.344 311.135 340.82 310.986 341.324 310.986C341.725 310.986 342.066 311.056 342.346 311.196C342.626 311.327 342.906 311.513 343.186 311.756L343.13 310.622V308.074H344.516V318H343.382L343.27 317.23H343.228C342.966 317.482 342.663 317.701 342.318 317.888C341.972 318.075 341.604 318.168 341.212 318.168ZM341.548 317.02C341.837 317.02 342.108 316.95 342.36 316.81C342.621 316.67 342.878 316.455 343.13 316.166V312.778C342.868 312.545 342.612 312.381 342.36 312.288C342.117 312.195 341.865 312.148 341.604 312.148C341.277 312.148 340.978 312.246 340.708 312.442C340.446 312.638 340.232 312.918 340.064 313.282C339.905 313.646 339.826 314.075 339.826 314.57C339.826 315.354 339.975 315.961 340.274 316.39C340.572 316.81 340.997 317.02 341.548 317.02ZM349.536 318.168C348.901 318.168 348.332 318.028 347.828 317.748C347.324 317.459 346.923 317.048 346.624 316.516C346.335 315.984 346.19 315.34 346.19 314.584C346.19 313.837 346.339 313.198 346.638 312.666C346.937 312.125 347.324 311.709 347.8 311.42C348.276 311.131 348.78 310.986 349.312 310.986C349.919 310.986 350.427 311.126 350.838 311.406C351.249 311.677 351.557 312.055 351.762 312.54C351.977 313.016 352.084 313.576 352.084 314.22C352.084 314.351 352.079 314.481 352.07 314.612C352.061 314.743 352.042 314.869 352.014 314.99H347.198V313.912H350.852C350.852 313.333 350.726 312.89 350.474 312.582C350.222 312.265 349.844 312.106 349.34 312.106C349.051 312.106 348.771 312.185 348.5 312.344C348.229 312.493 348.005 312.75 347.828 313.114C347.651 313.469 347.562 313.954 347.562 314.57C347.562 315.13 347.66 315.592 347.856 315.956C348.052 316.32 348.313 316.595 348.64 316.782C348.967 316.959 349.317 317.048 349.69 317.048C350.007 317.048 350.301 317.006 350.572 316.922C350.852 316.829 351.109 316.707 351.342 316.558L351.832 317.454C351.524 317.669 351.174 317.841 350.782 317.972C350.399 318.103 349.984 318.168 349.536 318.168ZM348.178 310.02L349.942 307.654H351.44L351.524 307.794L349.284 310.02H348.178ZM355.839 318.14C355.074 318.14 354.537 317.921 354.229 317.482C353.921 317.034 353.767 316.455 353.767 315.746V312.274H352.773V311.224L353.837 311.154L354.005 308.984H355.167V311.154H356.959V312.274H355.167V315.76C355.167 316.171 355.242 316.483 355.391 316.698C355.55 316.913 355.811 317.02 356.175 317.02C356.296 317.02 356.418 317.011 356.539 316.992C356.67 316.964 356.796 316.922 356.917 316.866L357.183 317.832C357.006 317.925 356.8 318 356.567 318.056C356.334 318.112 356.091 318.14 355.839 318.14ZM359.761 318.168C359.369 318.168 359.019 318.089 358.711 317.93C358.412 317.771 358.174 317.543 357.997 317.244C357.829 316.945 357.745 316.595 357.745 316.194C357.745 315.419 358.071 314.836 358.725 314.444C359.387 314.052 360.433 313.777 361.861 313.618C361.861 313.366 361.819 313.128 361.735 312.904C361.66 312.671 361.525 312.489 361.329 312.358C361.133 312.218 360.867 312.148 360.531 312.148C360.167 312.148 359.817 312.213 359.481 312.344C359.154 312.475 358.841 312.633 358.543 312.82L358.025 311.868C358.258 311.719 358.519 311.579 358.809 311.448C359.098 311.308 359.406 311.196 359.733 311.112C360.069 311.028 360.419 310.986 360.783 310.986C361.343 310.986 361.805 311.103 362.169 311.336C362.533 311.569 362.803 311.901 362.981 312.33C363.158 312.759 363.247 313.277 363.247 313.884V318H362.099L362.001 317.216H361.945C361.627 317.477 361.287 317.701 360.923 317.888C360.568 318.075 360.181 318.168 359.761 318.168ZM360.181 317.034C360.479 317.034 360.759 316.969 361.021 316.838C361.291 316.698 361.571 316.497 361.861 316.236V314.598C361.17 314.682 360.619 314.794 360.209 314.934C359.807 315.065 359.518 315.228 359.341 315.424C359.173 315.611 359.089 315.835 359.089 316.096C359.089 316.432 359.191 316.675 359.397 316.824C359.611 316.964 359.873 317.034 360.181 317.034ZM365.273 318V311.154H366.659V318H365.273ZM365.973 309.852C365.721 309.852 365.511 309.777 365.343 309.628C365.185 309.469 365.105 309.264 365.105 309.012C365.105 308.769 365.185 308.573 365.343 308.424C365.511 308.265 365.721 308.186 365.973 308.186C366.235 308.186 366.445 308.265 366.603 308.424C366.762 308.573 366.841 308.769 366.841 309.012C366.841 309.264 366.762 309.469 366.603 309.628C366.445 309.777 366.235 309.852 365.973 309.852ZM370.228 318.14C369.892 318.14 369.621 318.07 369.416 317.93C369.211 317.79 369.061 317.594 368.968 317.342C368.875 317.081 368.828 316.768 368.828 316.404V308.074H370.214V316.488C370.214 316.684 370.247 316.819 370.312 316.894C370.387 316.959 370.471 316.992 370.564 316.992C370.601 316.992 370.634 316.992 370.662 316.992C370.699 316.983 370.746 316.973 370.802 316.964L370.998 318C370.905 318.037 370.793 318.07 370.662 318.098C370.541 318.126 370.396 318.14 370.228 318.14ZM373.906 318.14C373.57 318.14 373.299 318.07 373.094 317.93C372.888 317.79 372.739 317.594 372.646 317.342C372.552 317.081 372.506 316.768 372.506 316.404V308.074H373.892V316.488C373.892 316.684 373.924 316.819 373.99 316.894C374.064 316.959 374.148 316.992 374.242 316.992C374.279 316.992 374.312 316.992 374.34 316.992C374.377 316.983 374.424 316.973 374.48 316.964L374.676 318C374.582 318.037 374.47 318.07 374.34 318.098C374.218 318.126 374.074 318.14 373.906 318.14ZM379.053 318.168C378.419 318.168 377.849 318.028 377.345 317.748C376.841 317.459 376.44 317.048 376.141 316.516C375.852 315.984 375.707 315.34 375.707 314.584C375.707 313.837 375.857 313.198 376.155 312.666C376.454 312.125 376.841 311.709 377.317 311.42C377.793 311.131 378.297 310.986 378.829 310.986C379.436 310.986 379.945 311.126 380.355 311.406C380.766 311.677 381.074 312.055 381.279 312.54C381.494 313.016 381.601 313.576 381.601 314.22C381.601 314.351 381.597 314.481 381.587 314.612C381.578 314.743 381.559 314.869 381.531 314.99H376.715V313.912H380.369C380.369 313.333 380.243 312.89 379.991 312.582C379.739 312.265 379.361 312.106 378.857 312.106C378.568 312.106 378.288 312.185 378.017 312.344C377.747 312.493 377.523 312.75 377.345 313.114C377.168 313.469 377.079 313.954 377.079 314.57C377.079 315.13 377.177 315.592 377.373 315.956C377.569 316.32 377.831 316.595 378.157 316.782C378.484 316.959 378.834 317.048 379.207 317.048C379.525 317.048 379.819 317.006 380.089 316.922C380.369 316.829 380.626 316.707 380.859 316.558L381.349 317.454C381.041 317.669 380.691 317.841 380.299 317.972C379.917 318.103 379.501 318.168 379.053 318.168ZM377.695 310.02L379.459 307.654H380.957L381.041 307.794L378.801 310.02H377.695Z"
            fill="white" />
    </g>
    <path d="M22.5173 160.576H571.639" stroke="#C8543C" stroke-width="1.725" stroke-miterlimit="10" />
    <path
        d="M525.949 187.194C540.65 187.194 552.567 175.277 552.567 160.576C552.567 145.876 540.65 133.958 525.949 133.958C511.249 133.958 499.332 145.876 499.332 160.576C499.332 175.277 511.249 187.194 525.949 187.194Z"
        fill="#D8D8D9" />
    <path
        d="M412.975 187.194C427.675 187.194 439.592 175.277 439.592 160.576C439.592 145.876 427.675 133.958 412.975 133.958C398.274 133.958 386.357 145.876 386.357 160.576C386.357 175.277 398.274 187.194 412.975 187.194Z"
        fill="#F9D35D" />
    <path
        d="M300 187.194C314.7 187.194 326.618 175.277 326.618 160.576C326.618 145.876 314.7 133.958 300 133.958C285.3 133.958 273.382 145.876 273.382 160.576C273.382 175.277 285.3 187.194 300 187.194Z"
        fill="#D8D8D9" />
    <path
        d="M187.025 187.194C201.726 187.194 213.643 175.277 213.643 160.576C213.643 145.876 201.726 133.958 187.025 133.958C172.325 133.958 160.408 145.876 160.408 160.576C160.408 175.277 172.325 187.194 187.025 187.194Z"
        fill="#D8D8D9" />
    <path
        d="M74.0506 187.194C88.7511 187.194 100.668 175.277 100.668 160.576C100.668 145.876 88.7511 133.958 74.0506 133.958C59.3501 133.958 47.433 145.876 47.433 160.576C47.433 175.277 59.3501 187.194 74.0506 187.194Z"
        fill="#39A5B3" />
    <path d="M565.796 166.498V154.654L577.483 160.576L565.796 166.498Z" fill="#C8543C" />
    <path
        d="M73.358 168.021C77.8825 168.021 81.5503 164.353 81.5503 159.829C81.5503 155.304 77.8825 151.636 73.358 151.636C68.8335 151.636 65.1657 155.304 65.1657 159.829C65.1657 164.353 68.8335 168.021 73.358 168.021Z"
        stroke="white" stroke-width="2.3" stroke-miterlimit="10" />
    <path d="M79.1509 165.621L84.4945 170.965" stroke="white" stroke-width="2.3" stroke-miterlimit="10"
        stroke-linecap="round" />
    <path
        d="M192.307 151.108L194.197 149.218C194.571 148.82 195.087 148.586 195.633 148.567C196.179 148.548 196.71 148.745 197.111 149.116L199.416 151.421C199.786 151.822 199.984 152.353 199.965 152.899C199.946 153.444 199.712 153.96 199.314 154.334L197.424 156.225"
        stroke="white" stroke-width="2.3" stroke-linecap="round" stroke-linejoin="round" />
    <path
        d="M181.837 171.394L175.788 172.744L177.137 166.694C177.277 166.279 177.511 165.903 177.821 165.593L192.307 151.108L197.424 156.225L182.938 170.71C182.629 171.02 182.252 171.254 181.837 171.394Z"
        stroke="white" stroke-width="2.3" stroke-linecap="round" stroke-linejoin="round" />
    <path d="M182.348 171.068L177.463 166.184" stroke="white" stroke-width="2.3" stroke-linecap="round"
        stroke-linejoin="round" />
    <path
        d="M425.138 148.387C419.015 148.094 412.41 150.569 407.307 155.673L401.412 161.567L411.958 172.113L417.852 166.218C422.956 161.115 425.431 154.51 425.138 148.387Z"
        stroke="white" stroke-width="2.3" stroke-linecap="round" stroke-linejoin="round" />
    <path d="M407.371 174.783L398.742 166.154L403.225 163.38L410.145 170.3L407.371 174.783Z" stroke="white"
        stroke-width="2.3" stroke-linecap="round" stroke-linejoin="round" />
    <path
        d="M416.766 167.304C417.398 167.936 417.899 168.685 418.241 169.51C418.583 170.335 418.759 171.22 418.759 172.113C418.759 173.006 418.583 173.89 418.241 174.715C417.899 175.54 417.398 176.29 416.766 176.921L409.626 169.781"
        stroke="white" stroke-width="2.3" stroke-linecap="round" stroke-linejoin="round" />
    <path
        d="M406.22 156.758C405.589 156.127 404.839 155.625 404.014 155.283C403.189 154.941 402.305 154.765 401.412 154.765C400.519 154.765 399.634 154.941 398.809 155.283C397.984 155.625 397.235 156.127 396.604 156.758L401.812 161.967"
        stroke="white" stroke-width="2.3" stroke-linecap="round" stroke-linejoin="round" />
    <path d="M411.493 162.032L406.685 166.84" stroke="white" stroke-width="2.3" stroke-linecap="round"
        stroke-linejoin="round" />
    <path d="M307.967 151.879L314.96 160.576L307.967 169.273" stroke="white" stroke-width="2.3" stroke-linecap="round"
        stroke-linejoin="round" />
    <path d="M292.033 169.273L285.04 160.576L292.033 151.879" stroke="white" stroke-width="2.3" stroke-linecap="round"
        stroke-linejoin="round" />
    <path d="M302.633 147.863L297.366 173.29" stroke="white" stroke-width="2.3" stroke-linecap="round"
        stroke-linejoin="round" />
    <path
        d="M525.949 170.859C531.628 170.859 536.232 166.255 536.232 160.576C536.232 154.897 531.628 150.293 525.949 150.293C520.27 150.293 515.667 154.897 515.667 160.576C515.667 166.255 520.27 170.859 525.949 170.859Z"
        stroke="white" stroke-width="2.3" stroke-miterlimit="10" />
    <path d="M525.949 156.099L522.072 158.337V162.815L525.949 165.053L529.827 162.815V158.337L525.949 156.099Z"
        stroke="white" stroke-width="2.3" stroke-linejoin="round" />
    <path d="M525.949 170.859V173.96" stroke="white" stroke-width="2.3" stroke-miterlimit="10" stroke-linecap="round" />
    <path d="M525.949 150.293V147.192" stroke="white" stroke-width="2.3" stroke-miterlimit="10"
        stroke-linecap="round" />
    <path d="M533.22 167.847L535.413 170.04" stroke="white" stroke-width="2.3" stroke-miterlimit="10"
        stroke-linecap="round" />
    <path d="M518.679 153.305L516.486 151.112" stroke="white" stroke-width="2.3" stroke-miterlimit="10"
        stroke-linecap="round" />
    <path d="M536.232 160.576H539.333" stroke="white" stroke-width="2.3" stroke-miterlimit="10"
        stroke-linecap="round" />
    <path d="M515.667 160.576H512.565" stroke="white" stroke-width="2.3" stroke-miterlimit="10"
        stroke-linecap="round" />
    <path d="M533.22 153.305L535.413 151.112" stroke="white" stroke-width="2.3" stroke-miterlimit="10"
        stroke-linecap="round" />
    <path d="M518.679 167.847L516.486 170.04" stroke="white" stroke-width="2.3" stroke-miterlimit="10"
        stroke-linecap="round" />
    <path
        d="M493.46 276.797V280.831C493.46 281.233 493.539 281.63 493.693 282.001C493.846 282.372 494.072 282.709 494.355 282.993C494.639 283.276 494.976 283.501 495.347 283.655C495.718 283.809 496.115 283.888 496.517 283.888H500.551"
        stroke="white" stroke-width="1.725" stroke-miterlimit="10" stroke-linecap="round" />
    <path
        d="M500.617 283.888V297.423C500.617 298.149 500.329 298.845 499.815 299.358C499.302 299.871 498.606 300.16 497.88 300.16H485.737C485.011 300.16 484.315 299.871 483.802 299.358C483.288 298.845 483 298.149 483 297.423V279.468C483 278.742 483.288 278.046 483.802 277.533C484.315 277.019 485.011 276.731 485.737 276.731H493.46"
        stroke="white" stroke-width="1.725" stroke-miterlimit="10" stroke-linecap="round" />
    <path d="M493.46 276.797L500.551 283.888" stroke="white" stroke-width="1.725" stroke-miterlimit="10"
        stroke-linecap="round" />
    <path d="M487.21 282.508H489.914" stroke="white" stroke-width="1.725" stroke-miterlimit="10"
        stroke-linecap="round" />
    <path d="M487.21 286.725H496.451" stroke="white" stroke-width="1.725" stroke-miterlimit="10"
        stroke-linecap="round" />
    <path d="M487.21 294.891H496.451" stroke="white" stroke-width="1.725" stroke-miterlimit="10"
        stroke-linecap="round" />
    <path d="M487.21 290.808H496.451" stroke="white" stroke-width="1.725" stroke-miterlimit="10"
        stroke-linecap="round" />
    <path
        d="M208.741 277.122H195.646C193.365 277.122 191.517 278.97 191.517 281.25V288.989C191.517 291.269 193.365 293.117 195.646 293.117H208.741C211.021 293.117 212.87 291.269 212.87 288.989V281.25C212.87 278.97 211.021 277.122 208.741 277.122Z"
        stroke="white" stroke-width="1.725" stroke-miterlimit="10" />
    <path
        d="M216.095 283.896C216.944 284.411 217.647 285.136 218.135 286.002C218.622 286.868 218.878 287.845 218.878 288.839V293.274C218.878 294.807 218.269 296.277 217.185 297.361C216.101 298.445 214.63 299.054 213.097 299.054H204.956C204.068 299.055 203.192 298.851 202.396 298.458C201.6 298.064 200.905 297.493 200.366 296.787"
        stroke="white" stroke-width="1.725" stroke-miterlimit="10" stroke-linecap="round" />
    <path d="M197.174 293.264L193.569 296.87" stroke="white" stroke-width="1.725" stroke-miterlimit="10"
        stroke-linecap="round" />
    <path d="M211.416 299.045L214.44 302.069" stroke="white" stroke-width="1.725" stroke-miterlimit="10"
        stroke-linecap="round" />
    <path
        d="M202.193 286.343C202.869 286.343 203.417 285.795 203.417 285.119C203.417 284.443 202.869 283.896 202.193 283.896C201.517 283.896 200.969 284.443 200.969 285.119C200.969 285.795 201.517 286.343 202.193 286.343Z"
        fill="white" />
    <path
        d="M197.71 286.343C198.386 286.343 198.934 285.795 198.934 285.119C198.934 284.443 198.386 283.896 197.71 283.896C197.034 283.896 196.486 284.443 196.486 285.119C196.486 285.795 197.034 286.343 197.71 286.343Z"
        fill="white" />
    <path
        d="M206.677 286.343C207.353 286.343 207.901 285.795 207.901 285.119C207.901 284.443 207.353 283.896 206.677 283.896C206.001 283.896 205.453 284.443 205.453 285.119C205.453 285.795 206.001 286.343 206.677 286.343Z"
        fill="white" />
    <path
        d="M332 298.977V279.447C332 279.04 332.162 278.65 332.449 278.363C332.737 278.075 333.127 277.914 333.533 277.914H351.862C352.269 277.914 352.659 278.075 352.946 278.363C353.234 278.65 353.396 279.04 353.396 279.447V298.977H332Z"
        stroke="white" stroke-width="1.725" stroke-linecap="round" stroke-linejoin="round" />
    <path d="M332 290.264H353.396" stroke="white" stroke-width="1.725" stroke-linecap="round" stroke-linejoin="round" />
    <path d="M332.584 278.251L353.396 290.265" stroke="white" stroke-width="1.725" stroke-linecap="round"
        stroke-linejoin="round" />
    <path d="M352.812 278.251L332 290.265" stroke="white" stroke-width="1.725" stroke-linecap="round"
        stroke-linejoin="round" />
    <path d="M339.132 298.977V290.346" stroke="white" stroke-width="1.725" stroke-linecap="round"
        stroke-linejoin="round" />
    <path d="M346.264 298.977V290.346" stroke="white" stroke-width="1.725" stroke-linecap="round"
        stroke-linejoin="round" />
    <path d="M81.6031 277.759L69.1788 298.857" stroke="white" stroke-width="1.725" stroke-miterlimit="10"
        stroke-linecap="round" />
    <path
        d="M74.7 289.481C80.738 290.131 81.2533 297.333 89.65 297.705L96.5531 285.982C88.3815 285.625 87.6411 278.409 81.6031 277.759"
        stroke="white" stroke-width="1.725" stroke-linecap="round" stroke-linejoin="round" />
    <path
        d="M39.316 123V113.2H43.348C44.216 113.2 44.958 113.34 45.574 113.62C46.1993 113.9 46.68 114.301 47.016 114.824C47.352 115.347 47.52 115.967 47.52 116.686C47.52 117.405 47.352 118.025 47.016 118.548C46.68 119.061 46.1993 119.458 45.574 119.738C44.958 120.009 44.216 120.144 43.348 120.144H40.324L41.136 119.318V123H39.316ZM45.728 123L43.25 119.444H45.196L47.688 123H45.728ZM41.136 119.514L40.324 118.646H43.264C44.0667 118.646 44.6687 118.473 45.07 118.128C45.4807 117.783 45.686 117.302 45.686 116.686C45.686 116.061 45.4807 115.58 45.07 115.244C44.6687 114.908 44.0667 114.74 43.264 114.74H40.324L41.136 113.844V119.514ZM52.9022 123.098C52.0716 123.098 51.3436 122.935 50.7182 122.608C50.1022 122.272 49.6216 121.815 49.2762 121.236C48.9402 120.657 48.7722 119.999 48.7722 119.262C48.7722 118.515 48.9356 117.857 49.2622 117.288C49.5982 116.709 50.0556 116.257 50.6342 115.93C51.2222 115.603 51.8896 115.44 52.6362 115.44C53.3642 115.44 54.0129 115.599 54.5822 115.916C55.1516 116.233 55.5996 116.681 55.9262 117.26C56.2529 117.839 56.4162 118.52 56.4162 119.304C56.4162 119.379 56.4116 119.463 56.4022 119.556C56.4022 119.649 56.3976 119.738 56.3882 119.822H50.1582V118.66H55.4642L54.7782 119.024C54.7876 118.595 54.6989 118.217 54.5122 117.89C54.3256 117.563 54.0689 117.307 53.7422 117.12C53.4249 116.933 53.0562 116.84 52.6362 116.84C52.2069 116.84 51.8289 116.933 51.5022 117.12C51.1849 117.307 50.9329 117.568 50.7462 117.904C50.5689 118.231 50.4802 118.618 50.4802 119.066V119.346C50.4802 119.794 50.5829 120.191 50.7882 120.536C50.9936 120.881 51.2829 121.147 51.6562 121.334C52.0296 121.521 52.4589 121.614 52.9442 121.614C53.3642 121.614 53.7422 121.549 54.0782 121.418C54.4142 121.287 54.7129 121.082 54.9742 120.802L55.9122 121.88C55.5762 122.272 55.1516 122.575 54.6382 122.79C54.1342 122.995 53.5556 123.098 52.9022 123.098ZM61.5272 123.098C60.7432 123.098 60.0432 122.935 59.4272 122.608C58.8206 122.272 58.3446 121.815 57.9992 121.236C57.6539 120.657 57.4812 119.999 57.4812 119.262C57.4812 118.515 57.6539 117.857 57.9992 117.288C58.3446 116.709 58.8206 116.257 59.4272 115.93C60.0432 115.603 60.7432 115.44 61.5272 115.44C62.2552 115.44 62.8946 115.589 63.4452 115.888C64.0052 116.177 64.4299 116.607 64.7192 117.176L63.3752 117.96C63.1512 117.605 62.8759 117.344 62.5492 117.176C62.2319 117.008 61.8866 116.924 61.5132 116.924C61.0839 116.924 60.6966 117.017 60.3512 117.204C60.0059 117.391 59.7352 117.661 59.5392 118.016C59.3432 118.361 59.2452 118.777 59.2452 119.262C59.2452 119.747 59.3432 120.167 59.5392 120.522C59.7352 120.867 60.0059 121.133 60.3512 121.32C60.6966 121.507 61.0839 121.6 61.5132 121.6C61.8866 121.6 62.2319 121.516 62.5492 121.348C62.8759 121.18 63.1512 120.919 63.3752 120.564L64.7192 121.348C64.4299 121.908 64.0052 122.342 63.4452 122.65C62.8946 122.949 62.2552 123.098 61.5272 123.098ZM70.4056 115.44C71.003 115.44 71.535 115.557 72.0016 115.79C72.4776 116.023 72.851 116.383 73.1216 116.868C73.3923 117.344 73.5276 117.96 73.5276 118.716V123H71.7776V118.94C71.7776 118.277 71.619 117.783 71.3016 117.456C70.9936 117.129 70.5596 116.966 69.9996 116.966C69.589 116.966 69.225 117.05 68.9076 117.218C68.5903 117.386 68.343 117.638 68.1656 117.974C67.9976 118.301 67.9136 118.716 67.9136 119.22V123H66.1636V112.612H67.9136V117.54L67.5356 116.924C67.797 116.448 68.175 116.084 68.6696 115.832C69.1736 115.571 69.7523 115.44 70.4056 115.44ZM79.2753 123.098C78.4446 123.098 77.7166 122.935 77.0913 122.608C76.4753 122.272 75.9946 121.815 75.6493 121.236C75.3133 120.657 75.1453 119.999 75.1453 119.262C75.1453 118.515 75.3086 117.857 75.6353 117.288C75.9713 116.709 76.4286 116.257 77.0073 115.93C77.5953 115.603 78.2626 115.44 79.0093 115.44C79.7373 115.44 80.3859 115.599 80.9553 115.916C81.5246 116.233 81.9726 116.681 82.2993 117.26C82.6259 117.839 82.7893 118.52 82.7893 119.304C82.7893 119.379 82.7846 119.463 82.7753 119.556C82.7753 119.649 82.7706 119.738 82.7613 119.822H76.5313V118.66H81.8373L81.1513 119.024C81.1606 118.595 81.0719 118.217 80.8853 117.89C80.6986 117.563 80.4419 117.307 80.1153 117.12C79.7979 116.933 79.4293 116.84 79.0093 116.84C78.5799 116.84 78.2019 116.933 77.8753 117.12C77.5579 117.307 77.3059 117.568 77.1193 117.904C76.9419 118.231 76.8533 118.618 76.8533 119.066V119.346C76.8533 119.794 76.9559 120.191 77.1613 120.536C77.3666 120.881 77.6559 121.147 78.0293 121.334C78.4026 121.521 78.8319 121.614 79.3173 121.614C79.7373 121.614 80.1153 121.549 80.4513 121.418C80.7873 121.287 81.0859 121.082 81.3473 120.802L82.2853 121.88C81.9493 122.272 81.5246 122.575 81.0113 122.79C80.5073 122.995 79.9286 123.098 79.2753 123.098ZM84.4703 123V115.524H86.1363V117.582L85.9403 116.98C86.1643 116.476 86.5143 116.093 86.9903 115.832C87.4756 115.571 88.0776 115.44 88.7963 115.44V117.106C88.7216 117.087 88.6516 117.078 88.5863 117.078C88.5209 117.069 88.4556 117.064 88.3903 117.064C87.7276 117.064 87.2003 117.26 86.8083 117.652C86.4163 118.035 86.2203 118.609 86.2203 119.374V123H84.4703ZM93.6425 123.098C92.8585 123.098 92.1585 122.935 91.5425 122.608C90.9358 122.272 90.4598 121.815 90.1145 121.236C89.7691 120.657 89.5965 119.999 89.5965 119.262C89.5965 118.515 89.7691 117.857 90.1145 117.288C90.4598 116.709 90.9358 116.257 91.5425 115.93C92.1585 115.603 92.8585 115.44 93.6425 115.44C94.3705 115.44 95.0098 115.589 95.5605 115.888C96.1205 116.177 96.5451 116.607 96.8345 117.176L95.4905 117.96C95.2665 117.605 94.9911 117.344 94.6645 117.176C94.3471 117.008 94.0018 116.924 93.6285 116.924C93.1991 116.924 92.8118 117.017 92.4665 117.204C92.1211 117.391 91.8505 117.661 91.6545 118.016C91.4585 118.361 91.3605 118.777 91.3605 119.262C91.3605 119.747 91.4585 120.167 91.6545 120.522C91.8505 120.867 92.1211 121.133 92.4665 121.32C92.8118 121.507 93.1991 121.6 93.6285 121.6C94.0018 121.6 94.3471 121.516 94.6645 121.348C94.9911 121.18 95.2665 120.919 95.4905 120.564L96.8345 121.348C96.5451 121.908 96.1205 122.342 95.5605 122.65C95.0098 122.949 94.3705 123.098 93.6425 123.098ZM102.521 115.44C103.118 115.44 103.65 115.557 104.117 115.79C104.593 116.023 104.966 116.383 105.237 116.868C105.508 117.344 105.643 117.96 105.643 118.716V123H103.893V118.94C103.893 118.277 103.734 117.783 103.417 117.456C103.109 117.129 102.675 116.966 102.115 116.966C101.704 116.966 101.34 117.05 101.023 117.218C100.706 117.386 100.458 117.638 100.281 117.974C100.113 118.301 100.029 118.716 100.029 119.22V123H98.2789V112.612H100.029V117.54L99.6509 116.924C99.9122 116.448 100.29 116.084 100.785 115.832C101.289 115.571 101.868 115.44 102.521 115.44ZM111.391 123.098C110.56 123.098 109.832 122.935 109.207 122.608C108.591 122.272 108.11 121.815 107.765 121.236C107.429 120.657 107.261 119.999 107.261 119.262C107.261 118.515 107.424 117.857 107.751 117.288C108.087 116.709 108.544 116.257 109.123 115.93C109.711 115.603 110.378 115.44 111.125 115.44C111.853 115.44 112.501 115.599 113.071 115.916C113.64 116.233 114.088 116.681 114.415 117.26C114.741 117.839 114.905 118.52 114.905 119.304C114.905 119.379 114.9 119.463 114.891 119.556C114.891 119.649 114.886 119.738 114.877 119.822H108.647V118.66H113.953L113.267 119.024C113.276 118.595 113.187 118.217 113.001 117.89C112.814 117.563 112.557 117.307 112.231 117.12C111.913 116.933 111.545 116.84 111.125 116.84C110.695 116.84 110.317 116.933 109.991 117.12C109.673 117.307 109.421 117.568 109.235 117.904C109.057 118.231 108.969 118.618 108.969 119.066V119.346C108.969 119.794 109.071 120.191 109.277 120.536C109.482 120.881 109.771 121.147 110.145 121.334C110.518 121.521 110.947 121.614 111.433 121.614C111.853 121.614 112.231 121.549 112.567 121.418C112.903 121.287 113.201 121.082 113.463 120.802L114.401 121.88C114.065 122.272 113.64 122.575 113.127 122.79C112.623 122.995 112.044 123.098 111.391 123.098Z"
        fill="#1A1A1A" />
    <path
        d="M164.316 123V113.2H168.6C169.664 113.2 170.597 113.405 171.4 113.816C172.203 114.227 172.828 114.796 173.276 115.524C173.724 116.252 173.948 117.111 173.948 118.1C173.948 119.08 173.724 119.939 173.276 120.676C172.828 121.404 172.203 121.973 171.4 122.384C170.597 122.795 169.664 123 168.6 123H164.316ZM166.136 121.46H168.516C169.253 121.46 169.888 121.32 170.42 121.04C170.961 120.76 171.377 120.368 171.666 119.864C171.965 119.36 172.114 118.772 172.114 118.1C172.114 117.419 171.965 116.831 171.666 116.336C171.377 115.832 170.961 115.44 170.42 115.16C169.888 114.88 169.253 114.74 168.516 114.74H166.136V121.46ZM179.228 123.098C178.398 123.098 177.67 122.935 177.044 122.608C176.428 122.272 175.948 121.815 175.602 121.236C175.266 120.657 175.098 119.999 175.098 119.262C175.098 118.515 175.262 117.857 175.588 117.288C175.924 116.709 176.382 116.257 176.96 115.93C177.548 115.603 178.216 115.44 178.962 115.44C179.69 115.44 180.339 115.599 180.908 115.916C181.478 116.233 181.926 116.681 182.252 117.26C182.579 117.839 182.742 118.52 182.742 119.304C182.742 119.379 182.738 119.463 182.728 119.556C182.728 119.649 182.724 119.738 182.714 119.822H176.484V118.66H181.79L181.104 119.024C181.114 118.595 181.025 118.217 180.838 117.89C180.652 117.563 180.395 117.307 180.068 117.12C179.751 116.933 179.382 116.84 178.962 116.84C178.533 116.84 178.155 116.933 177.828 117.12C177.511 117.307 177.259 117.568 177.072 117.904C176.895 118.231 176.806 118.618 176.806 119.066V119.346C176.806 119.794 176.909 120.191 177.114 120.536C177.32 120.881 177.609 121.147 177.982 121.334C178.356 121.521 178.785 121.614 179.27 121.614C179.69 121.614 180.068 121.549 180.404 121.418C180.74 121.287 181.039 121.082 181.3 120.802L182.238 121.88C181.902 122.272 181.478 122.575 180.964 122.79C180.46 122.995 179.882 123.098 179.228 123.098ZM186.733 123.098C186.108 123.098 185.506 123.019 184.927 122.86C184.358 122.692 183.905 122.491 183.569 122.258L184.241 120.928C184.577 121.143 184.979 121.32 185.445 121.46C185.912 121.6 186.379 121.67 186.845 121.67C187.396 121.67 187.793 121.595 188.035 121.446C188.287 121.297 188.413 121.096 188.413 120.844C188.413 120.639 188.329 120.485 188.161 120.382C187.993 120.27 187.774 120.186 187.503 120.13C187.233 120.074 186.929 120.023 186.593 119.976C186.267 119.929 185.935 119.869 185.599 119.794C185.273 119.71 184.974 119.593 184.703 119.444C184.433 119.285 184.213 119.075 184.045 118.814C183.877 118.553 183.793 118.207 183.793 117.778C183.793 117.302 183.929 116.891 184.199 116.546C184.47 116.191 184.848 115.921 185.333 115.734C185.828 115.538 186.411 115.44 187.083 115.44C187.587 115.44 188.096 115.496 188.609 115.608C189.123 115.72 189.547 115.879 189.883 116.084L189.211 117.414C188.857 117.199 188.497 117.055 188.133 116.98C187.779 116.896 187.424 116.854 187.069 116.854C186.537 116.854 186.141 116.933 185.879 117.092C185.627 117.251 185.501 117.451 185.501 117.694C185.501 117.918 185.585 118.086 185.753 118.198C185.921 118.31 186.141 118.399 186.411 118.464C186.682 118.529 186.981 118.585 187.307 118.632C187.643 118.669 187.975 118.73 188.301 118.814C188.628 118.898 188.927 119.015 189.197 119.164C189.477 119.304 189.701 119.505 189.869 119.766C190.037 120.027 190.121 120.368 190.121 120.788C190.121 121.255 189.981 121.661 189.701 122.006C189.431 122.351 189.043 122.622 188.539 122.818C188.035 123.005 187.433 123.098 186.733 123.098ZM191.628 123V115.524H193.378V123H191.628ZM192.51 114.292C192.184 114.292 191.913 114.189 191.698 113.984C191.493 113.779 191.39 113.531 191.39 113.242C191.39 112.943 191.493 112.696 191.698 112.5C191.913 112.295 192.184 112.192 192.51 112.192C192.837 112.192 193.103 112.29 193.308 112.486C193.523 112.673 193.63 112.911 193.63 113.2C193.63 113.508 193.528 113.769 193.322 113.984C193.117 114.189 192.846 114.292 192.51 114.292ZM199.063 125.814C198.373 125.814 197.696 125.721 197.033 125.534C196.38 125.357 195.843 125.095 195.423 124.75L196.207 123.434C196.534 123.705 196.945 123.919 197.439 124.078C197.943 124.246 198.452 124.33 198.965 124.33C199.787 124.33 200.389 124.139 200.771 123.756C201.154 123.383 201.345 122.818 201.345 122.062V120.732L201.485 119.038L201.429 117.344V115.524H203.095V121.866C203.095 123.219 202.75 124.213 202.059 124.848C201.369 125.492 200.37 125.814 199.063 125.814ZM198.839 122.664C198.13 122.664 197.486 122.515 196.907 122.216C196.338 121.908 195.885 121.483 195.549 120.942C195.223 120.401 195.059 119.766 195.059 119.038C195.059 118.319 195.223 117.689 195.549 117.148C195.885 116.607 196.338 116.187 196.907 115.888C197.486 115.589 198.13 115.44 198.839 115.44C199.474 115.44 200.043 115.566 200.547 115.818C201.051 116.07 201.453 116.462 201.751 116.994C202.059 117.526 202.213 118.207 202.213 119.038C202.213 119.869 202.059 120.555 201.751 121.096C201.453 121.628 201.051 122.025 200.547 122.286C200.043 122.538 199.474 122.664 198.839 122.664ZM199.105 121.18C199.544 121.18 199.936 121.091 200.281 120.914C200.627 120.727 200.893 120.475 201.079 120.158C201.275 119.831 201.373 119.458 201.373 119.038C201.373 118.618 201.275 118.249 201.079 117.932C200.893 117.605 200.627 117.358 200.281 117.19C199.936 117.013 199.544 116.924 199.105 116.924C198.667 116.924 198.27 117.013 197.915 117.19C197.57 117.358 197.299 117.605 197.103 117.932C196.917 118.249 196.823 118.618 196.823 119.038C196.823 119.458 196.917 119.831 197.103 120.158C197.299 120.475 197.57 120.727 197.915 120.914C198.27 121.091 198.667 121.18 199.105 121.18ZM209.638 115.44C210.235 115.44 210.767 115.557 211.234 115.79C211.71 116.023 212.083 116.383 212.354 116.868C212.625 117.344 212.76 117.96 212.76 118.716V123H211.01V118.94C211.01 118.277 210.851 117.783 210.534 117.456C210.226 117.129 209.792 116.966 209.232 116.966C208.821 116.966 208.457 117.05 208.14 117.218C207.823 117.386 207.575 117.638 207.398 117.974C207.23 118.301 207.146 118.716 207.146 119.22V123H205.396V115.524H207.062V117.54L206.768 116.924C207.029 116.448 207.407 116.084 207.902 115.832C208.406 115.571 208.985 115.44 209.638 115.44Z"
        fill="#1A1A1A" />
    <path
        d="M244.316 123V113.2H248.6C249.664 113.2 250.597 113.405 251.4 113.816C252.203 114.227 252.828 114.796 253.276 115.524C253.724 116.252 253.948 117.111 253.948 118.1C253.948 119.08 253.724 119.939 253.276 120.676C252.828 121.404 252.203 121.973 251.4 122.384C250.597 122.795 249.664 123 248.6 123H244.316ZM246.136 121.46H248.516C249.253 121.46 249.888 121.32 250.42 121.04C250.961 120.76 251.377 120.368 251.666 119.864C251.965 119.36 252.114 118.772 252.114 118.1C252.114 117.419 251.965 116.831 251.666 116.336C251.377 115.832 250.961 115.44 250.42 115.16C249.888 114.88 249.253 114.74 248.516 114.74H246.136V121.46ZM259.228 123.098C258.398 123.098 257.67 122.935 257.044 122.608C256.428 122.272 255.948 121.815 255.602 121.236C255.266 120.657 255.098 119.999 255.098 119.262C255.098 118.515 255.262 117.857 255.588 117.288C255.924 116.709 256.382 116.257 256.96 115.93C257.548 115.603 258.216 115.44 258.962 115.44C259.69 115.44 260.339 115.599 260.908 115.916C261.478 116.233 261.926 116.681 262.252 117.26C262.579 117.839 262.742 118.52 262.742 119.304C262.742 119.379 262.738 119.463 262.728 119.556C262.728 119.649 262.724 119.738 262.714 119.822H256.484V118.66H261.79L261.104 119.024C261.114 118.595 261.025 118.217 260.838 117.89C260.652 117.563 260.395 117.307 260.068 117.12C259.751 116.933 259.382 116.84 258.962 116.84C258.533 116.84 258.155 116.933 257.828 117.12C257.511 117.307 257.259 117.568 257.072 117.904C256.895 118.231 256.806 118.618 256.806 119.066V119.346C256.806 119.794 256.909 120.191 257.114 120.536C257.32 120.881 257.609 121.147 257.982 121.334C258.356 121.521 258.785 121.614 259.27 121.614C259.69 121.614 260.068 121.549 260.404 121.418C260.74 121.287 261.039 121.082 261.3 120.802L262.238 121.88C261.902 122.272 261.478 122.575 260.964 122.79C260.46 122.995 259.882 123.098 259.228 123.098ZM257.744 114.502L259.634 112.584H261.692L259.256 114.502H257.744ZM266.275 123L263.069 115.524H264.889L267.647 122.118H266.751L269.607 115.524H271.287L268.081 123H266.275ZM275.689 123.098C274.859 123.098 274.131 122.935 273.505 122.608C272.889 122.272 272.409 121.815 272.063 121.236C271.727 120.657 271.559 119.999 271.559 119.262C271.559 118.515 271.723 117.857 272.049 117.288C272.385 116.709 272.843 116.257 273.421 115.93C274.009 115.603 274.677 115.44 275.423 115.44C276.151 115.44 276.8 115.599 277.369 115.916C277.939 116.233 278.387 116.681 278.713 117.26C279.04 117.839 279.203 118.52 279.203 119.304C279.203 119.379 279.199 119.463 279.189 119.556C279.189 119.649 279.185 119.738 279.175 119.822H272.945V118.66H278.251L277.565 119.024C277.575 118.595 277.486 118.217 277.299 117.89C277.113 117.563 276.856 117.307 276.529 117.12C276.212 116.933 275.843 116.84 275.423 116.84C274.994 116.84 274.616 116.933 274.289 117.12C273.972 117.307 273.72 117.568 273.533 117.904C273.356 118.231 273.267 118.618 273.267 119.066V119.346C273.267 119.794 273.37 120.191 273.575 120.536C273.781 120.881 274.07 121.147 274.443 121.334C274.817 121.521 275.246 121.614 275.731 121.614C276.151 121.614 276.529 121.549 276.865 121.418C277.201 121.287 277.5 121.082 277.761 120.802L278.699 121.88C278.363 122.272 277.939 122.575 277.425 122.79C276.921 122.995 276.343 123.098 275.689 123.098ZM280.884 123V112.612H282.634V123H280.884ZM288.291 123.098C287.526 123.098 286.845 122.935 286.247 122.608C285.65 122.272 285.179 121.815 284.833 121.236C284.488 120.657 284.315 119.999 284.315 119.262C284.315 118.515 284.488 117.857 284.833 117.288C285.179 116.709 285.65 116.257 286.247 115.93C286.845 115.603 287.526 115.44 288.291 115.44C289.066 115.44 289.752 115.603 290.349 115.93C290.956 116.257 291.427 116.705 291.763 117.274C292.109 117.843 292.281 118.506 292.281 119.262C292.281 119.999 292.109 120.657 291.763 121.236C291.427 121.815 290.956 122.272 290.349 122.608C289.752 122.935 289.066 123.098 288.291 123.098ZM288.291 121.6C288.721 121.6 289.103 121.507 289.439 121.32C289.775 121.133 290.037 120.863 290.223 120.508C290.419 120.153 290.517 119.738 290.517 119.262C290.517 118.777 290.419 118.361 290.223 118.016C290.037 117.661 289.775 117.391 289.439 117.204C289.103 117.017 288.725 116.924 288.305 116.924C287.876 116.924 287.493 117.017 287.157 117.204C286.831 117.391 286.569 117.661 286.373 118.016C286.177 118.361 286.079 118.777 286.079 119.262C286.079 119.738 286.177 120.153 286.373 120.508C286.569 120.863 286.831 121.133 287.157 121.32C287.493 121.507 287.871 121.6 288.291 121.6ZM298.099 123.098C297.492 123.098 296.937 122.958 296.433 122.678C295.938 122.398 295.541 121.978 295.243 121.418C294.953 120.849 294.809 120.13 294.809 119.262C294.809 118.385 294.949 117.666 295.229 117.106C295.518 116.546 295.91 116.131 296.405 115.86C296.899 115.58 297.464 115.44 298.099 115.44C298.836 115.44 299.485 115.599 300.045 115.916C300.614 116.233 301.062 116.677 301.389 117.246C301.725 117.815 301.893 118.487 301.893 119.262C301.893 120.037 301.725 120.713 301.389 121.292C301.062 121.861 300.614 122.305 300.045 122.622C299.485 122.939 298.836 123.098 298.099 123.098ZM293.955 125.716V115.524H295.621V117.288L295.565 119.276L295.705 121.264V125.716H293.955ZM297.903 121.6C298.323 121.6 298.696 121.507 299.023 121.32C299.359 121.133 299.625 120.863 299.821 120.508C300.017 120.153 300.115 119.738 300.115 119.262C300.115 118.777 300.017 118.361 299.821 118.016C299.625 117.661 299.359 117.391 299.023 117.204C298.696 117.017 298.323 116.924 297.903 116.924C297.483 116.924 297.105 117.017 296.769 117.204C296.433 117.391 296.167 117.661 295.971 118.016C295.775 118.361 295.677 118.777 295.677 119.262C295.677 119.738 295.775 120.153 295.971 120.508C296.167 120.863 296.433 121.133 296.769 121.32C297.105 121.507 297.483 121.6 297.903 121.6ZM307.696 123.098C307.09 123.098 306.534 122.958 306.03 122.678C305.536 122.398 305.139 121.978 304.84 121.418C304.551 120.849 304.406 120.13 304.406 119.262C304.406 118.385 304.546 117.666 304.826 117.106C305.116 116.546 305.508 116.131 306.002 115.86C306.497 115.58 307.062 115.44 307.696 115.44C308.434 115.44 309.082 115.599 309.642 115.916C310.212 116.233 310.66 116.677 310.986 117.246C311.322 117.815 311.49 118.487 311.49 119.262C311.49 120.037 311.322 120.713 310.986 121.292C310.66 121.861 310.212 122.305 309.642 122.622C309.082 122.939 308.434 123.098 307.696 123.098ZM303.552 125.716V115.524H305.218V117.288L305.162 119.276L305.302 121.264V125.716H303.552ZM307.5 121.6C307.92 121.6 308.294 121.507 308.62 121.32C308.956 121.133 309.222 120.863 309.418 120.508C309.614 120.153 309.712 119.738 309.712 119.262C309.712 118.777 309.614 118.361 309.418 118.016C309.222 117.661 308.956 117.391 308.62 117.204C308.294 117.017 307.92 116.924 307.5 116.924C307.08 116.924 306.702 117.017 306.366 117.204C306.03 117.391 305.764 117.661 305.568 118.016C305.372 118.361 305.274 118.777 305.274 119.262C305.274 119.738 305.372 120.153 305.568 120.508C305.764 120.863 306.03 121.133 306.366 121.32C306.702 121.507 307.08 121.6 307.5 121.6ZM316.664 123.098C315.833 123.098 315.105 122.935 314.48 122.608C313.864 122.272 313.383 121.815 313.038 121.236C312.702 120.657 312.534 119.999 312.534 119.262C312.534 118.515 312.697 117.857 313.024 117.288C313.36 116.709 313.817 116.257 314.396 115.93C314.984 115.603 315.651 115.44 316.398 115.44C317.126 115.44 317.775 115.599 318.344 115.916C318.913 116.233 319.361 116.681 319.688 117.26C320.015 117.839 320.178 118.52 320.178 119.304C320.178 119.379 320.173 119.463 320.164 119.556C320.164 119.649 320.159 119.738 320.15 119.822H313.92V118.66H319.226L318.54 119.024C318.549 118.595 318.461 118.217 318.274 117.89C318.087 117.563 317.831 117.307 317.504 117.12C317.187 116.933 316.818 116.84 316.398 116.84C315.969 116.84 315.591 116.933 315.264 117.12C314.947 117.307 314.695 117.568 314.508 117.904C314.331 118.231 314.242 118.618 314.242 119.066V119.346C314.242 119.794 314.345 120.191 314.55 120.536C314.755 120.881 315.045 121.147 315.418 121.334C315.791 121.521 316.221 121.614 316.706 121.614C317.126 121.614 317.504 121.549 317.84 121.418C318.176 121.287 318.475 121.082 318.736 120.802L319.674 121.88C319.338 122.272 318.913 122.575 318.4 122.79C317.896 122.995 317.317 123.098 316.664 123.098ZM331.295 115.44C331.892 115.44 332.42 115.557 332.877 115.79C333.344 116.023 333.708 116.383 333.969 116.868C334.23 117.344 334.361 117.96 334.361 118.716V123H332.611V118.94C332.611 118.277 332.466 117.783 332.177 117.456C331.888 117.129 331.472 116.966 330.931 116.966C330.548 116.966 330.208 117.05 329.909 117.218C329.62 117.386 329.391 117.633 329.223 117.96C329.064 118.287 328.985 118.702 328.985 119.206V123H327.235V118.94C327.235 118.277 327.09 117.783 326.801 117.456C326.512 117.129 326.096 116.966 325.555 116.966C325.172 116.966 324.832 117.05 324.533 117.218C324.244 117.386 324.015 117.633 323.847 117.96C323.688 118.287 323.609 118.702 323.609 119.206V123H321.859V115.524H323.525V117.512L323.231 116.924C323.483 116.439 323.847 116.07 324.323 115.818C324.808 115.566 325.359 115.44 325.975 115.44C326.675 115.44 327.282 115.613 327.795 115.958C328.318 116.303 328.663 116.826 328.831 117.526L328.145 117.288C328.388 116.728 328.789 116.28 329.349 115.944C329.909 115.608 330.558 115.44 331.295 115.44ZM340.125 123.098C339.294 123.098 338.566 122.935 337.941 122.608C337.325 122.272 336.844 121.815 336.499 121.236C336.163 120.657 335.995 119.999 335.995 119.262C335.995 118.515 336.158 117.857 336.485 117.288C336.821 116.709 337.278 116.257 337.857 115.93C338.445 115.603 339.112 115.44 339.859 115.44C340.587 115.44 341.236 115.599 341.805 115.916C342.374 116.233 342.822 116.681 343.149 117.26C343.476 117.839 343.639 118.52 343.639 119.304C343.639 119.379 343.634 119.463 343.625 119.556C343.625 119.649 343.62 119.738 343.611 119.822H337.381V118.66H342.687L342.001 119.024C342.01 118.595 341.922 118.217 341.735 117.89C341.548 117.563 341.292 117.307 340.965 117.12C340.648 116.933 340.279 116.84 339.859 116.84C339.43 116.84 339.052 116.933 338.725 117.12C338.408 117.307 338.156 117.568 337.969 117.904C337.792 118.231 337.703 118.618 337.703 119.066V119.346C337.703 119.794 337.806 120.191 338.011 120.536C338.216 120.881 338.506 121.147 338.879 121.334C339.252 121.521 339.682 121.614 340.167 121.614C340.587 121.614 340.965 121.549 341.301 121.418C341.637 121.287 341.936 121.082 342.197 120.802L343.135 121.88C342.799 122.272 342.374 122.575 341.861 122.79C341.357 122.995 340.778 123.098 340.125 123.098ZM349.562 115.44C350.159 115.44 350.691 115.557 351.158 115.79C351.634 116.023 352.007 116.383 352.278 116.868C352.549 117.344 352.684 117.96 352.684 118.716V123H350.934V118.94C350.934 118.277 350.775 117.783 350.458 117.456C350.15 117.129 349.716 116.966 349.156 116.966C348.745 116.966 348.381 117.05 348.064 117.218C347.747 117.386 347.499 117.638 347.322 117.974C347.154 118.301 347.07 118.716 347.07 119.22V123H345.32V115.524H346.986V117.54L346.692 116.924C346.953 116.448 347.331 116.084 347.826 115.832C348.33 115.571 348.909 115.44 349.562 115.44ZM357.718 123.098C356.897 123.098 356.262 122.888 355.814 122.468C355.366 122.039 355.142 121.409 355.142 120.578V113.872H356.892V120.536C356.892 120.891 356.981 121.166 357.158 121.362C357.345 121.558 357.601 121.656 357.928 121.656C358.32 121.656 358.647 121.553 358.908 121.348L359.398 122.594C359.193 122.762 358.941 122.888 358.642 122.972C358.343 123.056 358.035 123.098 357.718 123.098ZM353.91 116.98V115.58H358.894V116.98H353.91Z"
        fill="#1A1A1A" />
    <path
        d="M375.316 123V113.2H377.136V121.46H382.26V123H375.316ZM388.149 123V121.488L388.051 121.166V118.52C388.051 118.007 387.897 117.61 387.589 117.33C387.281 117.041 386.814 116.896 386.189 116.896C385.769 116.896 385.353 116.961 384.943 117.092C384.541 117.223 384.201 117.405 383.921 117.638L383.235 116.364C383.636 116.056 384.112 115.827 384.663 115.678C385.223 115.519 385.801 115.44 386.399 115.44C387.481 115.44 388.317 115.701 388.905 116.224C389.502 116.737 389.801 117.535 389.801 118.618V123H388.149ZM385.797 123.098C385.237 123.098 384.747 123.005 384.327 122.818C383.907 122.622 383.58 122.356 383.347 122.02C383.123 121.675 383.011 121.287 383.011 120.858C383.011 120.438 383.109 120.06 383.305 119.724C383.51 119.388 383.841 119.122 384.299 118.926C384.756 118.73 385.363 118.632 386.119 118.632H388.289V119.794H386.245C385.647 119.794 385.246 119.892 385.041 120.088C384.835 120.275 384.733 120.508 384.733 120.788C384.733 121.105 384.859 121.357 385.111 121.544C385.363 121.731 385.713 121.824 386.161 121.824C386.59 121.824 386.973 121.726 387.309 121.53C387.654 121.334 387.901 121.045 388.051 120.662L388.345 121.712C388.177 122.151 387.873 122.491 387.435 122.734C387.005 122.977 386.459 123.098 385.797 123.098ZM396.288 115.44C396.886 115.44 397.418 115.557 397.884 115.79C398.36 116.023 398.734 116.383 399.004 116.868C399.275 117.344 399.41 117.96 399.41 118.716V123H397.66V118.94C397.66 118.277 397.502 117.783 397.184 117.456C396.876 117.129 396.442 116.966 395.882 116.966C395.472 116.966 395.108 117.05 394.79 117.218C394.473 117.386 394.226 117.638 394.048 117.974C393.88 118.301 393.796 118.716 393.796 119.22V123H392.046V115.524H393.712V117.54L393.418 116.924C393.68 116.448 394.058 116.084 394.552 115.832C395.056 115.571 395.635 115.44 396.288 115.44ZM405.074 123.098C404.29 123.098 403.59 122.935 402.974 122.608C402.367 122.272 401.891 121.815 401.546 121.236C401.201 120.657 401.028 119.999 401.028 119.262C401.028 118.515 401.201 117.857 401.546 117.288C401.891 116.709 402.367 116.257 402.974 115.93C403.59 115.603 404.29 115.44 405.074 115.44C405.802 115.44 406.441 115.589 406.992 115.888C407.552 116.177 407.977 116.607 408.266 117.176L406.922 117.96C406.698 117.605 406.423 117.344 406.096 117.176C405.779 117.008 405.433 116.924 405.06 116.924C404.631 116.924 404.243 117.017 403.898 117.204C403.553 117.391 403.282 117.661 403.086 118.016C402.89 118.361 402.792 118.777 402.792 119.262C402.792 119.747 402.89 120.167 403.086 120.522C403.282 120.867 403.553 121.133 403.898 121.32C404.243 121.507 404.631 121.6 405.06 121.6C405.433 121.6 405.779 121.516 406.096 121.348C406.423 121.18 406.698 120.919 406.922 120.564L408.266 121.348C407.977 121.908 407.552 122.342 406.992 122.65C406.441 122.949 405.802 123.098 405.074 123.098ZM413.183 123.098C412.353 123.098 411.625 122.935 410.999 122.608C410.383 122.272 409.903 121.815 409.557 121.236C409.221 120.657 409.053 119.999 409.053 119.262C409.053 118.515 409.217 117.857 409.543 117.288C409.879 116.709 410.337 116.257 410.915 115.93C411.503 115.603 412.171 115.44 412.917 115.44C413.645 115.44 414.294 115.599 414.863 115.916C415.433 116.233 415.881 116.681 416.207 117.26C416.534 117.839 416.697 118.52 416.697 119.304C416.697 119.379 416.693 119.463 416.683 119.556C416.683 119.649 416.679 119.738 416.669 119.822H410.439V118.66H415.745L415.059 119.024C415.069 118.595 414.98 118.217 414.793 117.89C414.607 117.563 414.35 117.307 414.023 117.12C413.706 116.933 413.337 116.84 412.917 116.84C412.488 116.84 412.11 116.933 411.783 117.12C411.466 117.307 411.214 117.568 411.027 117.904C410.85 118.231 410.761 118.618 410.761 119.066V119.346C410.761 119.794 410.864 120.191 411.069 120.536C411.275 120.881 411.564 121.147 411.937 121.334C412.311 121.521 412.74 121.614 413.225 121.614C413.645 121.614 414.023 121.549 414.359 121.418C414.695 121.287 414.994 121.082 415.255 120.802L416.193 121.88C415.857 122.272 415.433 122.575 414.919 122.79C414.415 122.995 413.837 123.098 413.183 123.098ZM427.814 115.44C428.412 115.44 428.939 115.557 429.396 115.79C429.863 116.023 430.227 116.383 430.488 116.868C430.75 117.344 430.88 117.96 430.88 118.716V123H429.13V118.94C429.13 118.277 428.986 117.783 428.696 117.456C428.407 117.129 427.992 116.966 427.45 116.966C427.068 116.966 426.727 117.05 426.428 117.218C426.139 117.386 425.91 117.633 425.742 117.96C425.584 118.287 425.504 118.702 425.504 119.206V123H423.754V118.94C423.754 118.277 423.61 117.783 423.32 117.456C423.031 117.129 422.616 116.966 422.074 116.966C421.692 116.966 421.351 117.05 421.052 117.218C420.763 117.386 420.534 117.633 420.366 117.96C420.208 118.287 420.128 118.702 420.128 119.206V123H418.378V115.524H420.044V117.512L419.75 116.924C420.002 116.439 420.366 116.07 420.842 115.818C421.328 115.566 421.878 115.44 422.494 115.44C423.194 115.44 423.801 115.613 424.314 115.958C424.837 116.303 425.182 116.826 425.35 117.526L424.664 117.288C424.907 116.728 425.308 116.28 425.868 115.944C426.428 115.608 427.077 115.44 427.814 115.44ZM436.644 123.098C435.814 123.098 435.086 122.935 434.46 122.608C433.844 122.272 433.364 121.815 433.018 121.236C432.682 120.657 432.514 119.999 432.514 119.262C432.514 118.515 432.678 117.857 433.004 117.288C433.34 116.709 433.798 116.257 434.376 115.93C434.964 115.603 435.632 115.44 436.378 115.44C437.106 115.44 437.755 115.599 438.324 115.916C438.894 116.233 439.342 116.681 439.668 117.26C439.995 117.839 440.158 118.52 440.158 119.304C440.158 119.379 440.154 119.463 440.144 119.556C440.144 119.649 440.14 119.738 440.13 119.822H433.9V118.66H439.206L438.52 119.024C438.53 118.595 438.441 118.217 438.254 117.89C438.068 117.563 437.811 117.307 437.484 117.12C437.167 116.933 436.798 116.84 436.378 116.84C435.949 116.84 435.571 116.933 435.244 117.12C434.927 117.307 434.675 117.568 434.488 117.904C434.311 118.231 434.222 118.618 434.222 119.066V119.346C434.222 119.794 434.325 120.191 434.53 120.536C434.736 120.881 435.025 121.147 435.398 121.334C435.772 121.521 436.201 121.614 436.686 121.614C437.106 121.614 437.484 121.549 437.82 121.418C438.156 121.287 438.455 121.082 438.716 120.802L439.654 121.88C439.318 122.272 438.894 122.575 438.38 122.79C437.876 122.995 437.298 123.098 436.644 123.098ZM446.081 115.44C446.679 115.44 447.211 115.557 447.677 115.79C448.153 116.023 448.527 116.383 448.797 116.868C449.068 117.344 449.203 117.96 449.203 118.716V123H447.453V118.94C447.453 118.277 447.295 117.783 446.977 117.456C446.669 117.129 446.235 116.966 445.675 116.966C445.265 116.966 444.901 117.05 444.583 117.218C444.266 117.386 444.019 117.638 443.841 117.974C443.673 118.301 443.589 118.716 443.589 119.22V123H441.839V115.524H443.505V117.54L443.211 116.924C443.473 116.448 443.851 116.084 444.345 115.832C444.849 115.571 445.428 115.44 446.081 115.44ZM454.237 123.098C453.416 123.098 452.781 122.888 452.333 122.468C451.885 122.039 451.661 121.409 451.661 120.578V113.872H453.411V120.536C453.411 120.891 453.5 121.166 453.677 121.362C453.864 121.558 454.121 121.656 454.447 121.656C454.839 121.656 455.166 121.553 455.427 121.348L455.917 122.594C455.712 122.762 455.46 122.888 455.161 122.972C454.863 123.056 454.555 123.098 454.237 123.098ZM450.429 116.98V115.58H455.413V116.98H450.429Z"
        fill="#1A1A1A" />
    <path
        d="M481.316 123V113.2H482.814L487.098 120.354H486.314L490.528 113.2H492.026L492.04 123H490.318L490.304 115.902H490.668L487.084 121.88H486.272L482.632 115.902H483.052V123H481.316ZM499.125 123V121.488L499.027 121.166V118.52C499.027 118.007 498.873 117.61 498.565 117.33C498.257 117.041 497.79 116.896 497.165 116.896C496.745 116.896 496.33 116.961 495.919 117.092C495.518 117.223 495.177 117.405 494.897 117.638L494.211 116.364C494.612 116.056 495.088 115.827 495.639 115.678C496.199 115.519 496.778 115.44 497.375 115.44C498.458 115.44 499.293 115.701 499.881 116.224C500.478 116.737 500.777 117.535 500.777 118.618V123H499.125ZM496.773 123.098C496.213 123.098 495.723 123.005 495.303 122.818C494.883 122.622 494.556 122.356 494.323 122.02C494.099 121.675 493.987 121.287 493.987 120.858C493.987 120.438 494.085 120.06 494.281 119.724C494.486 119.388 494.818 119.122 495.275 118.926C495.732 118.73 496.339 118.632 497.095 118.632H499.265V119.794H497.221C496.624 119.794 496.222 119.892 496.017 120.088C495.812 120.275 495.709 120.508 495.709 120.788C495.709 121.105 495.835 121.357 496.087 121.544C496.339 121.731 496.689 121.824 497.137 121.824C497.566 121.824 497.949 121.726 498.285 121.53C498.63 121.334 498.878 121.045 499.027 120.662L499.321 121.712C499.153 122.151 498.85 122.491 498.411 122.734C497.982 122.977 497.436 123.098 496.773 123.098ZM503.023 123V115.524H504.773V123H503.023ZM503.905 114.292C503.578 114.292 503.308 114.189 503.093 113.984C502.888 113.779 502.785 113.531 502.785 113.242C502.785 112.943 502.888 112.696 503.093 112.5C503.308 112.295 503.578 112.192 503.905 112.192C504.232 112.192 504.498 112.29 504.703 112.486C504.918 112.673 505.025 112.911 505.025 113.2C505.025 113.508 504.922 113.769 504.717 113.984C504.512 114.189 504.241 114.292 503.905 114.292ZM511.312 115.44C511.909 115.44 512.441 115.557 512.908 115.79C513.384 116.023 513.757 116.383 514.028 116.868C514.299 117.344 514.434 117.96 514.434 118.716V123H512.684V118.94C512.684 118.277 512.525 117.783 512.208 117.456C511.9 117.129 511.466 116.966 510.906 116.966C510.495 116.966 510.131 117.05 509.814 117.218C509.497 117.386 509.249 117.638 509.072 117.974C508.904 118.301 508.82 118.716 508.82 119.22V123H507.07V115.524H508.736V117.54L508.442 116.924C508.703 116.448 509.081 116.084 509.576 115.832C510.08 115.571 510.659 115.44 511.312 115.44ZM519.468 123.098C518.647 123.098 518.012 122.888 517.564 122.468C517.116 122.039 516.892 121.409 516.892 120.578V113.872H518.642V120.536C518.642 120.891 518.731 121.166 518.908 121.362C519.095 121.558 519.351 121.656 519.678 121.656C520.07 121.656 520.397 121.553 520.658 121.348L521.148 122.594C520.943 122.762 520.691 122.888 520.392 122.972C520.093 123.056 519.785 123.098 519.468 123.098ZM515.66 116.98V115.58H520.644V116.98H515.66ZM525.855 123.098C525.025 123.098 524.297 122.935 523.671 122.608C523.055 122.272 522.575 121.815 522.229 121.236C521.893 120.657 521.725 119.999 521.725 119.262C521.725 118.515 521.889 117.857 522.215 117.288C522.551 116.709 523.009 116.257 523.587 115.93C524.175 115.603 524.843 115.44 525.589 115.44C526.317 115.44 526.966 115.599 527.535 115.916C528.105 116.233 528.553 116.681 528.879 117.26C529.206 117.839 529.369 118.52 529.369 119.304C529.369 119.379 529.365 119.463 529.355 119.556C529.355 119.649 529.351 119.738 529.341 119.822H523.111V118.66H528.417L527.731 119.024C527.741 118.595 527.652 118.217 527.465 117.89C527.279 117.563 527.022 117.307 526.695 117.12C526.378 116.933 526.009 116.84 525.589 116.84C525.16 116.84 524.782 116.933 524.455 117.12C524.138 117.307 523.886 117.568 523.699 117.904C523.522 118.231 523.433 118.618 523.433 119.066V119.346C523.433 119.794 523.536 120.191 523.741 120.536C523.947 120.881 524.236 121.147 524.609 121.334C524.983 121.521 525.412 121.614 525.897 121.614C526.317 121.614 526.695 121.549 527.031 121.418C527.367 121.287 527.666 121.082 527.927 120.802L528.865 121.88C528.529 122.272 528.105 122.575 527.591 122.79C527.087 122.995 526.509 123.098 525.855 123.098ZM535.292 115.44C535.89 115.44 536.422 115.557 536.888 115.79C537.364 116.023 537.738 116.383 538.008 116.868C538.279 117.344 538.414 117.96 538.414 118.716V123H536.664V118.94C536.664 118.277 536.506 117.783 536.188 117.456C535.88 117.129 535.446 116.966 534.886 116.966C534.476 116.966 534.112 117.05 533.794 117.218C533.477 117.386 533.23 117.638 533.052 117.974C532.884 118.301 532.8 118.716 532.8 119.22V123H531.05V115.524H532.716V117.54L532.422 116.924C532.684 116.448 533.062 116.084 533.556 115.832C534.06 115.571 534.639 115.44 535.292 115.44ZM545.24 123V121.488L545.142 121.166V118.52C545.142 118.007 544.988 117.61 544.68 117.33C544.372 117.041 543.906 116.896 543.28 116.896C542.86 116.896 542.445 116.961 542.034 117.092C541.633 117.223 541.292 117.405 541.012 117.638L540.326 116.364C540.728 116.056 541.204 115.827 541.754 115.678C542.314 115.519 542.893 115.44 543.49 115.44C544.573 115.44 545.408 115.701 545.996 116.224C546.594 116.737 546.892 117.535 546.892 118.618V123H545.24ZM542.888 123.098C542.328 123.098 541.838 123.005 541.418 122.818C540.998 122.622 540.672 122.356 540.438 122.02C540.214 121.675 540.102 121.287 540.102 120.858C540.102 120.438 540.2 120.06 540.396 119.724C540.602 119.388 540.933 119.122 541.39 118.926C541.848 118.73 542.454 118.632 543.21 118.632H545.38V119.794H543.336C542.739 119.794 542.338 119.892 542.132 120.088C541.927 120.275 541.824 120.508 541.824 120.788C541.824 121.105 541.95 121.357 542.202 121.544C542.454 121.731 542.804 121.824 543.252 121.824C543.682 121.824 544.064 121.726 544.4 121.53C544.746 121.334 544.993 121.045 545.142 120.662L545.436 121.712C545.268 122.151 544.965 122.491 544.526 122.734C544.097 122.977 543.551 123.098 542.888 123.098ZM553.38 115.44C553.978 115.44 554.51 115.557 554.976 115.79C555.452 116.023 555.826 116.383 556.096 116.868C556.367 117.344 556.502 117.96 556.502 118.716V123H554.752V118.94C554.752 118.277 554.594 117.783 554.276 117.456C553.968 117.129 553.534 116.966 552.974 116.966C552.564 116.966 552.2 117.05 551.882 117.218C551.565 117.386 551.318 117.638 551.14 117.974C550.972 118.301 550.888 118.716 550.888 119.22V123H549.138V115.524H550.804V117.54L550.51 116.924C550.772 116.448 551.15 116.084 551.644 115.832C552.148 115.571 552.727 115.44 553.38 115.44ZM562.166 123.098C561.382 123.098 560.682 122.935 560.066 122.608C559.459 122.272 558.983 121.815 558.638 121.236C558.293 120.657 558.12 119.999 558.12 119.262C558.12 118.515 558.293 117.857 558.638 117.288C558.983 116.709 559.459 116.257 560.066 115.93C560.682 115.603 561.382 115.44 562.166 115.44C562.894 115.44 563.533 115.589 564.084 115.888C564.644 116.177 565.069 116.607 565.358 117.176L564.014 117.96C563.79 117.605 563.515 117.344 563.188 117.176C562.871 117.008 562.525 116.924 562.152 116.924C561.723 116.924 561.335 117.017 560.99 117.204C560.645 117.391 560.374 117.661 560.178 118.016C559.982 118.361 559.884 118.777 559.884 119.262C559.884 119.747 559.982 120.167 560.178 120.522C560.374 120.867 560.645 121.133 560.99 121.32C561.335 121.507 561.723 121.6 562.152 121.6C562.525 121.6 562.871 121.516 563.188 121.348C563.515 121.18 563.79 120.919 564.014 120.564L565.358 121.348C565.069 121.908 564.644 122.342 564.084 122.65C563.533 122.949 562.894 123.098 562.166 123.098ZM570.275 123.098C569.445 123.098 568.717 122.935 568.091 122.608C567.475 122.272 566.995 121.815 566.649 121.236C566.313 120.657 566.145 119.999 566.145 119.262C566.145 118.515 566.309 117.857 566.635 117.288C566.971 116.709 567.429 116.257 568.007 115.93C568.595 115.603 569.263 115.44 570.009 115.44C570.737 115.44 571.386 115.599 571.955 115.916C572.525 116.233 572.973 116.681 573.299 117.26C573.626 117.839 573.789 118.52 573.789 119.304C573.789 119.379 573.785 119.463 573.775 119.556C573.775 119.649 573.771 119.738 573.761 119.822H567.531V118.66H572.837L572.151 119.024C572.161 118.595 572.072 118.217 571.885 117.89C571.699 117.563 571.442 117.307 571.115 117.12C570.798 116.933 570.429 116.84 570.009 116.84C569.58 116.84 569.202 116.933 568.875 117.12C568.558 117.307 568.306 117.568 568.119 117.904C567.942 118.231 567.853 118.618 567.853 119.066V119.346C567.853 119.794 567.956 120.191 568.161 120.536C568.367 120.881 568.656 121.147 569.029 121.334C569.403 121.521 569.832 121.614 570.317 121.614C570.737 121.614 571.115 121.549 571.451 121.418C571.787 121.287 572.086 121.082 572.347 120.802L573.285 121.88C572.949 122.272 572.525 122.575 572.011 122.79C571.507 122.995 570.929 123.098 570.275 123.098Z"
        fill="#1A1A1A" />
</svg>